<?xml version="1.0" encoding="UTF-8"?>
<svg xmlns="http://www.w3.org/2000/svg" version="1.1" width="200" height="200" viewBox="0 0 200 200"><rect x="0" y="0" width="200" height="200" fill="#ffffff"/><g transform="scale(5.405)"><g transform="translate(0,0)"><path fill-rule="evenodd" d="M10 0L10 2L11 2L11 0ZM12 0L12 1L13 1L13 2L12 2L12 4L13 4L13 3L14 3L14 4L15 4L15 5L17 5L17 3L20 3L20 4L19 4L19 5L18 5L18 7L17 7L17 6L16 6L16 8L15 8L15 6L14 6L14 8L15 8L15 9L12 9L12 7L13 7L13 5L11 5L11 6L10 6L10 4L11 4L11 3L8 3L8 4L9 4L9 5L8 5L8 7L9 7L9 8L6 8L6 9L5 9L5 8L0 8L0 14L2 14L2 15L3 15L3 18L2 18L2 17L0 17L0 18L1 18L1 19L3 19L3 18L4 18L4 19L7 19L7 18L5 18L5 17L7 17L7 16L9 16L9 17L12 17L12 18L13 18L13 19L12 19L12 21L13 21L13 20L14 20L14 21L15 21L15 23L14 23L14 24L15 24L15 25L12 25L12 23L13 23L13 22L11 22L11 20L8 20L8 21L7 21L7 20L5 20L5 21L4 21L4 20L3 20L3 22L4 22L4 24L5 24L5 21L7 21L7 22L6 22L6 23L7 23L7 22L8 22L8 23L9 23L9 22L8 22L8 21L10 21L10 22L11 22L11 23L10 23L10 24L9 24L9 25L8 25L8 24L6 24L6 25L5 25L5 26L4 26L4 25L3 25L3 26L2 26L2 24L1 24L1 25L0 25L0 29L1 29L1 26L2 26L2 28L4 28L4 29L8 29L8 31L10 31L10 30L11 30L11 32L8 32L8 37L9 37L9 36L10 36L10 35L11 35L11 33L12 33L12 34L13 34L13 35L12 35L12 37L13 37L13 36L14 36L14 37L17 37L17 35L18 35L18 37L19 37L19 36L20 36L20 37L23 37L23 36L22 36L22 35L24 35L24 36L25 36L25 37L26 37L26 36L27 36L27 37L29 37L29 35L27 35L27 34L28 34L28 33L30 33L30 34L31 34L31 35L30 35L30 37L32 37L32 36L33 36L33 35L32 35L32 33L35 33L35 34L36 34L36 35L35 35L35 36L34 36L34 37L37 37L37 36L36 36L36 35L37 35L37 33L35 33L35 31L37 31L37 23L35 23L35 22L37 22L37 20L35 20L35 22L32 22L32 23L34 23L34 24L35 24L35 25L36 25L36 26L32 26L32 27L31 27L31 24L27 24L27 25L26 25L26 26L25 26L25 25L24 25L24 26L25 26L25 27L23 27L23 26L22 26L22 25L23 25L23 24L25 24L25 23L27 23L27 22L29 22L29 23L31 23L31 22L29 22L29 21L30 21L30 20L29 20L29 21L28 21L28 20L27 20L27 19L28 19L28 16L29 16L29 19L31 19L31 20L32 20L32 19L31 19L31 18L32 18L32 17L31 17L31 16L32 16L32 15L34 15L34 16L33 16L33 17L35 17L35 18L33 18L33 20L34 20L34 19L36 19L36 17L37 17L37 16L36 16L36 15L37 15L37 12L36 12L36 11L37 11L37 10L36 10L36 11L35 11L35 10L34 10L34 8L33 8L33 10L30 10L30 8L29 8L29 6L28 6L28 8L26 8L26 9L28 9L28 10L29 10L29 11L28 11L28 12L27 12L27 14L26 14L26 16L25 16L25 15L23 15L23 14L22 14L22 13L21 13L21 12L20 12L20 10L21 10L21 11L22 11L22 10L23 10L23 9L22 9L22 8L25 8L25 6L26 6L26 7L27 7L27 5L28 5L28 4L29 4L29 0L27 0L27 1L25 1L25 2L22 2L22 3L21 3L21 2L20 2L20 1L24 1L24 0L19 0L19 2L18 2L18 1L17 1L17 3L16 3L16 0L15 0L15 1L14 1L14 0ZM8 1L8 2L9 2L9 1ZM14 2L14 3L15 3L15 2ZM25 2L25 4L24 4L24 3L22 3L22 5L21 5L21 4L20 4L20 5L19 5L19 7L20 7L20 6L21 6L21 8L19 8L19 9L21 9L21 8L22 8L22 6L23 6L23 7L24 7L24 6L25 6L25 5L26 5L26 3L28 3L28 2ZM23 4L23 5L24 5L24 4ZM9 6L9 7L10 7L10 6ZM11 6L11 7L12 7L12 6ZM10 8L10 9L11 9L11 11L10 11L10 13L9 13L9 12L7 12L7 11L8 11L8 10L7 10L7 9L6 9L6 10L4 10L4 11L5 11L5 13L4 13L4 12L3 12L3 11L2 11L2 9L1 9L1 13L2 13L2 14L3 14L3 15L4 15L4 17L5 17L5 16L7 16L7 15L8 15L8 13L9 13L9 15L10 15L10 13L11 13L11 14L13 14L13 15L12 15L12 17L15 17L15 19L14 19L14 20L18 20L18 21L17 21L17 22L16 22L16 23L15 23L15 24L16 24L16 25L17 25L17 26L15 26L15 27L14 27L14 28L13 28L13 29L12 29L12 27L13 27L13 26L12 26L12 25L11 25L11 24L10 24L10 25L9 25L9 26L10 26L10 27L9 27L9 28L8 28L8 25L6 25L6 26L5 26L5 27L4 27L4 28L5 28L5 27L6 27L6 28L8 28L8 29L9 29L9 30L10 30L10 29L9 29L9 28L10 28L10 27L11 27L11 30L13 30L13 31L12 31L12 33L15 33L15 32L16 32L16 31L15 31L15 29L14 29L14 28L16 28L16 30L18 30L18 32L17 32L17 34L15 34L15 35L14 35L14 36L16 36L16 35L17 35L17 34L18 34L18 35L19 35L19 34L21 34L21 35L22 35L22 34L23 34L23 33L24 33L24 32L23 32L23 31L25 31L25 34L26 34L26 32L27 32L27 33L28 33L28 30L27 30L27 29L26 29L26 27L25 27L25 30L24 30L24 28L23 28L23 27L22 27L22 26L20 26L20 24L18 24L18 25L17 25L17 24L16 24L16 23L17 23L17 22L19 22L19 23L20 23L20 22L21 22L21 23L22 23L22 24L21 24L21 25L22 25L22 24L23 24L23 23L25 23L25 22L27 22L27 21L26 21L26 19L25 19L25 18L26 18L26 17L27 17L27 16L26 16L26 17L25 17L25 16L23 16L23 15L22 15L22 14L20 14L20 12L19 12L19 10L18 10L18 9L17 9L17 10L16 10L16 9L15 9L15 11L14 11L14 12L13 12L13 13L12 13L12 11L13 11L13 10L12 10L12 9L11 9L11 8ZM28 8L28 9L29 9L29 8ZM31 8L31 9L32 9L32 8ZM35 8L35 9L36 9L36 8ZM6 10L6 11L7 11L7 10ZM17 10L17 11L16 11L16 12L14 12L14 13L18 13L18 12L17 12L17 11L18 11L18 10ZM25 10L25 11L23 11L23 12L24 12L24 13L25 13L25 11L26 11L26 10ZM29 11L29 13L31 13L31 11ZM32 11L32 14L31 14L31 15L29 15L29 16L31 16L31 15L32 15L32 14L34 14L34 15L35 15L35 11L34 11L34 13L33 13L33 11ZM6 12L6 13L5 13L5 14L4 14L4 13L3 13L3 14L4 14L4 15L7 15L7 14L6 14L6 13L7 13L7 12ZM15 14L15 15L14 15L14 16L15 16L15 17L16 17L16 18L17 18L17 19L18 19L18 18L17 18L17 17L18 17L18 16L17 16L17 15L18 15L18 14L17 14L17 15L16 15L16 14ZM0 15L0 16L1 16L1 15ZM15 15L15 16L16 16L16 17L17 17L17 16L16 16L16 15ZM19 15L19 16L21 16L21 17L20 17L20 18L19 18L19 20L21 20L21 19L20 19L20 18L22 18L22 19L23 19L23 20L22 20L22 21L21 21L21 22L22 22L22 23L23 23L23 22L25 22L25 19L23 19L23 18L25 18L25 17L22 17L22 16L21 16L21 15ZM30 17L30 18L31 18L31 17ZM8 18L8 19L10 19L10 18ZM23 20L23 21L22 21L22 22L23 22L23 21L24 21L24 20ZM1 21L1 22L0 22L0 23L1 23L1 22L2 22L2 21ZM32 24L32 25L33 25L33 24ZM10 25L10 26L11 26L11 25ZM18 25L18 26L17 26L17 27L16 27L16 28L17 28L17 27L18 27L18 28L20 28L20 29L21 29L21 31L19 31L19 32L18 32L18 34L19 34L19 32L21 32L21 34L22 34L22 31L23 31L23 28L22 28L22 29L21 29L21 27L20 27L20 26L19 26L19 25ZM28 25L28 26L27 26L27 27L28 27L28 26L29 26L29 25ZM6 26L6 27L7 27L7 26ZM18 26L18 27L19 27L19 26ZM30 27L30 28L31 28L31 27ZM32 27L32 28L33 28L33 29L34 29L34 31L35 31L35 30L36 30L36 29L35 29L35 27ZM29 29L29 32L32 32L32 29ZM25 30L25 31L27 31L27 30ZM30 30L30 31L31 31L31 30ZM14 31L14 32L15 32L15 31ZM9 34L9 35L10 35L10 34ZM25 35L25 36L26 36L26 35ZM31 35L31 36L32 36L32 35ZM0 0L0 7L7 7L7 0ZM1 1L1 6L6 6L6 1ZM2 2L2 5L5 5L5 2ZM30 0L30 7L37 7L37 0ZM31 1L31 6L36 6L36 1ZM32 2L32 5L35 5L35 2ZM0 30L0 37L7 37L7 30ZM1 31L1 36L6 36L6 31ZM2 32L2 35L5 35L5 32Z" fill="#000000"/></g></g></svg>
