<svg xmlns="http://www.w3.org/2000/svg" viewBox="0 0 269.01 161"><defs><style>.cls-1{isolation:isolate;}.cls-2,.cls-6{fill:#e95524;}.cls-3{fill:#b94026;}.cls-4{fill:#992920;}.cls-5{mix-blend-mode:screen;}.cls-6{fill-rule:evenodd;}.cls-7{fill:#fff;}</style></defs><g class="cls-1"><g id="Layer_2" data-name="Layer 2"><g id="Background"><g id="Background-2" data-name="Background"><rect class="cls-2" width="269.01" height="161"/></g></g><g id="Design"><path class="cls-3" d="M141.45,0a134.78,134.78,0,0,0,0,161H269V0Z"/><path class="cls-4" d="M252.16,80.5c0,18.83,6.11,36.52,16.85,51.89V28.61C258.27,44,252.16,61.67,252.16,80.5Z"/><g class="cls-5"><path class="cls-6" d="M203.87,23.51h3.47V20h-3.47Zm0,36.39h3.47V56.44h-3.47Zm0-18.19h3.47V38.24h-3.47Zm20.91,0h3.47V38.24h-3.47Zm0,18.19h3.47V56.44h-3.47Zm0-36.39h3.47V20h-3.47ZM245.7,20v3.47h3.47V20Zm0,21.67h3.47V38.24H245.7Zm0,18.19h3.47V56.44H245.7Z"/></g></g><g id="Logo"><g id="Your_Logo" data-name="Your Logo"><path class="cls-7" d="M27.9,19.84H19.84v8.05H27.9ZM25.68,37.63h6.24V31.38H25.68Zm6.24-13.76v4h4v-4Z"/></g></g></g></g></svg>