<svg xmlns="http://www.w3.org/2000/svg" viewBox="0 0 162 270"><defs><style>.cls-1{fill:#fff;}.cls-2{fill:#6190af;}</style></defs><g id="Layer_2" data-name="Layer 2"><g id="BG"><rect class="cls-1" width="162" height="270"/></g><g id="Design"><polygon class="cls-2" points="60.81 129.47 55.85 129.47 58.33 126.99 60.81 129.47"/><polygon class="cls-2" points="17.38 108.38 38.47 129.47 35.99 129.47 16.14 109.62 15.52 109 16.76 107.76 17.38 108.38"/><polygon class="cls-2" points="55.85 124.51 50.89 129.47 48.41 129.47 53.37 124.51 49.65 120.79 50.89 119.55 55.85 124.51"/><polygon class="cls-2" points="32.27 100.93 31.03 102.17 27.31 98.45 6.21 119.55 9.93 123.27 8.69 124.51 3.73 119.55 27.31 95.97 32.27 100.93"/><polygon class="cls-2" points="48.4 124.51 43.44 129.47 22.34 108.38 27.31 103.41 28.55 104.65 24.82 108.38 43.44 126.99 47.16 123.27 48.4 124.51"/><polygon class="cls-2" points="31.02 129.47 28.54 129.47 16.14 117.06 12.41 120.79 11.17 119.55 16.14 114.58 31.02 129.47"/><polygon class="cls-2" points="13.03 104.03 11.79 105.27 0.36 93.84 0.36 91.36 12.41 103.41 13.03 104.03"/><polygon class="cls-2" points="24.82 93.48 1.24 117.06 0.36 116.18 0.36 113.7 1.24 114.58 11.17 104.65 12.41 103.41 22.34 93.48 18.62 89.76 19.86 88.52 24.82 93.48"/><polygon class="cls-2" points="1.24 69.9 0.36 70.79 0.36 69.02 1.24 69.9"/><polygon class="cls-2" points="17.38 93.48 12.41 98.45 0.36 86.39 0.36 83.91 12.41 95.97 16.14 92.24 17.38 93.48"/><polygon class="cls-2" points="6.21 104.65 1.24 109.62 0 108.38 3.73 104.65 0.36 101.28 0.36 98.8 6.21 104.65"/><polygon class="cls-2" points="0.36 128.59 1.24 129.47 0.36 129.47 0.36 128.59"/><polygon class="cls-2" points="22.03 127.92 20.48 129.47 18 129.47 19.55 127.92 15.83 124.2 17.07 122.96 22.03 127.92"/><polygon class="cls-2" points="0.36 121.14 8.69 129.47 6.2 129.47 0.36 123.63 0.36 121.14"/><polygon class="cls-2" points="14.59 127.92 13.04 129.47 10.55 129.47 13.35 126.68 14.59 127.92"/><polygon class="cls-2" points="54.61 71.14 71.62 88.16 71.62 90.64 52.75 71.77 53.99 70.52 54.61 71.14"/><polygon class="cls-2" points="69.5 108.38 71.62 106.26 71.62 108.74 69.5 110.86 64.54 105.89 65.78 104.65 69.5 108.38"/><polygon class="cls-2" points="69.5 63.7 68.26 64.94 64.54 61.22 43.44 82.31 47.16 86.04 45.92 87.28 40.96 82.31 64.54 58.73 69.5 63.7"/><polygon class="cls-2" points="71.62 80.71 71.62 83.19 59.57 71.15 64.54 66.18 65.78 67.42 62.06 71.15 71.62 80.71"/><polygon class="cls-2" points="71.62 95.6 71.62 98.09 53.37 79.83 49.65 83.56 48.4 82.31 53.37 77.35 71.62 95.6"/><polygon class="cls-2" points="68.26 102.17 71.62 98.81 71.62 101.29 69.5 103.41 68.26 102.17"/><rect class="cls-2" x="35.12" y="34.47" width="1.76" height="38.61" transform="translate(-27.48 41.2) rotate(-45)"/><polygon class="cls-2" points="62.05 56.25 38.48 79.83 33.51 74.87 34.75 73.63 38.48 77.35 59.57 56.25 55.85 52.53 57.09 51.29 62.05 56.25"/><polygon class="cls-2" points="38.48 32.67 37.23 33.91 33.51 30.19 12.41 51.29 16.14 55.01 14.9 56.25 9.93 51.29 33.51 27.71 38.48 32.67"/><polygon class="cls-2" points="54.61 56.25 49.65 61.22 28.55 40.12 33.51 35.16 34.75 36.4 31.03 40.12 49.65 58.73 53.37 55.01 54.61 56.25"/><polygon class="cls-2" points="43.44 67.42 38.48 72.39 37.23 71.14 40.96 67.42 22.34 48.81 18.62 52.53 17.38 51.29 22.34 46.33 43.44 67.42"/><polygon class="cls-2" points="19.24 35.78 18 37.02 17.38 36.4 0.36 19.37 0.36 16.89 18.62 35.16 19.24 35.78"/><polygon class="cls-2" points="31.03 25.23 7.45 48.81 2.49 43.84 3.73 42.6 7.45 46.33 28.55 25.23 24.82 21.5 26.07 20.26 31.03 25.23"/><polygon class="cls-2" points="0.36 0 1.66 0 0.36 1.3 0.36 0"/><polygon class="cls-2" points="7.45 1.65 6.21 2.89 3.32 0 5.8 0 7.45 1.65"/><polygon class="cls-2" points="3.73 5.37 0.36 8.73 0.36 6.26 2.49 4.13 3.73 5.37"/><polygon class="cls-2" points="23.58 25.23 18.62 30.19 0.36 11.93 0.36 9.45 18.62 27.71 22.34 23.99 23.58 25.23"/><polygon class="cls-2" points="12.41 36.4 7.45 41.36 6.21 40.12 9.93 36.4 0.36 26.82 0.36 24.34 12.41 36.4"/><polygon class="cls-2" points="71.62 13.7 71.62 16.18 58.95 3.51 60.19 2.27 71.62 13.7"/><polygon class="cls-2" points="70.74 37.64 71.62 36.76 71.62 38.52 70.74 37.64"/><polygon class="cls-2" points="63.7 0 59.57 4.13 49.65 14.06 53.37 17.78 52.13 19.02 47.16 14.06 61.22 0 63.7 0"/><polygon class="cls-2" points="71.62 6.25 71.62 8.73 65.78 2.89 68.66 0 71.15 0 68.26 2.89 71.62 6.25"/><polygon class="cls-2" points="71.62 21.14 71.62 23.62 59.57 11.58 55.85 15.3 54.61 14.06 59.57 9.09 71.62 21.14"/><polygon class="cls-2" points="53.77 0 56.26 0 44.68 11.58 39.72 6.61 40.96 5.37 44.68 9.09 53.77 0"/><polygon class="cls-2" points="48.82 0 44.68 4.13 43.44 2.89 46.33 0 48.82 0"/><polygon class="cls-2" points="51.51 105.27 71.62 125.39 71.62 127.87 50.27 106.51 49.65 105.89 50.89 104.65 51.51 105.27"/><polygon class="cls-2" points="66.4 97.83 65.16 99.07 61.44 95.34 40.34 116.44 44.06 120.17 42.82 121.41 37.85 116.44 61.44 92.86 66.4 97.83"/><polygon class="cls-2" points="71.62 117.94 71.62 120.42 56.47 105.27 61.43 100.31 62.68 101.55 58.95 105.27 71.62 117.94"/><polygon class="cls-2" points="68.25 129.47 65.77 129.47 50.27 113.96 46.54 117.68 45.3 116.44 50.27 111.48 68.25 129.47"/><rect class="cls-2" x="32.32" y="68.9" width="1.76" height="38.61" transform="translate(-52.65 49.31) rotate(-45)"/><polygon class="cls-2" points="59.26 90.69 35.68 114.27 30.72 109.31 31.96 108.07 35.68 111.79 56.78 90.69 53.06 86.97 54.3 85.73 59.26 90.69"/><polygon class="cls-2" points="35.68 67.11 34.44 68.35 30.72 64.63 9.62 85.73 13.35 89.45 12.1 90.69 7.14 85.73 30.72 62.15 35.68 67.11"/><polygon class="cls-2" points="51.82 90.69 46.85 95.66 25.75 74.56 30.72 69.59 31.96 70.83 28.24 74.56 46.85 93.17 50.58 89.45 51.82 90.69"/><polygon class="cls-2" points="40.65 101.86 35.68 106.83 34.44 105.58 38.17 101.86 19.55 83.25 15.83 86.97 14.59 85.73 19.55 80.76 40.65 101.86"/><polygon class="cls-2" points="16.45 70.21 15.21 71.46 14.59 70.84 0.36 56.61 0.36 54.13 15.83 69.59 16.45 70.21"/><polygon class="cls-2" points="28.24 59.67 4.66 83.25 0.36 78.95 0.36 77.61 0.93 77.04 4.66 80.76 14.59 70.84 15.83 69.59 25.76 59.67 22.03 55.94 23.27 54.7 28.24 59.67"/><polygon class="cls-2" points="4.66 36.09 3.42 37.33 0.36 34.27 0.36 31.79 4.66 36.09"/><polygon class="cls-2" points="0.93 39.81 0.36 40.38 0.36 39.24 0.93 39.81"/><polygon class="cls-2" points="20.79 59.67 15.83 64.63 0.36 49.16 0.36 46.68 15.83 62.15 19.55 58.42 20.79 59.67"/><polygon class="cls-2" points="9.62 70.84 4.66 75.8 3.42 74.56 7.14 70.84 0.36 64.06 0.36 61.58 9.62 70.84"/><polygon class="cls-2" points="71.62 50.93 71.62 53.41 56.78 38.57 56.16 37.95 57.4 36.71 71.62 50.93"/><polygon class="cls-2" points="69.19 70.84 71.62 73.27 71.62 75.75 67.95 72.08 69.19 70.84"/><polygon class="cls-2" points="71.62 28.59 71.62 31.07 67.95 27.4 58.02 37.33 56.78 38.57 46.85 48.5 50.58 52.22 49.33 53.46 44.37 48.5 67.95 24.92 71.62 28.59"/><polygon class="cls-2" points="71.62 43.48 71.62 45.96 62.99 37.33 67.95 32.36 69.19 33.6 65.47 37.33 71.62 43.48"/><polygon class="cls-2" points="71.62 58.37 71.62 60.85 56.78 46.01 53.06 49.74 51.82 48.5 56.78 43.53 71.62 58.37"/><rect class="cls-2" x="38.53" y="0.65" width="1.76" height="38.61" transform="translate(-2.57 33.71) rotate(-45)"/><polygon class="cls-2" points="65.47 22.43 41.89 46.02 36.92 41.05 38.17 39.81 41.89 43.53 62.99 22.43 59.26 18.71 60.5 17.47 65.47 22.43"/><polygon class="cls-2" points="30.81 0 33.29 0 27 6.3 25.75 7.54 15.83 17.47 19.55 21.19 18.31 22.44 13.35 17.47 30.81 0"/><polygon class="cls-2" points="58.02 22.43 53.06 27.4 31.96 6.3 36.92 1.34 38.17 2.58 34.44 6.3 53.06 24.92 56.78 21.19 58.02 22.43"/><polygon class="cls-2" points="46.85 33.6 41.89 38.57 40.65 37.33 44.37 33.6 25.75 14.99 22.03 18.71 20.79 17.47 25.75 12.51 46.85 33.6"/><polygon class="cls-2" points="22.96 2.27 21.72 3.51 21.1 2.89 18.21 0 20.69 0 22.34 1.65 22.96 2.27"/><polygon class="cls-2" points="26.47 0 11.17 15.3 6.21 10.34 7.45 9.09 11.17 12.82 23.99 0 26.47 0"/><polygon class="cls-2" points="16.14 2.89 11.17 7.85 9.93 6.61 13.66 2.89 10.77 0 13.25 0 16.14 2.89"/></g></g></svg>
