<svg xmlns="http://www.w3.org/2000/svg" viewBox="0 0 38.87 50"><defs><style>.cls-1{fill:#2a373e;}.cls-2{fill:#bdbbba;}.cls-3{fill:#999797;}.cls-4{fill:#94c3cb;}.cls-5{fill:#be5e50;}.cls-6{fill:#eff0ef;}</style></defs><g id="Layer_2" data-name="Layer 2"><g id="Layer_1-2" data-name="Layer 1"><path class="cls-1" d="M36.44,14.73v1h-1v-1ZM36,10.82l-.52-.5v.49H36ZM31.79,7.4v1h1V7.65l-.23-.23Zm0,5.87h1v-1h-1Zm3.65,6.35v1h1v-1Zm-3.67-1.47h1v-1h-1Zm3.67,6.36v1h1v-1ZM31.79,23h1V22h-1Zm3.65,6.4v1h1v-1Zm-3.67-1.47h1V27h-1Zm3.67,6.36v1h1v-1Zm-3.67-1.47h1v-1h-1Zm3.67,6.37v1h1v-1Zm-3.67-1.47h1v-1h-1Zm3.67,6.36v1h1v-1Zm-3.67-1.47h1v-1h-1Zm0,4.89h1v-1h-1ZM28.12,4.94v1h1v-1ZM24.44,3.47h1v-1h-1Zm3.67,6.36v1h1v-1ZM24.44,8.37h1v-1h-1Zm3.67,6.36v1h1v-1Zm-3.67-1.47h1v-1h-1Zm3.67,6.36v1h1v-1Zm-3.67-1.47h1v-1h-1Zm3.67,6.36v1h1v-1ZM24.44,23h1V22h-1Zm3.67,6.36v1h1v-1Zm-3.67-1.42h1V27h-1Zm3.67,6.36v1h1v-1Zm-3.67-1.47h1v-1h-1Zm3.67,6.36v1h1v-1Zm-3.67-1.47h1v-1h-1Zm3.67,6.36v1h1v-1Zm-3.67-1.47h1v-1h-1Zm0,4.89h1v-1h-1ZM20.79,4.94v1h1v-1ZM17.12,3.47h1v-1h-1Zm3.67,6.36v1h1v-1ZM17.12,8.36h1v-1h-1Zm3.67,6.36v1h1v-1Zm-3.67-1.47h1v-1h-1Zm3.67,6.36v1h1v-1Zm-3.67-1.47h1v-1h-1Zm3.67,6.36v1h1v-1ZM17.12,23h1V22h-1Zm3.67,6.36v1h1v-1Zm-3.67-1.47h1V27h-1Zm3.67,6.36v1h1v-1Zm-3.67-1.47h1v-1h-1Zm3.67,6.36v1h1v-1Zm-3.67-1.47h1v-1h-1ZM20.79,44v1h1V44Zm-3.67-1.47h1v-1h-1Zm0,4.89h1v-1h-1ZM13.44,4.94v1h1v-1ZM9.77,3.47h1v-1h-1Zm3.67,6.36v1h1v-1ZM9.77,8.36h1v-1h-1Zm3.67,6.37v1h1v-1ZM9.77,13.26h1v-1h-1Zm3.67,6.36v1h1v-1ZM9.77,18.15h1v-1h-1Zm3.67,6.36v1h1v-1ZM9.78,23h1V22h-1Zm3.66,6.4v1h1v-1ZM9.77,27.93h1V27h-1Zm3.67,6.36v1h1v-1ZM9.77,32.82h1v-1h-1Zm3.67,6.37v1h1v-1ZM9.77,37.72h1v-1h-1Zm3.67,6.36v1h1v-1ZM9.77,42.61h1v-1h-1Zm0,4.89h1v-1h-1ZM6.11,4.94v1h1v-1ZM2.44,3.47h1v-1h-1ZM6.11,9.83v1h1v-1ZM2.44,8.37h1v-1h-1Zm3.67,6.36v1h1v-1ZM2.44,13.26h1v-1h-1Zm3.67,6.36v1h1v-1ZM2.44,18.15h1v-1h-1Zm3.67,6.36v1h1v-1ZM2.44,23h1V22h-1Zm3.67,6.36v1h1v-1ZM2.44,27.94h1V27h-1ZM6.11,34.3v1h1v-1ZM2.44,32.83h1v-1h-1Zm3.67,6.36v1h1v-1ZM2.44,37.72h1v-1h-1Zm3.67,6.36v1h1v-1ZM2.44,42.61h1v-1h-1Zm0,4.89h1v-1h-1Z"/><path class="cls-2" d="M1.87,33.79C5.3,31.22,15.16,22.86,15.16,22.86L25,34.22Z"/><path class="cls-3" d="M29.3,17.07l-9,9.86,5.57,7.29h12V27.36Z"/><path class="cls-4" d="M1,34.21H37.87V49H1Z"/><path class="cls-5" d="M27.58,2.19v9.09h9.09a.44.44,0,0,0,.44-.44.44.44,0,0,0-.13-.31L28.33,1.88a.44.44,0,0,0-.62,0A.4.4,0,0,0,27.58,2.19Z"/><circle class="cls-6" cx="12.44" cy="11" r="3.5"/><path class="cls-1" d="M11.66,38.52c1.81,0,2.85.89,2.85,2.46s-1,2.57-2.85,2.57H10v2.17H8.79v-7.2ZM10,42.46h1.6c1.11,0,1.74-.47,1.74-1.45s-.63-1.4-1.74-1.4H10Z"/><path class="cls-1" d="M20.86,45.72,17,40.56v5.16H15.82v-7.2H17l3.85,5.17V38.52h1.19v7.2Z"/><path class="cls-1" d="M30.05,42.18v2.65a4.88,4.88,0,0,1-2.8.94,3.64,3.64,0,1,1,.07-7.28,4.32,4.32,0,0,1,2.77,1l-.69.89a3.14,3.14,0,0,0-2.08-.82A2.56,2.56,0,1,0,27,44.67h.32A3.38,3.38,0,0,0,29,44.18v-2Z"/><path class="cls-1" d="M12.44,15.5A4.5,4.5,0,1,0,7.94,11,4.5,4.5,0,0,0,12.44,15.5Zm0-7A2.5,2.5,0,1,1,9.94,11,2.5,2.5,0,0,1,12.44,8.5Z"/><path class="cls-1" d="M38.36,10.49l-10-10A1.8,1.8,0,0,0,27.14,0H2.27A2.37,2.37,0,0,0,0,2.45a1.36,1.36,0,0,0,0,.2V48.14A2.22,2.22,0,0,0,2.27,50H36.61a2.23,2.23,0,0,0,2.25-1.86v-36A2.14,2.14,0,0,0,38.36,10.49ZM23.29,33.43H4.16l11.28-10Zm2.53,0v-.06l-4.72-6,8.18-9L36.9,27.9v5.51Zm9.51-23.14H28.58V3.54ZM2.27,2H26.61a.61.61,0,0,0,0,.19v9.09a1,1,0,0,0,1,1h9.28V24.72L30.1,16.23a1,1,0,0,0-.75-.37,1,1,0,0,0-.77.33l-8.75,9.58L16.38,21.4a1,1,0,0,0-.54-.4h-.28a1,1,0,0,0-.6.24L2,32.24V2.65C2,2.43,2.06,2,2.27,2ZM36.61,48H2.27A.45.45,0,0,1,2,47.91V35.43H36.87V47.91A.43.43,0,0,1,36.61,48Z"/></g></g></svg>