<svg xmlns="http://www.w3.org/2000/svg" viewBox="0 0 270 162"><defs><style>.cls-1{fill:#f3eed8;}.cls-2{fill:#656057;}.cls-3,.cls-4{fill:none;}.cls-4{stroke:#b3a389;stroke-linecap:round;stroke-linejoin:round;stroke-width:0.48px;}.cls-5{fill:#b3a389;}</style></defs><g id="Layer_2" data-name="Layer 2"><g id="US_Business_Card_-_Back" data-name="US Business Card - Back"><rect class="cls-1" width="270" height="162"/><path class="cls-2" d="M34.53,37.16a3.88,3.88,0,0,0,3,2.6c.88,0,2.12-.89,2.84-2.55a7,7,0,0,0,.43-1.42A5.6,5.6,0,0,0,41,34.22a3.47,3.47,0,0,0-6.92,0,7.86,7.86,0,0,0,.08,1.17A7,7,0,0,0,34.53,37.16Z"/><path class="cls-2" d="M43.6,42.08C42.91,41.34,41,41.53,40,41a6,6,0,0,0-2.52-.78c-1.13,0-.94.24-2.52.78-1,.51-2.9.32-3.59,1.06-.37.4-.57,2.88-.57,4H44.17C44.17,45,44,42.48,43.6,42.08Z"/><polygon class="cls-2" points="30.81 102.15 30.81 108.75 34.78 105.45 30.81 102.15"/><path class="cls-2" d="M43.11,100.1H31.87a1.05,1.05,0,0,0-1,.87l5.24,4.37.88.72a.87.87,0,0,0,1.08,0l.92-.76,5.2-4.33A1.06,1.06,0,0,0,43.11,100.1Z"/><polygon class="cls-2" points="44.16 108.75 44.16 102.15 40.2 105.45 44.16 108.75"/><path class="cls-2" d="M38.74,106.67l-.71.59a.9.9,0,0,1-1.08,0l-.92-.77-.53-.44-4.29,3.57a1.08,1.08,0,0,0,.66.23H43.11a1.08,1.08,0,0,0,.66-.23l-4.29-3.57Z"/><path class="cls-2" d="M35.9,56.8c0-.54-.12-1,.19-1h2.79a.2.2,0,0,1,.2.19v.82H40V56a1.09,1.09,0,0,0-1.09-1.09H36.09A1.09,1.09,0,0,0,35,56v.82Z"/><path class="cls-2" d="M36.76,63.05c0,.35.13.64.29.64h.88c.16,0,.29-.29.29-.64V62.1c0-.35-.13-.64-.29-.64h-.88c-.16,0-.29.29-.29.64Z"/><path class="cls-2" d="M38.68,62.61v.57a.89.89,0,0,1-.9.89h-.59a.89.89,0,0,1-.89-.89v-.57a17.05,17.05,0,0,1-4.36-.82.65.65,0,0,0-.86.62v2.72a.72.72,0,0,0,.73.73H43.17a.73.73,0,0,0,.73-.73V62.2a.5.5,0,0,0-.67-.48A16.61,16.61,0,0,1,38.68,62.61Z"/><path class="cls-2" d="M43.46,57.33H31.52a.66.66,0,0,0-.71.61v2.75a.28.28,0,0,0,.15.19l.34.12a18.87,18.87,0,0,0,5,1v-.47c0-.3.54-.51.89-.51h.59c.42,0,.89.24.88.6V62A19.09,19.09,0,0,0,43,61.2c.43-.13,1-.33,1-.33a.25.25,0,0,0,.15-.18V57.94A.66.66,0,0,0,43.46,57.33Z"/><path class="cls-3" d="M40.11,74.8H34.87A1.23,1.23,0,0,0,33.64,76v9.25a1.23,1.23,0,0,0,1.23,1.23h5.24a1.23,1.23,0,0,0,1.23-1.23V76A1.23,1.23,0,0,0,40.11,74.8Z"/><path class="cls-2" d="M41.21,73.38H33.77A1.65,1.65,0,0,0,32.12,75V88.55a1.65,1.65,0,0,0,1.65,1.64h7.44a1.65,1.65,0,0,0,1.65-1.64V75A1.65,1.65,0,0,0,41.21,73.38Zm.13,11.9a1.23,1.23,0,0,1-1.23,1.23H34.87a1.23,1.23,0,0,1-1.23-1.23V76a1.23,1.23,0,0,1,1.23-1.23h5.24A1.23,1.23,0,0,1,41.34,76Z"/><path class="cls-2" d="M37.77,117.76h-.64a6.69,6.69,0,0,0,0,13.36h.64a6.69,6.69,0,0,0,0-13.37Zm4,2.93a6.63,6.63,0,0,1-.81.48.39.39,0,0,1-.52-.19,8.12,8.12,0,0,0-1-1.65.37.37,0,0,1,.43-.58,6,6,0,0,1,2,1.36A.37.37,0,0,1,41.81,120.69Zm-3.42-1.75A7.46,7.46,0,0,1,40,121.13a.38.38,0,0,1-.24.53,7.29,7.29,0,0,1-1.6.3.38.38,0,0,1-.39-.38V119.2A.37.37,0,0,1,38.39,118.94Zm-.28,3.54a8.46,8.46,0,0,0,1.86-.34.36.36,0,0,1,.47.24,7.5,7.5,0,0,1,.27,1.63.38.38,0,0,1-.38.39H38.12a.38.38,0,0,1-.37-.37v-1.18A.37.37,0,0,1,38.11,122.48Zm0,2.44h2.17a.38.38,0,0,1,.38.42,7.41,7.41,0,0,1-.35,1.55.38.38,0,0,1-.46.24,8,8,0,0,0-1.75-.31.37.37,0,0,1-.36-.37v-1.16A.38.38,0,0,1,38.12,124.92Zm-2.71-5.53a7.91,7.91,0,0,0-.93,1.49.38.38,0,0,1-.53.17,7.56,7.56,0,0,1-.71-.44.37.37,0,0,1-.05-.58A6.29,6.29,0,0,1,35,118.81.38.38,0,0,1,35.41,119.39ZM32.86,121a7.63,7.63,0,0,0,1,.61A.39.39,0,0,1,34,122a8,8,0,0,0-.35,2,.37.37,0,0,1-.37.36H31.72a.38.38,0,0,1-.38-.4,6.19,6.19,0,0,1,1-2.92A.39.39,0,0,1,32.86,121Zm-.33,7.13a6.18,6.18,0,0,1-1.13-2.74.38.38,0,0,1,.37-.44h1.57a.37.37,0,0,1,.37.35,8.35,8.35,0,0,0,.43,1.92.38.38,0,0,1-.19.46,9,9,0,0,0-.91.53A.39.39,0,0,1,32.53,128.1Zm1,.39c.21-.12.42-.24.64-.35a.37.37,0,0,1,.49.17,7.09,7.09,0,0,0,.78,1.18.38.38,0,0,1-.45.58,6.37,6.37,0,0,1-1.51-1A.39.39,0,0,1,33.5,128.49ZM36.6,130a7.46,7.46,0,0,1-1.44-1.83.38.38,0,0,1,.22-.55,8.81,8.81,0,0,1,1.43-.28.38.38,0,0,1,.42.38v2A.37.37,0,0,1,36.6,130Zm.28-3.18a8.55,8.55,0,0,0-1.8.35.37.37,0,0,1-.47-.22,7.64,7.64,0,0,1-.37-1.64.37.37,0,0,1,.37-.41h2.25a.38.38,0,0,1,.37.37v1.17A.38.38,0,0,1,36.88,126.84Zm0-2.44H34.58a.37.37,0,0,1-.38-.38,7.55,7.55,0,0,1,.29-1.72.37.37,0,0,1,.48-.24,7.73,7.73,0,0,0,1.91.4.38.38,0,0,1,.35.38V124A.38.38,0,0,1,36.86,124.4Zm0-2.46a7.8,7.8,0,0,1-1.66-.36.37.37,0,0,1-.2-.52,7.56,7.56,0,0,1,1.62-2.19.37.37,0,0,1,.64.26v2.43A.37.37,0,0,1,36.83,121.94Zm.92,7.74v-2a.39.39,0,0,1,.41-.38,8.25,8.25,0,0,1,1.39.24.38.38,0,0,1,.24.55,7.69,7.69,0,0,1-1.4,1.82A.38.38,0,0,1,37.75,129.68Zm1.71-.14a7.25,7.25,0,0,0,.87-1.33.38.38,0,0,1,.5-.17,6.17,6.17,0,0,1,.72.38.38.38,0,0,1,.06.61,6.49,6.49,0,0,1-1.7,1.09A.38.38,0,0,1,39.46,129.54ZM42,128.1a7.35,7.35,0,0,0-1-.55.37.37,0,0,1-.2-.47,8.53,8.53,0,0,0,.38-1.82.38.38,0,0,1,.38-.34h1.64a.37.37,0,0,1,.37.43A6,6,0,0,1,42.51,128,.39.39,0,0,1,42,128.1Zm1.26-3.7H41.6a.37.37,0,0,1-.37-.36,8.58,8.58,0,0,0-.32-1.9.38.38,0,0,1,.2-.45,8.75,8.75,0,0,0,1.07-.62.38.38,0,0,1,.54.11,6.1,6.1,0,0,1,.91,2.81A.37.37,0,0,1,43.26,124.4Z"/><line class="cls-4" x1="57.44" y1="29.32" x2="57.44" y2="132.78"/><path class="cls-2" d="M16.42,16.42a.87.87,0,0,0-.18.53.9.9,0,0,0,1.42.71A.9.9,0,0,0,17,16.24.87.87,0,0,0,16.42,16.42Z"/><path class="cls-2" d="M19.25,20.18a1.53,1.53,0,1,0-3.05,0v.06h0v39.6a.56.56,0,0,0,.57.56h0a.56.56,0,0,0,.56-.56V23.19a1.74,1.74,0,0,1,1-1.6A1.52,1.52,0,0,0,19.25,20.18Z"/><path class="cls-2" d="M20.18,19.25a1.53,1.53,0,1,1,0-3.05H59.86a.56.56,0,0,1,.56.57h0a.56.56,0,0,1-.56.56H23.19a1.74,1.74,0,0,0-1.6,1A1.51,1.51,0,0,1,20.18,19.25Z"/><path class="cls-5" d="M14.22,14.22a1.84,1.84,0,0,0,.2.78,1.27,1.27,0,0,0,.46.53.88.88,0,0,0,.46.14c.12,0,.19,0,.19-.14s.14-.07.14-.19a.88.88,0,0,0-.14-.46,1.36,1.36,0,0,0-.53-.47A2,2,0,0,0,14.22,14.22Z"/><path class="cls-5" d="M15.52,16.57a.59.59,0,0,0,0-.08,1,1,0,0,0-.14-.17,1.34,1.34,0,0,0-.46-.29.4.4,0,0,0-.46.09.57.57,0,0,0-.14.24.85.85,0,0,0,0,.17.22.22,0,0,0,0,.08.17.17,0,0,0,0,.07.66.66,0,0,0,.66.65.65.65,0,0,0,.65-.65v-.07A.08.08,0,0,1,15.52,16.57Z"/><path class="cls-5" d="M16.57,15.52l-.08,0a1,1,0,0,1-.17-.14,1.34,1.34,0,0,1-.29-.46.42.42,0,0,1,.09-.47.89.89,0,0,1,.24-.14l.17,0h.15a.66.66,0,0,1,.65.66.65.65,0,0,1-.65.65h-.11Z"/><path class="cls-5" d="M14.88,17.83a.65.65,0,1,0,0,1.3.65.65,0,1,0,0-1.3Z"/><path class="cls-5" d="M17.83,14.88a.65.65,0,1,1,1.3,0,.65.65,0,0,1-1.3,0Z"/><path class="cls-5" d="M14.88,19.63a.65.65,0,1,0,0,1.3.65.65,0,1,0,0-1.3Z"/><path class="cls-5" d="M19.63,14.88a.66.66,0,0,1,.65-.66.66.66,0,0,1,.65.66.65.65,0,0,1-1.3,0Z"/><path class="cls-5" d="M14.88,21.44a.65.65,0,1,0,0,1.3.65.65,0,0,0,0-1.3Z"/><path class="cls-5" d="M21.44,14.88a.65.65,0,1,1,1.3,0,.65.65,0,0,1-1.3,0Z"/><path class="cls-5" d="M14.88,23.24a.65.65,0,1,0,0,1.3.65.65,0,1,0,0-1.3Z"/><path class="cls-5" d="M23.24,14.88a.65.65,0,1,1,1.3,0,.65.65,0,0,1-1.3,0Z"/><path class="cls-5" d="M14.88,25a.65.65,0,1,0,0,1.3.65.65,0,1,0,0-1.3Z"/><path class="cls-5" d="M25,14.88a.65.65,0,1,1,1.3,0,.65.65,0,0,1-1.3,0Z"/><path class="cls-5" d="M14.88,26.84a.66.66,0,0,0-.66.65h1.31A.66.66,0,0,0,14.88,26.84Z"/><path class="cls-5" d="M26.84,14.88a.66.66,0,0,1,.65-.66v1.31A.66.66,0,0,1,26.84,14.88Z"/><path class="cls-5" d="M14.88,28.65a.66.66,0,0,0-.66.65h1.31A.65.65,0,0,0,14.88,28.65Z"/><path class="cls-5" d="M28.65,14.88a.66.66,0,0,1,.65-.66v1.31A.65.65,0,0,1,28.65,14.88Z"/><path class="cls-5" d="M14.88,28.14a.65.65,0,0,0,.65-.65H14.22A.66.66,0,0,0,14.88,28.14Z"/><path class="cls-5" d="M28.15,14.88a.66.66,0,0,1-.66.65V14.22A.67.67,0,0,1,28.15,14.88Z"/><path class="cls-5" d="M14.88,30.45a.66.66,0,0,0-.66.65h1.31A.65.65,0,0,0,14.88,30.45Z"/><path class="cls-5" d="M30.45,14.88a.66.66,0,0,1,.65-.66v1.31A.65.65,0,0,1,30.45,14.88Z"/><path class="cls-5" d="M14.88,30a.65.65,0,0,0,.65-.65H14.22A.66.66,0,0,0,14.88,30Z"/><path class="cls-5" d="M30,14.88a.65.65,0,0,1-.65.65V14.22A.66.66,0,0,1,30,14.88Z"/><path class="cls-5" d="M14.88,32.25a.66.66,0,0,0-.66.65h1.31A.65.65,0,0,0,14.88,32.25Z"/><path class="cls-5" d="M32.25,14.88a.66.66,0,0,1,.65-.66v1.31A.65.65,0,0,1,32.25,14.88Z"/><path class="cls-5" d="M14.88,31.75a.65.65,0,0,0,.65-.65H14.22A.66.66,0,0,0,14.88,31.75Z"/><path class="cls-5" d="M31.75,14.88a.65.65,0,0,1-.65.65V14.22A.66.66,0,0,1,31.75,14.88Z"/><path class="cls-5" d="M14.88,34.05a.67.67,0,0,0-.66.66h1.31A.66.66,0,0,0,14.88,34.05Z"/><path class="cls-5" d="M34.05,14.88a.67.67,0,0,1,.66-.66v1.31A.66.66,0,0,1,34.05,14.88Z"/><path class="cls-5" d="M14.88,33.55a.65.65,0,0,0,.65-.65H14.22A.66.66,0,0,0,14.88,33.55Z"/><path class="cls-5" d="M33.55,14.88a.65.65,0,0,1-.65.65V14.22A.66.66,0,0,1,33.55,14.88Z"/><path class="cls-5" d="M14.88,35.86a.66.66,0,0,0-.66.65h1.31A.65.65,0,0,0,14.88,35.86Z"/><path class="cls-5" d="M35.86,14.88a.66.66,0,0,1,.65-.66v1.31A.65.65,0,0,1,35.86,14.88Z"/><path class="cls-5" d="M14.88,35.36a.66.66,0,0,0,.65-.65H14.22A.66.66,0,0,0,14.88,35.36Z"/><path class="cls-5" d="M35.36,14.88a.66.66,0,0,1-.65.65V14.22A.66.66,0,0,1,35.36,14.88Z"/><path class="cls-5" d="M14.88,37.66a.66.66,0,0,0-.66.65h1.31A.65.65,0,0,0,14.88,37.66Z"/><path class="cls-5" d="M37.66,14.88a.66.66,0,0,1,.65-.66v1.31A.65.65,0,0,1,37.66,14.88Z"/><path class="cls-5" d="M14.88,37.16a.65.65,0,0,0,.65-.65H14.22A.66.66,0,0,0,14.88,37.16Z"/><path class="cls-5" d="M37.16,14.88a.65.65,0,0,1-.65.65V14.22A.66.66,0,0,1,37.16,14.88Z"/><path class="cls-5" d="M14.88,39.46a.66.66,0,0,0-.66.65h1.31A.65.65,0,0,0,14.88,39.46Z"/><path class="cls-5" d="M39.46,14.88a.66.66,0,0,1,.65-.66v1.31A.65.65,0,0,1,39.46,14.88Z"/><path class="cls-5" d="M14.88,39a.65.65,0,0,0,.65-.65H14.22A.66.66,0,0,0,14.88,39Z"/><path class="cls-5" d="M39,14.88a.65.65,0,0,1-.65.65V14.22A.66.66,0,0,1,39,14.88Z"/><path class="cls-5" d="M14.88,41.27a.66.66,0,0,0-.66.65h1.31A.65.65,0,0,0,14.88,41.27Z"/><path class="cls-5" d="M41.27,14.88a.66.66,0,0,1,.65-.66v1.31A.65.65,0,0,1,41.27,14.88Z"/><path class="cls-5" d="M14.88,40.76a.65.65,0,0,0,.65-.65H14.22A.66.66,0,0,0,14.88,40.76Z"/><path class="cls-5" d="M40.76,14.88a.65.65,0,0,1-.65.65V14.22A.66.66,0,0,1,40.76,14.88Z"/><path class="cls-5" d="M14.88,43.07a.65.65,0,1,0,0,1.3.65.65,0,0,0,0-1.3Z"/><path class="cls-5" d="M43.07,14.88a.65.65,0,1,1,1.3,0,.65.65,0,0,1-1.3,0Z"/><path class="cls-5" d="M14.88,42.57a.66.66,0,0,0,.65-.65H14.22A.66.66,0,0,0,14.88,42.57Z"/><path class="cls-5" d="M42.57,14.88a.66.66,0,0,1-.65.65V14.22A.66.66,0,0,1,42.57,14.88Z"/><path class="cls-5" d="M14.88,44.87a.65.65,0,1,0,0,1.3.65.65,0,1,0,0-1.3Z"/><path class="cls-5" d="M44.87,14.88a.65.65,0,1,1,1.3,0,.65.65,0,0,1-1.3,0Z"/><path class="cls-5" d="M14.88,46.67a.65.65,0,1,0,0,1.3.65.65,0,1,0,0-1.3Z"/><path class="cls-5" d="M46.67,14.88a.65.65,0,1,1,1.3,0,.65.65,0,1,1-1.3,0Z"/><path class="cls-5" d="M14.88,48.48a.65.65,0,1,0,0,1.3.65.65,0,1,0,0-1.3Z"/><path class="cls-5" d="M48.48,14.88a.65.65,0,1,1,1.3,0,.65.65,0,0,1-1.3,0Z"/><path class="cls-5" d="M14.88,50.28a.65.65,0,1,0,0,1.3.65.65,0,1,0,0-1.3Z"/><path class="cls-5" d="M50.28,14.88a.65.65,0,1,1,1.3,0,.65.65,0,1,1-1.3,0Z"/><path class="cls-5" d="M14.88,52.08a.65.65,0,1,0,0,1.3.65.65,0,1,0,0-1.3Z"/><path class="cls-5" d="M52.08,14.88a.65.65,0,1,1,1.3,0,.65.65,0,1,1-1.3,0Z"/><path class="cls-5" d="M14.88,53.88a.65.65,0,1,0,0,1.3.65.65,0,0,0,0-1.3Z"/><path class="cls-5" d="M53.88,14.88a.66.66,0,0,1,.65-.66.66.66,0,0,1,.65.66.65.65,0,0,1-1.3,0Z"/><path class="cls-2" d="M13.07,13.07V55.5a.41.41,0,0,0,.41.41h0a.42.42,0,0,0,.42-.41V13.9H55.5a.42.42,0,0,0,.41-.42h0a.41.41,0,0,0-.41-.41Z"/><path class="cls-2" d="M253.58,16.42a.87.87,0,0,1,.18.53.9.9,0,0,1-1.42.71.9.9,0,0,1,.71-1.42A.87.87,0,0,1,253.58,16.42Z"/><path class="cls-2" d="M250.75,20.18a1.53,1.53,0,1,1,3.05,0v.06h0v39.6a.56.56,0,0,1-.57.56h0a.56.56,0,0,1-.56-.56V23.19a1.74,1.74,0,0,0-1-1.6A1.52,1.52,0,0,1,250.75,20.18Z"/><path class="cls-2" d="M249.82,19.25a1.53,1.53,0,1,0,0-3.05H210.14a.56.56,0,0,0-.56.57h0a.56.56,0,0,0,.56.56h36.67a1.74,1.74,0,0,1,1.6,1A1.51,1.51,0,0,0,249.82,19.25Z"/><path class="cls-5" d="M255.78,14.22a1.84,1.84,0,0,1-.2.78,1.27,1.27,0,0,1-.46.53.88.88,0,0,1-.46.14c-.12,0-.19,0-.19-.14s-.14-.07-.14-.19a.88.88,0,0,1,.14-.46,1.36,1.36,0,0,1,.53-.47A2,2,0,0,1,255.78,14.22Z"/><path class="cls-5" d="M254.48,16.57l0-.08a1,1,0,0,1,.14-.17,1.34,1.34,0,0,1,.46-.29.4.4,0,0,1,.46.09.57.57,0,0,1,.14.24.85.85,0,0,1,0,.17.22.22,0,0,1,0,.08.17.17,0,0,1,0,.07.66.66,0,0,1-.66.65.65.65,0,0,1-.65-.65v-.07A.08.08,0,0,0,254.48,16.57Z"/><path class="cls-5" d="M253.43,15.52l.08,0a1,1,0,0,0,.17-.14,1.34,1.34,0,0,0,.29-.46.42.42,0,0,0-.09-.47.89.89,0,0,0-.24-.14l-.17,0h-.15a.66.66,0,0,0-.65.66.65.65,0,0,0,.65.65h.11Z"/><path class="cls-5" d="M255.12,17.83a.65.65,0,1,1,0,1.3.65.65,0,0,1,0-1.3Z"/><path class="cls-5" d="M252.17,14.88a.65.65,0,1,0-1.3,0,.65.65,0,1,0,1.3,0Z"/><path class="cls-5" d="M255.12,19.63a.65.65,0,1,1,0,1.3.65.65,0,0,1,0-1.3Z"/><path class="cls-5" d="M250.37,14.88a.66.66,0,0,0-.65-.66.66.66,0,0,0-.65.66.65.65,0,0,0,1.3,0Z"/><path class="cls-5" d="M255.12,21.44a.65.65,0,1,1,0,1.3.65.65,0,0,1,0-1.3Z"/><path class="cls-5" d="M248.56,14.88a.65.65,0,1,0-1.3,0,.65.65,0,0,0,1.3,0Z"/><path class="cls-5" d="M255.12,23.24a.65.65,0,1,1,0,1.3.65.65,0,0,1,0-1.3Z"/><path class="cls-5" d="M246.76,14.88a.65.65,0,1,0-1.3,0,.65.65,0,1,0,1.3,0Z"/><path class="cls-5" d="M255.12,25a.65.65,0,1,1,0,1.3.65.65,0,0,1,0-1.3Z"/><path class="cls-5" d="M245,14.88a.65.65,0,1,0-1.3,0,.65.65,0,1,0,1.3,0Z"/><path class="cls-5" d="M255.12,26.84a.66.66,0,0,1,.66.65h-1.31A.66.66,0,0,1,255.12,26.84Z"/><path class="cls-5" d="M243.16,14.88a.66.66,0,0,0-.65-.66v1.31A.66.66,0,0,0,243.16,14.88Z"/><path class="cls-5" d="M255.12,28.65a.66.66,0,0,1,.66.65h-1.31A.65.65,0,0,1,255.12,28.65Z"/><path class="cls-5" d="M241.35,14.88a.66.66,0,0,0-.65-.66v1.31A.65.65,0,0,0,241.35,14.88Z"/><path class="cls-5" d="M255.12,28.14a.65.65,0,0,1-.65-.65h1.31A.66.66,0,0,1,255.12,28.14Z"/><path class="cls-5" d="M241.85,14.88a.66.66,0,0,0,.66.65V14.22A.67.67,0,0,0,241.85,14.88Z"/><path class="cls-5" d="M255.12,30.45a.66.66,0,0,1,.66.65h-1.31A.65.65,0,0,1,255.12,30.45Z"/><path class="cls-5" d="M239.55,14.88a.66.66,0,0,0-.65-.66v1.31A.65.65,0,0,0,239.55,14.88Z"/><path class="cls-5" d="M255.12,30a.65.65,0,0,1-.65-.65h1.31A.66.66,0,0,1,255.12,30Z"/><path class="cls-5" d="M240.05,14.88a.65.65,0,0,0,.65.65V14.22A.66.66,0,0,0,240.05,14.88Z"/><path class="cls-5" d="M255.12,32.25a.66.66,0,0,1,.66.65h-1.31A.65.65,0,0,1,255.12,32.25Z"/><path class="cls-5" d="M237.75,14.88a.66.66,0,0,0-.65-.66v1.31A.65.65,0,0,0,237.75,14.88Z"/><path class="cls-5" d="M255.12,31.75a.65.65,0,0,1-.65-.65h1.31A.66.66,0,0,1,255.12,31.75Z"/><path class="cls-5" d="M238.25,14.88a.65.65,0,0,0,.65.65V14.22A.66.66,0,0,0,238.25,14.88Z"/><path class="cls-5" d="M255.12,34.05a.67.67,0,0,1,.66.66h-1.31A.66.66,0,0,1,255.12,34.05Z"/><path class="cls-5" d="M236,14.88a.67.67,0,0,0-.66-.66v1.31A.66.66,0,0,0,236,14.88Z"/><path class="cls-5" d="M255.12,33.55a.65.65,0,0,1-.65-.65h1.31A.66.66,0,0,1,255.12,33.55Z"/><path class="cls-5" d="M236.45,14.88a.65.65,0,0,0,.65.65V14.22A.66.66,0,0,0,236.45,14.88Z"/><path class="cls-5" d="M255.12,35.86a.66.66,0,0,1,.66.65h-1.31A.65.65,0,0,1,255.12,35.86Z"/><path class="cls-5" d="M234.14,14.88a.66.66,0,0,0-.65-.66v1.31A.65.65,0,0,0,234.14,14.88Z"/><path class="cls-5" d="M255.12,35.36a.66.66,0,0,1-.65-.65h1.31A.66.66,0,0,1,255.12,35.36Z"/><path class="cls-5" d="M234.64,14.88a.66.66,0,0,0,.65.65V14.22A.66.66,0,0,0,234.64,14.88Z"/><path class="cls-5" d="M255.12,37.66a.66.66,0,0,1,.66.65h-1.31A.65.65,0,0,1,255.12,37.66Z"/><path class="cls-5" d="M232.34,14.88a.66.66,0,0,0-.65-.66v1.31A.65.65,0,0,0,232.34,14.88Z"/><path class="cls-5" d="M255.12,37.16a.65.65,0,0,1-.65-.65h1.31A.66.66,0,0,1,255.12,37.16Z"/><path class="cls-5" d="M232.84,14.88a.65.65,0,0,0,.65.65V14.22A.66.66,0,0,0,232.84,14.88Z"/><path class="cls-5" d="M255.12,39.46a.66.66,0,0,1,.66.65h-1.31A.65.65,0,0,1,255.12,39.46Z"/><path class="cls-5" d="M230.54,14.88a.66.66,0,0,0-.65-.66v1.31A.65.65,0,0,0,230.54,14.88Z"/><path class="cls-5" d="M255.12,39a.65.65,0,0,1-.65-.65h1.31A.66.66,0,0,1,255.12,39Z"/><path class="cls-5" d="M231,14.88a.65.65,0,0,0,.65.65V14.22A.66.66,0,0,0,231,14.88Z"/><path class="cls-5" d="M255.12,41.27a.66.66,0,0,1,.66.65h-1.31A.65.65,0,0,1,255.12,41.27Z"/><path class="cls-5" d="M228.73,14.88a.66.66,0,0,0-.65-.66v1.31A.65.65,0,0,0,228.73,14.88Z"/><path class="cls-5" d="M255.12,40.76a.65.65,0,0,1-.65-.65h1.31A.66.66,0,0,1,255.12,40.76Z"/><path class="cls-5" d="M229.24,14.88a.65.65,0,0,0,.65.65V14.22A.66.66,0,0,0,229.24,14.88Z"/><path class="cls-5" d="M255.12,43.07a.65.65,0,1,1,0,1.3.65.65,0,0,1,0-1.3Z"/><path class="cls-5" d="M226.93,14.88a.65.65,0,1,0-1.3,0,.65.65,0,0,0,1.3,0Z"/><path class="cls-5" d="M255.12,42.57a.66.66,0,0,1-.65-.65h1.31A.66.66,0,0,1,255.12,42.57Z"/><path class="cls-5" d="M227.43,14.88a.66.66,0,0,0,.65.65V14.22A.66.66,0,0,0,227.43,14.88Z"/><path class="cls-5" d="M255.12,44.87a.65.65,0,1,1,0,1.3.65.65,0,0,1,0-1.3Z"/><path class="cls-5" d="M225.13,14.88a.65.65,0,1,0-1.3,0,.65.65,0,0,0,1.3,0Z"/><path class="cls-5" d="M255.12,46.67a.65.65,0,1,1,0,1.3.65.65,0,0,1,0-1.3Z"/><path class="cls-5" d="M223.33,14.88a.65.65,0,1,0-1.3,0,.65.65,0,1,0,1.3,0Z"/><path class="cls-5" d="M255.12,48.48a.65.65,0,1,1,0,1.3.65.65,0,0,1,0-1.3Z"/><path class="cls-5" d="M221.52,14.88a.65.65,0,1,0-1.3,0,.65.65,0,1,0,1.3,0Z"/><path class="cls-5" d="M255.12,50.28a.65.65,0,1,1,0,1.3.65.65,0,0,1,0-1.3Z"/><path class="cls-5" d="M219.72,14.88a.65.65,0,1,0-1.3,0,.65.65,0,1,0,1.3,0Z"/><path class="cls-5" d="M255.12,52.08a.65.65,0,1,1,0,1.3.65.65,0,0,1,0-1.3Z"/><path class="cls-5" d="M217.92,14.88a.65.65,0,1,0-1.3,0,.65.65,0,1,0,1.3,0Z"/><path class="cls-5" d="M255.12,53.88a.65.65,0,1,1,0,1.3.65.65,0,0,1,0-1.3Z"/><path class="cls-5" d="M216.12,14.88a.66.66,0,0,0-.65-.66.66.66,0,0,0-.65.66.65.65,0,0,0,1.3,0Z"/><path class="cls-2" d="M256.93,13.07V55.5a.41.41,0,0,1-.41.41h0a.42.42,0,0,1-.42-.41V13.9H214.5a.42.42,0,0,1-.41-.42h0a.41.41,0,0,1,.41-.41Z"/><path class="cls-2" d="M16.42,145.58a.87.87,0,0,1-.18-.53.9.9,0,0,1,1.42-.71.9.9,0,0,1-.71,1.42A.87.87,0,0,1,16.42,145.58Z"/><path class="cls-2" d="M19.25,141.82a1.53,1.53,0,1,1-3.05,0v-.06h0v-39.6a.56.56,0,0,1,.57-.56h0a.56.56,0,0,1,.56.56v36.67a1.74,1.74,0,0,0,1,1.6A1.52,1.52,0,0,1,19.25,141.82Z"/><path class="cls-2" d="M20.18,142.75a1.53,1.53,0,1,0,0,3.05H59.86a.56.56,0,0,0,.56-.57h0a.56.56,0,0,0-.56-.56H23.19a1.74,1.74,0,0,1-1.6-1A1.51,1.51,0,0,0,20.18,142.75Z"/><path class="cls-5" d="M14.22,147.78a1.84,1.84,0,0,1,.2-.78,1.27,1.27,0,0,1,.46-.53.88.88,0,0,1,.46-.14c.12,0,.19,0,.19.14s.14.07.14.19a.88.88,0,0,1-.14.46,1.36,1.36,0,0,1-.53.47A2,2,0,0,1,14.22,147.78Z"/><path class="cls-5" d="M15.52,145.43a.59.59,0,0,1,0,.08,1,1,0,0,1-.14.17,1.34,1.34,0,0,1-.46.29.4.4,0,0,1-.46-.09.57.57,0,0,1-.14-.24.85.85,0,0,1,0-.17.22.22,0,0,1,0-.08.17.17,0,0,1,0-.07.66.66,0,0,1,.66-.65.65.65,0,0,1,.65.65v.07A.08.08,0,0,0,15.52,145.43Z"/><path class="cls-5" d="M16.57,146.48l-.08,0a1,1,0,0,0-.17.14,1.34,1.34,0,0,0-.29.46.42.42,0,0,0,.09.47.89.89,0,0,0,.24.14l.17,0h.15a.66.66,0,0,0,.65-.66.65.65,0,0,0-.65-.65h-.11Z"/><path class="cls-5" d="M14.88,144.17a.65.65,0,1,1,0-1.3.65.65,0,0,1,0,1.3Z"/><path class="cls-5" d="M17.83,147.12a.65.65,0,1,0,1.3,0,.65.65,0,1,0-1.3,0Z"/><path class="cls-5" d="M14.88,142.37a.65.65,0,1,1,0-1.3.65.65,0,0,1,0,1.3Z"/><path class="cls-5" d="M19.63,147.12a.66.66,0,0,0,.65.66.66.66,0,0,0,.65-.66.65.65,0,1,0-1.3,0Z"/><path class="cls-5" d="M14.88,140.56a.65.65,0,1,1,0-1.3.65.65,0,0,1,0,1.3Z"/><path class="cls-5" d="M21.44,147.12a.65.65,0,1,0,1.3,0,.65.65,0,1,0-1.3,0Z"/><path class="cls-5" d="M14.88,138.76a.65.65,0,1,1,0-1.3.65.65,0,0,1,0,1.3Z"/><path class="cls-5" d="M23.24,147.12a.65.65,0,1,0,1.3,0,.65.65,0,1,0-1.3,0Z"/><path class="cls-5" d="M14.88,137a.65.65,0,1,1,0-1.3.65.65,0,0,1,0,1.3Z"/><path class="cls-5" d="M25,147.12a.65.65,0,1,0,1.3,0,.65.65,0,1,0-1.3,0Z"/><path class="cls-5" d="M14.88,135.16a.66.66,0,0,1-.66-.65h1.31A.66.66,0,0,1,14.88,135.16Z"/><path class="cls-5" d="M26.84,147.12a.66.66,0,0,0,.65.66v-1.31A.66.66,0,0,0,26.84,147.12Z"/><path class="cls-5" d="M14.88,133.35a.66.66,0,0,1-.66-.65h1.31A.65.65,0,0,1,14.88,133.35Z"/><path class="cls-5" d="M28.65,147.12a.66.66,0,0,0,.65.66v-1.31A.65.65,0,0,0,28.65,147.12Z"/><path class="cls-5" d="M14.88,133.86a.65.65,0,0,1,.65.65H14.22A.66.66,0,0,1,14.88,133.86Z"/><path class="cls-5" d="M28.15,147.12a.66.66,0,0,0-.66-.65v1.31A.67.67,0,0,0,28.15,147.12Z"/><path class="cls-5" d="M14.88,131.55a.66.66,0,0,1-.66-.65h1.31A.65.65,0,0,1,14.88,131.55Z"/><path class="cls-5" d="M30.45,147.12a.66.66,0,0,0,.65.66v-1.31A.65.65,0,0,0,30.45,147.12Z"/><path class="cls-5" d="M14.88,132.05a.65.65,0,0,1,.65.65H14.22A.66.66,0,0,1,14.88,132.05Z"/><path class="cls-5" d="M30,147.12a.65.65,0,0,0-.65-.65v1.31A.66.66,0,0,0,30,147.12Z"/><path class="cls-5" d="M14.88,129.75a.66.66,0,0,1-.66-.65h1.31A.65.65,0,0,1,14.88,129.75Z"/><path class="cls-5" d="M32.25,147.12a.66.66,0,0,0,.65.66v-1.31A.65.65,0,0,0,32.25,147.12Z"/><path class="cls-5" d="M14.88,130.25a.65.65,0,0,1,.65.65H14.22A.66.66,0,0,1,14.88,130.25Z"/><path class="cls-5" d="M31.75,147.12a.65.65,0,0,0-.65-.65v1.31A.66.66,0,0,0,31.75,147.12Z"/><path class="cls-5" d="M14.88,128a.67.67,0,0,1-.66-.66h1.31A.66.66,0,0,1,14.88,128Z"/><path class="cls-5" d="M34.05,147.12a.67.67,0,0,0,.66.66v-1.31A.66.66,0,0,0,34.05,147.12Z"/><path class="cls-5" d="M14.88,128.45a.65.65,0,0,1,.65.65H14.22A.66.66,0,0,1,14.88,128.45Z"/><path class="cls-5" d="M33.55,147.12a.65.65,0,0,0-.65-.65v1.31A.66.66,0,0,0,33.55,147.12Z"/><path class="cls-5" d="M14.88,126.14a.66.66,0,0,1-.66-.65h1.31A.65.65,0,0,1,14.88,126.14Z"/><path class="cls-5" d="M35.86,147.12a.66.66,0,0,0,.65.66v-1.31A.65.65,0,0,0,35.86,147.12Z"/><path class="cls-5" d="M14.88,126.64a.66.66,0,0,1,.65.65H14.22A.66.66,0,0,1,14.88,126.64Z"/><path class="cls-5" d="M35.36,147.12a.66.66,0,0,0-.65-.65v1.31A.66.66,0,0,0,35.36,147.12Z"/><path class="cls-5" d="M14.88,124.34a.66.66,0,0,1-.66-.65h1.31A.65.65,0,0,1,14.88,124.34Z"/><path class="cls-5" d="M37.66,147.12a.66.66,0,0,0,.65.66v-1.31A.65.65,0,0,0,37.66,147.12Z"/><path class="cls-5" d="M14.88,124.84a.65.65,0,0,1,.65.65H14.22A.66.66,0,0,1,14.88,124.84Z"/><path class="cls-5" d="M37.16,147.12a.65.65,0,0,0-.65-.65v1.31A.66.66,0,0,0,37.16,147.12Z"/><path class="cls-5" d="M14.88,122.54a.66.66,0,0,1-.66-.65h1.31A.65.65,0,0,1,14.88,122.54Z"/><path class="cls-5" d="M39.46,147.12a.66.66,0,0,0,.65.66v-1.31A.65.65,0,0,0,39.46,147.12Z"/><path class="cls-5" d="M14.88,123a.65.65,0,0,1,.65.65H14.22A.66.66,0,0,1,14.88,123Z"/><path class="cls-5" d="M39,147.12a.65.65,0,0,0-.65-.65v1.31A.66.66,0,0,0,39,147.12Z"/><path class="cls-5" d="M14.88,120.73a.66.66,0,0,1-.66-.65h1.31A.65.65,0,0,1,14.88,120.73Z"/><path class="cls-5" d="M41.27,147.12a.66.66,0,0,0,.65.66v-1.31A.65.65,0,0,0,41.27,147.12Z"/><path class="cls-5" d="M14.88,121.24a.65.65,0,0,1,.65.65H14.22A.66.66,0,0,1,14.88,121.24Z"/><path class="cls-5" d="M40.76,147.12a.65.65,0,0,0-.65-.65v1.31A.66.66,0,0,0,40.76,147.12Z"/><path class="cls-5" d="M14.88,118.93a.65.65,0,1,1,0-1.3.65.65,0,0,1,0,1.3Z"/><path class="cls-5" d="M43.07,147.12a.65.65,0,1,0,1.3,0,.65.65,0,1,0-1.3,0Z"/><path class="cls-5" d="M14.88,119.43a.66.66,0,0,1,.65.65H14.22A.66.66,0,0,1,14.88,119.43Z"/><path class="cls-5" d="M42.57,147.12a.66.66,0,0,0-.65-.65v1.31A.66.66,0,0,0,42.57,147.12Z"/><path class="cls-5" d="M14.88,117.13a.65.65,0,1,1,0-1.3.65.65,0,0,1,0,1.3Z"/><path class="cls-5" d="M44.87,147.12a.65.65,0,1,0,1.3,0,.65.65,0,1,0-1.3,0Z"/><path class="cls-5" d="M14.88,115.33a.65.65,0,1,1,0-1.3.65.65,0,0,1,0,1.3Z"/><path class="cls-5" d="M46.67,147.12a.65.65,0,1,0,1.3,0,.65.65,0,1,0-1.3,0Z"/><path class="cls-5" d="M14.88,113.52a.65.65,0,1,1,0-1.3.65.65,0,1,1,0,1.3Z"/><path class="cls-5" d="M48.48,147.12a.65.65,0,1,0,1.3,0,.65.65,0,1,0-1.3,0Z"/><path class="cls-5" d="M14.88,111.72a.65.65,0,1,1,0-1.3.65.65,0,1,1,0,1.3Z"/><path class="cls-5" d="M50.28,147.12a.65.65,0,1,0,1.3,0,.65.65,0,1,0-1.3,0Z"/><path class="cls-5" d="M14.88,109.92a.65.65,0,1,1,0-1.3.65.65,0,1,1,0,1.3Z"/><path class="cls-5" d="M52.08,147.12a.65.65,0,1,0,1.3,0,.65.65,0,1,0-1.3,0Z"/><path class="cls-5" d="M14.88,108.12a.65.65,0,1,1,0-1.3.65.65,0,1,1,0,1.3Z"/><path class="cls-5" d="M53.88,147.12a.66.66,0,0,0,.65.66.66.66,0,0,0,.65-.66.65.65,0,1,0-1.3,0Z"/><path class="cls-2" d="M13.07,148.93V106.5a.41.41,0,0,1,.41-.41h0a.42.42,0,0,1,.42.41v41.6H55.5a.42.42,0,0,1,.41.42h0a.41.41,0,0,1-.41.41Z"/><path class="cls-2" d="M253.58,145.58a.87.87,0,0,0,.18-.53.8.8,0,1,0-.71.71A.87.87,0,0,0,253.58,145.58Z"/><path class="cls-2" d="M250.75,141.82a1.53,1.53,0,1,0,3.05,0v-.06h0v-39.6a.56.56,0,0,0-.57-.56h0a.56.56,0,0,0-.56.56v36.67a1.74,1.74,0,0,1-1,1.6A1.52,1.52,0,0,0,250.75,141.82Z"/><path class="cls-2" d="M249.82,142.75a1.53,1.53,0,1,1,0,3.05H210.14a.56.56,0,0,1-.56-.57h0a.56.56,0,0,1,.56-.56h36.67a1.74,1.74,0,0,0,1.6-1A1.51,1.51,0,0,1,249.82,142.75Z"/><path class="cls-5" d="M255.78,147.78a1.84,1.84,0,0,0-.2-.78,1.27,1.27,0,0,0-.46-.53.88.88,0,0,0-.46-.14c-.12,0-.19,0-.19.14s-.14.07-.14.19a.88.88,0,0,0,.14.46,1.36,1.36,0,0,0,.53.47A2,2,0,0,0,255.78,147.78Z"/><path class="cls-5" d="M254.48,145.43l0,.08a1,1,0,0,0,.14.17,1.34,1.34,0,0,0,.46.29.4.4,0,0,0,.46-.09.57.57,0,0,0,.14-.24.85.85,0,0,0,0-.17.22.22,0,0,0,0-.08.17.17,0,0,0,0-.07.66.66,0,0,0-.66-.65.65.65,0,0,0-.65.65v.07A.08.08,0,0,1,254.48,145.43Z"/><path class="cls-5" d="M253.43,146.48l.08,0a1,1,0,0,1,.17.14,1.34,1.34,0,0,1,.29.46.42.42,0,0,1-.09.47.89.89,0,0,1-.24.14l-.17,0h-.15a.66.66,0,0,1-.65-.66.65.65,0,0,1,.65-.65h.11Z"/><path class="cls-5" d="M255.12,144.17a.65.65,0,1,0,0-1.3.65.65,0,1,0,0,1.3Z"/><path class="cls-5" d="M252.17,147.12a.65.65,0,1,1-1.3,0,.65.65,0,0,1,1.3,0Z"/><path class="cls-5" d="M255.12,142.37a.65.65,0,1,0,0-1.3.65.65,0,0,0,0,1.3Z"/><path class="cls-5" d="M250.37,147.12a.66.66,0,0,1-.65.66.66.66,0,0,1-.65-.66.65.65,0,0,1,1.3,0Z"/><path class="cls-5" d="M255.12,140.56a.65.65,0,1,0,0-1.3.65.65,0,0,0,0,1.3Z"/><path class="cls-5" d="M248.56,147.12a.65.65,0,1,1-1.3,0,.65.65,0,0,1,1.3,0Z"/><path class="cls-5" d="M255.12,138.76a.65.65,0,1,0,0-1.3.65.65,0,1,0,0,1.3Z"/><path class="cls-5" d="M246.76,147.12a.65.65,0,1,1-1.3,0,.65.65,0,0,1,1.3,0Z"/><path class="cls-5" d="M255.12,137a.65.65,0,1,0,0-1.3.65.65,0,0,0,0,1.3Z"/><path class="cls-5" d="M245,147.12a.65.65,0,1,1-1.3,0,.65.65,0,0,1,1.3,0Z"/><path class="cls-5" d="M255.12,135.16a.66.66,0,0,0,.66-.65h-1.31A.66.66,0,0,0,255.12,135.16Z"/><path class="cls-5" d="M243.16,147.12a.66.66,0,0,1-.65.66v-1.31A.66.66,0,0,1,243.16,147.12Z"/><path class="cls-5" d="M255.12,133.35a.66.66,0,0,0,.66-.65h-1.31A.65.65,0,0,0,255.12,133.35Z"/><path class="cls-5" d="M241.35,147.12a.66.66,0,0,1-.65.66v-1.31A.65.65,0,0,1,241.35,147.12Z"/><path class="cls-5" d="M255.12,133.86a.65.65,0,0,0-.65.65h1.31A.66.66,0,0,0,255.12,133.86Z"/><path class="cls-5" d="M241.85,147.12a.66.66,0,0,1,.66-.65v1.31A.67.67,0,0,1,241.85,147.12Z"/><path class="cls-5" d="M255.12,131.55a.66.66,0,0,0,.66-.65h-1.31A.65.65,0,0,0,255.12,131.55Z"/><path class="cls-5" d="M239.55,147.12a.66.66,0,0,1-.65.66v-1.31A.65.65,0,0,1,239.55,147.12Z"/><path class="cls-5" d="M255.12,132.05a.65.65,0,0,0-.65.65h1.31A.66.66,0,0,0,255.12,132.05Z"/><path class="cls-5" d="M240.05,147.12a.65.65,0,0,1,.65-.65v1.31A.66.66,0,0,1,240.05,147.12Z"/><path class="cls-5" d="M255.12,129.75a.66.66,0,0,0,.66-.65h-1.31A.65.65,0,0,0,255.12,129.75Z"/><path class="cls-5" d="M237.75,147.12a.66.66,0,0,1-.65.66v-1.31A.65.65,0,0,1,237.75,147.12Z"/><path class="cls-5" d="M255.12,130.25a.65.65,0,0,0-.65.65h1.31A.66.66,0,0,0,255.12,130.25Z"/><path class="cls-5" d="M238.25,147.12a.65.65,0,0,1,.65-.65v1.31A.66.66,0,0,1,238.25,147.12Z"/><path class="cls-5" d="M255.12,128a.67.67,0,0,0,.66-.66h-1.31A.66.66,0,0,0,255.12,128Z"/><path class="cls-5" d="M236,147.12a.67.67,0,0,1-.66.66v-1.31A.66.66,0,0,1,236,147.12Z"/><path class="cls-5" d="M255.12,128.45a.65.65,0,0,0-.65.65h1.31A.66.66,0,0,0,255.12,128.45Z"/><path class="cls-5" d="M236.45,147.12a.65.65,0,0,1,.65-.65v1.31A.66.66,0,0,1,236.45,147.12Z"/><path class="cls-5" d="M255.12,126.14a.66.66,0,0,0,.66-.65h-1.31A.65.65,0,0,0,255.12,126.14Z"/><path class="cls-5" d="M234.14,147.12a.66.66,0,0,1-.65.66v-1.31A.65.65,0,0,1,234.14,147.12Z"/><path class="cls-5" d="M255.12,126.64a.66.66,0,0,0-.65.65h1.31A.66.66,0,0,0,255.12,126.64Z"/><path class="cls-5" d="M234.64,147.12a.66.66,0,0,1,.65-.65v1.31A.66.66,0,0,1,234.64,147.12Z"/><path class="cls-5" d="M255.12,124.34a.66.66,0,0,0,.66-.65h-1.31A.65.65,0,0,0,255.12,124.34Z"/><path class="cls-5" d="M232.34,147.12a.66.66,0,0,1-.65.66v-1.31A.65.65,0,0,1,232.34,147.12Z"/><path class="cls-5" d="M255.12,124.84a.65.65,0,0,0-.65.65h1.31A.66.66,0,0,0,255.12,124.84Z"/><path class="cls-5" d="M232.84,147.12a.65.65,0,0,1,.65-.65v1.31A.66.66,0,0,1,232.84,147.12Z"/><path class="cls-5" d="M255.12,122.54a.66.66,0,0,0,.66-.65h-1.31A.65.65,0,0,0,255.12,122.54Z"/><path class="cls-5" d="M230.54,147.12a.66.66,0,0,1-.65.66v-1.31A.65.65,0,0,1,230.54,147.12Z"/><path class="cls-5" d="M255.12,123a.65.65,0,0,0-.65.65h1.31A.66.66,0,0,0,255.12,123Z"/><path class="cls-5" d="M231,147.12a.65.65,0,0,1,.65-.65v1.31A.66.66,0,0,1,231,147.12Z"/><path class="cls-5" d="M255.12,120.73a.66.66,0,0,0,.66-.65h-1.31A.65.65,0,0,0,255.12,120.73Z"/><path class="cls-5" d="M228.73,147.12a.66.66,0,0,1-.65.66v-1.31A.65.65,0,0,1,228.73,147.12Z"/><path class="cls-5" d="M255.12,121.24a.65.65,0,0,0-.65.65h1.31A.66.66,0,0,0,255.12,121.24Z"/><path class="cls-5" d="M229.24,147.12a.65.65,0,0,1,.65-.65v1.31A.66.66,0,0,1,229.24,147.12Z"/><path class="cls-5" d="M255.12,118.93a.65.65,0,1,0,0-1.3.65.65,0,0,0,0,1.3Z"/><path class="cls-5" d="M226.93,147.12a.65.65,0,1,1-1.3,0,.65.65,0,0,1,1.3,0Z"/><path class="cls-5" d="M255.12,119.43a.66.66,0,0,0-.65.65h1.31A.66.66,0,0,0,255.12,119.43Z"/><path class="cls-5" d="M227.43,147.12a.66.66,0,0,1,.65-.65v1.31A.66.66,0,0,1,227.43,147.12Z"/><path class="cls-5" d="M255.12,117.13a.65.65,0,1,0,0-1.3.65.65,0,0,0,0,1.3Z"/><path class="cls-5" d="M225.13,147.12a.65.65,0,1,1-1.3,0,.65.65,0,0,1,1.3,0Z"/><path class="cls-5" d="M255.12,115.33a.65.65,0,1,0,0-1.3.65.65,0,0,0,0,1.3Z"/><path class="cls-5" d="M223.33,147.12a.65.65,0,1,1-1.3,0,.65.65,0,0,1,1.3,0Z"/><path class="cls-5" d="M255.12,113.52a.65.65,0,1,0,0-1.3.65.65,0,0,0,0,1.3Z"/><path class="cls-5" d="M221.52,147.12a.65.65,0,1,1-1.3,0,.65.65,0,0,1,1.3,0Z"/><path class="cls-5" d="M255.12,111.72a.65.65,0,1,0,0-1.3.65.65,0,1,0,0,1.3Z"/><path class="cls-5" d="M219.72,147.12a.65.65,0,1,1-1.3,0,.65.65,0,0,1,1.3,0Z"/><path class="cls-5" d="M255.12,109.92a.65.65,0,1,0,0-1.3.65.65,0,1,0,0,1.3Z"/><path class="cls-5" d="M217.92,147.12a.65.65,0,1,1-1.3,0,.65.65,0,0,1,1.3,0Z"/><path class="cls-5" d="M255.12,108.12a.65.65,0,1,0,0-1.3.65.65,0,0,0,0,1.3Z"/><path class="cls-5" d="M216.12,147.12a.66.66,0,0,1-.65.66.66.66,0,0,1-.65-.66.65.65,0,0,1,1.3,0Z"/><path class="cls-2" d="M256.93,148.93V106.5a.41.41,0,0,0-.41-.41h0a.42.42,0,0,0-.42.41v41.6H214.5a.42.42,0,0,0-.41.42h0a.41.41,0,0,0,.41.41Z"/></g></g></svg>
