<svg xmlns="http://www.w3.org/2000/svg" xmlns:xlink="http://www.w3.org/1999/xlink" viewBox="0 0 270 163.44"><defs><style>.cls-1{fill:none;}.cls-2{fill:#fff;}.cls-3{fill:#002f46;}.cls-4{clip-path:url(#clip-path);}.cls-5{fill:#e8e8e8;}.cls-6{fill:#5ac5c9;}.cls-7{fill:#f0efef;}.cls-8{fill:#2cbdb8;}</style><clipPath id="clip-path"><rect class="cls-1" width="270" height="163.44"/></clipPath></defs><g id="Layer_2" data-name="Layer 2"><g id="_2" data-name="2"><g id="background"><rect class="cls-2" width="270" height="163.44" transform="translate(270 163.44) rotate(180)"/><rect class="cls-3" x="22.25" y="18.95" width="2.16" height="15.45"/><g class="cls-4"><polygon class="cls-5" points="268.79 119.2 310.96 162.78 268.91 162.78 268.79 119.2"/><polygon class="cls-6" points="268.79 119.2 226.62 162.78 268.92 162.85 268.79 119.2"/><polygon class="cls-6" points="184.22 119.43 226.39 163.01 184.35 163.01 184.22 119.43"/><polygon class="cls-7" points="184.22 119.43 142.05 163.01 184.37 163.09 184.22 119.43"/><polygon class="cls-6" points="269.73 30.16 313.11 74.99 269.86 74.99 269.73 30.16"/><polygon class="cls-7" points="269.73 30.16 226.35 74.99 269.85 74.96 269.73 30.16"/><polygon class="cls-8" points="226.35 74.96 313.03 74.96 268.79 119.2 226.35 74.96"/><polygon class="cls-6" points="465.86 13.62 464.23 -76.38 268.82 119.21 355.36 119.21 465.86 13.62"/><polygon class="cls-5" points="355.46 119.2 268.79 119.2 313.03 74.96 355.46 119.2"/><path class="cls-6" d="M313,119.2H268.79L313,75S313,119,313,119.2Z"/><polygon class="cls-7" points="226.35 74.96 226.59 162.8 268.79 119.2 226.35 74.96"/><polygon class="cls-8" points="226.35 74.97 226.6 163.22 184.16 119.44 226.35 74.97"/><polygon class="cls-7" points="313.06 74.93 127.41 -108.57 171.23 -152.91 357.24 30.71 313.06 74.93"/><polygon class="cls-8" points="268.79 119.2 355.46 119.2 311.22 163.44 268.79 119.2"/></g></g></g></g></svg>
