<svg xmlns="http://www.w3.org/2000/svg" viewBox="0 0 161.01 269.01"><defs><style>.cls-1{fill:#e95524;}.cls-2,.cls-3{fill:#b94026;}.cls-2{fill-rule:evenodd;}.cls-4{fill:#992920;}</style></defs><g id="Layer_2" data-name="Layer 2"><g id="Background"><g id="Background-2" data-name="Background"><rect class="cls-1" width="161.01" height="269.01"/></g></g><g id="Design"><path class="cls-2" d="M121.53,117.63H125v-3.46h-3.47Zm18.5-3.46v3.46h3.47v-3.46Zm-9.25,3.46h3.47v-3.46h-3.47ZM89.33,66.2H92.8V62.73H89.33Zm9.26,0h3.46V62.73H98.59Zm9.25,0h3.47V62.73h-3.47Z"/><path class="cls-3" d="M80.5,138.36A134.13,134.13,0,0,0,0,165V269H161V165A134.13,134.13,0,0,0,80.5,138.36Z"/><path class="cls-4" d="M80.5,195.18A134.13,134.13,0,0,0,0,221.86V269H161V221.86A134.13,134.13,0,0,0,80.5,195.18Z"/></g></g></svg>