<svg xmlns="http://www.w3.org/2000/svg" viewBox="0 0 162 270"><defs><style>.cls-1{fill:#dbd6d8;}.cls-2{fill:#452774;}.cls-3{fill:#181f15;}.cls-4{fill:#73559f;}</style></defs><g id="Layer_2" data-name="Layer 2"><g id="BG"><rect class="cls-1" width="162" height="270"/></g><g id="Element"><circle class="cls-2" cx="126.32" cy="7.05" r="1.04"/><circle class="cls-2" cx="126.32" cy="14.51" r="1.04"/><circle class="cls-2" cx="126.32" cy="21.96" r="1.04"/><circle class="cls-2" cx="126.32" cy="29.41" r="1.04"/><circle class="cls-2" cx="126.32" cy="36.86" r="1.04"/><circle class="cls-2" cx="126.32" cy="44.32" r="1.04"/><circle class="cls-2" cx="126.32" cy="51.77" r="1.04"/><circle class="cls-2" cx="126.32" cy="59.22" r="1.04"/><circle class="cls-2" cx="126.32" cy="66.67" r="1.04"/><circle class="cls-2" cx="126.32" cy="74.13" r="1.04"/><circle class="cls-2" cx="126.32" cy="81.58" r="1.04"/><circle class="cls-2" cx="126.32" cy="89.03" r="1.04"/><circle class="cls-2" cx="126.32" cy="96.48" r="1.04"/><circle class="cls-2" cx="126.32" cy="103.94" r="1.04"/><circle class="cls-2" cx="126.32" cy="111.39" r="1.04"/><circle class="cls-2" cx="126.32" cy="118.84" r="1.04"/><circle class="cls-2" cx="126.32" cy="126.29" r="1.04"/><circle class="cls-2" cx="126.32" cy="133.75" r="1.04"/><circle class="cls-2" cx="126.32" cy="141.2" r="1.04"/><circle class="cls-2" cx="126.32" cy="148.65" r="1.04"/><circle class="cls-2" cx="126.32" cy="156.11" r="1.04"/><circle class="cls-2" cx="133.71" cy="2.76" r="1.04"/><circle class="cls-2" cx="133.71" cy="10.21" r="1.04"/><circle class="cls-2" cx="133.71" cy="17.66" r="1.04"/><circle class="cls-2" cx="133.71" cy="25.12" r="1.04"/><circle class="cls-2" cx="133.71" cy="32.57" r="1.04"/><circle class="cls-2" cx="133.71" cy="40.02" r="1.04"/><circle class="cls-2" cx="133.71" cy="47.47" r="1.04"/><circle class="cls-2" cx="133.71" cy="54.93" r="1.04"/><circle class="cls-2" cx="133.71" cy="62.38" r="1.04"/><circle class="cls-2" cx="133.71" cy="69.83" r="1.04"/><circle class="cls-2" cx="133.71" cy="77.28" r="1.04"/><circle class="cls-2" cx="133.71" cy="84.74" r="1.04"/><circle class="cls-2" cx="133.71" cy="92.19" r="1.04"/><circle class="cls-2" cx="133.71" cy="99.64" r="1.04"/><circle class="cls-2" cx="133.71" cy="107.09" r="1.04"/><circle class="cls-2" cx="133.71" cy="114.55" r="1.04"/><circle class="cls-2" cx="133.71" cy="122" r="1.04"/><circle class="cls-2" cx="133.71" cy="129.45" r="1.04"/><circle class="cls-2" cx="133.71" cy="136.91" r="1.04"/><circle class="cls-2" cx="133.71" cy="144.36" r="1.04"/><circle class="cls-2" cx="133.71" cy="151.81" r="1.04"/><circle class="cls-2" cx="141.1" cy="5.92" r="1.04"/><circle class="cls-2" cx="141.1" cy="13.37" r="1.04"/><circle class="cls-2" cx="141.1" cy="20.82" r="1.04"/><circle class="cls-2" cx="141.1" cy="28.27" r="1.04"/><circle class="cls-2" cx="141.1" cy="35.73" r="1.04"/><circle class="cls-2" cx="141.1" cy="43.18" r="1.04"/><circle class="cls-2" cx="141.1" cy="50.63" r="1.04"/><circle class="cls-2" cx="141.1" cy="58.08" r="1.04"/><circle class="cls-2" cx="141.1" cy="65.54" r="1.04"/><circle class="cls-2" cx="141.1" cy="72.99" r="1.04"/><circle class="cls-2" cx="141.1" cy="80.44" r="1.04"/><circle class="cls-2" cx="141.1" cy="87.89" r="1.04"/><circle class="cls-2" cx="141.1" cy="95.35" r="1.04"/><circle class="cls-2" cx="141.1" cy="102.8" r="1.04"/><circle class="cls-2" cx="141.1" cy="110.25" r="1.04"/><circle class="cls-2" cx="141.1" cy="117.71" r="1.04"/><circle class="cls-2" cx="141.1" cy="125.16" r="1.04"/><circle class="cls-2" cx="141.1" cy="132.61" r="1.04"/><circle class="cls-2" cx="141.1" cy="140.06" r="1.04"/><circle class="cls-2" cx="141.1" cy="147.52" r="1.04"/><circle class="cls-2" cx="148.49" cy="1.62" r="1.04"/><circle class="cls-2" cx="148.49" cy="9.07" r="1.04"/><circle class="cls-2" cx="148.49" cy="16.53" r="1.04"/><circle class="cls-2" cx="148.49" cy="23.98" r="1.04"/><circle class="cls-2" cx="148.49" cy="31.43" r="1.04"/><circle class="cls-2" cx="148.49" cy="38.88" r="1.04"/><circle class="cls-2" cx="148.49" cy="46.34" r="1.04"/><circle class="cls-2" cx="148.49" cy="53.79" r="1.04"/><circle class="cls-2" cx="148.49" cy="61.24" r="1.04"/><circle class="cls-2" cx="148.49" cy="68.69" r="1.04"/><circle class="cls-2" cx="148.49" cy="76.15" r="1.04"/><circle class="cls-2" cx="148.49" cy="83.6" r="1.04"/><circle class="cls-2" cx="148.49" cy="91.05" r="1.04"/><circle class="cls-2" cx="148.49" cy="98.51" r="1.04"/><circle class="cls-2" cx="148.49" cy="105.96" r="1.04"/><circle class="cls-2" cx="148.49" cy="113.41" r="1.04"/><circle class="cls-2" cx="148.49" cy="120.86" r="1.04"/><circle class="cls-2" cx="148.49" cy="128.32" r="1.04"/><circle class="cls-2" cx="148.49" cy="135.77" r="1.04"/><circle class="cls-2" cx="148.49" cy="143.22" r="1.04"/><polygon class="cls-2" points="40.3 39.82 40.3 175.5 0 175.5 0 63.09 8.89 57.95 40.3 39.82"/><rect class="cls-3" x="40.21" width="81.58" height="201.37"/><polygon class="cls-4" points="162 146.35 162 269.88 0 269.88 0 52.82 8.89 57.95 40.3 76.09 162 146.35"/><rect class="cls-3" x="39.26" y="243" width="3.02" height="26.77"/><rect class="cls-3" x="45.3" y="243" width="3.02" height="26.77"/><rect class="cls-3" x="51.34" y="243" width="3.02" height="26.77"/><rect class="cls-3" x="57.39" y="243" width="3.02" height="26.77"/><rect class="cls-3" x="63.43" y="243" width="3.02" height="26.77"/><rect class="cls-3" x="69.47" y="243" width="3.02" height="26.77"/><rect class="cls-3" x="75.52" y="243" width="3.02" height="26.77"/><rect class="cls-3" x="81.56" y="243" width="3.02" height="26.77"/><rect class="cls-3" x="87.6" y="243" width="3.02" height="26.77"/><rect class="cls-3" x="93.64" y="243" width="3.02" height="26.77"/><rect class="cls-3" x="99.69" y="243" width="3.02" height="26.77"/><rect class="cls-3" x="105.73" y="243" width="3.02" height="26.77"/><rect class="cls-3" x="111.77" y="243" width="3.02" height="26.77"/><rect class="cls-3" x="117.81" y="243" width="3.02" height="26.77"/><rect class="cls-1" x="114.79" y="243" width="3.02" height="26.77"/><rect class="cls-1" x="108.75" y="243" width="3.02" height="26.77"/><rect class="cls-1" x="102.71" y="243" width="3.02" height="26.77"/><rect class="cls-1" x="96.66" y="243" width="3.02" height="26.77"/><rect class="cls-1" x="90.62" y="243" width="3.02" height="26.77"/><rect class="cls-1" x="84.58" y="243" width="3.02" height="26.77"/><rect class="cls-1" x="78.54" y="243" width="3.02" height="26.77"/><rect class="cls-1" x="72.49" y="243" width="3.02" height="26.77"/><rect class="cls-1" x="66.45" y="243" width="3.02" height="26.77"/><rect class="cls-1" x="60.41" y="243" width="3.02" height="26.77"/><rect class="cls-1" x="54.37" y="243" width="3.02" height="26.77"/><rect class="cls-1" x="48.32" y="243" width="3.02" height="26.77"/><rect class="cls-1" x="42.28" y="243" width="3.02" height="26.77"/></g></g></svg>
