<svg xmlns="http://www.w3.org/2000/svg" xmlns:xlink="http://www.w3.org/1999/xlink" viewBox="0 0 109.35 182.33"><defs><style>.cls-1{fill:none;}.cls-2{fill:url(#radial-gradient);}.cls-3{fill:url(#linear-gradient);}.cls-4{fill:url(#linear-gradient-2);}.cls-5{fill:url(#linear-gradient-3);}.cls-6{fill:url(#linear-gradient-4);}.cls-7{clip-path:url(#clip-path);}.cls-8{fill:url(#linear-gradient-5);}.cls-9{fill:url(#linear-gradient-6);}.cls-10{fill:url(#linear-gradient-7);}.cls-11{fill:url(#linear-gradient-8);}.cls-12{fill:url(#linear-gradient-9);}.cls-13{fill:url(#linear-gradient-10);}.cls-14{fill:url(#linear-gradient-11);}.cls-15{fill:url(#linear-gradient-12);}.cls-16{fill:url(#linear-gradient-13);}.cls-17{fill:url(#linear-gradient-14);}.cls-18{fill:url(#linear-gradient-15);}.cls-19{fill:url(#linear-gradient-16);}.cls-20{fill:url(#linear-gradient-17);}.cls-21{fill:url(#linear-gradient-18);}.cls-22{fill:url(#linear-gradient-19);}.cls-23{fill:url(#linear-gradient-20);}.cls-24{clip-path:url(#clip-path-2);}.cls-25{fill:url(#linear-gradient-21);}.cls-26{fill:url(#linear-gradient-22);}.cls-27{fill:url(#linear-gradient-23);}.cls-28{fill:url(#linear-gradient-24);}.cls-29{fill:url(#linear-gradient-25);}.cls-30{fill:url(#linear-gradient-26);}.cls-31{fill:url(#linear-gradient-27);}.cls-32{fill:url(#linear-gradient-28);}.cls-33{fill:url(#linear-gradient-29);}.cls-34{fill:url(#linear-gradient-30);}.cls-35{fill:url(#linear-gradient-31);}.cls-36{fill:url(#linear-gradient-32);}.cls-37{fill:url(#linear-gradient-33);}.cls-38{fill:url(#linear-gradient-34);}.cls-39{fill:url(#linear-gradient-35);}.cls-40{fill:url(#linear-gradient-36);}.cls-41{fill:url(#linear-gradient-37);}.cls-42{fill:url(#linear-gradient-38);}.cls-43{fill:url(#linear-gradient-39);}.cls-44{fill:#fff;}</style><radialGradient id="radial-gradient" cx="-107.05" cy="101.08" r="72.51" gradientTransform="translate(-45.76 192.25) rotate(180)" gradientUnits="userSpaceOnUse"><stop offset="0" stop-color="#8768ad" stop-opacity="0"/><stop offset="1" stop-color="#8768ad" stop-opacity="0.2"/></radialGradient><linearGradient id="linear-gradient" x1="49.55" y1="155.25" x2="24.57" y2="196.32" gradientUnits="userSpaceOnUse"><stop offset="0" stop-color="#f78f2b"/><stop offset="1" stop-color="#f7c057"/></linearGradient><linearGradient id="linear-gradient-2" x1="9.29" y1="189.78" x2="41.47" y2="153.85" xlink:href="#linear-gradient"/><linearGradient id="linear-gradient-3" x1="68.25" y1="37.43" x2="103.62" y2="-2.05" xlink:href="#linear-gradient"/><linearGradient id="linear-gradient-4" x1="110.97" y1="-0.61" x2="68.87" y2="36.7" xlink:href="#linear-gradient"/><clipPath id="clip-path"><circle class="cls-1" cx="26.74" cy="37.45" r="9.87"/></clipPath><linearGradient id="linear-gradient-5" x1="12.04" y1="25.68" x2="38.99" y2="42.8" gradientTransform="translate(-15.89 23.22) rotate(-45)" gradientUnits="userSpaceOnUse"><stop offset="0" stop-color="#ae3895"/><stop offset="1" stop-color="#e88dbb"/></linearGradient><linearGradient id="linear-gradient-6" x1="11.89" y1="25.92" x2="38.84" y2="43.03" gradientTransform="translate(-16.26 24.11) rotate(-45)" xlink:href="#linear-gradient-5"/><linearGradient id="linear-gradient-7" x1="11.74" y1="26.15" x2="38.69" y2="43.26" gradientTransform="translate(-16.63 25) rotate(-45)" xlink:href="#linear-gradient-5"/><linearGradient id="linear-gradient-8" x1="11.6" y1="26.38" x2="38.55" y2="43.49" gradientTransform="translate(-17 25.88) rotate(-45)" xlink:href="#linear-gradient-5"/><linearGradient id="linear-gradient-9" x1="11.45" y1="26.61" x2="38.4" y2="43.72" gradientTransform="translate(-17.36 26.77) rotate(-45)" xlink:href="#linear-gradient-5"/><linearGradient id="linear-gradient-10" x1="11.3" y1="26.84" x2="38.26" y2="43.95" gradientTransform="translate(-17.73 27.66) rotate(-45)" xlink:href="#linear-gradient-5"/><linearGradient id="linear-gradient-11" x1="11.16" y1="27.07" x2="38.11" y2="44.18" gradientTransform="translate(-18.1 28.55) rotate(-45)" xlink:href="#linear-gradient-5"/><linearGradient id="linear-gradient-12" x1="11.01" y1="27.3" x2="37.96" y2="44.41" gradientTransform="translate(-18.47 29.43) rotate(-45)" xlink:href="#linear-gradient-5"/><linearGradient id="linear-gradient-13" x1="10.86" y1="27.53" x2="37.82" y2="44.64" gradientTransform="translate(-18.83 30.32) rotate(-45)" xlink:href="#linear-gradient-5"/><linearGradient id="linear-gradient-14" x1="10.72" y1="27.76" x2="37.67" y2="44.88" gradientTransform="translate(-19.2 31.21) rotate(-45)" xlink:href="#linear-gradient-5"/><linearGradient id="linear-gradient-15" x1="10.57" y1="27.99" x2="37.52" y2="45.11" gradientTransform="translate(-19.57 32.1) rotate(-45)" xlink:href="#linear-gradient-5"/><linearGradient id="linear-gradient-16" x1="10.42" y1="28.22" x2="37.38" y2="45.34" gradientTransform="translate(-19.94 32.98) rotate(-45)" xlink:href="#linear-gradient-5"/><linearGradient id="linear-gradient-17" x1="10.28" y1="28.46" x2="37.23" y2="45.57" gradientTransform="translate(-20.3 33.87) rotate(-45)" xlink:href="#linear-gradient-5"/><linearGradient id="linear-gradient-18" x1="10.13" y1="28.69" x2="37.08" y2="45.8" gradientTransform="translate(-20.67 34.76) rotate(-45)" xlink:href="#linear-gradient-5"/><linearGradient id="linear-gradient-19" x1="9.98" y1="28.92" x2="36.94" y2="46.03" gradientTransform="translate(-21.04 35.64) rotate(-45)" xlink:href="#linear-gradient-5"/><linearGradient id="linear-gradient-20" x1="9.84" y1="29.15" x2="36.79" y2="46.26" gradientTransform="translate(-21.41 36.53) rotate(-45)" xlink:href="#linear-gradient-5"/><clipPath id="clip-path-2"><circle class="cls-1" cx="81.12" cy="150.26" r="9.87"/></clipPath><linearGradient id="linear-gradient-21" x1="92.27" y1="168.69" x2="71.05" y2="138.8" gradientTransform="translate(-79.73 94.72) rotate(-45)" xlink:href="#linear-gradient-5"/><linearGradient id="linear-gradient-22" x1="92.44" y1="168.56" x2="71.22" y2="138.67" gradientTransform="translate(-80.1 95.6) rotate(-45)" xlink:href="#linear-gradient-5"/><linearGradient id="linear-gradient-23" x1="92.62" y1="168.44" x2="71.39" y2="138.55" gradientTransform="translate(-80.47 96.49) rotate(-45)" xlink:href="#linear-gradient-5"/><linearGradient id="linear-gradient-24" x1="92.79" y1="168.32" x2="71.57" y2="138.43" gradientTransform="translate(-80.83 97.38) rotate(-45)" xlink:href="#linear-gradient-5"/><linearGradient id="linear-gradient-25" x1="92.96" y1="168.2" x2="71.74" y2="138.31" gradientTransform="translate(-81.2 98.26) rotate(-45)" xlink:href="#linear-gradient-5"/><linearGradient id="linear-gradient-26" x1="93.13" y1="168.08" x2="71.91" y2="138.19" gradientTransform="translate(-81.57 99.15) rotate(-45)" xlink:href="#linear-gradient-5"/><linearGradient id="linear-gradient-27" x1="93.3" y1="167.96" x2="72.08" y2="138.07" gradientTransform="translate(-81.94 100.04) rotate(-45)" xlink:href="#linear-gradient-5"/><linearGradient id="linear-gradient-28" x1="93.47" y1="167.84" x2="72.25" y2="137.95" gradientTransform="translate(-82.31 100.93) rotate(-45)" xlink:href="#linear-gradient-5"/><linearGradient id="linear-gradient-29" x1="93.64" y1="167.71" x2="72.42" y2="137.82" gradientTransform="translate(-82.67 101.81) rotate(-45)" xlink:href="#linear-gradient-5"/><linearGradient id="linear-gradient-30" x1="93.81" y1="167.59" x2="72.59" y2="137.7" gradientTransform="translate(-83.04 102.7) rotate(-45)" xlink:href="#linear-gradient-5"/><linearGradient id="linear-gradient-31" x1="93.98" y1="167.47" x2="72.76" y2="137.58" gradientTransform="translate(-83.41 103.59) rotate(-45)" xlink:href="#linear-gradient-5"/><linearGradient id="linear-gradient-32" x1="94.16" y1="167.35" x2="72.94" y2="137.46" gradientTransform="translate(-83.78 104.48) rotate(-45)" xlink:href="#linear-gradient-5"/><linearGradient id="linear-gradient-33" x1="94.33" y1="167.23" x2="73.11" y2="137.34" gradientTransform="translate(-84.14 105.36) rotate(-45)" xlink:href="#linear-gradient-5"/><linearGradient id="linear-gradient-34" x1="94.5" y1="167.11" x2="73.28" y2="137.22" gradientTransform="translate(-84.51 106.25) rotate(-45)" xlink:href="#linear-gradient-5"/><linearGradient id="linear-gradient-35" x1="94.67" y1="166.99" x2="73.45" y2="137.09" gradientTransform="translate(-84.88 107.14) rotate(-45)" xlink:href="#linear-gradient-5"/><linearGradient id="linear-gradient-36" x1="94.84" y1="166.86" x2="73.62" y2="136.97" gradientTransform="translate(-85.25 108.03) rotate(-45)" xlink:href="#linear-gradient-5"/><linearGradient id="linear-gradient-37" x1="36.79" y1="16.05" x2="55.5" y2="34.76" gradientTransform="matrix(1, 0, 0, 1, 0, 0)" xlink:href="#linear-gradient-5"/><linearGradient id="linear-gradient-38" x1="-49.49" y1="47.41" x2="67.22" y2="147.35" gradientTransform="matrix(1, 0, 0, 1, 0, 0)" xlink:href="#linear-gradient-5"/><linearGradient id="linear-gradient-39" x1="36.03" y1="16.81" x2="54.74" y2="35.52" gradientTransform="matrix(1, 0, 0, 1, 0, 0)" xlink:href="#linear-gradient-5"/></defs><g id="Layer_2" data-name="Layer 2"><g id="Layer_1-2" data-name="Layer 1"><path class="cls-2" d="M20,0S7.63,31,19.53,85.84s-1.47,96.49-1.47,96.49l48.6-.08S88.44,159,86.85,104.07C84.47,22,108.23,0,108.23,0Z"/><path class="cls-3" d="M98.13,182.33H0V129.75C1.4,137.9,4.55,142.52,8.6,145c5.14,3.1,11.72,2.73,18,1.65,8.39-1.46,16.17-4.18,19.06-1.47,2.62,2.45,3,7.1,4.19,11.76,1.44,5.51,4.1,11,13.19,12.89a42.69,42.69,0,0,0,11.63.5C95.93,168.76,98.53,177.11,98.13,182.33Z"/><path class="cls-4" d="M64.85,162.45A57.16,57.16,0,0,1,63,169.8a62.19,62.19,0,0,1-5.68,12.53H0V155.61H0A35.35,35.35,0,0,1,8.6,145c4.75-3.67,11.06-5.31,18,1.65.49.49,1,1,1.49,1.63,6.55,7.73,14.75,8.81,21.76,8.66C59.1,156.71,66.31,154.36,64.85,162.45Z"/><path class="cls-5" d="M36.61.08s4.76,19.56,35.83,22.27c30.31,2.64,6.08,41.87,36.91,41.87V.08Z"/><path class="cls-6" d="M62.15.08S39.74,53,109.35,43.4V.08Z"/><g class="cls-7"><rect class="cls-8" x="19.8" y="20.93" width="0.57" height="19.74" transform="translate(27.66 -5.18) rotate(45)"/><rect class="cls-9" x="20.69" y="21.81" width="0.57" height="19.74" transform="translate(28.55 -5.55) rotate(45)"/><rect class="cls-10" x="21.57" y="22.7" width="0.57" height="19.74" transform="translate(29.43 -5.92) rotate(45)"/><rect class="cls-11" x="22.46" y="23.59" width="0.57" height="19.74" transform="translate(30.32 -6.28) rotate(45)"/><rect class="cls-12" x="23.35" y="24.48" width="0.57" height="19.74" transform="translate(31.21 -6.65) rotate(45)"/><rect class="cls-13" x="24.24" y="25.36" width="0.57" height="19.74" transform="translate(32.09 -7.02) rotate(45)"/><rect class="cls-14" x="25.12" y="26.25" width="0.57" height="19.74" transform="translate(32.98 -7.39) rotate(45)"/><rect class="cls-15" x="26.01" y="27.14" width="0.57" height="19.74" transform="translate(33.87 -7.76) rotate(45)"/><rect class="cls-16" x="26.9" y="28.03" width="0.57" height="19.74" transform="translate(34.76 -8.12) rotate(45)"/><rect class="cls-17" x="27.79" y="28.91" width="0.57" height="19.74" transform="translate(35.64 -8.49) rotate(45)"/><rect class="cls-18" x="28.67" y="29.8" width="0.57" height="19.74" transform="translate(36.53 -8.86) rotate(45)"/><rect class="cls-19" x="29.56" y="30.69" width="0.57" height="19.74" transform="translate(37.42 -9.23) rotate(45)"/><rect class="cls-20" x="30.45" y="31.58" width="0.57" height="19.74" transform="translate(38.31 -9.59) rotate(45)"/><rect class="cls-21" x="31.34" y="32.46" width="0.57" height="19.74" transform="translate(39.19 -9.96) rotate(45)"/><rect class="cls-22" x="32.22" y="33.35" width="0.57" height="19.74" transform="translate(40.08 -10.33) rotate(45)"/><rect class="cls-23" x="33.11" y="34.24" width="0.57" height="19.74" transform="translate(40.97 -10.7) rotate(45)"/></g><g class="cls-24"><rect class="cls-25" x="74.18" y="133.73" width="0.57" height="19.74" transform="translate(123.35 -10.59) rotate(45)"/><rect class="cls-26" x="75.07" y="134.62" width="0.57" height="19.74" transform="translate(124.24 -10.96) rotate(45)"/><rect class="cls-27" x="75.96" y="135.51" width="0.57" height="19.74" transform="translate(125.13 -11.33) rotate(45)"/><rect class="cls-28" x="76.84" y="136.4" width="0.57" height="19.74" transform="translate(126.02 -11.7) rotate(45)"/><rect class="cls-29" x="77.73" y="137.28" width="0.57" height="19.74" transform="translate(126.9 -12.06) rotate(45)"/><rect class="cls-30" x="78.62" y="138.17" width="0.57" height="19.74" transform="translate(127.79 -12.43) rotate(45)"/><rect class="cls-31" x="79.5" y="139.06" width="0.57" height="19.74" transform="translate(128.68 -12.8) rotate(45)"/><rect class="cls-32" x="80.39" y="139.95" width="0.57" height="19.74" transform="translate(129.56 -13.17) rotate(45)"/><rect class="cls-33" x="81.28" y="140.83" width="0.57" height="19.74" transform="translate(130.45 -13.54) rotate(45)"/><rect class="cls-34" x="82.17" y="141.72" width="0.57" height="19.74" transform="translate(131.34 -13.9) rotate(45)"/><rect class="cls-35" x="83.05" y="142.61" width="0.57" height="19.74" transform="translate(132.23 -14.27) rotate(45)"/><rect class="cls-36" x="83.94" y="143.5" width="0.57" height="19.74" transform="translate(133.11 -14.64) rotate(45)"/><rect class="cls-37" x="84.83" y="144.38" width="0.57" height="19.74" transform="translate(134 -15.01) rotate(45)"/><rect class="cls-38" x="85.72" y="145.27" width="0.57" height="19.74" transform="translate(134.89 -15.37) rotate(45)"/><rect class="cls-39" x="86.6" y="146.16" width="0.57" height="19.74" transform="translate(135.78 -15.74) rotate(45)"/><rect class="cls-40" x="87.49" y="147.05" width="0.57" height="19.74" transform="translate(136.66 -16.11) rotate(45)"/></g><circle class="cls-41" cx="39.5" cy="18.76" r="1.58"/><circle class="cls-42" cx="60.75" cy="141.81" r="1.58"/><circle class="cls-43" cx="50.59" cy="31.38" r="4.09"/><circle class="cls-44" cx="60.29" cy="36.99" r="0.46"/><circle class="cls-44" cx="66.37" cy="36.99" r="0.46"/><circle class="cls-44" cx="72.44" cy="36.99" r="0.46"/><circle class="cls-44" cx="78.52" cy="36.99" r="0.46"/><circle class="cls-44" cx="84.59" cy="36.99" r="0.46"/><circle class="cls-44" cx="90.67" cy="36.99" r="0.46"/><circle class="cls-44" cx="96.74" cy="36.99" r="0.46"/><circle class="cls-44" cx="60.29" cy="30.91" r="0.46"/><circle class="cls-44" cx="66.37" cy="30.91" r="0.46"/><circle class="cls-44" cx="72.44" cy="30.91" r="0.46"/><circle class="cls-44" cx="78.52" cy="30.91" r="0.46"/><circle class="cls-44" cx="84.59" cy="30.91" r="0.46"/><circle class="cls-44" cx="90.67" cy="30.91" r="0.46"/><circle class="cls-44" cx="96.74" cy="30.91" r="0.46"/><circle class="cls-44" cx="60.29" cy="24.84" r="0.46"/><circle class="cls-44" cx="66.37" cy="24.84" r="0.46"/><circle class="cls-44" cx="72.44" cy="24.84" r="0.46"/><circle class="cls-44" cx="78.52" cy="24.84" r="0.46"/><circle class="cls-44" cx="84.59" cy="24.84" r="0.46"/><circle class="cls-44" cx="90.67" cy="24.84" r="0.46"/><circle class="cls-44" cx="96.74" cy="24.84" r="0.46"/><circle class="cls-44" cx="60.29" cy="18.76" r="0.46"/><circle class="cls-44" cx="66.37" cy="18.76" r="0.46"/><circle class="cls-44" cx="72.44" cy="18.76" r="0.46"/><circle class="cls-44" cx="78.52" cy="18.76" r="0.46"/><circle class="cls-44" cx="84.59" cy="18.76" r="0.46"/><circle class="cls-44" cx="90.67" cy="18.76" r="0.46"/><circle class="cls-44" cx="96.74" cy="18.76" r="0.46"/><circle class="cls-44" cx="60.29" cy="12.69" r="0.46"/><circle class="cls-44" cx="66.37" cy="12.69" r="0.46"/><circle class="cls-44" cx="72.44" cy="12.69" r="0.46"/><circle class="cls-44" cx="78.52" cy="12.69" r="0.46"/><circle class="cls-44" cx="84.59" cy="12.69" r="0.46"/><circle class="cls-44" cx="90.67" cy="12.69" r="0.46"/><circle class="cls-44" cx="96.74" cy="12.69" r="0.46"/><circle class="cls-44" cx="12.61" cy="145.42" r="0.46"/><circle class="cls-44" cx="18.69" cy="145.42" r="0.46"/><circle class="cls-44" cx="24.76" cy="145.42" r="0.46"/><circle class="cls-44" cx="30.84" cy="145.42" r="0.46"/><circle class="cls-44" cx="36.91" cy="145.42" r="0.46"/><circle class="cls-44" cx="42.99" cy="145.42" r="0.46"/><circle class="cls-44" cx="49.06" cy="145.42" r="0.46"/><circle class="cls-44" cx="12.61" cy="151.49" r="0.46"/><circle class="cls-44" cx="18.69" cy="151.49" r="0.46"/><circle class="cls-44" cx="24.76" cy="151.49" r="0.46"/><circle class="cls-44" cx="30.84" cy="151.49" r="0.46"/><circle class="cls-44" cx="36.91" cy="151.49" r="0.46"/><circle class="cls-44" cx="42.99" cy="151.49" r="0.46"/><circle class="cls-44" cx="49.06" cy="151.49" r="0.46"/><circle class="cls-44" cx="12.61" cy="157.57" r="0.46"/><circle class="cls-44" cx="18.69" cy="157.57" r="0.46"/><circle class="cls-44" cx="24.76" cy="157.57" r="0.46"/><circle class="cls-44" cx="30.84" cy="157.57" r="0.46"/><circle class="cls-44" cx="36.91" cy="157.57" r="0.46"/><circle class="cls-44" cx="42.99" cy="157.57" r="0.46"/><circle class="cls-44" cx="49.06" cy="157.57" r="0.46"/><circle class="cls-44" cx="12.61" cy="163.64" r="0.46"/><circle class="cls-44" cx="18.69" cy="163.64" r="0.46"/><circle class="cls-44" cx="24.76" cy="163.64" r="0.46"/><circle class="cls-44" cx="30.84" cy="163.64" r="0.46"/><circle class="cls-44" cx="36.91" cy="163.64" r="0.46"/><circle class="cls-44" cx="42.99" cy="163.64" r="0.46"/><circle class="cls-44" cx="49.06" cy="163.64" r="0.46"/><circle class="cls-44" cx="12.61" cy="169.72" r="0.46"/><circle class="cls-44" cx="18.69" cy="169.72" r="0.46"/><circle class="cls-44" cx="24.76" cy="169.72" r="0.46"/><circle class="cls-44" cx="30.84" cy="169.72" r="0.46"/><circle class="cls-44" cx="36.91" cy="169.72" r="0.46"/><circle class="cls-44" cx="42.99" cy="169.72" r="0.46"/><circle class="cls-44" cx="49.06" cy="169.72" r="0.46"/></g></g></svg>