<svg xmlns="http://www.w3.org/2000/svg" viewBox="0 0 171 263.95"><defs><style>.cls-1{fill:#fff;}.cls-2{fill:#1a3761;}</style></defs><g id="Layer_2" data-name="Layer 2"><g id="BG"><rect class="cls-1" y="1.81" width="171" height="262.14"/><rect class="cls-2" x="161.15" y="127.85" width="0.28" height="19.42" transform="translate(23.73 298.85) rotate(-90)"/><rect class="cls-2" x="146.12" y="13.35" width="27.38" height="4.31" transform="translate(175.31 -144.3) rotate(90)"/><rect class="cls-2" x="147.59" y="225.08" width="6.32" height="6.51"/><rect class="cls-2" x="16.52" width="0.44" height="18.21" transform="translate(33.49 18.21) rotate(180)"/><rect class="cls-2" x="153.83" y="73.66" width="0.27" height="48.49" transform="translate(307.92 195.81) rotate(180)"/><rect class="cls-2" y="216.89" width="26.14" height="4.44"/><rect class="cls-2" x="15.81" y="56.88" width="8.87" height="9.15"/><rect class="cls-2" x="124.29" y="12.16" width="6.32" height="6.51"/><rect class="cls-2" x="144.44" y="180.86" width="14.28" height="14.72"/><rect class="cls-2" x="152.23" y="23.34" width="2.68" height="34.85" transform="translate(194.34 -112.81) rotate(90)"/><rect class="cls-2" x="7.52" y="86.94" width="6.89" height="21.93" transform="translate(108.87 86.94) rotate(90)"/><rect class="cls-2" x="126.26" y="222.18" width="0.77" height="12.67" transform="translate(253.28 457.03) rotate(180)"/><rect class="cls-2" x="15.34" y="110.76" width="0.27" height="48.49" transform="translate(30.95 270) rotate(180)"/><rect class="cls-2" x="146.18" y="180.66" width="0.28" height="49.37" transform="translate(-59.02 351.66) rotate(-90)"/></g><g id="ELEMENT"><rect class="cls-2" y="239.18" width="171" height="24.77"/></g></g></svg>
