<svg xmlns="http://www.w3.org/2000/svg" xmlns:xlink="http://www.w3.org/1999/xlink" viewBox="0 0 269.08 161.4"><defs><style>.cls-1{fill:none;}.cls-2{fill:#d1d3d4;}.cls-3{fill:#177e8c;}.cls-4{clip-path:url(#clip-path);}.cls-5{opacity:0.5;}.cls-6{fill:#12a7b2;}</style><clipPath id="clip-path"><rect class="cls-1" y="0.01" width="269.06" height="68.14"/></clipPath></defs><g id="Layer_2" data-name="Layer 2"><g id="Background"><g id="Background-2" data-name="Background"><rect class="cls-2" x="0.08" y="0.4" width="269" height="161"/></g><rect class="cls-3" x="0.03" width="269.04" height="73.29"/></g><g id="Shapes"><g class="cls-4"><g class="cls-5"><path class="cls-6" d="M277,74.61l-.07,0s.49-.88-1.29-4.1c-1.64-3-5.6-8.59-15.14-18.56-4.81-5-13.38-7.71-26.95-8.43-12-.63-25.94.34-40.72,1.37C171.26,46.37,149,47.92,133.66,44c-12.59-3.22-21.25-7.54-26.47-13.23-4.5-4.9-5.71-10-6.78-14.42C99.16,11.14,98.17,7,92.49,5.11a4.33,4.33,0,0,0-3,.1c-5.11,2.06-9.43,13.21-14,25-5.38,13.89-11,28.25-18.33,29A6,6,0,0,1,52.06,57a22.48,22.48,0,0,1-4-6.72c-2.34-5.64-4.23-13.39-6.06-20.89-1.73-7.1-3.52-14.45-5.69-19.92a25.52,25.52,0,0,0-3.6-6.65A6.38,6.38,0,0,0,28.26.08c-4-.25-7,1.73-9.28,6.06-2,3.73-3,8.5-3.92,12.7-.44,2-.86,3.92-1.32,5.4-.54,1.71-2,3.33-4.44,4.81a35.49,35.49,0,0,1-7.46,3.29A73.21,73.21,0,0,1-8.3,34.81v-.06A73.85,73.85,0,0,0,1.81,32.27c4.74-1.55,10.65-4.21,11.85-8.05.46-1.48.88-3.38,1.32-5.39.92-4.21,2-9,3.92-12.72C21.19,1.75,24.25-.24,28.26,0a6.46,6.46,0,0,1,4.56,2.74,25.37,25.37,0,0,1,3.62,6.67c2.16,5.47,4,12.82,5.69,19.93,1.83,7.49,3.71,15.24,6.06,20.88a22.28,22.28,0,0,0,3.93,6.69,5.88,5.88,0,0,0,5,2.2c7.33-.71,12.89-15,18.27-28.92,4.58-11.82,8.91-23,14-25a4.36,4.36,0,0,1,3.1-.1,9.65,9.65,0,0,1,5.67,4.44,26.13,26.13,0,0,1,2.3,6.85c2.05,8.59,4.87,20.36,33.19,27.6,15.33,3.91,37.58,2.36,59.11.85,14.78-1,28.73-2,40.72-1.37a71.74,71.74,0,0,1,16,2.39c4.85,1.42,8.44,3.4,11,6.07,9.58,10,13.54,15.65,15.17,18.62C277.47,73.73,277,74.58,277,74.61Z"/><path class="cls-6" d="M277.72,73.28a.28.28,0,0,1,0-.11c.12-1.43-1.24-6.43-16.48-21.88-4.79-4.85-13.24-7.4-26.61-8-11.8-.55-25.52.48-40.06,1.56-21.17,1.59-43.06,3.23-58.25-.48-12.22-3-20.7-7.06-25.92-12.46-4.49-4.66-5.82-9.5-7-13.76-1.39-5-2.48-9-8.15-10.76a4.62,4.62,0,0,0-3.17.16c-5.13,2.09-9.44,12.68-14,23.9-.81,2-1.65,4-2.49,6C70.93,48.51,65.76,58.81,59.5,59.29a6.17,6.17,0,0,1-5-2.14,21.29,21.29,0,0,1-4-6.36C48.19,45.46,46.26,38.12,44.39,31c-.54-2.05-1.09-4.17-1.65-6.21-1.56-5.69-3.27-11.55-5.34-15.89-2.22-4.66-4.6-7-7.27-7.23C26.59,1.41,23.85,3,21.77,6.42c-1.83,3-2.93,7.15-3.9,10.79a41.38,41.38,0,0,1-2.41,7.37C13.7,28.07,7.71,30.7,2.9,32.82l-.19.08A47.3,47.3,0,0,1-8.16,36l0-.07A47.29,47.29,0,0,0,2.68,32.84l.18-.08c4.8-2.11,10.78-4.74,12.53-8.21a42,42,0,0,0,2.4-7.35c1-3.65,2.08-7.78,3.91-10.82,2.1-3.48,4.86-5,8.44-4.76,2.7.21,5.1,2.59,7.33,7.27,2.07,4.35,3.79,10.21,5.34,15.91.56,2,1.12,4.16,1.66,6.2,1.86,7.1,3.8,14.44,6.15,19.76a21,21,0,0,0,3.93,6.34,6.11,6.11,0,0,0,4.94,2.13c6.22-.48,11.37-10.76,16-21.8.84-2,1.68-4,2.49-6C82.57,20.17,86.89,9.56,92,7.45a4.76,4.76,0,0,1,3.24-.15A9.72,9.72,0,0,1,101,11.51a25.14,25.14,0,0,1,2.46,6.59c2.26,8.22,5.36,19.46,32.87,26.17,15.17,3.71,37,2.07,58.22.49,14.53-1.09,28.26-2.12,40.07-1.57a71.34,71.34,0,0,1,15.78,2.23c4.78,1.35,8.34,3.25,10.88,5.83,15.26,15.46,16.63,20.48,16.5,21.92v.07Z"/><path class="cls-6" d="M278.56,72a.44.44,0,0,1-.05-.22c-.24-3.37-6.1-10.86-16.51-21.07C257.23,46,248.88,43.55,235.73,43c-11.62-.46-25.11.61-39.4,1.76C175.52,46.45,154,48.17,139,44.68,127.1,41.92,118.8,38.1,113.6,33c-4.49-4.42-5.94-9-7.21-13.1-1.52-4.83-2.73-8.66-8.39-10.27a5.33,5.33,0,0,0-4.72,1,17.92,17.92,0,0,0-4.37,5c-2.82,4.4-5.45,10.51-8.22,17-.85,2-1.74,4-2.62,6-2.94,6.62-5.27,11-7.56,14.27-3,4.2-5.78,6.32-8.64,6.48a6.4,6.4,0,0,1-5-2.09,20.79,20.79,0,0,1-3.94-6c-2.36-5-4.33-12-6.23-18.71-.64-2.23-1.29-4.54-2-6.76C41.38,14.26,37.84,3.84,32,3.29c-3.74-.35-6.68,1.29-9,5-2,3.23-3.15,7.47-4.18,11.21a55.29,55.29,0,0,1-1.68,5.4h0c-2.92,2.62-8,5.43-12.14,7.69l-1.69.93A35.74,35.74,0,0,1-8,37.12v-.07A35.74,35.74,0,0,0,3.3,33.49L5,32.56c4.11-2.25,9.22-5.06,12.13-7.67.58-1.46,1.11-3.37,1.67-5.38,1-3.75,2.21-8,4.19-11.23,2.3-3.76,5.26-5.41,9-5,5.89.55,9.44,11,12.85,22.57.67,2.22,1.32,4.53,2,6.76,1.91,6.73,3.88,13.68,6.24,18.71a20.58,20.58,0,0,0,3.92,6,6.3,6.3,0,0,0,4.9,2.06c2.82-.16,5.63-2.27,8.57-6.45A84.25,84.25,0,0,0,78,38.63c.89-2,1.77-4.05,2.63-6.05,5.5-12.83,10.7-24.94,17.41-23a9.75,9.75,0,0,1,5.79,4,23.69,23.69,0,0,1,2.64,6.34c2.46,7.82,5.83,18.55,32.53,24.74,15,3.49,36.53,1.77,57.33.11,14.29-1.14,27.79-2.22,39.41-1.76A70.87,70.87,0,0,1,251.28,45c4.73,1.28,8.25,3.1,10.78,5.59,6.83,6.7,11.64,12.13,14.3,16.14,2.1,3.19,2.2,4.53,2.23,5,0,.09,0,.15,0,.17Z"/><path class="cls-6" d="M279.39,70.61a.85.85,0,0,1-.1-.32c-.1-.58-.34-1.94-2.5-5-2.71-3.86-7.43-9-14-15.24-4.75-4.51-13-6.81-25.94-7.23-11.43-.38-24.69.75-38.74,1.94-20.44,1.75-41.58,3.55-56.46.28-11.51-2.53-19.63-6.11-24.82-11-4.48-4.17-6-8.56-7.43-12.42-1.66-4.65-3-8.32-8.62-9.79a5.63,5.63,0,0,0-4.78,1,17.48,17.48,0,0,0-4.41,4.8c-2.84,4.2-5.47,10-8.25,16.16-.9,2-1.83,4-2.76,6-4.51,9.59-10,19.43-16.31,19.66a6.69,6.69,0,0,1-5-2.06,20.14,20.14,0,0,1-3.95-5.76C53,46.88,51,40.54,49,33.83c-.71-2.32-1.43-4.71-2.17-7-3.74-11.63-7.3-21.3-13-21.92C25.69,4,23,12.82,20.76,19.91a50.34,50.34,0,0,1-1.85,5.35h0c-1.41.85-3,1.77-4.71,2.75C10.54,30.12,6.78,32.3,4,34.19-1.09,37.6-7.83,38.26-7.9,38.27V38.2c.07,0,6.79-.67,11.83-4.06,2.81-1.9,6.57-4.07,10.21-6.17,1.69-1,3.29-1.9,4.71-2.75a51.34,51.34,0,0,0,1.85-5.33c2.2-7.11,4.94-16,13.19-15.06,5.72.63,9.29,10.32,13,22,.74,2.3,1.46,4.69,2.16,7,2,6.71,4,13,6.34,17.85a19.86,19.86,0,0,0,3.94,5.74,6.61,6.61,0,0,0,4.89,2c6.28-.23,11.73-10,16.23-19.62.93-2,1.87-4,2.77-6,2.78-6.15,5.41-12,8.25-16.17a17.78,17.78,0,0,1,4.43-4.82,5.79,5.79,0,0,1,4.85-1,10,10,0,0,1,5.86,3.75,23.75,23.75,0,0,1,2.82,6.09c2.81,7.85,6.3,17.63,32.19,23.32,14.86,3.27,36,1.47,56.44-.27,14-1.2,27.31-2.33,38.75-2a70.67,70.67,0,0,1,15.32,1.9c4.66,1.21,8.15,3,10.67,5.35,6.59,6.26,11.31,11.39,14,15.26,2.17,3.09,2.42,4.46,2.52,5a.69.69,0,0,0,.09.29Z"/><path class="cls-6" d="M280.23,69.27a1,1,0,0,1-.17-.42c-.17-.67-.54-2.07-2.75-5-2.75-3.7-7.38-8.55-13.77-14.4-4.74-4.34-12.87-6.51-25.6-6.84-11.25-.29-24.29.89-38.09,2.14-20.07,1.82-40.84,3.7-55.56.66-11.15-2.31-19.08-5.65-24.27-10.2-4.47-3.93-6.15-8.09-7.64-11.75-1.81-4.46-3.23-8-8.87-9.3a6,6,0,0,0-4.83,1,17.29,17.29,0,0,0-4.44,4.59c-2.86,4-5.49,9.51-8.28,15.35-.95,2-1.93,4-2.92,6A72.3,72.3,0,0,1,75.28,54c-3,3.76-5.84,5.61-8.65,5.65a7,7,0,0,1-4.91-2,19.44,19.44,0,0,1-4-5.48c-2.4-4.56-4.35-10.57-6.42-16.93-.79-2.44-1.61-5-2.45-7.37A105.49,105.49,0,0,0,43.07,13.4c-2.33-4.31-4.72-6.57-7.32-6.89-7.94-1-10.79,7.22-13.07,13.82a46,46,0,0,1-2.05,5.27h0a75.77,75.77,0,0,0-16,9.23c-5,4-12.28,4.57-12.35,4.58v-.07c.07,0,7.29-.53,12.31-4.56a75.34,75.34,0,0,1,16-9.23,44.94,44.94,0,0,0,2-5.25c2.3-6.63,5.15-14.88,13.16-13.87,2.63.33,5,2.6,7.38,6.93A106.9,106.9,0,0,1,49,27.8c.84,2.41,1.66,4.93,2.45,7.37,2.07,6.36,4,12.36,6.41,16.92a19.69,19.69,0,0,0,3.94,5.46,6.89,6.89,0,0,0,4.85,2c2.79,0,5.6-1.88,8.6-5.62A72.81,72.81,0,0,0,83,41c1-2,2-4,2.92-6,2.79-5.84,5.42-11.35,8.28-15.36A17.23,17.23,0,0,1,98.63,15a6.13,6.13,0,0,1,4.91-1c5.67,1.34,7.1,4.87,8.92,9.34,3,7.45,6.77,16.72,31.85,21.91,14.71,3,35.46,1.16,55.53-.66,13.81-1.25,26.85-2.43,38.1-2.14A71,71,0,0,1,253,44.24c4.6,1.14,8.06,2.81,10.57,5.11,6.39,5.86,11,10.71,13.78,14.41,2.21,3,2.58,4.4,2.76,5.07a1.18,1.18,0,0,0,.15.4Z"/><path class="cls-6" d="M281.06,67.94a1.91,1.91,0,0,1-.24-.53c-.48-1.43-1.95-5.8-16.51-18.64-4.72-4.17-12.75-6.22-25.28-6.45-11.06-.2-23.87,1-37.42,2.34-19.71,1.9-40.09,3.86-54.66,1-10.78-2.09-18.54-5.18-23.71-9.45-4.46-3.69-6.26-7.61-7.86-11.08-1.95-4.25-3.5-7.61-9.11-8.8a6.48,6.48,0,0,0-4.89,1,17,17,0,0,0-4.47,4.37C94,25.5,91.27,31,88.61,36.24c-1,2-2,4-3.08,6a66.17,66.17,0,0,1-7.86,12.17c-3,3.49-5.86,5.22-8.67,5.31h-.2c-7.07,0-10.95-11.2-15.06-23.06-.9-2.6-1.83-5.29-2.8-7.85A107.68,107.68,0,0,0,45,14.9c-2.39-4.26-4.73-6.41-7.34-6.79a8.61,8.61,0,0,0-8.49,3.59c-2,2.53-3.35,6-4.53,9.09a40.23,40.23,0,0,1-2.25,5.15h0A47.94,47.94,0,0,0,5.22,35.48C.2,40.2-7.55,40.56-7.63,40.57V40.5c.07,0,7.79-.37,12.79-5.07a48.12,48.12,0,0,1,17.13-9.54,41.26,41.26,0,0,0,2.23-5.12C26.9,14.6,29.87,6.94,37.63,8c2.64.38,5,2.55,7.4,6.83A109.86,109.86,0,0,1,51,28.8c1,2.56,1.9,5.25,2.8,7.85,2.09,6,4.06,11.74,6.46,16a18.13,18.13,0,0,0,3.93,5.14A6.91,6.91,0,0,0,69,59.66c6.58-.2,12.54-10,16.46-17.44,1-2,2.07-4,3.08-6,2.66-5.28,5.42-10.75,8.3-14.56a17.06,17.06,0,0,1,4.49-4.38,6.52,6.52,0,0,1,5-1c5.65,1.2,7.21,4.57,9.17,8.85,3.23,7,7.25,15.79,31.5,20.49,14.57,2.82,34.94.86,54.64-1,13.56-1.3,26.37-2.54,37.43-2.33a70.14,70.14,0,0,1,14.87,1.58c4.54,1.08,8,2.67,10.46,4.88C278.94,61.58,280.42,66,280.9,67.39a1.68,1.68,0,0,0,.22.51Z"/><path class="cls-6" d="M281.9,66.6a2.12,2.12,0,0,1-.32-.63c-.65-1.59-2.35-5.84-16.5-17.84-4.71-4-12.64-5.91-25-6-10.88-.12-23.45,1.16-36.77,2.53-19.33,2-39.32,4-53.75,1.41-10.41-1.87-18-4.73-23.13-8.72-4.45-3.44-6.38-7.13-8.07-10.39-2.11-4.06-3.78-7.26-9.38-8.32a7,7,0,0,0-4.94,1,17,17,0,0,0-4.51,4.16c-2.89,3.61-5.64,8.77-8.31,13.76-1.05,2-2.15,4-3.24,6a61.7,61.7,0,0,1-8,11.58c-3,3.24-5.79,4.82-8.5,4.82h-.17C64.21,59.66,60.24,49,56,37.74c-1-2.62-2-5.34-3-7.92l-.1-.24c-4-9.75-7.75-19-13.4-19.86a8.55,8.55,0,0,0-8.34,3.14c-2,2.31-3.4,5.55-4.63,8.41a38.54,38.54,0,0,1-2.44,5h0c-7.44,1.55-14.79,6.12-18.2,9.84A17.88,17.88,0,0,1-2.72,41a22.45,22.45,0,0,1-4.78.74v-.07a21.53,21.53,0,0,0,4.76-.74,17.65,17.65,0,0,0,8.52-4.83,32.66,32.66,0,0,1,7.46-5.64A38.19,38.19,0,0,1,24,26.23a36.83,36.83,0,0,0,2.43-5c1.24-2.87,2.64-6.11,4.65-8.43a8.63,8.63,0,0,1,8.42-3.17C45.2,10.56,49,19.79,53,29.56l.1.24c1.06,2.58,2.07,5.3,3,7.92C60.31,49,64.27,59.6,71.38,59.77h.16C78,59.77,84,50.45,88,43.41c1.09-1.93,2.18-4,3.24-6,2.67-5,5.42-10.15,8.32-13.77A17,17,0,0,1,104,19.5a7,7,0,0,1,5-1c5.64,1.06,7.31,4.28,9.43,8.35,3.44,6.62,7.73,14.85,31.15,19.08,14.42,2.6,34.4.55,53.72-1.42,13.32-1.36,25.9-2.65,36.78-2.53a71.24,71.24,0,0,1,14.64,1.42c4.48,1,7.88,2.53,10.37,4.65C279.29,60.1,281,64.35,281.65,66a2.24,2.24,0,0,0,.31.61Z"/><path class="cls-6" d="M282.73,65.27a2.55,2.55,0,0,1-.4-.72c-.74-1.6-2.71-5.84-16.48-17-4.7-3.82-12.53-5.62-24.64-5.65h-.37c-10.61,0-22.83,1.32-35.75,2.72-19,2-38.55,4.18-52.83,1.8-10-1.67-17.43-4.28-22.56-8a28.37,28.37,0,0,1-8.28-9.72c-2.27-3.84-4.06-6.89-9.64-7.81-3.17-.52-6.29,1.08-9.54,4.91-2.9,3.42-5.66,8.28-8.32,13-1.11,2-2.26,4-3.41,5.89a56.77,56.77,0,0,1-8.08,10.91c-3,3-6,4.52-8.68,4.4-7.09-.32-11.1-10.37-15.35-21-1.07-2.69-2.18-5.48-3.36-8.12l-.4-.92c-4-9-7.8-17.6-13.28-18.57A8.51,8.51,0,0,0,33.18,14c-2,2.1-3.46,5.1-4.74,7.74a34.42,34.42,0,0,1-2.64,4.84h0c-9.12,1.3-16.25,7.49-19.3,10.14C4.6,40.33.93,41.8-1.81,42.4a21.34,21.34,0,0,1-5.56.47V42.8a21.34,21.34,0,0,0,5.53-.46c2.73-.61,6.37-2.07,8.23-5.6h0a55.26,55.26,0,0,1,7.76-5.81,30.93,30.93,0,0,1,11.57-4.35,34.55,34.55,0,0,0,2.63-4.81c1.28-2.65,2.74-5.66,4.74-7.77a8.62,8.62,0,0,1,8.27-2.73c5.52,1,9.32,9.55,13.33,18.62l.41.92c1.17,2.64,2.28,5.43,3.36,8.12,4.24,10.62,8.24,20.64,15.28,21,2.69.12,5.58-1.35,8.61-4.37a57.42,57.42,0,0,0,8.07-10.9c1.15-1.91,2.29-3.93,3.41-5.89,2.66-4.71,5.42-9.57,8.33-13a16.67,16.67,0,0,1,4.56-4,7.55,7.55,0,0,1,5.05-1c5.62.92,7.42,4,9.7,7.84,3.65,6.2,8.19,13.92,30.79,17.67,14.27,2.38,33.86.26,52.8-1.8,12.92-1.4,25.14-2.72,35.76-2.72h.37a70.56,70.56,0,0,1,14.42,1.27,23.76,23.76,0,0,1,10.27,4.4c13.79,11.22,15.76,15.47,16.5,17.07a3,3,0,0,0,.39.71Z"/><path class="cls-6" d="M283.56,63.93a4,4,0,0,1-.48-.79c-.91-1.74-3-5.81-16.46-16.27-4.7-3.65-12.43-5.33-24.33-5.26-10.52,0-22.64,1.44-35.47,2.91-18.57,2.14-37.76,4.34-51.9,2.19-9.67-1.47-16.87-3.85-22-7.27a28.92,28.92,0,0,1-8.48-9c-2.44-3.64-4.36-6.52-9.92-7.31-3.2-.46-6.34,1.08-9.62,4.71C102,31.05,99.24,35.61,96.58,40,95.41,42,94.2,44,93,45.84c-6.4,9.89-11.91,14.54-16.87,14.22-7-.46-11.07-9.93-15.35-20-1.18-2.75-2.39-5.59-3.68-8.28l-.74-1.53c-4-8.39-7.81-16.32-13.12-17.36-7-1.37-10.13,4.35-12.88,9.4A31.22,31.22,0,0,1,27.52,27h0c-7.14.66-14,4.17-20.39,10.45-1.75,3.93-5.56,5.52-8.44,6.16A21.49,21.49,0,0,1-7.23,44V44a21.28,21.28,0,0,0,5.86-.44C1.51,42.88,5.29,41.3,7,37.39H7c6.4-6.29,13.28-9.81,20.44-10.47a32.37,32.37,0,0,0,2.82-4.61c2.76-5.07,5.88-10.82,13-9.44,5.36,1.05,9.16,9,13.19,17.41.24.5.48,1,.73,1.53,1.29,2.68,2.51,5.53,3.68,8.28,4.27,10,8.31,19.45,15.29,19.91,4.92.31,10.41-4.32,16.79-14.18,1.2-1.87,2.41-3.87,3.58-5.81,2.66-4.42,5.41-9,8.34-12.23,3.29-3.65,6.46-5.2,9.7-4.74,5.59.8,7.52,3.69,10,7.35,3.86,5.77,8.66,13,30.41,16.26,14.13,2.15,33.32,0,51.88-2.18,12.83-1.48,24.95-2.87,35.48-2.92a71,71,0,0,1,14.19,1.11,23.87,23.87,0,0,1,10.19,4.17c13.45,10.46,15.57,14.55,16.48,16.29a3.43,3.43,0,0,0,.48.78Z"/><path class="cls-6" d="M284.4,62.6a5.54,5.54,0,0,1-.57-.86c-1-1.72-3.31-5.75-16.45-15.5-4.69-3.48-12.32-5-24-4.87-10.34.14-22.23,1.58-34.81,3.11-18.18,2.2-37,4.49-51,2.57-9.3-1.27-16.3-3.42-21.4-6.55a30,30,0,0,1-8.69-8.35c-2.61-3.43-4.66-6.14-10.2-6.8-7.23-.87-12.73,7.7-18.05,16C98,43.25,96.75,45.22,95.48,47a48.76,48.76,0,0,1-8.29,9.57c-3.09,2.59-6,3.78-8.68,3.55-7-.59-11-9.5-15.35-18.94-1.28-2.79-2.6-5.68-4-8.4l-1.08-2.08c-4-7.76-7.81-15.1-13-16.2-6.81-1.46-10,3.76-12.82,8.36a29.81,29.81,0,0,1-3.05,4.4h0A31.31,31.31,0,0,0,15.3,31.39a21.94,21.94,0,0,0-7.58,6.67,15,15,0,0,1-9.19,6.47,20.27,20.27,0,0,1-5.63.64V45.1a20.05,20.05,0,0,0,5.6-.64A14.85,14.85,0,0,0,7.65,38a22,22,0,0,1,7.61-6.7,31.48,31.48,0,0,1,13.93-4.09,29.41,29.41,0,0,0,3-4.37c2.83-4.63,6-9.87,12.91-8.4,5.19,1.11,9,8.46,13,16.25l1.08,2.08c1.42,2.71,2.74,5.6,4,8.39,4.31,9.42,8.37,18.32,15.29,18.91,2.65.22,5.54-1,8.62-3.54A49,49,0,0,0,95.41,47c1.27-1.81,2.53-3.78,3.76-5.69,2.66-4.14,5.41-8.42,8.35-11.49,3.32-3.45,6.51-4.93,9.78-4.54,5.57.67,7.64,3.39,10.26,6.83,4.06,5.35,9.12,12,30,14.87,14,1.92,32.77-.36,50.94-2.57,12.59-1.53,24.48-3,34.82-3.11a71.15,71.15,0,0,1,14,1,24.06,24.06,0,0,1,10.11,3.94C280.58,56,282.91,60,283.91,61.71a4.88,4.88,0,0,0,.55.84Z"/><path class="cls-6" d="M285.23,61.26a7.17,7.17,0,0,1-.63-.9c-1.16-1.84-3.58-5.67-16.45-14.75-4.69-3.32-12.24-4.74-23.74-4.49-10.16.23-21.82,1.73-34.17,3.31-17.78,2.28-36.16,4.64-50,3-8.93-1.09-15.74-3-20.81-5.85a31.21,31.21,0,0,1-8.89-7.66c-2.78-3.21-5-5.74-10.5-6.28-7.29-.72-12.81,7.31-18.14,15.08-1.29,1.87-2.61,3.8-3.93,5.55-6.39,8.52-12.14,12.57-17.09,12-6.89-.73-11-9.11-15.33-18-1.38-2.82-2.8-5.73-4.35-8.46-.49-.86-1-1.73-1.44-2.57-4-7.18-7.79-14-12.78-15.12-6.61-1.54-9.88,3.19-12.77,7.37A29.11,29.11,0,0,1,31,27.64h0c-11.58.2-20.18,6.59-22.59,11.06a14.43,14.43,0,0,1-9.38,7,20,20,0,0,1-5.93.6v-.07a19.86,19.86,0,0,0,5.9-.6,14.27,14.27,0,0,0,9.32-7c1.3-2.4,4.17-5,7.67-7a31.25,31.25,0,0,1,15-4.05,28.82,28.82,0,0,0,3.22-4.11c2.9-4.19,6.2-8.95,12.86-7.39,5,1.17,8.82,8,12.83,15.15.47.84,1,1.71,1.44,2.57,1.55,2.73,3,5.65,4.36,8.47C70,51.12,74.05,59.48,80.89,60.2c4.92.52,10.64-3.51,17-12,1.32-1.76,2.65-3.69,3.93-5.55,5.12-7.46,10.41-15.17,17.31-15.17.3,0,.6,0,.91.05,5.56.54,7.76,3.09,10.56,6.31,4.26,4.92,9.57,11,29.64,13.48,13.83,1.68,32.21-.68,50-3,12.35-1.58,24-3.08,34.18-3.3a71.32,71.32,0,0,1,13.77.79,24.37,24.37,0,0,1,10,3.71c12.88,9.09,15.31,12.92,16.47,14.77a7,7,0,0,0,.63.89Z"/><path class="cls-6" d="M84.34,60.45a7.64,7.64,0,0,1-1.08-.07c-6.82-.86-10.94-8.72-15.3-17.05-1.49-2.83-3-5.77-4.71-8.5-.62-1-1.23-2-1.82-3-4-6.61-7.75-12.85-12.58-14.07-6.41-1.62-9.77,2.63-12.73,6.39A27.31,27.31,0,0,1,32.69,28h0a31.19,31.19,0,0,0-16,4C12.4,34.45,9.89,37.41,9,39.35A14,14,0,0,1-.58,46.91a19.75,19.75,0,0,1-6.25.56V47.4A19.72,19.72,0,0,0-.6,46.85a13.91,13.91,0,0,0,9.5-7.52c.92-2,3.44-4.93,7.73-7.4a31.34,31.34,0,0,1,15.66-4h.35a26.41,26.41,0,0,0,3.41-3.82,23.48,23.48,0,0,1,5.12-5.26,9.21,9.21,0,0,1,7.71-1.16c4.86,1.23,8.63,7.49,12.62,14.11.59,1,1.2,2,1.82,3C65,37.53,66.55,40.47,68,43.31c4.35,8.3,8.46,16.15,15.24,17,2.62.33,5.52-.57,8.62-2.69a42.39,42.39,0,0,0,8.5-8.23c1.37-1.68,2.76-3.56,4.1-5.38,5.36-7.28,10.9-14.8,18.32-14.23,5.53.42,7.89,2.79,10.87,5.78,4.46,4.49,10,10.08,29.22,12.1,13.69,1.44,31.64-1,49-3.34,12.11-1.64,23.55-3.19,33.55-3.51a73.12,73.12,0,0,1,13.56.64,24.64,24.64,0,0,1,10,3.47c12.66,8.47,15.24,12.24,16.48,14a8.25,8.25,0,0,0,.68.91l-.06,0a9.14,9.14,0,0,1-.69-.92c-1.23-1.81-3.81-5.58-16.46-14-4.7-3.15-12.16-4.45-23.46-4.1-10,.32-21.43,1.86-33.54,3.5-17.37,2.36-35.33,4.79-49,3.35-8.54-.9-15.15-2.59-20.2-5.16a33,33,0,0,1-9.07-7c-3-3-5.32-5.35-10.82-5.77-7.37-.56-12.9,7-18.24,14.2-1.34,1.82-2.73,3.71-4.1,5.39a42.24,42.24,0,0,1-8.52,8.24A13.7,13.7,0,0,1,84.34,60.45Z"/><path class="cls-6" d="M87,60.59a8.67,8.67,0,0,1-1.35-.1c-6.75-1-10.88-8.35-15.26-16.15-1.6-2.84-3.25-5.79-5.08-8.51-.76-1.14-1.51-2.29-2.23-3.4-4-6.07-7.68-11.8-12.34-13.07C44.49,17.65,41.2,21.29,38,24.8a26.42,26.42,0,0,1-3.61,3.52h0a31.6,31.6,0,0,0-17,4C12.93,34.85,10.44,38,9.6,40a13.23,13.23,0,0,1-4.31,5.62A15.2,15.2,0,0,1-.12,48.11a20.1,20.1,0,0,1-6.57.51v-.07A19.6,19.6,0,0,0-.14,48,13.58,13.58,0,0,0,9.52,40c.85-2.06,3.35-5.17,7.81-7.74a31.61,31.61,0,0,1,17-4A25.52,25.52,0,0,0,38,24.76a22.29,22.29,0,0,1,5.22-4.68,9.55,9.55,0,0,1,7.58-.79c4.69,1.28,8.43,7,12.39,13.11.72,1.11,1.47,2.26,2.23,3.39,1.83,2.73,3.49,5.68,5.08,8.52,4.37,7.78,8.49,15.13,15.2,16.11,6.22.92,12.8-4.84,17.23-9.83,1.51-1.7,3-3.62,4.55-5.65,2.64-3.43,5.36-7,8.33-9.49,3.35-2.86,6.56-4,9.8-3.43,5.15.88,7.69,3,10.63,5.51,4.62,3.92,10.38,8.79,29.37,10.47,13.53,1.2,31.06-1.31,48-3.73,11.88-1.7,23.09-3.3,32.92-3.7a73.52,73.52,0,0,1,13.36.48,25.05,25.05,0,0,1,9.89,3.24c12.48,7.88,15.11,11.44,16.52,13.36a11.37,11.37,0,0,0,.71.9l-.07,0c-.23-.25-.45-.56-.71-.9-1.41-1.92-4-5.48-16.5-13.34-4.72-3-12.09-4.16-23.2-3.71-9.82.4-21,2-32.9,3.7-17,2.42-34.5,4.92-48,3.73-8.46-.75-15-2.19-20.08-4.38a35.1,35.1,0,0,1-9.34-6.11c-2.93-2.48-5.46-4.62-10.58-5.49-7.19-1.22-12.71,5.95-18,12.88-1.56,2-3,4-4.55,5.66C98.82,55.28,92.83,60.59,87,60.59Z"/><path class="cls-6" d="M89.67,60.73A10.05,10.05,0,0,1,88,60.6c-6.67-1.12-10.81-8-15.19-15.28-1.71-2.84-3.48-5.78-5.46-8.49-.92-1.25-1.81-2.51-2.67-3.74C60.79,27.53,57.1,22.28,52.6,21c-6.07-1.78-9.44,1.43-12.7,4.53a26.53,26.53,0,0,1-3.77,3.17h0a32.21,32.21,0,0,0-18,3.93c-4.61,2.67-7.08,5.91-7.85,8.06a13,13,0,0,1-4.28,6A14.7,14.7,0,0,1,.36,49.3a20.25,20.25,0,0,1-6.92.47V49.7a20.22,20.22,0,0,0,6.89-.46,13.33,13.33,0,0,0,9.8-8.61c.78-2.16,3.26-5.42,7.89-8.09A32.12,32.12,0,0,1,36.09,28.6a26.31,26.31,0,0,0,3.75-3.16c3.27-3.12,6.66-6.34,12.78-4.54,4.53,1.33,8.23,6.59,12.14,12.15.86,1.23,1.75,2.5,2.66,3.74,2,2.71,3.76,5.65,5.47,8.5C77.27,52.56,81.4,59.42,88,60.53c2.59.44,5.48-.19,8.6-1.85a36.82,36.82,0,0,0,8.74-6.89c1.56-1.61,3.1-3.47,4.73-5.44a60.56,60.56,0,0,1,8.32-8.82c3.38-2.68,6.62-3.74,9.9-3.26,5.11.76,7.8,2.7,10.91,4.95,4.81,3.49,10.8,7.82,29,9.12,13.37.95,30.46-1.63,47-4.11,11.64-1.76,22.64-3.41,32.3-3.9a74.93,74.93,0,0,1,13.16.32,25.75,25.75,0,0,1,9.84,3c12.36,7.32,15.11,10.82,16.59,12.7.26.33.48.6.7.85l-.06,0a9.65,9.65,0,0,1-.7-.85c-1.48-1.87-4.23-5.37-16.58-12.69-10.41-6.16-32.18-2.89-55.24.58-16.53,2.49-33.63,5.07-47,4.11-8.11-.57-14.48-1.79-19.5-3.71a38.74,38.74,0,0,1-9.54-5.42c-3.09-2.24-5.77-4.18-10.87-4.93-3.25-.48-6.46.58-9.82,3.24a60.51,60.51,0,0,0-8.32,8.81c-1.63,2-3.16,3.83-4.73,5.44a36.82,36.82,0,0,1-8.76,6.91A15,15,0,0,1,89.67,60.73Z"/><path class="cls-6" d="M92.42,60.89a11.27,11.27,0,0,1-2-.18c-6.58-1.24-10.73-7.65-15.11-14.44-1.83-2.83-3.73-5.76-5.87-8.44-1.08-1.35-2.12-2.72-3.13-4-3.85-5.07-7.48-9.86-11.81-11.22-5.92-1.87-9.38.93-12.72,3.63a26.29,26.29,0,0,1-3.9,2.8h0c-16.95-1.22-25.63,7.93-27,12.29a13.15,13.15,0,0,1-4.24,6.45A14.55,14.55,0,0,1,.84,50.5a20.85,20.85,0,0,1-7.26.42v-.07a20.68,20.68,0,0,0,7.23-.42,13.15,13.15,0,0,0,10-9.16,12,12,0,0,1,2.56-4.15,22.47,22.47,0,0,1,5.4-4.28c3.69-2.14,10-4.56,19.09-3.91a27.05,27.05,0,0,0,3.88-2.78c3.36-2.72,6.83-5.53,12.8-3.65,4.35,1.38,8,6.17,11.85,11.25,1,1.33,2,2.7,3.12,4a99.84,99.84,0,0,1,5.88,8.45C79.72,53,83.86,59.4,90.41,60.64A14.15,14.15,0,0,0,99,59.21,34.62,34.62,0,0,0,107.86,53c1.61-1.5,3.2-3.28,4.89-5.17a57.86,57.86,0,0,1,8.33-8.18c3.41-2.51,6.68-3.52,10-3.11,4.9.61,7.79,2.74,10.84,5,5.24,3.87,11.18,8.25,29,7.15,10.11-.62,22-2.42,34.56-4.32,26.34-4,53.58-8.11,65.85-1.32S286.35,53.15,288,55.13l.63.75-.06,0c-.21-.23-.42-.48-.64-.75-1.64-2-4.4-5.28-16.7-12.09s-39.46-2.65-65.79,1.34c-12.57,1.9-24.45,3.7-34.57,4.32-17.81,1.1-23.76-3.29-29-7.17-3.05-2.25-5.93-4.37-10.8-5-3.29-.41-6.54.6-9.93,3.1a57.58,57.58,0,0,0-8.31,8.16c-1.69,1.89-3.29,3.68-4.9,5.18A34.62,34.62,0,0,1,99,59.27,15.81,15.81,0,0,1,92.42,60.89Z"/><path class="cls-6" d="M95.23,61.06a12.54,12.54,0,0,1-2.47-.24c-6.48-1.37-10.62-7.32-15-13.62a92.48,92.48,0,0,0-6.3-8.37C70.2,37.4,69,35.94,67.84,34.52c-3.78-4.6-7.34-8.94-11.5-10.35-5.79-2-9.34.45-12.77,2.77a28.82,28.82,0,0,1-4,2.4h0C29.89,28.5,23.3,31,19.48,33.19c-5,2.88-7.41,6.51-8,8.75a13.14,13.14,0,0,1-4.18,6.85,14.23,14.23,0,0,1-5.95,2.9,21.52,21.52,0,0,1-7.63.38V52a21.48,21.48,0,0,0,7.6-.37,13,13,0,0,0,10.07-9.71c.6-2.25,3.07-5.9,8-8.79,3.84-2.22,10.44-4.7,20.12-3.86a28.44,28.44,0,0,0,4-2.39c3.45-2.33,7-4.74,12.85-2.77,4.18,1.41,7.75,5.76,11.53,10.37,1.16,1.42,2.37,2.88,3.62,4.31a92.6,92.6,0,0,1,6.31,8.37c4.37,6.29,8.5,12.23,15,13.59,5,1,11.25-1.28,17.57-6.57a68.76,68.76,0,0,0,5.05-4.89C120.53,44,126.33,38,133.82,38.77c4.85.49,7.88,2.38,11.1,4.39,5.46,3.42,11.65,7.3,28.6,5.85,9.52-.81,20.53-2.57,32.19-4.45,13-2.09,26.5-4.25,38.24-5.08,13.27-.93,22.46,0,28.09,2.91C284.4,48.73,287.14,51.88,289,54c.17.21.34.4.51.58l-.06,0-.52-.58c-1.81-2.08-4.55-5.22-16.89-11.55-5.62-2.88-14.79-3.83-28-2.9-11.74.83-25.21,3-38.23,5.08-11.66,1.87-22.68,3.64-32.2,4.45-17,1.45-23.19-2.44-28.66-5.86-3.2-2-6.23-3.9-11.06-4.38-7.44-.75-13.24,5.22-18.35,10.49-1.75,1.81-3.41,3.52-5,4.9C105.06,58.7,99.77,61.06,95.23,61.06Z"/><path class="cls-6" d="M98.17,61.26a13.15,13.15,0,0,1-3-.34c-6.38-1.47-10.51-7-14.87-12.82a84.26,84.26,0,0,0-6.76-8.27c-1.45-1.5-2.83-3-4.16-4.55-3.68-4.15-7.16-8.07-11.14-9.5-5.69-2.05-9.18-.13-12.88,1.91a32.26,32.26,0,0,1-4,2h0c-10.24-1-17.12,1.5-21.09,3.81-5.12,3-7.56,6.76-8.09,9.09A12.8,12.8,0,0,1,6,51.28C.63,54.35-6.09,53.23-6.16,53.22l0-.07c.07,0,6.75,1.13,12.06-1.93A12.73,12.73,0,0,0,12,42.57c.53-2.35,3-6.15,8.12-9.14,4-2.31,10.87-4.85,21.13-3.82a31.26,31.26,0,0,0,4-2A22.83,22.83,0,0,1,51,25.15a12.44,12.44,0,0,1,7.27.57c4,1.44,7.47,5.36,11.17,9.52,1.32,1.5,2.7,3,4.15,4.55a83.21,83.21,0,0,1,6.76,8.28c4.36,5.82,8.48,11.32,14.83,12.79,5.08,1.17,11.36-.78,17.68-5.49A61.44,61.44,0,0,0,118,50.8C123.19,46,129,40.45,136.58,41c4.79.36,8,2,11.33,3.76,5.69,3,12.14,6.32,28.27,4.57,8.87-1,19-2.68,29.69-4.51,13-2.22,26.55-4.52,38.4-5.5,13.41-1.11,22.74-.31,28.54,2.42,12.5,5.9,15.33,9,17.2,11.12l.29.32-.06,0-.3-.33c-1.86-2.07-4.68-5.21-17.17-11.1-5.78-2.73-15.1-3.52-28.5-2.41-11.84,1-25.33,3.28-38.38,5.5-10.71,1.83-20.82,3.55-29.7,4.51-16.16,1.75-22.62-1.61-28.32-4.58-3.36-1.75-6.53-3.4-11.3-3.76-7.52-.56-13.34,4.93-18.47,9.77a61.49,61.49,0,0,1-5.21,4.57C107.75,59.25,102.64,61.26,98.17,61.26Z"/><path class="cls-6" d="M101.25,61.48A15.24,15.24,0,0,1,97.52,61c-6.27-1.58-10.37-6.66-14.71-12a75.67,75.67,0,0,0-7.25-8.15c-1.67-1.57-3.23-3.19-4.74-4.77-3.58-3.72-7-7.23-10.73-8.68-5.64-2.17-9.25-.6-13.08,1.07A40.09,40.09,0,0,1,43,30h0c-19.23-2.17-29.21,7.53-30.28,13.21a12.84,12.84,0,0,1-6.08,9.16c-5.49,3.23-12.59,2-12.66,2l0-.06c.07,0,7.14,1.24,12.59-2a12.75,12.75,0,0,0,6.05-9.11c.46-2.44,2.89-6.4,8.2-9.5C25,31.33,32.14,28.72,43,30a38.27,38.27,0,0,0,4-1.55c3.84-1.67,7.47-3.25,13.14-1.08,3.79,1.46,7.18,5,10.76,8.71,1.51,1.57,3.07,3.2,4.74,4.76A76.73,76.73,0,0,1,82.87,49c4.33,5.37,8.43,10.44,14.67,12,5.15,1.29,11.47-.27,17.79-4.4,1.65-1.08,3.36-2.46,5.17-3.92,5.21-4.21,11.11-9,18.82-9.39,5.1-.26,8.48,1.21,12.4,2.92,5.85,2.55,12.49,5.43,27.12,3.51,8.17-1.07,17.34-2.73,27-4.49,13.09-2.37,26.63-4.81,38.61-6,13.58-1.3,23.09-.68,29.08,1.89,12.78,5.49,15.54,8.52,17.56,10.74l-.07,0c-2-2.21-4.76-5.23-17.53-10.72-6-2.57-15.46-3.18-29-1.88-12,1.14-25.52,3.59-38.6,6C196.2,47,187,48.68,178.85,49.76c-14.65,1.93-21.3-1-27.17-3.52-3.91-1.7-7.28-3.17-12.35-2.91-7.68.41-13.58,5.17-18.77,9.37-1.82,1.46-3.53,2.84-5.18,3.92C110.49,59.82,105.61,61.48,101.25,61.48Z"/><path class="cls-6" d="M104.54,61.75a17.75,17.75,0,0,1-4.65-.61c-6.14-1.68-10.2-6.35-14.51-11.29a71.22,71.22,0,0,0-7.76-8c-1.92-1.61-3.69-3.32-5.41-5C68.77,33.57,65.52,30.45,62,29c-5.62-2.29-9.4-1.06-13.4.24-1.22.39-2.48.8-3.82,1.13h0c-12.13-1.5-19.82,1.53-24.14,4.34-4.78,3.11-6.88,6.89-7.24,9.18-.67,4.38-2.7,7.61-6,9.62-5.63,3.39-13.13,2-13.21,2l0-.06c.07,0,7.54,1.36,13.14-2,3.31-2,5.32-5.21,6-9.57.36-2.31,2.48-6.1,7.27-9.22,4.33-2.82,12-5.86,24.19-4.36,1.34-.32,2.59-.73,3.81-1.13,4-1.3,7.81-2.54,13.46-.23,3.58,1.46,6.84,4.59,10.28,7.9,1.72,1.65,3.49,3.35,5.4,5a70.64,70.64,0,0,1,7.78,8c4.29,4.93,8.35,9.59,14.47,11.27,5.22,1.42,11.58.25,17.9-3.32a60.24,60.24,0,0,0,5.41-3.63,68.67,68.67,0,0,1,8.44-5.47,26.52,26.52,0,0,1,10.41-3.15c5-.37,8.59.84,12.7,2.25,6.05,2.06,12.9,4.4,26.71,2.27,7.43-1.15,15.61-2.72,24.27-4.38,13.15-2.52,26.74-5.14,38.89-6.47,13.78-1.51,23.5-1.08,29.69,1.31,12.09,4.67,15.34,7.52,17.63,10l-.06,0c-2.29-2.52-5.53-5.36-17.6-10-6.18-2.39-15.88-2.82-29.65-1.31-12.14,1.33-25.74,3.94-38.89,6.47-8.66,1.66-16.84,3.23-24.26,4.38-13.83,2.13-20.7-.21-26.76-2.28-4.1-1.4-7.64-2.61-12.67-2.24-7.67.57-13.59,4.84-18.8,8.6a60.48,60.48,0,0,1-5.41,3.64,30.59,30.59,0,0,1-9.48,3.57A21.56,21.56,0,0,1,104.54,61.75Z"/><path class="cls-6" d="M108,62.06a20.3,20.3,0,0,1-5.76-.81c-6-1.77-10-6-14.26-10.55a66.67,66.67,0,0,0-8.34-7.86c-2.2-1.65-4.2-3.43-6.14-5.15-3.27-2.9-6.37-5.65-9.7-7.09C58.14,28.13,54.31,29,49.88,30c-1.1.25-2.23.51-3.42.71h0C33.61,29,25.6,32.14,21.15,35.09c-4.84,3.2-6.89,7.08-7.18,9.43-.57,4.6-2.57,8-6,10.08C2.23,58.16-5.67,56.69-5.75,56.67l0-.06c.07,0,8,1.48,13.69-2.07,3.37-2.08,5.37-5.45,5.93-10,.29-2.37,2.35-6.27,7.21-9.49,4.47-3,12.49-6.12,25.35-4.4,1.19-.21,2.32-.47,3.41-.71,4.45-1,8.29-1.86,14,.62,3.34,1.45,6.44,4.2,9.72,7.11,1.94,1.71,3.94,3.49,6.13,5.14a65.43,65.43,0,0,1,8.35,7.87c4.25,4.51,8.26,8.76,14.23,10.52,5.38,1.59,11.61.82,18-2.22a55.22,55.22,0,0,0,5.7-3.35c5-3.17,11.17-7.12,18.82-7.85,5-.47,8.88.51,13,1.55,6.24,1.57,13.3,3.35,26.32,1.06,6.6-1.17,13.75-2.62,21.31-4.17,13.23-2.69,26.91-5.48,39.24-7,14-1.74,24-1.52,30.41.68,11.08,3.78,15.09,6.47,17.7,9.34l-.07,0c-2.09-2.3-5.36-5.12-17.66-9.31-6.43-2.2-16.36-2.42-30.37-.68-12.33,1.54-26,4.32-39.23,7-7.57,1.54-14.71,3-21.31,4.17-13,2.29-20.12.51-26.36-1.07-4.12-1-8-2-13-1.54-7.63.73-13.82,4.67-18.78,7.84A58.31,58.31,0,0,1,120.35,59,28.88,28.88,0,0,1,108,62.06Z"/><path class="cls-6" d="M111.76,62.43a23.59,23.59,0,0,1-7.11-1.07c-5.82-1.85-9.78-5.72-14-9.82a62.34,62.34,0,0,0-9-7.7c-2.52-1.68-4.79-3.54-7-5.33-3.07-2.52-6-4.89-9-6.3-7.21-3.33-12-2.55-17.52-1.18C36.93,33.82,28.79,35.84,23.23,38c-5.79,2.2-8.37,4.36-8.64,7.22C14.14,50,12.16,53.52,8.7,55.7A18.78,18.78,0,0,1-.7,58.18a25.48,25.48,0,0,1-4.92-.36l0-.06a25.8,25.8,0,0,0,4.9.35,18.72,18.72,0,0,0,9.36-2.47c3.44-2.17,5.41-5.69,5.85-10.48.27-2.89,2.87-5.06,8.69-7.27,5.57-2.11,13.7-4.13,25-6.92a30.47,30.47,0,0,1,8.42-1.17,23.2,23.2,0,0,1,9.16,2.34c3.08,1.42,6,3.8,9.06,6.32,2.19,1.79,4.45,3.65,7,5.33a62.49,62.49,0,0,1,9,7.71c4.18,4.09,8.12,8,13.92,9.79,5.47,1.73,11.73,1.34,18.13-1.13a54.64,54.64,0,0,0,6.1-3.08c5-2.76,11.14-6.19,18.68-7.07a63.09,63.09,0,0,1,14.8.29,119.86,119.86,0,0,0,24.43.41c11.81-.94,25.24-3.77,38.24-6.51,20.31-4.27,39.49-8.32,50.83-5,11.9,3.51,15.57,6.22,17.76,8.63l-.06,0c-2.19-2.4-5.84-5.1-17.73-8.61-11.31-3.33-30.49.7-50.78,5-13,2.74-26.44,5.57-38.25,6.51a120.07,120.07,0,0,1-24.45-.41,62.91,62.91,0,0,0-14.78-.29c-7.52.88-13.69,4.3-18.65,7.05a51.63,51.63,0,0,1-6.1,3.09A31.58,31.58,0,0,1,113,62.4Z"/><path class="cls-6" d="M115.76,62.88A27.22,27.22,0,0,1,107,61.47c-5.62-1.91-9.49-5.4-13.58-9.1a59.55,59.55,0,0,0-9.66-7.53,78.76,78.76,0,0,1-8-5.54,52.11,52.11,0,0,0-8.23-5.49c-6.84-3.33-11.66-3.42-17.68-2.44-12,2-20.57,4.05-26.16,6.39s-8.32,5-8.52,8.06c-.33,5-2.29,8.7-5.82,11A18.92,18.92,0,0,1-.34,59.36,25.3,25.3,0,0,1-5.48,59l0-.06a26.5,26.5,0,0,0,5.12.38,18.94,18.94,0,0,0,9.7-2.55c3.5-2.26,5.45-5.93,5.78-10.93.2-3.13,3-5.78,8.57-8.11s14.16-4.44,26.18-6.4c6-1,10.87-.89,17.73,2.45a53,53,0,0,1,8.24,5.5,81.44,81.44,0,0,0,8,5.54,58.29,58.29,0,0,1,9.67,7.54c4.1,3.69,8,7.18,13.56,9.07a29.61,29.61,0,0,0,18.25,0A50.74,50.74,0,0,0,132,58.51c4.91-2.33,11-5.24,18.36-6.25a86.69,86.69,0,0,1,15.37-.48,156.37,156.37,0,0,0,23.76-.73c11.4-1.22,24.12-4,36.43-6.72C246,39.91,265,35.73,276.64,38.6a66.8,66.8,0,0,1,12,3.91,17.53,17.53,0,0,1,5.82,4l-.06,0c-2.93-3.22-8.08-5.51-17.79-7.91C265,35.8,246,40,225.92,44.39c-12.31,2.71-25,5.5-36.44,6.72a155.57,155.57,0,0,1-23.78.74,86.47,86.47,0,0,0-15.35.47c-7.32,1-13.43,3.92-18.33,6.25a51.31,51.31,0,0,1-6.7,2.85A33.37,33.37,0,0,1,115.76,62.88Z"/><path class="cls-6" d="M120.12,63.44a31.21,31.21,0,0,1-10.72-1.87c-5.38-1.94-9.14-5.06-13.13-8.37a56,56,0,0,0-10.44-7.36,75.3,75.3,0,0,1-9.15-5.78,62.87,62.87,0,0,0-7.23-4.64c-6.33-3.27-11.16-4.28-17.83-3.71-11.89,1-21.08,3-27.3,5.81C18.91,40,16,43.09,15.84,46.46c-.21,5.22-2.14,9.07-5.73,11.42A19.3,19.3,0,0,1,0,60.55a27.62,27.62,0,0,1-5.37-.43l0-.06A27.81,27.81,0,0,0,0,60.48a19.27,19.27,0,0,0,10-2.65c3.57-2.34,5.49-6.17,5.7-11.37.14-3.4,3.09-6.51,8.52-9,6.24-2.85,15.43-4.81,27.34-5.82,6.68-.57,11.53.44,17.87,3.72A64.86,64.86,0,0,1,76.73,40a74,74,0,0,0,9.14,5.79,56.51,56.51,0,0,1,10.46,7.36c4,3.3,7.73,6.42,13.1,8.36a32.82,32.82,0,0,0,18.36,1,52.14,52.14,0,0,0,7.6-2.64,81.61,81.61,0,0,1,17.7-5.41A125.54,125.54,0,0,1,169,53.23a213.9,213.9,0,0,0,23.12-1.85c10.86-1.48,22.76-4.2,34.26-6.84,20.07-4.59,39-8.93,51-6.58,9.66,1.9,15,4.06,17.9,7.23l-.06,0c-2.87-3.15-8.21-5.31-17.86-7.2-12-2.35-30.93,2-51,6.58C214.9,47.24,203,50,192.14,51.45A216.86,216.86,0,0,1,169,53.3a123.58,123.58,0,0,0-15.91,1.27A81.51,81.51,0,0,0,135.43,60a51.11,51.11,0,0,1-7.62,2.64A37.11,37.11,0,0,1,120.12,63.44Z"/><path class="cls-6" d="M125,64.13a36.16,36.16,0,0,1-13.24-2.45c-5.1-2-8.89-4.85-12.56-7.65a53.91,53.91,0,0,0-11.34-7.18,69.42,69.42,0,0,1-10.61-6.12c-2-1.35-4-2.63-6-3.71-6.5-3.55-11.55-4.3-18-5-17.78-1.86-27.06,2.83-31,5.8-3.63,2.72-5.82,6.18-5.88,9.26-.09,5.43-2,9.42-5.65,11.86C7.49,61.19,3.31,61.7.39,61.73a28.29,28.29,0,0,1-5.6-.46l0-.06a29.55,29.55,0,0,0,5.58.45c2.91,0,7.07-.54,10.37-2.74,3.64-2.43,5.54-6.41,5.62-11.81.06-3.1,2.26-6.58,5.9-9.32a30.59,30.59,0,0,1,11.87-5.1A60.85,60.85,0,0,1,53.35,32c6.44.67,11.5,1.43,18,5,2,1.09,3.91,2.36,6,3.72a70.61,70.61,0,0,0,10.6,6.11A53.36,53.36,0,0,1,99.27,54c3.66,2.8,7.45,5.69,12.54,7.64a37.37,37.37,0,0,0,18.47,2.12,53.88,53.88,0,0,0,9.16-2.51,119.2,119.2,0,0,1,16.4-4.48c5.51-1,10.51-1.51,16.3-2.1,6.3-.64,13.45-1.37,22.64-2.93,10.08-1.7,20.93-4.29,31.42-6.78,20.29-4.84,39.45-9.4,52-7.61,9.56,1.37,15.11,3.38,18,6.52l-.06,0c-2.84-3.13-8.37-5.13-17.92-6.5-12.51-1.79-31.66,2.77-51.94,7.6-10.49,2.5-21.34,5.09-31.43,6.79-9.19,1.56-16.33,2.28-22.64,2.93-5.79.59-10.79,1.1-16.29,2.1a120.17,120.17,0,0,0-16.39,4.47,54.2,54.2,0,0,1-9.18,2.52A43.54,43.54,0,0,1,125,64.13Z"/><path class="cls-6" d="M128.61,65.34c-5.71,0-10.35-1.88-14.22-3.45l-.24-.1a58,58,0,0,1-11.85-6.91c-3.8-2.68-7.39-5.21-12.36-7a64.56,64.56,0,0,1-12.47-6.6c-1.47-.93-2.86-1.8-4.28-2.62a45.15,45.15,0,0,0-18.13-6.24C37,30,27.43,34.74,23.34,37.78c-4.63,3.43-6.27,7.4-6.25,10,0,5.63-1.84,9.77-5.57,12.3-3.4,2.3-7.73,2.83-10.76,2.86a31.4,31.4,0,0,1-5.84-.49l0-.07a31.17,31.17,0,0,0,5.82.49c3,0,7.33-.55,10.71-2.84C15.18,57.49,17,53.36,17,47.76c0-2.59,1.63-6.59,6.27-10a30.42,30.42,0,0,1,12.19-5.11,59.93,59.93,0,0,1,19.6-.3,45.19,45.19,0,0,1,18.17,6.25c1.41.82,2.8,1.7,4.27,2.62A64.19,64.19,0,0,0,90,47.78c5,1.83,8.58,4.36,12.38,7a57.86,57.86,0,0,0,11.84,6.91l.24.1c4.76,1.93,10.68,4.34,18.34,3.11,2.44-.39,5.78-1.22,10-2.27,4.38-1.09,9.82-2.44,15.83-3.67,5.24-1.07,10.45-1.92,16-2.83,6.57-1.08,14-2.3,22.87-4.11s18.18-4.13,27.22-6.37c21.05-5.22,40.92-10.15,54.28-9a53.64,53.64,0,0,1,11.44,2,14.77,14.77,0,0,1,6.6,3.81l-.07,0c-2.88-3.17-8.43-5-18-5.79-13.35-1.16-33.22,3.77-54.25,9-9.05,2.24-18.4,4.56-27.24,6.37s-16.29,3-22.86,4.11c-5.52.9-10.74,1.76-16,2.83-6,1.22-11.44,2.58-15.82,3.67-4.22,1-7.56,1.88-10,2.27A26.56,26.56,0,0,1,128.61,65.34Z"/><path class="cls-6" d="M136.22,66.24q-.51,0-1,0a55.6,55.6,0,0,1-18.73-4.31,69.11,69.11,0,0,1-11-6.16c-4.15-2.69-8.06-5.23-13.59-6.89-5.9-1.78-10.49-4.62-14.92-7.38l-2-1.24c-6.48-3.95-11.54-6.44-18.29-7.5-18.38-2.9-28.22,1.88-32.46,5-5,3.66-6.68,7.92-6.61,10.68.16,5.84-1.69,10.12-5.48,12.74-3.47,2.4-7.95,2.93-11.11,3H.87a32.16,32.16,0,0,1-5.81-.52l0-.07A31.93,31.93,0,0,0,.87,64h.26c3.13,0,7.6-.56,11.05-2.94,3.77-2.61,5.61-6.88,5.45-12.69-.07-2.78,1.63-7.06,6.64-10.73a30.61,30.61,0,0,1,12.52-5.12,59.24,59.24,0,0,1,20,.11c6.75,1.06,11.83,3.56,18.31,7.52.67.4,1.35.83,2,1.23,4.44,2.76,9,5.6,14.91,7.37,5.54,1.67,9.46,4.22,13.6,6.91a70.24,70.24,0,0,0,10.94,6.15,55.48,55.48,0,0,0,18.7,4.3c4,.27,10.74-1.31,19.23-3.3,2.2-.52,4.47-1.05,6.86-1.59,3.2-.73,6.44-1.44,9.87-2.2,8.45-1.88,18-4,28.87-6.65,6.41-1.56,13.08-3.31,19.54-5,11.1-2.89,22.58-5.89,32.9-8,11.56-2.41,20.45-3.49,27.18-3.3A48.43,48.43,0,0,1,291,37.46a13.92,13.92,0,0,1,6.84,3.72l-.06,0c-2.92-3.22-8.66-4.83-18-5.09-15-.42-37.9,5.56-60.06,11.34-6.45,1.68-13.13,3.42-19.54,5-10.84,2.65-20.42,4.77-28.87,6.64-3.43.76-6.67,1.48-9.87,2.21-2.39.54-4.66,1.07-6.86,1.58C146.65,64.75,140.32,66.24,136.22,66.24Z"/><path class="cls-6" d="M140.69,67.61a18.31,18.31,0,0,1-2.95-.21c-14.8-2.37-22.16-6.82-28.65-10.74-4.55-2.74-8.84-5.34-15-6.81-7.49-1.78-13-5.33-18.27-8.77s-10.48-6.79-17.26-8c-17.77-3.22-27.87.73-33.21,4.61s-7.09,8.56-7,11.38c.28,6-1.54,10.47-5.4,13.18-3.54,2.48-8.18,3-11.45,3.05H1.28a33.81,33.81,0,0,1-6.09-.55l0-.07a32.52,32.52,0,0,0,6.07.55h.21c3.26,0,7.87-.57,11.39-3,3.85-2.69,5.65-7.11,5.38-13.12-.13-2.84,1.62-7.54,7-11.43A30.47,30.47,0,0,1,38.11,32.5a58.37,58.37,0,0,1,20.41.5c6.81,1.23,11.9,4.53,17.3,8s10.77,7,18.25,8.75c6.21,1.48,10.51,4.08,15.06,6.82C115.62,60.52,123,65,137.76,67.34,142,68,149.55,67,161.5,64.13c10.67-2.56,23.55-6.28,37.18-10.21,21.15-6.12,43-12.44,61.5-15.93,21.12-4,33.7-3.38,38.47,1.86l-.07,0c-4.74-5.21-17.29-5.81-38.38-1.83-18.47,3.49-40.35,9.81-61.5,15.92-13.63,3.94-26.5,7.66-37.17,10.22C151.94,66.5,145.19,67.61,140.69,67.61Z"/></g><g class="cls-5"><path class="cls-6" d="M57.94,33.28a78.7,78.7,0,0,1-15.41-1.42C22.8,27.94,9.78,24.05,2.33,21.47a82.48,82.48,0,0,1-11.56-4.7l0-.06a82.6,82.6,0,0,0,11.55,4.7C9.81,24,22.82,27.88,42.54,31.79,64.3,36.11,89.06,29.68,110.9,24c16.55-4.29,32.17-8.35,44.2-7.19,6.5.62,16.18,2,27.38,3.51,30.11,4.17,72.4,10,107.77,10A225.16,225.16,0,0,0,316.57,29v.07c-16.94,2-39,1.81-67.37-.65-24-2.09-47.71-5.37-66.74-8-11.2-1.55-20.88-2.89-27.38-3.51-12-1.16-27.63,2.9-44.16,7.19C99.75,27,88.18,30,76.58,31.75A124.36,124.36,0,0,1,57.94,33.28Z"/><path class="cls-6" d="M58.65,32.46a81.22,81.22,0,0,1-16-1.48C5.88,23.6-9,17.65-9.19,17.59l0-.07c.14.06,15.06,6,51.79,13.39,21.13,4.25,45.49-1.51,67-6.6,16.42-3.88,31.93-7.55,43.86-6.33,6.06.62,15,1.85,25.42,3.28,36.46,5,97.48,13.42,135.38,8.84v.07a236.63,236.63,0,0,1-31.87,1.28c-10.58-.19-22.67-.88-36-2-24.41-2.14-48.35-5.43-67.58-8.08-10.39-1.43-19.36-2.67-25.42-3.28-11.92-1.22-27.42,2.45-43.83,6.33-11,2.6-22.4,5.3-33.78,6.83A128.3,128.3,0,0,1,58.65,32.46Z"/><path class="cls-6" d="M287,32.59c-36.32,0-82.15-6.28-111.93-10.37-9.46-1.29-17.63-2.41-23.21-3-11.81-1.27-27.19,2-43.49,5.46-10.84,2.31-22.05,4.7-33.21,6C62.51,32.15,51.89,32,42.72,30.1,7,22.83-9,18.44-9.14,18.4l0-.06C-9,18.38,7,22.76,42.74,30c20.5,4.17,44.47-.93,65.62-5.42,16.29-3.47,31.69-6.74,43.51-5.47,5.58.6,13.75,1.72,23.21,3,29.77,4.08,75.6,10.36,111.92,10.36a210.58,210.58,0,0,0,25-1.3v.06A208.53,208.53,0,0,1,287,32.59Z"/><path class="cls-6" d="M285.18,33.68q-3.66,0-7.56-.08c-10.84-.24-23.37-1-37.25-2.23C215,29.1,189.49,25.62,170.9,23.08c-8.39-1.15-15.63-2.14-20.65-2.71-11.7-1.33-27,1.54-43.14,4.59-10.68,2-21.72,4.09-32.65,5.17-12.4,1.22-22.75.92-31.64-.91-34.73-7.15-51.75-10-51.92-10l0-.07c.17,0,17.19,2.85,51.92,10,19.88,4.1,43.45-.34,64.25-4.26,16.18-3,31.45-5.92,43.17-4.59,5,.57,12.27,1.56,20.65,2.71,38.05,5.2,101.72,13.91,138.81,9.33v.06A204.21,204.21,0,0,1,285.18,33.68Z"/><path class="cls-6" d="M283.61,34.77c-37.57,0-87.75-6.86-117.3-10.9-7.13-1-13.29-1.81-17.68-2.34-11.59-1.39-26.74,1.09-42.78,3.7C95.34,27,84.47,28.73,73.77,29.58c-12.14,1-22.23.56-30.85-1.24C9.19,21.3-8.87,20-9,20V20c.17,0,18.25,1.27,52,8.31,19.26,4,42.44.24,62.89-3.1,16-2.62,31.21-5.1,42.81-3.71,4.39.53,10.55,1.37,17.68,2.34,36.45,5,104.29,14.26,141.11,9.65v.07A196.67,196.67,0,0,1,283.61,34.77Z"/><path class="cls-6" d="M281.9,35.85c-13.48,0-29.89-.88-49.08-2.65C205.9,30.72,179,27,161.17,24.59c-5.65-.77-10.53-1.44-14.15-1.9-11.48-1.45-26.51.62-42.42,2.81-10.34,1.43-21,2.9-31.52,3.53-11.88.71-21.72.2-30.06-1.57A325.42,325.42,0,0,0,4.6,21.52C-4.17,20.76-9,20.84-9,20.84v-.06s4.84-.09,13.61.68A324.75,324.75,0,0,1,43,27.39c18.64,3.95,40.45.95,61.55-2,15.91-2.19,30.95-4.26,42.44-2.81,3.62.46,8.5,1.13,14.16,1.9,34.8,4.77,107.23,14.7,144,10.05v.07A189.19,189.19,0,0,1,281.9,35.85Z"/><path class="cls-6" d="M280.19,36.94c-14.06,0-31.51-1-52.17-2.92-28-2.64-56-6.51-72.74-8.82l-9.88-1.35c-11.36-1.5-26.26.15-42,1.91-10.18,1.13-20.71,2.3-31,2.71-11.63.46-21.21-.16-29.28-1.89a228.4,228.4,0,0,0-38.07-5,112.31,112.31,0,0,0-14,.13v-.07a111.62,111.62,0,0,1,14-.12,227.38,227.38,0,0,1,38.09,5c18,3.88,39.48,1.49,60.22-.82,15.78-1.76,30.68-3.41,42.05-1.91l9.88,1.35C188.41,29.71,266,40.42,302.86,35.69v.07A182.87,182.87,0,0,1,280.19,36.94Z"/><path class="cls-6" d="M278.47,38c-14.93,0-33.9-1.12-56.73-3.35-29.58-2.88-58.14-6.89-73.49-9L143.79,25c-11.25-1.56-26-.32-41.63,1-10,.84-20.38,1.72-30.43,1.9C60.35,28.13,51,27.4,43.22,25.7A176.13,176.13,0,0,0,5.5,21.54a99.68,99.68,0,0,0-14.42.93V22.4A98.88,98.88,0,0,1,5.5,21.48h.61a176.83,176.83,0,0,1,37.13,4.16c17.43,3.81,38.52,2,58.91.31,15.63-1.32,30.4-2.56,41.65-1l4.46.62C179.64,30,263,41.69,300.58,36.81v.07A176.91,176.91,0,0,1,278.47,38Z"/><path class="cls-6" d="M276.73,39.13c-15.75,0-36.26-1.26-61.3-3.77-22.05-2.22-46.7-5.3-73.26-9.19-11.11-1.62-25.72-.79-41.18.08-20.07,1.14-40.82,2.31-57.68-1.43A143.43,143.43,0,0,0,6,21.55,94.48,94.48,0,0,0-8.87,23.28l0-.06A91.65,91.65,0,0,1,6,21.49a143.09,143.09,0,0,1,37.38,3.26c16.85,3.74,37.59,2.57,57.65,1.43,15.47-.87,30.08-1.7,41.21-.07,26.56,3.88,51.2,7,73.25,9.18,38.75,3.89,66.63,4.78,82.85,2.64l0,.07A171.53,171.53,0,0,1,276.73,39.13Z"/><path class="cls-6" d="M275.05,40.22q-7,0-15.27-.34c-13-.52-28.44-1.66-45.87-3.38-37-3.66-69.74-8.61-73.35-9.16-11-1.68-25.42-1.28-40.71-.85C80.11,27,59.7,27.61,43.41,23.94a121,121,0,0,0-37-2.38A90.11,90.11,0,0,0-8.83,24.1l0-.07A89.89,89.89,0,0,1,6.4,21.5,122.63,122.63,0,0,1,23,21.13a119.16,119.16,0,0,1,20.42,2.74C59.7,27.54,80.11,27,99.85,26.42c15.29-.43,29.74-.83,40.72.85,3.61.55,36.33,5.5,73.35,9.16,38.79,3.84,66.41,4.72,82.09,2.62v.07A164.08,164.08,0,0,1,275.05,40.22Z"/><path class="cls-6" d="M273.37,41.3q-6.92,0-15.19-.32c-13-.52-28.37-1.64-45.79-3.34-30.63-3-60.7-7.1-73.45-9.14-10.82-1.74-25.07-1.76-40.15-1.78-19.45,0-39.55,0-55.28-3.66A105.21,105.21,0,0,0,6.86,21.57,91.48,91.48,0,0,0-8.79,24.91l0-.06A89.46,89.46,0,0,1,6.85,21.51a108.81,108.81,0,0,1,16.67-.94,99.05,99.05,0,0,1,20,2.42c15.72,3.61,35.82,3.64,55.26,3.66,15.09,0,29.34,0,40.17,1.78,12.74,2,42.81,6.16,73.44,9.14,26.7,2.6,62.48,5.16,81.32,2.6l0,.06A155.81,155.81,0,0,1,273.37,41.3Z"/><path class="cls-6" d="M271.73,42.39c-18.51,0-41.92-1.79-60.85-3.61-32.51-3.11-62.37-7.25-73.55-9.12-10.64-1.79-24.66-2.23-39.51-2.7-19.18-.6-39-1.23-54.21-4.78-13.94-3.26-27.43-2.13-36.3-.6A94.13,94.13,0,0,0-8.75,25.72l0-.06A92.65,92.65,0,0,1,7.29,21.52,101.57,101.57,0,0,1,24,20h.55a83.92,83.92,0,0,1,19,2.11c15.18,3.56,35,4.18,54.2,4.79,14.84.46,28.86.91,39.51,2.69,11.18,1.88,41,6,73.55,9.13,26.72,2.56,62.39,5.08,80.55,2.57v.06A150,150,0,0,1,271.73,42.39Z"/><path class="cls-6" d="M270,43.49c-18.25,0-41.65-1.77-60.63-3.56-32.39-3.06-62.56-7.17-73.65-9.11C125.29,29,111.56,28.13,97,27.23,78,26,58.41,24.81,43.71,21.3c-13.42-3.2-26.95-1.61-35.95.29A95.37,95.37,0,0,0-8.7,26.54l0-.07A97.69,97.69,0,0,1,7.74,21.53a97.39,97.39,0,0,1,16.82-2.1,72.82,72.82,0,0,1,19.17,1.8C58.42,24.74,78.05,26,97,27.16c14.54.91,28.27,1.77,38.7,3.59,11.08,1.94,41.26,6,73.64,9.11,26.76,2.52,62.31,5,79.78,2.54l0,.07A144.31,144.31,0,0,1,270,43.49Z"/><path class="cls-6" d="M268.32,44.57q-6.7,0-14.94-.32c-12.86-.5-28.18-1.57-45.53-3.18-30.61-2.84-61.54-6.85-73.76-9.09-10.13-1.85-23.46-3.11-37.58-4.45-18.89-1.78-38.43-3.63-52.7-7.11-12.89-3.14-26.47-1.09-35.6,1.18A101.78,101.78,0,0,0-8.66,27.35l0-.06A101,101,0,0,1,8.19,21.54a92.78,92.78,0,0,1,16.89-2.67,63.12,63.12,0,0,1,18.75,1.48c14.27,3.48,33.8,5.33,52.69,7.11,14.12,1.34,27.46,2.6,37.59,4.45,12.22,2.24,43.14,6.25,73.74,9.09,26.79,2.49,62.24,4.94,79,2.52v.07A136.29,136.29,0,0,1,268.32,44.57Z"/><path class="cls-6" d="M266.7,45.66c-19.08,0-44.36-2-60.37-3.45-31.64-2.89-62.39-6.88-73.85-9.07C122.77,31.29,110,29.67,96.56,28c-19-2.42-38.67-4.92-52.65-8.41-12.37-3.08-26-.58-35.24,2.07A106.8,106.8,0,0,0-8.62,28.16l0-.06a108.3,108.3,0,0,1,17.3-6.55,90.66,90.66,0,0,1,17-3.25,56.15,56.15,0,0,1,18.34,1.17c14,3.49,33.63,6,52.64,8.41,13.48,1.72,26.22,3.34,35.93,5.19,11.45,2.19,42.2,6.18,73.84,9.07,21.95,2,61.31,5,78.24,2.5l0,.07A130.83,130.83,0,0,1,266.7,45.66Z"/><path class="cls-6" d="M265,46.76c-18.79,0-44.08-2-60.14-3.41-33.75-3-63.29-6.92-73.95-9.05-9-1.78-20.59-3.65-32.91-5.64C78.31,25.5,58,22.24,44,18.66c-11.84-3-25.5-.06-34.88,3A114.77,114.77,0,0,0-8.58,29l0,0A114,114,0,0,1,9.09,21.56a89.6,89.6,0,0,1,17-3.83A50,50,0,0,1,44,18.59c14,3.58,34.3,6.85,53.93,10,12.32,2,24,3.85,32.92,5.64,10.66,2.12,40.19,6,73.94,9,22,2,61.27,4.92,77.48,2.48v.07A125.12,125.12,0,0,1,265,46.76Z"/><path class="cls-6" d="M263.28,47.84q-6.48,0-14.7-.31c-12.59-.48-28.25-1.53-45.28-3-30.34-2.68-62.17-6.56-74.05-9-7-1.46-15.84-3.17-25.16-5-21-4.09-44.86-8.73-60-12.69-11.31-3-25,.46-34.53,3.85A123.55,123.55,0,0,0-8.54,29.79l0-.06A124.64,124.64,0,0,1,9.54,21.57a89.41,89.41,0,0,1,17.09-4.4,44.52,44.52,0,0,1,17.5.54c15.12,4,38.95,8.61,60,12.7,9.32,1.81,18.13,3.53,25.16,5,11.87,2.46,43.7,6.35,74,9,17,1.5,32.69,2.55,45.28,3,14.73.56,25.31.37,31.42-.58l0,.07A118.87,118.87,0,0,1,263.28,47.84Z"/><path class="cls-6" d="M261.53,48.92c-14.17,0-34.78-1.12-59.75-3.28-31-2.69-62.85-6.57-74.15-9-20.95-4.54-62-14-83.43-19.73C33.41,14,19.66,17.87,10,21.64a133.28,133.28,0,0,0-18.51,9l0-.06a134.91,134.91,0,0,1,18.53-9,89.33,89.33,0,0,1,17.15-5c6.56-1.13,12.31-1.05,17.08.23C65.69,22.61,106.7,32,127.65,36.56c11.3,2.45,43.17,6.32,74.14,9,37.5,3.26,65.18,4.14,75.94,2.43v.07A113.68,113.68,0,0,1,261.53,48.92Z"/><path class="cls-6" d="M260,50C222.64,50,144.73,42,126,37.79c-18.94-4.28-51.09-13.24-72.37-19.17L44.3,16C34,13.18,20.24,17.51,10.48,21.65A146.13,146.13,0,0,0-8.45,31.41l-.05-.05a146,146,0,0,1,18.94-9.77A90.87,90.87,0,0,1,27.66,16c6.51-1.31,12.12-1.33,16.66-.08l9.35,2.61C75,24.49,107.1,33.45,126,37.72c22,5,126.24,15.2,149.4,11.4l0,.07A106.9,106.9,0,0,1,260,50Z"/><path class="cls-6" d="M258.25,51.11q-6.24,0-14.46-.3c-12.53-.47-28.11-1.47-45-2.89-32.58-2.73-63.85-6.51-74.35-9-14-3.28-35.1-9.91-53.76-15.76-10-3.15-19.53-6.13-26.24-8-4.3-1.23-9.75-1.1-16.2.39a93.68,93.68,0,0,0-17.27,6.13A157.16,157.16,0,0,0-8.41,32.23l-.05-.06A160.29,160.29,0,0,1,10.89,21.6a92.12,92.12,0,0,1,17.29-6.13c6.46-1.5,11.93-1.63,16.24-.39,6.72,1.92,16.21,4.89,26.25,8C89.33,29,110.47,35.6,124.42,38.88c10.5,2.47,41.76,6.24,74.34,9,37.06,3.11,64.88,4,74.4,2.39v.06A98.24,98.24,0,0,1,258.25,51.11Z"/><path class="cls-6" d="M256.42,52.2c-13.57,0-34.2-1.08-59.19-3.14-33.59-2.77-64.21-6.45-74.44-9-12.82-3.13-32.17-10-49.24-16-11.28-4-21.93-7.74-29-9.85-4.07-1.2-9.38-1-15.78.71a94.93,94.93,0,0,0-17.34,6.7A174.28,174.28,0,0,0-8.37,33l-.05,0A174.82,174.82,0,0,1,11.34,21.61,95.91,95.91,0,0,1,28.7,14.9c6.42-1.68,11.74-1.91,15.82-.7,7.13,2.1,17.78,5.87,29.06,9.85,17.07,6,36.41,12.86,49.23,16,10.23,2.5,40.84,6.18,74.43,9,37.13,3.07,64.66,3.95,73.63,2.37l0,.06A94.43,94.43,0,0,1,256.42,52.2Z"/><path class="cls-6" d="M254.93,53.28c-15.27,0-38.65-1.41-59.21-3.08-34.05-2.75-64.71-6.43-74.55-8.93C108.88,38.14,90.35,30.83,74,24.38c-11.54-4.56-22.43-8.86-29.42-11-3.83-1.18-9-.83-15.35,1a98.8,98.8,0,0,0-17.41,7.28A193.67,193.67,0,0,0-8.33,33.85l-.05-.05A192.24,192.24,0,0,1,11.79,21.62a100.07,100.07,0,0,1,17.42-7.29c6.38-1.85,11.56-2.2,15.41-1,7,2.14,17.88,6.44,29.42,11,16.34,6.45,34.87,13.76,47.15,16.88,9.84,2.51,40.49,6.18,74.53,8.94,28.73,2.32,63,4.16,72.87,2.33v.07A87.25,87.25,0,0,1,254.93,53.28Z"/></g></g></g></g></svg>
