<svg xmlns="http://www.w3.org/2000/svg" xmlns:xlink="http://www.w3.org/1999/xlink" viewBox="0 0 119.64 57.91"><defs><style>.cls-1{fill:none;}.cls-2{clip-path:url(#clip-path);}.cls-3{fill:#4285f4;}.cls-4{fill:#e94435;}.cls-5{fill:#f8bb15;}.cls-6{fill:#34a751;}</style><clipPath id="clip-path"><path class="cls-1" d="M96,45.3H95a2.4,2.4,0,0,0,0,4.8h14.9a2.4,2.4,0,1,0,0-4.8Zm13.3-8.9a2.4,2.4,0,0,0,0,4.8H117a2.4,2.4,0,0,0,0-4.8Zm-14.6-10a2.4,2.4,0,1,0,0,4.8h14.9a2.4,2.4,0,1,0,0-4.8Zm-69.8,5.4V26.1a5.7,5.7,0,1,1,5.7,5.7h-5.7m-3.2-14.6V35h8.9c5.7,0,8.8-3.9,8.8-8.8V26a8.75,8.75,0,0,0-8.8-8.8Zm41.6-1.3h0m2.2,19.7a8.41,8.41,0,0,1-3.7-3.3,9.15,9.15,0,0,1,0-9.4,9.06,9.06,0,0,1,3.7-3.3,10.43,10.43,0,0,1,2.5-.8h.3c.7-.1.3,0,.3,0h.1a17.26,17.26,0,0,1,16.2,17.6H70.34a10.56,10.56,0,0,1-4.8-.8M41.74,0a28.34,28.34,0,0,0-15.1,4.7A29.24,29.24,0,0,0,13.34,27a18.48,18.48,0,0,0-5,1.7,15.29,15.29,0,0,0-5.6,4.8,14.76,14.76,0,0,0-2.7,8,14.74,14.74,0,0,0,1.8,8.2,15.08,15.08,0,0,0,5.9,6.1,15.09,15.09,0,0,0,8.1,2.1h51.5a21.93,21.93,0,0,0,15.5-6,22.39,22.39,0,0,0,4.8-6.6h-5.5a15.29,15.29,0,0,1-2.6,3.1,17.17,17.17,0,0,1-12.1,4.7H33a18.14,18.14,0,0,1,4.7-12.8c3-3,5.7-4.5,9.8-4.7,3.7-.1,4.8.5,7.7,3.3a2.63,2.63,0,0,0,2.9-.3,2.67,2.67,0,0,0-.5-3.3c-3.6-3.4-6.1-4.2-10.6-4a18.44,18.44,0,0,0-12.9,5.6,17.89,17.89,0,0,0-4.6,6.7,7.49,7.49,0,0,0-1.5-2,12.4,12.4,0,0,0-8.8-3.5,12.71,12.71,0,0,0-8.4,3.5c-2,1.9.9,4.1,2.5,2.9,2.5-1.5,4.2-2.9,6.9-2.5a7.18,7.18,0,0,1,4.4,1.9c1.2,1,2.5,2,2,9.2H15.84a10.67,10.67,0,0,1-5.6-1.5,10.13,10.13,0,0,1-4-4.2,10.61,10.61,0,0,1,.6-11.2,10.13,10.13,0,0,1,3.8-3.3,10.48,10.48,0,0,1,2.8-1v.3c.3,1.5.2,1.5,1.6,4.2.6,1.2,1.5,1.2,2.9.8a1.82,1.82,0,0,0,1.4-2.6c-1.3-3.2-1-2.2-1.1-2.9-1-4.3.3-8.9,2.3-13a24.58,24.58,0,0,1,8.7-9.9,24,24,0,0,1,12.6-3.9,24.45,24.45,0,0,1,12.8,3.3,30.89,30.89,0,0,1,8.7,7.8h0a11.33,11.33,0,0,0-5,4.7,13.73,13.73,0,0,0-2.1,7.3,14,14,0,0,0,2.1,7.3,13.42,13.42,0,0,0,5.6,5,15.83,15.83,0,0,0,4.9,1h32.7a2.4,2.4,0,0,0,0-4.8h-12a21.75,21.75,0,0,0-5.7-15.2,22.08,22.08,0,0,0-14.9-7.2,10.87,10.87,0,0,0-1.8-.1A29,29,0,0,0,56.84,4,29.53,29.53,0,0,0,42.24.1c0-.1-.3-.1-.5-.1"/></clipPath></defs><g id="Layer_2" data-name="Layer 2"><g id="圖層_1" data-name="圖層 1"><g class="cls-2"><rect class="cls-3" x="-2.96" y="-2" width="123.3" height="60.8"/></g><path class="cls-4" d="M109.94,26.3a2.5,2.5,0,0,1,0,5H94.74a2.5,2.5,0,0,1,0-5Z"/><path class="cls-5" d="M117.14,36.3a2.5,2.5,0,0,1,0,5h-7.9a2.5,2.5,0,0,1,0-5Z"/><path class="cls-6" d="M96,45.11h14.1a2.5,2.5,0,0,1,0,5H94.89a2.5,2.5,0,0,1,0-5Z"/></g></g></svg>