<svg xmlns="http://www.w3.org/2000/svg" viewBox="0 0 512 512"><defs><style>.cls-1{fill:#fff;}</style></defs><g id="Layer_2" data-name="Layer 2"><g id="Layer_1-2" data-name="Layer 1"><path class="cls-1" d="M316.2,388.6a10.61,10.61,0,0,0-7.4-3.1,10.37,10.37,0,0,0-7.4,3.1,10.61,10.61,0,0,0-3.1,7.4,10.47,10.47,0,0,0,17.9,7.4,10.61,10.61,0,0,0,3.1-7.4A10.37,10.37,0,0,0,316.2,388.6Z"/><path class="cls-1" d="M365.9,314.4l-59.5-24.8a4.07,4.07,0,0,1-2.3-2.5V271l17.5-10,.6-.3c11.7-7.7,19.4-21.3,20.5-36.2v-7.6a27.3,27.3,0,0,0,16.8-25.1V165a27.15,27.15,0,0,0-16.8-25.1V118.3a62.86,62.86,0,0,0-63-62.7H232.5c-34.8,0-63.2,28.1-63.2,62.7v21.6a27.29,27.29,0,0,0-16.8,25.2v26.7A27.44,27.44,0,0,0,169.3,217v7.6c1.1,14.9,8.8,28.4,20.6,36.2a2.09,2.09,0,0,1,.6.4l17.3,9.9v16.2a4.23,4.23,0,0,1-2.4,2.5L146,314.4c-16,6.7-27.2,24.2-27.2,42.7V396a10.39,10.39,0,0,0,10.4,10.4H271.5a10.4,10.4,0,0,0,0-20.8H139.7V357.2c0-10,6.2-20,14.3-23.5l59.5-24.8a25.42,25.42,0,0,0,15.1-18.4,15,15,0,0,0,.2-2V264.9a10.54,10.54,0,0,0-5.3-9.1L201.3,243c-6.1-4.1-10.3-11.7-11-19.8V208.4A10.39,10.39,0,0,0,179.9,198a6.44,6.44,0,0,1-6.4-6.4V164.9a6.44,6.44,0,0,1,6.4-6.4,10.39,10.39,0,0,0,10.4-10.4v-30c0-23,19-41.8,42.3-41.8h47.2a42,42,0,0,1,42.1,41.8v30a10.39,10.39,0,0,0,10.4,10.4,6.4,6.4,0,0,1,6.3,6.3v26.8a6.4,6.4,0,0,1-6.3,6.3,10.39,10.39,0,0,0-10.4,10.4v14.8c-.7,8.1-4.9,15.7-10.9,19.8l-22.4,12.9a10.63,10.63,0,0,0-5.3,9.1v23.6a14.92,14.92,0,0,0,.2,2.1,25.36,25.36,0,0,0,15,18.3L358,333.7c8.2,3.4,14.3,13.5,14.3,23.5v28.4H344.9a10.4,10.4,0,0,0,0,20.8h37.8A10.54,10.54,0,0,0,393.2,396V357.2C393.1,338.7,381.9,321.1,365.9,314.4Z"/><path class="cls-1" d="M437,75A256,256,0,0,0,50.7,409a10.43,10.43,0,1,0,16.7-12.5C-1.9,303.6,7.7,171.8,89.8,89.8A235,235,0,1,1,422.2,422.2c-82.1,82.1-214.1,91.7-306.9,22.2a10.43,10.43,0,1,0-12.5,16.7A255.59,255.59,0,0,0,256,512c5.8,0,11.5-.2,17.3-.6A256,256,0,0,0,437,75Z"/><path class="cls-1" d="M89.9,422.3l-.2-.2a10.47,10.47,0,0,0-14.8,14.8l.2.2a10.5,10.5,0,0,0,14.8.1A10.75,10.75,0,0,0,89.9,422.3Z"/></g></g></svg>