<svg xmlns="http://www.w3.org/2000/svg" viewBox="0 0 393.61 49.3"><defs><style>.cls-1{fill:#e94434;}.cls-2{fill:#32a852;}.cls-3{fill:#f8ba16;}.cls-4{fill:#4f86c5;}</style></defs><g id="Layer_2" data-name="Layer 2"><g id="圖層_1" data-name="圖層 1"><path class="cls-1" d="M41.81,30.3l-8.9,3.6a2,2,0,0,1-2,0L22,30.3c-1-.5-1-.8,0-1.3l8.9-3.9a2,2,0,0,1,2,0l8.9,3.9C43,29.6,42.71,29.9,41.81,30.3Z"/><polygon class="cls-2" points="24.61 32.2 24.61 37.3 31.51 40 31.51 35.1 24.61 32.2"/><polygon class="cls-2" points="39.31 32.2 39.31 37.3 32.51 40 32.51 35.1 39.31 32.2"/><circle class="cls-1" cx="41.31" cy="33.9" r="1.1"/><path class="cls-3" d="M18,22.8V41.4a2.69,2.69,0,0,0,2.7,2.7h25.4a2.69,2.69,0,0,0,2.7-2.7V22.8a2.69,2.69,0,0,0-2.7-2.7H20.71A2.69,2.69,0,0,0,18,22.8Zm29.4,9.3a1.2,1.2,0,1,1-1.2-1.1A1.08,1.08,0,0,1,47.41,32.1Zm-4.2-9.6a.65.65,0,0,1,.6.6V41.2a.65.65,0,0,1-.6.6H20.91a.65.65,0,0,1-.6-.6V23.1a.65.65,0,0,1,.6-.6Z"/><path class="cls-4" d="M84.91,38.6H84a2.05,2.05,0,0,0-2.1,2.1A2.18,2.18,0,0,0,84,42.8h13.2a2.05,2.05,0,0,0,2.1-2.1,2.18,2.18,0,0,0-2.1-2.1ZM96.61,31a2.05,2.05,0,0,0-2.1,2.1,2.18,2.18,0,0,0,2.1,2.1h6.8a2.05,2.05,0,0,0,2.1-2.1,2.18,2.18,0,0,0-2.1-2.1Zm-12.9-8.5a2.05,2.05,0,0,0-2.1,2.1,2.18,2.18,0,0,0,2.1,2.1h13.2A2.05,2.05,0,0,0,99,24.6a2.18,2.18,0,0,0-2.1-2.1Zm-25.8,7.8a7.86,7.86,0,0,1-3.2-2.8,7.27,7.27,0,0,1,0-8,7.86,7.86,0,0,1,3.2-2.8,14.16,14.16,0,0,1,2.2-.7h.2c.6-.1.3,0,.3,0h.1a15.19,15.19,0,0,1,10.4,4.8A14.45,14.45,0,0,1,75,31H62.11a9.29,9.29,0,0,1-4.2-.7M37.41,0h-.6a26,26,0,0,0-13.4,4,24.27,24.27,0,0,0-9.2,10.1,25.8,25.8,0,0,0-2.5,8.9,14.12,14.12,0,0,0-4.4,1.4,14,14,0,0,0-4.9,4.1A12.47,12.47,0,0,0,0,35.3a13.35,13.35,0,0,0,1.6,7,13,13,0,0,0,5.2,5.2A14.52,14.52,0,0,0,14,49.3h45.5a19.55,19.55,0,0,0,13.7-5.1,18.64,18.64,0,0,0,4.3-5.7h-4.9a14.93,14.93,0,0,1-2.3,2.7,15.58,15.58,0,0,1-10.7,4h-23c-.2,0-1,.1-1,.1h-.9c-.1-.1-.7-.1-.7-.1H13.91a9.77,9.77,0,0,1-8.6-4.9,9.29,9.29,0,0,1-1.1-4.9,9,9,0,0,1,1.7-4.7,8.57,8.57,0,0,1,3.4-2.8,10.64,10.64,0,0,1,2.5-.9v.2c.2,1.3.2,1.3,1.4,3.6.5,1,1.4,1,2.6.7s1.7-1.1,1.2-2.2c-1.2-2.8-.9-1.9-1-2.5-.9-3.7.3-7.6,2-11.1a21,21,0,0,1,7.7-8.5,22.56,22.56,0,0,1,11.2-3.3,22.05,22.05,0,0,1,11.3,2.8,27.38,27.38,0,0,1,7.7,6.7h0a10.19,10.19,0,0,0-4.5,4,11.85,11.85,0,0,0-1.9,6.2,10.78,10.78,0,0,0,1.9,6.2,11.57,11.57,0,0,0,5,4.3,12.73,12.73,0,0,0,4.4.8h28.9a2.05,2.05,0,0,0,2.1-2.1,2.18,2.18,0,0,0-2.1-2.1H79.11a18.38,18.38,0,0,0-5-13,19.52,19.52,0,0,0-13.2-6.1,7.57,7.57,0,0,0-1.5-.1A24.72,24.72,0,0,0,50.31,3a30.22,30.22,0,0,0-12.9-3h0"/><path class="cls-3" d="M365.21,13.4c-.5,1.4-1,2.6-1.3,3.5-3-.5-5.9-1.4-8.8-1.4-7.5-.1-12.4,5.2-12.3,12.9,0,7.2,5.1,12.2,12.5,12.2a34.49,34.49,0,0,0,5.5-.7c.9-.1,1.3-.6,1.3-1.7-.1-1.7,0-3.5,0-5.4h-6.6V28.5h11c0,.5.1,1,.1,1.4v9c0,3.3,0,3.3-3.2,4.5a20.55,20.55,0,0,1-12,1.1c-7.9-1.8-12.8-7.3-13.1-15.3-.3-8.9,4.5-15.8,13-17.8A21.08,21.08,0,0,1,365.21,13.4Z"/><path class="cls-4" d="M318.41,44.7h-4.2V33.2c0-1.7,0-3.5-2-4.3a4.28,4.28,0,0,0-5.1,1.7,12.2,12.2,0,0,0-1.9,5.1,87.75,87.75,0,0,0-.1,8.9H301V25.7h3.6c.1,1.1.3,2.1.5,3.6a8.69,8.69,0,0,1,6.7-4.4c2.9-.3,5.1.9,6.7,4a9,9,0,0,1,6.1-3.9c3.6-.6,6.9,1.7,7,5.2.2,4.8,0,9.5,0,14.4h-4.2V37.1c0-1.6.1-3.3,0-4.9-.2-3.3-2.7-4.6-5.6-2.9-2.5,1.5-3.4,3.9-3.4,6.7Z"/><path class="cls-1" d="M148.31,38.4c.6,1.2,1.2,2.5,1.7,3.6-5.5,4.8-16,3.9-21.8-1.7-6-5.9-6.4-16.8-.8-23.6a17,17,0,0,1,22.2-2.9c-.3.6-.5,1.3-.8,2s-.6,1.3-.9,2c-7.7-3.7-13.2-2.9-17.2,2.3a13.8,13.8,0,0,0,.2,16.5C134.11,40.5,141.51,42.7,148.31,38.4Z"/><path class="cls-4" d="M188,44.7h-3.9c-.1-.9-.1-1.8-.2-3.1-2.9,2.9-6.2,4.1-10,3.1a8.73,8.73,0,0,1-5.2-3.6c-3-4.3-2.1-11.2,1.9-14.4s9.1-2.8,13.5,1.5c.1-.9.2-1.7.3-2.6h3.8C188,32.1,188,38.3,188,44.7Zm-4-9.8c.5-4.4-3.5-6.8-6.5-6.7a6.29,6.29,0,0,0-6.3,6.6,6.56,6.56,0,0,0,6.5,6.8A6,6,0,0,0,184,34.9Z"/><path class="cls-4" d="M274,34.9a10.61,10.61,0,0,1,21.2,0c.1,5.8-4.6,10.3-10.6,10.3C278.31,45.1,274,40.9,274,34.9Zm16.7.1c0-3.9-2.6-6.8-6.1-6.8s-6.3,2.9-6.3,6.8a6.31,6.31,0,0,0,6.1,6.6C288,41.7,290.71,38.8,290.71,35Z"/><path class="cls-4" d="M269.71,35.1a10.12,10.12,0,0,1-10.8,10.1c-6.4-.2-10.5-4.5-10.3-11,.2-5.4,5.1-9.7,10.9-9.4C265.51,24.9,269.91,29.4,269.71,35.1Zm-4.3-.2c0-3.8-2.7-6.7-6.2-6.7a6.5,6.5,0,0,0-6.3,6.7,6.37,6.37,0,0,0,6.3,6.7C262.71,41.6,265.41,38.7,265.41,34.9Z"/><path class="cls-4" d="M372.61,34.9a10.51,10.51,0,0,1,21-.1c.1,6-4.4,10.3-10.5,10.4S372.61,41,372.61,34.9Zm4.2.1a6.29,6.29,0,0,0,6.3,6.6,6.59,6.59,0,0,0,6.2-6.6c0-3.8-2.8-6.9-6.4-6.8C379.51,28.2,376.81,31.2,376.81,35Z"/><path class="cls-4" d="M214.41,40.5a42.59,42.59,0,0,0,6.2,1.5,2.24,2.24,0,0,0,2.7-2c.2-1.5-.7-2.3-2-2.8s-2.8-.9-4.2-1.5a5.22,5.22,0,0,1-3.3-5.6,5.86,5.86,0,0,1,4.5-4.8,9.41,9.41,0,0,1,8.6,2c-.5.8-1,1.6-1.3,2a33.93,33.93,0,0,0-4.5-1.2,2.41,2.41,0,0,0-2.9,1.8c-.3,1.6.8,2.3,2,2.8s2.5.8,3.7,1.3c2.7,1.2,3.7,2.6,3.6,5.2a5.9,5.9,0,0,1-4,5.4c-3.5,1.3-8.1.3-10.4-2.4C213.61,41.5,214.21,40.8,214.41,40.5Z"/><path class="cls-4" d="M208.11,27.2c-.5.8-1,1.6-1.4,2.2a36,36,0,0,0-4.4-1.2,2.54,2.54,0,0,0-3.1,1.8c-.4,1.6.9,2.3,2.1,2.8s2.5.8,3.7,1.3c2.1.9,3.6,2.3,3.5,4.9a5.62,5.62,0,0,1-3.7,5.4A10.08,10.08,0,0,1,194,42.2a19.37,19.37,0,0,1,1.4-1.8,51.11,51.11,0,0,0,5.8,1.6,2.43,2.43,0,0,0,3-1.9c.3-1.7-.8-2.5-2.1-3s-2.8-.9-4.1-1.5a5,5,0,0,1-3.1-5,5.37,5.37,0,0,1,3.8-5A9.47,9.47,0,0,1,208.11,27.2Z"/><path class="cls-4" d="M160.91,44.8h-4V9.1h4Z"/><path class="cls-2" d="M237.91,44.8h-4.1V25.9h3.6c.1,1.3.2,2.6.4,4.4,2-2.8,4.2-4.6,7.5-5.1v4c-.4,0-.8.1-1.1.1a6.9,6.9,0,0,0-6.2,7.1C237.91,39,237.91,41.8,237.91,44.8Z"/></g></g></svg>