<svg xmlns="http://www.w3.org/2000/svg" xmlns:xlink="http://www.w3.org/1999/xlink" viewBox="0 0 162 270"><defs><style>.cls-1{fill:#45277b;}.cls-2,.cls-3,.cls-4,.cls-5,.cls-6,.cls-7,.cls-8,.cls-9{fill:none;stroke-miterlimit:10;}.cls-2{stroke-width:1.11px;stroke:url(#radial-gradient);}.cls-3{stroke-width:1.84px;stroke:url(#radial-gradient-2);}.cls-4{stroke-width:2.57px;stroke:url(#radial-gradient-3);}.cls-5{stroke-width:3.3px;stroke:url(#radial-gradient-4);}.cls-6{stroke-width:4.03px;stroke:url(#radial-gradient-5);}.cls-7{stroke-width:4.76px;stroke:url(#radial-gradient-6);}.cls-8{stroke-width:5.49px;stroke:url(#radial-gradient-7);}.cls-9{stroke-width:6.23px;stroke:url(#radial-gradient-8);}.cls-10{fill:url(#linear-gradient);}.cls-11{fill:url(#linear-gradient-2);}.cls-12{fill:url(#linear-gradient-3);}.cls-13{fill:url(#linear-gradient-4);}.cls-14{fill:url(#linear-gradient-5);}.cls-15{fill:url(#linear-gradient-6);}.cls-16{fill:url(#linear-gradient-7);}.cls-17{fill:url(#linear-gradient-8);}.cls-18{fill:url(#linear-gradient-9);}.cls-19{fill:url(#linear-gradient-10);}.cls-20{fill:#fff;}.cls-21{fill:url(#linear-gradient-11);}.cls-22{fill:url(#linear-gradient-12);}.cls-23{fill:url(#linear-gradient-13);}.cls-24{fill:url(#linear-gradient-14);}.cls-25{fill:url(#linear-gradient-15);}.cls-26{fill:url(#linear-gradient-16);}</style><radialGradient id="radial-gradient" cx="112.49" cy="49.12" r="7.73" gradientUnits="userSpaceOnUse"><stop offset="0" stop-color="#602784"/><stop offset="1" stop-color="#45277b"/></radialGradient><radialGradient id="radial-gradient-2" cx="112.49" cy="49.12" r="12.83" xlink:href="#radial-gradient"/><radialGradient id="radial-gradient-3" cx="112.49" cy="49.12" r="17.93" xlink:href="#radial-gradient"/><radialGradient id="radial-gradient-4" cx="112.49" cy="49.12" r="23.03" xlink:href="#radial-gradient"/><radialGradient id="radial-gradient-5" cx="112.49" cy="49.12" r="28.13" xlink:href="#radial-gradient"/><radialGradient id="radial-gradient-6" cx="112.49" cy="49.12" r="33.23" xlink:href="#radial-gradient"/><radialGradient id="radial-gradient-7" cx="112.49" cy="49.12" r="38.33" xlink:href="#radial-gradient"/><radialGradient id="radial-gradient-8" cx="112.49" cy="49.12" r="43.43" xlink:href="#radial-gradient"/><linearGradient id="linear-gradient" x1="-223.76" y1="-28.88" x2="-293.74" y2="-90.57" gradientTransform="translate(-225.54 365.89) rotate(135)" xlink:href="#radial-gradient"/><linearGradient id="linear-gradient-2" x1="-221.1" y1="-31.9" x2="-291.07" y2="-93.59" gradientTransform="translate(-225.54 365.89) rotate(135)" xlink:href="#radial-gradient"/><linearGradient id="linear-gradient-3" x1="128.78" y1="317.38" x2="11.01" y2="213.55" xlink:href="#radial-gradient"/><linearGradient id="linear-gradient-4" x1="103.37" y1="303.48" x2="10.6" y2="221.69" xlink:href="#radial-gradient"/><linearGradient id="linear-gradient-5" x1="87.85" y1="297.59" x2="5.87" y2="225.31" xlink:href="#radial-gradient"/><linearGradient id="linear-gradient-6" x1="74.58" y1="294" x2="0.53" y2="228.71" xlink:href="#radial-gradient"/><linearGradient id="linear-gradient-7" x1="61.78" y1="290.8" x2="-4.65" y2="232.24" xlink:href="#radial-gradient"/><linearGradient id="linear-gradient-8" x1="48.07" y1="286.81" x2="-8.82" y2="236.65" xlink:href="#radial-gradient"/><linearGradient id="linear-gradient-9" x1="22.21" y1="272.11" x2="-8.99" y2="244.6" xlink:href="#radial-gradient"/><linearGradient id="linear-gradient-10" x1="9.02" y1="268.47" x2="-7.27" y2="254.11" xlink:href="#radial-gradient"/><linearGradient id="linear-gradient-11" x1="-426.4" y1="357.01" x2="-418.58" y2="357.01" gradientTransform="translate(-462.06 163.06) rotate(-135)" xlink:href="#radial-gradient"/><linearGradient id="linear-gradient-12" x1="-443.21" y1="405.07" x2="-435.39" y2="405.07" gradientTransform="translate(-462.06 163.06) rotate(-135)" xlink:href="#radial-gradient"/><linearGradient id="linear-gradient-13" x1="-331.53" y1="365.96" x2="-323.72" y2="365.96" gradientTransform="translate(-462.06 163.06) rotate(-135)" xlink:href="#radial-gradient"/><linearGradient id="linear-gradient-14" x1="-250.43" y1="440.04" x2="-242.61" y2="440.04" gradientTransform="translate(-462.06 163.06) rotate(-135)" xlink:href="#radial-gradient"/><linearGradient id="linear-gradient-15" x1="-295.97" y1="423.74" x2="-275.36" y2="423.74" gradientTransform="translate(-462.06 163.06) rotate(-135)" xlink:href="#radial-gradient"/><linearGradient id="linear-gradient-16" x1="-475.86" y1="354.43" x2="-455.25" y2="354.43" gradientTransform="translate(-462.06 163.06) rotate(-135)" xlink:href="#radial-gradient"/></defs><g id="Layer_2" data-name="Layer 2"><g id="BG"><rect class="cls-1" width="162" height="270"/></g><g id="Element"><circle class="cls-2" cx="112.49" cy="49.12" r="7.18"/><circle class="cls-3" cx="112.49" cy="49.12" r="11.91"/><circle class="cls-4" cx="112.49" cy="49.12" r="16.64"/><circle class="cls-5" cx="112.49" cy="49.12" r="21.38"/><circle class="cls-6" cx="112.49" cy="49.12" r="26.11"/><circle class="cls-7" cx="112.49" cy="49.12" r="30.85"/><circle class="cls-8" cx="112.49" cy="49.12" r="35.58"/><circle class="cls-9" cx="112.49" cy="49.12" r="40.32"/><path class="cls-10" d="M7.73,183.5l.71-.71c3.71,3.71,3.47,7.67,3.23,11.49s-.44,7.34,2.95,10.73,7,3.18,10.73,3,7.78-.47,11.49,3.24,3.47,7.66,3.24,11.48S39.63,230,43,233.41s6.95,3.17,10.72,2.94,7.78-.47,11.49,3.24,3.47,7.66,3.24,11.49-.45,7.33,2.94,10.72l-.71.7c-3.71-3.7-3.46-7.66-3.23-11.49s.44-7.33-2.94-10.72-7-3.17-10.73-2.94-7.78.47-11.49-3.24-3.47-7.66-3.23-11.49.44-7.33-2.94-10.72-7-3.17-10.73-2.94-7.79.47-11.5-3.24-3.47-7.67-3.23-11.5S11.12,186.89,7.73,183.5Z"/><path class="cls-11" d="M3.43,187.8l.7-.71c3.71,3.71,3.47,7.67,3.24,11.5s-.44,7.33,3,10.72,7,3.18,10.73,2.95,7.78-.47,11.49,3.24S36,223.16,35.77,227s-.44,7.33,2.95,10.72,7,3.17,10.72,2.94,7.78-.47,11.49,3.24,3.47,7.66,3.23,11.49-.44,7.33,3,10.72l-.71.71c-3.71-3.71-3.47-7.67-3.23-11.49s.44-7.34-3-10.72-6.95-3.18-10.72-2.95-7.78.47-11.49-3.23-3.47-7.67-3.24-11.49.45-7.34-2.94-10.72-6.95-3.18-10.72-3-7.79.47-11.5-3.24-3.47-7.67-3.24-11.49S6.82,191.19,3.43,187.8Z"/><path class="cls-12" d="M62.43,270H61.11c-2.67-3.38-2.46-6.93-2.25-10.38.23-3.77.45-7.33-2.94-10.72s-7-3.18-10.72-3-7.79.48-11.49-3.23-3.47-7.67-3.24-11.49.45-7.33-2.94-10.72-7-3.18-10.73-2.95S9,218,5.31,214.32s-3.47-7.67-3.24-11.49c.21-3.41.41-6.65-2.07-9.74v-1.52c3.53,3.67,3.3,7.55,3.07,11.32S2.63,210.22,6,213.61s7,3.18,10.72,2.95,7.79-.47,11.5,3.24,3.46,7.66,3.23,11.49S31,238.62,34.41,242s7,3.17,10.73,3,7.78-.48,11.49,3.23,3.46,7.66,3.23,11.49C59.64,263.3,59.44,266.73,62.43,270Z"/><path class="cls-13" d="M55.79,270h-1a22.17,22.17,0,0,1-.2-6.08c.23-3.77.45-7.33-2.94-10.72s-6.95-3.17-10.73-2.94-7.78.47-11.49-3.24-3.46-7.66-3.23-11.49.45-7.33-2.94-10.72-7-3.18-10.73-2.95-7.78.47-11.49-3.24a12.92,12.92,0,0,1-1-1.14v-1.76a10.75,10.75,0,0,0,1.71,2.2c3.4,3.39,7,3.17,10.73,2.94s7.78-.47,11.49,3.24,3.47,7.67,3.24,11.49-.45,7.33,2.94,10.72,7,3.18,10.72,2.95,7.79-.48,11.5,3.23,3.46,7.67,3.23,11.49A19.81,19.81,0,0,0,55.79,270Z"/><path class="cls-14" d="M51.26,268.29q-.06.87-.09,1.71h-1c0-.6,0-1.19.09-1.78.23-3.77.45-7.33-2.94-10.72s-7-3.17-10.73-2.94-7.78.47-11.49-3.24-3.47-7.66-3.23-11.49.44-7.33-2.94-10.72-7-3.17-10.73-2.94c-2.71.16-5.49.33-8.2-.91v-1.11c2.61,1.35,5.32,1.19,8.14,1,3.83-.23,7.78-.47,11.49,3.23s3.47,7.67,3.24,11.49-.45,7.34,2.94,10.73,7,3.17,10.72,2.94,7.78-.47,11.49,3.24S51.49,264.46,51.26,268.29Z"/><path class="cls-15" d="M47.07,270h-1A10.33,10.33,0,0,0,43,261.81c-3.39-3.39-6.95-3.18-10.72-2.95s-7.78.47-11.49-3.23-3.47-7.67-3.23-11.49.44-7.34-3-10.73-6.95-3.17-10.72-2.94a31.66,31.66,0,0,1-3.9.08v-1a31,31,0,0,0,3.84-.08c3.82-.23,7.78-.47,11.49,3.24s3.47,7.66,3.23,11.49-.44,7.33,3,10.72,7,3.17,10.72,2.94,7.78-.47,11.49,3.24A11.37,11.37,0,0,1,47.07,270Z"/><path class="cls-16" d="M42.24,270H41.19a10,10,0,0,0-2.48-3.89c-3.39-3.39-6.95-3.18-10.72-2.95s-7.79.48-11.49-3.23-3.47-7.67-3.24-11.49.45-7.33-2.94-10.72-6.69-3.19-10.32-3v-1c3.68-.21,7.47-.29,11,3.27,3.71,3.71,3.46,7.66,3.23,11.49s-.45,7.33,2.94,10.72,7,3.17,10.73,2.95,7.78-.48,11.49,3.23A10.7,10.7,0,0,1,42.24,270Z"/><path class="cls-17" d="M35.4,270H34c-3.26-3-6.67-2.75-10.28-2.53-3.83.23-7.79.47-11.5-3.24S8.73,256.57,9,252.74,9.41,245.41,6,242a9.74,9.74,0,0,0-6-3v-1a10.73,10.73,0,0,1,6.73,3.25C10.43,245,10.19,249,10,252.8s-.45,7.33,2.94,10.72,7,3.18,10.72,3,7.79-.48,11.5,3.23A3.84,3.84,0,0,1,35.4,270Z"/><path class="cls-18" d="M11.7,270h-2a12.08,12.08,0,0,1-1.77-1.47c-3.71-3.71-3.46-7.66-3.23-11.49s.45-7.33-2.94-10.72A10.77,10.77,0,0,0,0,244.91v-1.18a11.5,11.5,0,0,1,2.42,1.88c3.71,3.71,3.47,7.67,3.24,11.49s-.45,7.34,2.94,10.73A10.08,10.08,0,0,0,11.7,270Z"/><path class="cls-19" d="M2.63,270H1.48C0,267.15.18,264.21.36,261.35a18.32,18.32,0,0,0-.36-6.5v-2.51c1.73,3,1.54,6.06,1.35,9.07S1,267.26,2.63,270Z"/><circle class="cls-20" cx="22.55" cy="218.54" r="0.87"/><circle class="cls-20" cx="32.57" cy="218.54" r="0.87"/><circle class="cls-20" cx="42.59" cy="218.54" r="0.87"/><circle class="cls-20" cx="52.61" cy="218.54" r="0.87"/><circle class="cls-20" cx="62.63" cy="218.54" r="0.87"/><circle class="cls-20" cx="72.65" cy="218.54" r="0.87"/><circle class="cls-20" cx="22.55" cy="228.09" r="0.87"/><circle class="cls-20" cx="32.57" cy="228.09" r="0.87"/><circle class="cls-20" cx="42.59" cy="228.09" r="0.87"/><circle class="cls-20" cx="52.61" cy="228.09" r="0.87"/><circle class="cls-20" cx="62.63" cy="228.09" r="0.87"/><circle class="cls-20" cx="72.65" cy="228.09" r="0.87"/><circle class="cls-20" cx="22.55" cy="237.63" r="0.87"/><circle class="cls-20" cx="32.57" cy="237.63" r="0.87"/><circle class="cls-20" cx="42.59" cy="237.63" r="0.87"/><circle class="cls-20" cx="52.61" cy="237.63" r="0.87"/><circle class="cls-20" cx="62.63" cy="237.63" r="0.87"/><circle class="cls-20" cx="72.65" cy="237.63" r="0.87"/><circle class="cls-20" cx="22.55" cy="247.18" r="0.87"/><circle class="cls-20" cx="32.57" cy="247.18" r="0.87"/><circle class="cls-20" cx="42.59" cy="247.18" r="0.87"/><circle class="cls-20" cx="52.61" cy="247.18" r="0.87"/><circle class="cls-20" cx="62.63" cy="247.18" r="0.87"/><circle class="cls-20" cx="72.65" cy="247.18" r="0.87"/><path class="cls-21" d="M90.09,204.83l3,4.83a1.12,1.12,0,0,1-1,1.72H86.1a1.12,1.12,0,0,1-.95-1.72l3-4.83A1.12,1.12,0,0,1,90.09,204.83Z"/><path class="cls-22" d="M136,182.73l3,4.84a1.12,1.12,0,0,1-1,1.72H132a1.12,1.12,0,0,1-1-1.72l3-4.84A1.12,1.12,0,0,1,136,182.73Z"/><path class="cls-23" d="M29.33,131.42l3,4.83a1.12,1.12,0,0,1-.95,1.72H25.35a1.12,1.12,0,0,1-1-1.72l3-4.83A1.12,1.12,0,0,1,29.33,131.42Z"/><path class="cls-24" d="M24.36,21.69l3,4.84a1.12,1.12,0,0,1-.95,1.71H20.38a1.11,1.11,0,0,1-.95-1.71l3-4.84A1.12,1.12,0,0,1,24.36,21.69Z"/><path class="cls-25" d="M42.07,53.46l8,12.76a3,3,0,0,1-2.51,4.54h-16a3,3,0,0,1-2.5-4.54l8-12.76A3,3,0,0,1,42.07,53.46Z"/><path class="cls-26" d="M120.27,229.68l8,12.76a3,3,0,0,1-2.5,4.53h-16a3,3,0,0,1-2.51-4.53l8-12.76A3,3,0,0,1,120.27,229.68Z"/></g></g></svg>
