<svg xmlns="http://www.w3.org/2000/svg" viewBox="0 0 4.6 6.87"><defs><style>.cls-1{fill:#ae3895;}</style></defs><g id="Layer_2" data-name="Layer 2"><g id="Layer_1-2" data-name="Layer 1"><path class="cls-1" d="M2.3,1.54a.89.89,0,0,0-.86.92.89.89,0,0,0,.86.92.9.9,0,0,0,.86-.92A.89.89,0,0,0,2.3,1.54Z"/><path class="cls-1" d="M2.14,0A2.33,2.33,0,0,0,.09,1.77a2.66,2.66,0,0,0,.26,2l1.75,3a.23.23,0,0,0,.39,0l1.75-3A2.53,2.53,0,0,0,4.6,2.46,2.37,2.37,0,0,0,2.14,0ZM2.63,4A1.49,1.49,0,0,1,.9,2.1,1.48,1.48,0,0,1,2,1,1.49,1.49,0,0,1,3.7,2.81,1.49,1.49,0,0,1,2.63,4Z"/></g></g></svg>