<svg xmlns="http://www.w3.org/2000/svg" viewBox="0 0 4.6 4.59"><defs><style>.cls-1{fill:#ae3895;}</style></defs><g id="Layer_2" data-name="Layer 2"><g id="Layer_1-2" data-name="Layer 1"><path class="cls-1" d="M4.34.25A.8.8,0,0,0,3.74,0H.86A.82.82,0,0,0,.25.25.82.82,0,0,0,0,.86V3.73a.82.82,0,0,0,.25.61.82.82,0,0,0,.61.25H3.74a.8.8,0,0,0,.6-.25.83.83,0,0,0,.26-.61V.86A.83.83,0,0,0,4.34.25ZM3.76,3.49a.53.53,0,0,1-.28.24.87.87,0,0,1-.39.1H2.9l-.1,0-.09,0-.1,0-.09,0a2.86,2.86,0,0,1-1-.65,2.65,2.65,0,0,1-.64-1A.41.41,0,0,1,.88,2l0-.1a.22.22,0,0,1,0-.08.26.26,0,0,1,0-.1s0-.06,0-.09V1.5a.93.93,0,0,1,.1-.39A.57.57,0,0,1,1.11.83a.8.8,0,0,1,.3-.06h.05l.05.06L1.58,1a1,1,0,0,1,.08.14s.05.09.08.14a.56.56,0,0,0,0,.08l0,.06,0,.07a.14.14,0,0,1,0,.06.17.17,0,0,1-.06.11.53.53,0,0,1-.14.12l-.13.12s-.06.07-.06.1A.11.11,0,0,0,1.5,2a.05.05,0,0,0,0,0s0,0,0,0l0,.05A2.82,2.82,0,0,0,2,2.65,2.23,2.23,0,0,0,2.46,3l0,0,0,0,.05,0h0s.07,0,.13-.1L3,2.81a.26.26,0,0,1,.14-.09h.06l.08,0,.06,0,.15.08.27.15a.35.35,0,0,1,.12.09v0A.72.72,0,0,1,3.76,3.49Z"/></g></g></svg>