<svg xmlns="http://www.w3.org/2000/svg" viewBox="0 0 4.6 4.6"><defs><style>.cls-1{fill:#ae3895;}</style></defs><g id="Layer_2" data-name="Layer 2"><g id="Layer_1-2" data-name="Layer 1"><path class="cls-1" d="M4.59,2.06a2.28,2.28,0,0,0-.37-1A2.6,2.6,0,0,0,4,.71,2.27,2.27,0,0,0,2.51,0H2.09A2.32,2.32,0,0,0,.63.71,3.92,3.92,0,0,0,.38,1a2.28,2.28,0,0,0-.37,1A1.93,1.93,0,0,0,0,2.3a1,1,0,0,0,0,.17,2.33,2.33,0,0,0,.37,1.1,2.78,2.78,0,0,0,.26.32,2.32,2.32,0,0,0,1.45.7h.42A2.32,2.32,0,0,0,4,3.89a2,2,0,0,0,.25-.32,2.23,2.23,0,0,0,.38-1.1,1,1,0,0,0,0-.17A1.93,1.93,0,0,0,4.59,2.06Zm-.42,0H3.54a3.19,3.19,0,0,0-.09-.64,1.94,1.94,0,0,0,.42-.17A1.89,1.89,0,0,1,4.17,2.06Zm-1.12,1A4.46,4.46,0,0,0,2.51,3V2.47h.62A3.88,3.88,0,0,1,3.05,3.09Zm-1,1a1.39,1.39,0,0,1-.43-.63l.43-.05ZM1.47,2.47h.62V3a4.46,4.46,0,0,0-.54.06A3.88,3.88,0,0,1,1.47,2.47Zm.08-1a4.46,4.46,0,0,0,.54.06v.48H1.48A2.83,2.83,0,0,1,1.55,1.52Zm1-1a1.32,1.32,0,0,1,.43.64l-.43,0Zm.61,1.58H2.51V1.58a4.46,4.46,0,0,0,.54-.06A2.83,2.83,0,0,1,3.12,2.06ZM2.09.48v.69l-.43,0A1.25,1.25,0,0,1,2.09.48Zm.42,3.64V3.44l.42.05A1.31,1.31,0,0,1,2.51,4.12ZM3.6.93A1.14,1.14,0,0,1,3.34,1a2.43,2.43,0,0,0-.18-.4A1.94,1.94,0,0,1,3.6.93ZM1.44.62a2.43,2.43,0,0,0-.18.4A1,1,0,0,1,1,.93,1.94,1.94,0,0,1,1.44.62Zm-.71.63a1.6,1.6,0,0,0,.42.17,3.19,3.19,0,0,0-.09.64H.43A1.89,1.89,0,0,1,.73,1.25ZM.42,2.47h.64a4.17,4.17,0,0,0,.09.72,2.19,2.19,0,0,0-.41.16A1.84,1.84,0,0,1,.42,2.47ZM1,3.68l.25-.1a2.1,2.1,0,0,0,.18.4A1.84,1.84,0,0,1,1,3.68ZM3.16,4a3,3,0,0,0,.18-.4l.25.1A1.84,1.84,0,0,1,3.16,4Zm.7-.63a2.19,2.19,0,0,0-.41-.16,4.17,4.17,0,0,0,.09-.72h.64A1.84,1.84,0,0,1,3.86,3.35Z"/></g></g></svg>