<svg xmlns="http://www.w3.org/2000/svg" viewBox="0 0 162 270"><defs><style>.cls-1{fill:#c66b3b;}.cls-2{fill:#efe3d4;}.cls-3{fill:#c66b3a;}</style></defs><g id="Layer_2" data-name="Layer 2"><g id="Background"><rect class="cls-1" width="162" height="270"/></g><g id="Graphic"><rect class="cls-2" x="14.3" y="14.02" width="133.41" height="241.97"/><rect class="cls-3" x="80.75" y="174.96" width="0.5" height="16.33"/><path class="cls-3" d="M9.11,118.19A3.2,3.2,0,0,0,8,117a2.76,2.76,0,0,1-1-1.06,3.91,3.91,0,0,1-.34-1.44,4,4,0,0,0-.41-1.65c-.18-.3-.27-.47-.36-.62s-.2-.34-.41-.69a1.72,1.72,0,0,0-.74-.59,1.51,1.51,0,0,1-.56-.41,4.86,4.86,0,0,0-1-1.23,4.72,4.72,0,0,1-1-1.1,5.25,5.25,0,0,1-.63-1.3,5.38,5.38,0,0,0-.72-1.45L0,104.23v.88l.41.59A5.13,5.13,0,0,1,1.07,107a5.71,5.71,0,0,0,.68,1.42,5.44,5.44,0,0,0,1,1.2,4.3,4.3,0,0,1,1,1.12,1.94,1.94,0,0,0,.74.58,1.5,1.5,0,0,1,.56.4l.4.69c.08.15.18.32.36.63a3.68,3.68,0,0,1,.35,1.45,4.19,4.19,0,0,0,.39,1.62,3.28,3.28,0,0,0,1.14,1.23,2.76,2.76,0,0,1,1,1.06.76.76,0,0,1-.16.26c-.16.21-.37.5-.2.81a.74.74,0,0,0,.49.36c.11,0,.15,0,.19.12a3,3,0,0,0,.46.68,2.92,2.92,0,0,1,.4.59,21.88,21.88,0,0,1,1.24,3,26.37,26.37,0,0,0,1.07,2.66c.77,1.59,1.68,3.14,2.55,4.64a50.22,50.22,0,0,1,3.18,6c.91,2.18,1.63,4.49,2.31,6.72.49,1.57,1,3.19,1.55,4.75l1,2.61c1.05,2.86,2.13,5.81,3.06,8.75.29.91.64,1.8,1,2.67s.77,2,1.08,3c.21.71.33,1.07.45,1.42s.24.72.46,1.45a5.77,5.77,0,0,1,.15,1.47A6.39,6.39,0,0,0,29,172c.47,1.64,1,3.29,1.51,4.88.69,2.17,1.4,4.41,2,6.63a19,19,0,0,1,.54,2.95c0,.43.1.86.2,1.44-.24-.63-.46-1.25-.68-1.87-.52-1.5-1-3-1.47-4.52s-1-3.09-1.49-4.62-1.21-3.18-1.83-4.72c-.56-1.38-1.14-2.81-1.65-4.23-.58-1.62-1.28-3.21-2-4.75-.59-1.35-1.2-2.73-1.73-4.12s-.95-2.85-1.36-4.27c-.47-1.62-1-3.29-1.6-4.88a5.91,5.91,0,0,0-.85-1.35,5.92,5.92,0,0,1-.77-1.22,14.39,14.39,0,0,0-.67-1.36,14.07,14.07,0,0,1-.64-1.32c-.18-.44-.32-.9-.47-1.34a13.7,13.7,0,0,0-.52-1.48,4.41,4.41,0,0,1-.29-1.4,5,5,0,0,0-.35-1.59,12.47,12.47,0,0,0-.71-1.36,12.4,12.4,0,0,1-.67-1.29,6.59,6.59,0,0,0-.8-1.34,5.91,5.91,0,0,1-.75-1.23.73.73,0,0,1,.06-.65,1.21,1.21,0,0,0,0-1.05,1.7,1.7,0,0,0-.57-.68,1.12,1.12,0,0,1-.43-.49c-.21-.42-.4-.87-.58-1.3s-.4-1-.64-1.43c-1.47-2.86-3.13-5.67-4.74-8.4-.38-.65-.77-1.3-1.15-2a13.89,13.89,0,0,1-.64-1.28c-.21-.46-.43-.94-.69-1.39a1.26,1.26,0,0,0-.83-.57.73.73,0,0,1-.54-.35,1.39,1.39,0,0,1,0-.69,1.47,1.47,0,0,0,0-1,3,3,0,0,0-1.23-1.13l0,0v.58a2.23,2.23,0,0,1,.85.84,1.26,1.26,0,0,1,0,.69,1.47,1.47,0,0,0,0,1,1.18,1.18,0,0,0,.82.57.76.76,0,0,1,.54.35c.25.42.46.89.67,1.34s.41.9.66,1.33l1.15,2c1.6,2.71,3.26,5.53,4.72,8.37.23.45.43.93.63,1.39s.37.9.59,1.33a1.66,1.66,0,0,0,.57.67,1.15,1.15,0,0,1,.43.5.69.69,0,0,1-.05.65,1.19,1.19,0,0,0,0,1,6.59,6.59,0,0,0,.8,1.32,6.18,6.18,0,0,1,.75,1.25,12.19,12.19,0,0,0,.69,1.33,12.82,12.82,0,0,1,.69,1.32,4.84,4.84,0,0,1,.3,1.43,5.17,5.17,0,0,0,.33,1.55c.2.46.35.95.51,1.43a14.1,14.1,0,0,0,.48,1.38,11.75,11.75,0,0,0,.67,1.37,14.07,14.07,0,0,1,.64,1.32,6.24,6.24,0,0,0,.83,1.32,5.75,5.75,0,0,1,.79,1.24c.63,1.56,1.11,3.22,1.58,4.83.41,1.42.84,2.9,1.37,4.31s1.15,2.79,1.74,4.14c.68,1.53,1.37,3.12,1.95,4.72.52,1.43,1.1,2.86,1.66,4.25s1.26,3.12,1.81,4.7,1,3.08,1.5,4.6.94,3,1.47,4.53,1.16,3.15,1.76,4.68,1.11,2.83,1.62,4.27l.48-.15A23.24,23.24,0,0,0,35,192a25.3,25.3,0,0,1-.91-2.75,17.7,17.7,0,0,1-.53-2.92,19.91,19.91,0,0,0-.56-3c-.58-2.24-1.3-4.49-2-6.66-.51-1.59-1-3.24-1.5-4.86a6.07,6.07,0,0,1-.14-1.44,6.21,6.21,0,0,0-.17-1.61c-.22-.75-.34-1.1-.47-1.47s-.24-.7-.45-1.4c-.31-1-.7-2.06-1.08-3.05s-.67-1.75-1-2.64c-.94-3-2-5.91-3.07-8.77l-1-2.61c-.56-1.55-1.06-3.16-1.54-4.72-.69-2.25-1.41-4.57-2.33-6.77a52.05,52.05,0,0,0-3.21-6.1c-.87-1.49-1.77-3-2.53-4.6A26.89,26.89,0,0,1,11.55,124a21.42,21.42,0,0,0-1.26-3,2.75,2.75,0,0,0-.46-.67,3,3,0,0,1-.4-.59.76.76,0,0,0-.49-.37c-.11,0-.15,0-.19-.12a.89.89,0,0,1,.16-.27C9.07,118.78,9.28,118.5,9.11,118.19Z"/><path class="cls-3" d="M40.38,171.35a13.33,13.33,0,0,0-1.65.43A4.92,4.92,0,0,1,38,172a3.75,3.75,0,0,0-.71.15,1.67,1.67,0,0,0-.7.6,1.38,1.38,0,0,1-.51.45,1.23,1.23,0,0,1-.66-.13,1.85,1.85,0,0,0-.95-.15,2.54,2.54,0,0,0-.8.44l-.07.05c.06-.12.13-.23.19-.34a7.44,7.44,0,0,1,1.11-1.65c.1-.1.48-.07.75,0a1.56,1.56,0,0,0,1.11-.16,5.67,5.67,0,0,0,.5-.48,6.87,6.87,0,0,1,.57-.52,13.66,13.66,0,0,0,1.7-1.6,8.48,8.48,0,0,1,2.43-2l.15-.07v-.16c0-.69,0-1.19-.07-1.76,0-.27,0-.55,0-.88-.06-1.21,0-2.49,0-3.72a30.72,30.72,0,0,0-.06-5.17l-.06-.45-.34.29c-.8.64-1.76,1.32-2.69,2l-1.46,1a5.84,5.84,0,0,1-.64.41l-.53.32a1.62,1.62,0,0,0-.45.81c-.08.25-.16.5-.29.58a1.13,1.13,0,0,1-.64.08A1.68,1.68,0,0,0,34,160a3.27,3.27,0,0,0-.51.39l-.06.05a.77.77,0,0,1,.07-.16c.07-.16.14-.33.2-.49a2.81,2.81,0,0,0,.14-.81,1.94,1.94,0,0,1,.11-.68,1.33,1.33,0,0,1,.54-.4,1.73,1.73,0,0,0,.71-.56,1.55,1.55,0,0,0,.14-.93,1.28,1.28,0,0,1,.08-.66,22.17,22.17,0,0,1,4.13-4.07c.14-.13.27-.24.4-.34a8.88,8.88,0,0,1,.78-.63l.13-.09-.08-.44c-.39-2.35-.77-4.56-1.31-6.86-.07-.27-.12-.52-.17-.78s-.12-.61-.2-.94l-.1-.36-.3.23a1.39,1.39,0,0,0-.4.56.91.91,0,0,1-.24.37,29.7,29.7,0,0,1-3,1.85c-.8.45-1.63.92-2.42,1.45a3.73,3.73,0,0,0-.6.52,4.35,4.35,0,0,1-.63.52,2.52,2.52,0,0,0-.62.64,2.1,2.1,0,0,1-.55.56,1.33,1.33,0,0,1-.76,0,1.88,1.88,0,0,0-1.06.11c-.2.11-.34.2-.46.28a.91.91,0,0,1-.16.11,1,1,0,0,1,0-.17,1,1,0,0,1,.11-.55,2.66,2.66,0,0,1,.53-.65,4.86,4.86,0,0,0,.54-.66,7,7,0,0,0,.39-.71,4.85,4.85,0,0,1,.41-.75,2.29,2.29,0,0,1,.64-.46,2.8,2.8,0,0,0,.73-.55,29.44,29.44,0,0,1,4.72-4.5,3.72,3.72,0,0,0,.82-.88,2.69,2.69,0,0,1,.81-.84l.16-.1,0-.18c-.27-.9-.5-1.81-.72-2.68a41.15,41.15,0,0,0-1.25-4.33l-.1-.27-.26.14a2.54,2.54,0,0,0-.51.39,2.67,2.67,0,0,1-.43.32,24.7,24.7,0,0,1-3.1,1.29,25.05,25.05,0,0,0-2.87,1.17,4,4,0,0,0-.68.45,3.32,3.32,0,0,1-.69.46,2.17,2.17,0,0,0-.7.65,1.87,1.87,0,0,1-.57.53,3.32,3.32,0,0,1-.81.22,4.43,4.43,0,0,0-.85.22l-1.32.52.05-.11a10.17,10.17,0,0,1,.62-1.16,2.68,2.68,0,0,1,.64-.55,3.58,3.58,0,0,0,.69-.59,3.47,3.47,0,0,0,.46-.79,2.58,2.58,0,0,1,.43-.71c.22-.22.48-.44.72-.64l.57-.48a29.38,29.38,0,0,1,5.5-4.07,3.07,3.07,0,0,1,1-.18,3.72,3.72,0,0,0,1.09-.2l.22-.1-.09-.23a8.66,8.66,0,0,0-1-1.67,8.79,8.79,0,0,1-.92-1.45L32,122.13c-.43-1-.87-2-1.38-3l-.12-.22-.22.11a3.64,3.64,0,0,0-.58.38,4.93,4.93,0,0,1-.54.34c-2.16,1-4.17,1.89-6.17,2.65a1.87,1.87,0,0,1-.8.06,2.42,2.42,0,0,0-1,.07,3.24,3.24,0,0,0-.78.47,2.7,2.7,0,0,1-.71.43,3.25,3.25,0,0,0-.82.44,2.65,2.65,0,0,1-.76.4,1.91,1.91,0,0,1-.79,0l-.29,0a10.68,10.68,0,0,1,1.2-1c.33-.26.67-.52,1-.82a21.07,21.07,0,0,1,2.05-1.58l.66-.47c.68-.49,1.33-1,2-1.58a16.83,16.83,0,0,1,3.54-2.53,4.3,4.3,0,0,1,.8-.24,5.61,5.61,0,0,0,.8-.24l.25-.11-.13-.24a52.29,52.29,0,0,0-3.44-5.14c-.61-.83-1.24-1.7-1.83-2.56l-.13-.19-.2.11a2.29,2.29,0,0,0-.64.64,1.74,1.74,0,0,1-.5.51,14.44,14.44,0,0,1-3.34,1c-.71.16-1.44.33-2.14.56-.37.12-.73.27-1.08.42a9.45,9.45,0,0,1-1.62.57,2.74,2.74,0,0,0-.74.33,2.08,2.08,0,0,1-.66.29c-.11,0-.17,0-.31-.18a1.42,1.42,0,0,0-.37-.3,1.37,1.37,0,0,0,0-.46c0-.2,0-.27,0-.36a1.48,1.48,0,0,1,.63-.29,2,2,0,0,0,.78-.36l.14-.13a24.88,24.88,0,0,1,2.06-1.71,28.2,28.2,0,0,1,3.94-2.26l1-.5a1.71,1.71,0,0,0,.43-.36,1.1,1.1,0,0,1,.32-.27l.28-.13-.19-.25a58.71,58.71,0,0,0-3.9-4.59q-.69-.75-1.38-1.53l-.12-.13-.16.06-1.37.54A26.27,26.27,0,0,1,10.9,100a10.67,10.67,0,0,1-1.83.21c-.44,0-.89.05-1.33.11a1.59,1.59,0,0,1-.7-.23,1.91,1.91,0,0,0-.87-.29,7.14,7.14,0,0,1,.64-.43c.19-.12.38-.24.56-.37a7.75,7.75,0,0,0,1.12-1,5.66,5.66,0,0,1,1.24-1.08,25.28,25.28,0,0,1,2.53-1.23l1.05-.46-.7-.71C11,92.85,9.55,91.4,7.73,89.83l-.14-.12-.16.1c-.32.21-.6.42-.87.63a6.76,6.76,0,0,1-1.36.88,5.66,5.66,0,0,1-2.29.3,9,9,0,0,0-1.8.12A10.56,10.56,0,0,1,0,91.89v.51c.4,0,.8-.09,1.21-.17a8.63,8.63,0,0,1,1.7-.11,6.32,6.32,0,0,0,2.49-.34,7,7,0,0,0,1.47-.94c.21-.17.43-.34.68-.51,1.74,1.51,3.11,2.92,4.7,4.55l.2.2-.38.16a24.14,24.14,0,0,0-2.58,1.25,6.1,6.1,0,0,0-1.36,1.17,6.75,6.75,0,0,1-1.05,1,6.06,6.06,0,0,1-.53.35,8.14,8.14,0,0,0-.8.55,4.59,4.59,0,0,1-.68.38,3.52,3.52,0,0,0-1,.6l-.41.4.58,0a2.56,2.56,0,0,0,1.12-.34,2.58,2.58,0,0,1,.75-.26,1.52,1.52,0,0,1,.69.23,1.72,1.72,0,0,0,1,.28c.42-.06.86-.08,1.29-.11a11.17,11.17,0,0,0,1.91-.21,26,26,0,0,0,3.88-1.31l1.21-.48c.42.48.85,1,1.27,1.41,1.31,1.44,2.55,2.8,3.72,4.34a1.14,1.14,0,0,0-.22.22,1.74,1.74,0,0,1-.3.26l-1,.49a28.21,28.21,0,0,0-4,2.3,25.28,25.28,0,0,0-2.1,1.75l-.14.13a1.61,1.61,0,0,1-.59.25,1.94,1.94,0,0,0-.85.42.8.8,0,0,0-.18.79c0,.19,0,.3,0,.41l-.33.42.53,0c.14,0,.22.07.36.21a.77.77,0,0,0,.74.33,2.18,2.18,0,0,0,.83-.34,2.29,2.29,0,0,1,.6-.28,10,10,0,0,0,1.72-.6c.35-.15.69-.29,1-.41.67-.22,1.39-.38,2.09-.54a15,15,0,0,0,3.46-1.1,2.08,2.08,0,0,0,.67-.65,2.77,2.77,0,0,1,.31-.36c.54.79,1.12,1.59,1.68,2.36a50.29,50.29,0,0,1,3.26,4.82l-.45.12a5.62,5.62,0,0,0-.89.27,17.9,17.9,0,0,0-3.66,2.61c-.62.53-1.26,1.08-1.92,1.56l-.66.47A21.75,21.75,0,0,0,19,122a12,12,0,0,1-1,.79,8.68,8.68,0,0,0-1.65,1.52l-.39.51.64-.11a2.64,2.64,0,0,1,.74,0,2.32,2.32,0,0,0,1,0,3,3,0,0,0,.91-.47,3.18,3.18,0,0,1,.69-.38,3,3,0,0,0,.86-.5,3,3,0,0,1,.64-.4,2.2,2.2,0,0,1,.78,0,2.42,2.42,0,0,0,1-.09c2-.77,4-1.64,6.2-2.67a2.86,2.86,0,0,0,.62-.39l.3-.21c.45.92.86,1.87,1.25,2.79.22.51.44,1,.67,1.53a9.41,9.41,0,0,0,1,1.54,9.51,9.51,0,0,1,.85,1.32,6.26,6.26,0,0,1-.69.08,3.43,3.43,0,0,0-1.18.24,29.7,29.7,0,0,0-5.59,4.14l-.55.46c-.26.22-.53.44-.77.68a2.86,2.86,0,0,0-.52.85,2.83,2.83,0,0,1-.4.68,2.68,2.68,0,0,1-.59.5A3,3,0,0,0,23,135a10.64,10.64,0,0,0-.67,1.23c-.11.24-.22.46-.32.64l-.3.55.6-.19c.55-.18,1.39-.5,1.93-.73a4.11,4.11,0,0,1,.75-.19,4.18,4.18,0,0,0,.92-.25,2.15,2.15,0,0,0,.76-.68,1.91,1.91,0,0,1,.52-.51,3.57,3.57,0,0,0,.79-.51,4.19,4.19,0,0,1,.59-.41,27.26,27.26,0,0,1,2.82-1.14,26.36,26.36,0,0,0,3.16-1.32,2.69,2.69,0,0,0,.53-.39l.18-.15c.47,1.32.8,2.67,1.13,4,.21.82.42,1.67.67,2.52a3.76,3.76,0,0,0-.8.86,3.26,3.26,0,0,1-.71.78,29.53,29.53,0,0,0-4.8,4.57,2,2,0,0,1-.6.44,2.4,2.4,0,0,0-.78.6,4.3,4.3,0,0,0-.47.83,7,7,0,0,1-.36.66,3.28,3.28,0,0,1-.49.58,3.72,3.72,0,0,0-.6.76,1.5,1.5,0,0,0-.17.79,1.66,1.66,0,0,1-.09.55l-.22.56.55-.24a4.67,4.67,0,0,0,.69-.39l.42-.27a1.72,1.72,0,0,1,.77,0,1.67,1.67,0,0,0,1.07-.11,2.66,2.66,0,0,0,.69-.69,2.24,2.24,0,0,1,.49-.52,4,4,0,0,0,.7-.58,4.53,4.53,0,0,1,.54-.47c.77-.51,1.59-1,2.38-1.42a29,29,0,0,0,3-1.89,1.28,1.28,0,0,0,.39-.52c0,.12,0,.24.07.36s.11.52.17.8c.54,2.28.91,4.48,1.31,6.82l0,.13c-.26.2-.47.38-.69.57l-.39.33A22.26,22.26,0,0,0,35,155.48a1.51,1.51,0,0,0-.16,1,1.46,1.46,0,0,1-.08.66,1.4,1.4,0,0,1-.52.38,1.61,1.61,0,0,0-.74.62,2.36,2.36,0,0,0-.17.87,2.6,2.6,0,0,1-.11.66c-.06.16-.13.32-.19.47a4.53,4.53,0,0,0-.33.94l-.12.51.47-.23a3.58,3.58,0,0,0,.75-.53,4.58,4.58,0,0,1,.45-.35,1.43,1.43,0,0,1,.65-.08,1.14,1.14,0,0,0,1.42-1,1.22,1.22,0,0,1,.26-.56l.49-.3a5.72,5.72,0,0,0,.69-.44l1.45-1c.8-.57,1.63-1.15,2.35-1.72a32.64,32.64,0,0,1,0,4.64c0,1.24-.11,2.53,0,3.76,0,.33,0,.62,0,.89,0,.52.05,1,.07,1.58a9.29,9.29,0,0,0-2.43,2.05,12.68,12.68,0,0,1-1.64,1.55,6.87,6.87,0,0,0-.62.57c-.15.15-.31.31-.48.45s-.47.06-.74,0a1.44,1.44,0,0,0-1.14.18,7.91,7.91,0,0,0-1.2,1.76c-.2.36-.4.72-.62,1l-.31.46.55-.07a2.46,2.46,0,0,0,1-.48,2.17,2.17,0,0,1,.62-.36,1.47,1.47,0,0,1,.67.13,1.56,1.56,0,0,0,1,.14A1.53,1.53,0,0,0,37,173a1.4,1.4,0,0,1,.47-.43,4.4,4.4,0,0,1,.65-.14,4.76,4.76,0,0,0,.79-.19,15.89,15.89,0,0,1,1.58-.41,14.64,14.64,0,0,0,1.61-.42v.33c0,1.72-.07,3.49-.2,5.21a24.72,24.72,0,0,0-2.6,1.75,11.71,11.71,0,0,0-1.21,1.12l-.53.52a2.64,2.64,0,0,1-.4.31,3,3,0,0,0-.56.46,3.09,3.09,0,0,1-.41.37,3.54,3.54,0,0,0-.67.67l-.24.35.43,0a2.41,2.41,0,0,0,.92-.21,2,2,0,0,1,.55-.16,1.38,1.38,0,0,1,.51.11,1.64,1.64,0,0,0,.76.14,3.29,3.29,0,0,0,1.3-.6,3.21,3.21,0,0,1,.91-.48,1.23,1.23,0,0,1,.44.1,3.45,3.45,0,0,0,.4.11,9.48,9.48,0,0,0,.05,1.19,6.5,6.5,0,0,1,0,1.46c-.16,1.1-.41,2.22-.65,3.3-.14.61-.28,1.22-.4,1.84a5.73,5.73,0,0,0-.1.67,4.62,4.62,0,0,1-.09.63c0,.2-.18.27-.43.39a1,1,0,0,0-.69.72,3.32,3.32,0,0,0,.13,1.49,3,3,0,0,1,.12,1.3,36.12,36.12,0,0,1-2.77,6.61c-.49,1-1,2-1.48,3.05-.28-.3-.5-.56-.72-.83s-.38-.46-.62-.73a9.85,9.85,0,0,0-1-.92,7.84,7.84,0,0,1-1-.94,11,11,0,0,1-1.44-2.44,13.64,13.64,0,0,0-1.27-2.23,4.7,4.7,0,0,0-1-.88,4.81,4.81,0,0,1-.8-.65,6,6,0,0,1,.52-.63,4.28,4.28,0,0,0,.77-1,1.09,1.09,0,0,0-.12-.9c-.06-.16-.17-.42-.14-.49a1,1,0,0,1,.36-.31,1.34,1.34,0,0,0,.56-.57,1.29,1.29,0,0,0-.07-.82,1.15,1.15,0,0,1-.09-.5,2.17,2.17,0,0,1,.37-.5A2,2,0,0,0,30,188l.08-.41-.4.13a4.56,4.56,0,0,0-1.47,1,6.41,6.41,0,0,1-.76.6,1.34,1.34,0,0,1-.5.1,1.39,1.39,0,0,0-.77.2,1.32,1.32,0,0,0-.38.74,1.1,1.1,0,0,1-.2.46,4.75,4.75,0,0,1-.58.39l-.54.34a7.33,7.33,0,0,1-.59-1.71,6.6,6.6,0,0,0-.74-2,3.7,3.7,0,0,0-.79-.79,4.66,4.66,0,0,1-.56-.52A12.37,12.37,0,0,0,23,185.13c.26-.31.53-.63.81-.94a6.7,6.7,0,0,1,.9-.74,5.7,5.7,0,0,0,1.22-1.08,1.94,1.94,0,0,0,.27-.81,1.63,1.63,0,0,1,.18-.6l.18-.28a6.34,6.34,0,0,0,.53-.89l.22-.45-.49.09a3,3,0,0,0-.79.31,3,3,0,0,1-.49.21c-.39.13-.94,0-1.43.17a5.54,5.54,0,0,0-1.35.86,6.72,6.72,0,0,1-.94.66l-.84.43c-.7.35-1.48.74-2.08,1.11-1.12-1.81-2.1-3.76-3.05-5.64-.63-1.24-1.28-2.53-1.95-3.74l.7-.68a26.48,26.48,0,0,0,2.31-2.42l.5-.59a23.73,23.73,0,0,0,1.49-1.91l.15-.23c.25-.37.5-.75.73-1.14a11.69,11.69,0,0,0,.57-1.26l.23-.58.24-.53-.55.2a5.21,5.21,0,0,1-.86.15,4.16,4.16,0,0,0-1.15.25,5.61,5.61,0,0,0-.8.5,6.66,6.66,0,0,1-.59.39,5.49,5.49,0,0,0-1.37,1.22,5.74,5.74,0,0,1-1,1l-1.09.71a21.26,21.26,0,0,0-1.78,1.2c-.54-1-1.1-2-1.66-3-1.11-2-2.26-4.05-3.25-6a24.93,24.93,0,0,0,2.73-2.71l.57-.62.61-.61a9.46,9.46,0,0,0,1.08-1.18,1.3,1.3,0,0,1,.54-.18,1.24,1.24,0,0,0,.9-.42,1.2,1.2,0,0,0,.08-.83,1,1,0,0,1,0-.52l.18-.4-.44.05a2.11,2.11,0,0,1-.5,0,2.28,2.28,0,0,0-.72.05,1.43,1.43,0,0,0-.68.5,1.32,1.32,0,0,1-.4.34,6.23,6.23,0,0,1-1.06.22,4.76,4.76,0,0,0-1.39.37,20.79,20.79,0,0,0-2.72,1.51c-.75-1.5-1.64-2.92-2.5-4.3a48.3,48.3,0,0,1-2.65-4.64l.5-.32c.54-.35,1.15-.74,1.58-1.09L3,145.8a13.39,13.39,0,0,0,1.41-1.22l.35-.33a5.89,5.89,0,0,0,.6-.62,1.15,1.15,0,0,0,.27-.61,1,1,0,0,1,.16-.41l.25-.4H5.56a.72.72,0,0,1-.4-.16,1.07,1.07,0,0,0-.72-.23,6.35,6.35,0,0,0-.78.19,5.44,5.44,0,0,1-.54.15,5.06,5.06,0,0,0-1.41.61,7.81,7.81,0,0,1-1,.47l-.44.15-.3.1V144l.46-.16.44-.15a6.37,6.37,0,0,0,1-.51,5.42,5.42,0,0,1,1.27-.56,4.12,4.12,0,0,0,.58-.15,4.57,4.57,0,0,1,.71-.17c.11,0,.21,0,.37.14a1.92,1.92,0,0,0,.32.18c0,.1,0,.19-.07.27a.74.74,0,0,1-.16.39,6,6,0,0,1-.56.57c-.13.12-.25.23-.36.35a12.64,12.64,0,0,1-1.37,1.17l-.57.46c-.41.33-1,.71-1.54,1l-.57.37v.77a49.55,49.55,0,0,0,2.58,4.5,51.09,51.09,0,0,1,2.6,4.52l.13.26.24-.17a19.16,19.16,0,0,1,2.89-1.63,4.1,4.1,0,0,1,1.25-.32,6.45,6.45,0,0,0,1.14-.25,1.63,1.63,0,0,0,.6-.47,1.16,1.16,0,0,1,.45-.36,1.75,1.75,0,0,1,.56,0h.25a3,3,0,0,0,0,.43.79.79,0,0,1,0,.49c-.06.09-.35.15-.56.19a1.35,1.35,0,0,0-.86.38,8.24,8.24,0,0,1-1,1.11l-.63.63-.57.63a23,23,0,0,1-2.82,2.77l-.17.13.09.18c1,2,2.2,4.16,3.35,6.23.61,1.09,1.22,2.19,1.8,3.27l.15.27.23-.2a22.54,22.54,0,0,1,2-1.35c.38-.24.76-.48,1.1-.72a6.12,6.12,0,0,0,1.11-1.05,5.15,5.15,0,0,1,1.23-1.12,7,7,0,0,0,.64-.41,4.89,4.89,0,0,1,.73-.46,3.52,3.52,0,0,1,1-.2l.47-.06-.06.14a12.61,12.61,0,0,1-.53,1.19c-.22.38-.47.75-.72,1.11l-.15.23A22.19,22.19,0,0,1,17,169.79l-.5.6a30.11,30.11,0,0,1-2.28,2.38l-.84.81-.13.14.09.16c.7,1.25,1.35,2.53,2,3.89,1,2,2,4,3.21,5.89l.13.22.22-.14a21.91,21.91,0,0,1,2.25-1.23c.3-.15.59-.29.84-.43a6,6,0,0,0,1-.71,5.08,5.08,0,0,1,1.22-.79c.37-.14.91,0,1.4-.15a4.26,4.26,0,0,0,.57-.25l.05,0-.16.24-.2.29a2.15,2.15,0,0,0-.24.78,1.37,1.37,0,0,1-.19.6,4.72,4.72,0,0,1-1.1,1,6.31,6.31,0,0,0-1,.81c-.3.32-.57.64-.83,1a11.33,11.33,0,0,1-1.37,1.48l-.16.14.12.18a3.3,3.3,0,0,0,.78.8,3.47,3.47,0,0,1,.69.69,6.06,6.06,0,0,1,.67,1.83,6.52,6.52,0,0,0,.82,2.09l.17.25.21-.21a4.1,4.1,0,0,1,.68-.47,4.56,4.56,0,0,0,.65-.43,1.4,1.4,0,0,0,.35-.71,1,1,0,0,1,.2-.47,1.14,1.14,0,0,1,.51-.11,1.37,1.37,0,0,0,.72-.17,6.14,6.14,0,0,0,.83-.64l.33-.28a1.46,1.46,0,0,0-.24.41,1.49,1.49,0,0,0,.08.81.52.52,0,0,1-.29.82,1.42,1.42,0,0,0-.54.52,1.15,1.15,0,0,0,.14.89,1.28,1.28,0,0,1,.14.49,3.91,3.91,0,0,1-.7.9,5.09,5.09,0,0,0-.67.86l-.08.14.09.13a4.18,4.18,0,0,0,1,.9,4,4,0,0,1,.9.78,12.57,12.57,0,0,1,1.22,2.14,11.29,11.29,0,0,0,1.51,2.54,8.08,8.08,0,0,0,1.1,1,8.77,8.77,0,0,1,1,.87c.24.26.42.49.6.7a13.49,13.49,0,0,0,1,1.13l.26.25.14-.33c.52-1.16,1.07-2.28,1.61-3.36a35.66,35.66,0,0,0,2.81-6.71,3.4,3.4,0,0,0-.12-1.54,3.15,3.15,0,0,1-.12-1.26c0-.19.17-.26.42-.38a1,1,0,0,0,.69-.73,4.92,4.92,0,0,0,.11-.7,4.44,4.44,0,0,1,.09-.61c.12-.61.26-1.22.39-1.83.25-1.09.5-2.22.67-3.33a7,7,0,0,0,0-1.58,7.07,7.07,0,0,1,0-1.37l0-.38-.37.11a1.22,1.22,0,0,1-.44-.09,1.29,1.29,0,0,0-.73-.11,3.61,3.61,0,0,0-1,.54,2.83,2.83,0,0,1-1.1.52,1.26,1.26,0,0,1-.53-.11,1.82,1.82,0,0,0-.7-.14,1.84,1.84,0,0,0-.58.15,5,5,0,0,0,.4-.37,2.34,2.34,0,0,1,.48-.39,3.17,3.17,0,0,0,.46-.36l.53-.53a10.5,10.5,0,0,1,1.16-1.07,24.42,24.42,0,0,1,2.66-1.78l.12-.07v-.13c.14-1.77.18-3.6.21-5.37l0-1.09-.36.15A9.89,9.89,0,0,1,40.38,171.35Z"/><path class="cls-3" d="M1.52,88.79a7.2,7.2,0,0,1,1.9-1.48,4.6,4.6,0,0,1,.68-.16A4.08,4.08,0,0,0,4.8,87l.41-.16-.35-.27A27.45,27.45,0,0,0,0,83.74v.56a28,28,0,0,1,4.13,2.34l-.12,0a3.93,3.93,0,0,0-.79.2,7.42,7.42,0,0,0-2.05,1.57,11.45,11.45,0,0,1-1.17,1v.66a3.22,3.22,0,0,1,.28-.24A13,13,0,0,0,1.52,88.79Z"/><path class="cls-3" d="M.85,128.57c0-.18,0-.29.13-.38l.31-.31-.43-.11c-.11,0-.18-.12-.3-.28A.92.92,0,0,0,0,127v.54l.16.19a1.28,1.28,0,0,0,.29.34,1.27,1.27,0,0,0-.09.39c0,.18,0,.27-.13.34L0,129v.63c.19-.14.37-.27.55-.42A.91.91,0,0,0,.85,128.57Z"/><path class="cls-3" d="M161.27,128.46a2.35,2.35,0,0,1,.6.25l.13.1v-.94a2.64,2.64,0,0,1-.5-.13,2.23,2.23,0,0,0-1-.16l-.42.11.3.31A2.39,2.39,0,0,0,161.27,128.46Z"/><path class="cls-3" d="M162,84.05v-.66l-1.41,1.26c-.94.85-1.91,1.73-2.91,2.49l-.35.27.41.16a.25.25,0,0,1,.15.13.77.77,0,0,0,.37.33,10.93,10.93,0,0,0,1.56.51,6.92,6.92,0,0,1,2.18.87v-.58a8.47,8.47,0,0,0-2.05-.77,11.3,11.3,0,0,1-1.49-.49.26.26,0,0,1-.15-.14l-.06-.09c.91-.73,1.81-1.54,2.67-2.32Z"/><path class="cls-3" d="M158,143.05a5.31,5.31,0,0,1,.71.08,8,8,0,0,0,1.19.12,4.44,4.44,0,0,1,1.34.17c.3.1.55.21.8.32v-.55l-.64-.24a4.64,4.64,0,0,0-1.48-.2,6.63,6.63,0,0,1-1.11-.11,5.18,5.18,0,0,0-.78-.09,4.8,4.8,0,0,1-.52-.05,2.52,2.52,0,0,1-.64-.26,2.42,2.42,0,0,0-1-.36h-.47l.25.39a3.87,3.87,0,0,0,.76.75,3.82,3.82,0,0,1,.49.45l.29.37a8.36,8.36,0,0,0,.55.66l.47.48a14.35,14.35,0,0,0,1.36,1.34c.23.18.41.35.57.5a7.88,7.88,0,0,0,.78.65c-.68,1.5-1.23,3.11-1.76,4.66a49.59,49.59,0,0,1-2,5.12,33.13,33.13,0,0,0-3.4-2.06,5.72,5.72,0,0,1-.87-.58,4.89,4.89,0,0,0-1.3-.78,1.43,1.43,0,0,0-.82,0,1.4,1.4,0,0,1-.56,0,4.66,4.66,0,0,1-.54-.2,3.59,3.59,0,0,0-.91-.3l-.44-.06.18.41a1.8,1.8,0,0,0,.74.67,1.66,1.66,0,0,1,.48.37,1.26,1.26,0,0,1,0,.59,1.22,1.22,0,0,0,0,1c.17.23.33.47.49.72a9.79,9.79,0,0,0,1,1.36,14.32,14.32,0,0,0,2.34,1.95l.81.59c-.53,1.05-1,2.1-1.53,3.14-.87,1.82-1.77,3.69-2.79,5.59l-.7-.63a13.72,13.72,0,0,0-1.56-1.29,5.54,5.54,0,0,0-1.66-.66,6.51,6.51,0,0,1-1.35-.49,5.88,5.88,0,0,0-.83-.35,5.12,5.12,0,0,1-.65-.25,1.06,1.06,0,0,1-.4-.36,1.38,1.38,0,0,0-.67-.53l-.54-.19.23.53a2.65,2.65,0,0,0,.44.69,2.79,2.79,0,0,1,.3.44l.08.12c.25.43.48.83.76,1.24l.45.69a20.53,20.53,0,0,0,1.34,1.91l.64.8c.66.82,1.33,1.67,2.09,2.45-1,1.76-2.11,3.39-3.28,5.11-.77,1.13-1.56,2.3-2.33,3.51-.22-.15-.41-.29-.59-.43a8.88,8.88,0,0,0-1.34-.89,5.45,5.45,0,0,0-1.52-.46,7.2,7.2,0,0,1-1.15-.31,1.92,1.92,0,0,1-.49-.33,2.24,2.24,0,0,0-.72-.45,4.1,4.1,0,0,0-.94-.14,5.63,5.63,0,0,1-.61-.08l-.49-.09.22.45a12,12,0,0,0,.73,1.36,1.68,1.68,0,0,0,.67.55,1.55,1.55,0,0,1,.48.36,6.49,6.49,0,0,1,.58,1,5.42,5.42,0,0,0,.82,1.34,13.94,13.94,0,0,0,1.71,1.45c.29.22.57.43.83.65a7.06,7.06,0,0,0-.37.94,5.25,5.25,0,0,1-.44,1,4.75,4.75,0,0,1-1.42,1.23,7.88,7.88,0,0,0-1.25,1,.66.66,0,0,0-.23-.34,1.23,1.23,0,0,0-.8-.22,1,1,0,0,1-.5-.1,1.45,1.45,0,0,1-.27-.42,1.47,1.47,0,0,0-.47-.66,3.87,3.87,0,0,0-1.44-.44,6.33,6.33,0,0,1-.92-.2l-.4-.14.08.42a.61.61,0,0,1-.11.41,1,1,0,0,0-.11.73,1.31,1.31,0,0,0,.6.63,1.12,1.12,0,0,1,.37.33,1.08,1.08,0,0,1,0,.5,1.29,1.29,0,0,0,0,.78c.12.29.46.39.79.49a1.44,1.44,0,0,1,.46.19,5.52,5.52,0,0,1,.32,1,5.22,5.22,0,0,0,.36,1,5.67,5.67,0,0,0-.49,1.06,4.08,4.08,0,0,1-.54,1.13,11,11,0,0,1-2,1.87,13.78,13.78,0,0,0-2,1.78,9.09,9.09,0,0,0-.76,1.11,7.35,7.35,0,0,1-.82,1.16c-.42.47-1,1.07-1.61,1.59l-.46.43a32.15,32.15,0,0,1-1.69-6.58c-.24-1.29-.48-2.63-.82-3.88a3.28,3.28,0,0,0-.8-1.28,2.81,2.81,0,0,1-.7-1.08c0-.2,0-.31.22-.52a1,1,0,0,0,.32-.95,4.11,4.11,0,0,0-.18-.65,4.14,4.14,0,0,1-.16-.61c-.21-1.06-.35-2.13-.48-3.17-.08-.66-.16-1.31-.26-2a6.69,6.69,0,0,0-.4-1.36c0-.12-.09-.23-.13-.35h0a3.41,3.41,0,0,0,1.42,0,3.77,3.77,0,0,1,1.09-.07,1.33,1.33,0,0,1,.46.21,1.76,1.76,0,0,0,.75.29,1.23,1.23,0,0,0,.71-.19,1.11,1.11,0,0,1,.45-.16l.43,0-.24-.36a2.06,2.06,0,0,1-.21-.42,1.87,1.87,0,0,0-.35-.6,4.73,4.73,0,0,1-.31-.43,3.24,3.24,0,0,0-.45-.6,13.45,13.45,0,0,0-1.34-1.05l-.6-.43a22.56,22.56,0,0,0-2.56-1.6l0-.5c-.13-1.65-.25-3.22-.3-4.85.35.18.68.38,1,.59a9.57,9.57,0,0,0,1.8.93,4.47,4.47,0,0,1,.59.28,4.66,4.66,0,0,0,.76.34,1.55,1.55,0,0,0,1-.09,1.54,1.54,0,0,1,.66-.1,1.32,1.32,0,0,1,.52.43,1.61,1.61,0,0,0,.81.59,1.55,1.55,0,0,0,.89-.12,1.4,1.4,0,0,1,.61-.13l.55.07-.31-.46a5,5,0,0,0-1.38-1.26,7,7,0,0,1-.91-.71,1.51,1.51,0,0,1-.1-.74,1.43,1.43,0,0,0-.28-1.11,8.58,8.58,0,0,0-.72-.51c-.19-.12-.38-.24-.56-.38a10.83,10.83,0,0,0-3.37-1.44,19.79,19.79,0,0,1-2.06-.72v-.8c0-.84,0-1.79.06-2.51a27,27,0,0,1,.79-4.73c.24-1,.48-2.08.64-3.16l1,.86c.66.58,1.28,1.12,2.07,1.7.15.11.29.24.44.37a5.3,5.3,0,0,0,.64.51,1.39,1.39,0,0,0,1,.16,1.18,1.18,0,0,1,.62,0,1.3,1.3,0,0,1,.32.53,1.55,1.55,0,0,0,.54.8,5.54,5.54,0,0,0,.86.39,5,5,0,0,1,.58.23l.47.23-.19-.89a9.45,9.45,0,0,0-.31-1.16,2.18,2.18,0,0,0-.52-.71,2.13,2.13,0,0,1-.41-.52,1.46,1.46,0,0,1-.05-.65,1.53,1.53,0,0,0-.12-.95,1.47,1.47,0,0,0-.82-.54,1.45,1.45,0,0,1-.57-.32,21.61,21.61,0,0,0-3.81-4.4c-.33-.27-.77-.57-1.15-.83l-.3-.21c.41-2.37,1-4.84,1.51-7,.08-.32.18-.67.28-1,0-.18.11-.36.16-.54l.41.13a1.63,1.63,0,0,1,.56.22c.74.54,1.44,1.16,2.12,1.76a27.81,27.81,0,0,0,2.79,2.23,4.49,4.49,0,0,0,.82.41,3.78,3.78,0,0,1,.64.3,2.55,2.55,0,0,0,.89.31,2.24,2.24,0,0,1,.69.21,1.56,1.56,0,0,1,.4.63,1.79,1.79,0,0,0,.64.89c.49.28,1.4.68,2,.93l.55.25-.22-.57a5.07,5.07,0,0,0-.71-1.1,6.43,6.43,0,0,1-.5-.73,4.43,4.43,0,0,1-.27-.7,3.64,3.64,0,0,0-.37-.9,4.82,4.82,0,0,0-.61-.73,6.47,6.47,0,0,1-.5-.56,2.68,2.68,0,0,1-.3-.7,2.51,2.51,0,0,0-.42-.89,30.13,30.13,0,0,0-5-4.53,6.58,6.58,0,0,0-1.62-.77,10.09,10.09,0,0,1-1.07-.46c.43-1.4,1-2.84,1.59-4.22.33-.8.67-1.61,1-2.41l.42.14a4.6,4.6,0,0,1,.57.21,28,28,0,0,1,2.54,1.62,23.82,23.82,0,0,0,2.94,1.84,4.12,4.12,0,0,0,.88.29,5.78,5.78,0,0,1,.7.22,2.06,2.06,0,0,0,1,.14,1.87,1.87,0,0,1,.74.08,3.6,3.6,0,0,1,.62.4,3.64,3.64,0,0,0,.82.51l.27.12a11.35,11.35,0,0,0,1.08.41l.59.19-.29-.54a3.09,3.09,0,0,0-.53-.7,4.91,4.91,0,0,1-.38-.45,3.24,3.24,0,0,1-.33-.7,3.14,3.14,0,0,0-.46-.89,2.81,2.81,0,0,0-.79-.59,3.16,3.16,0,0,1-.64-.45c-.17-.17-.32-.34-.47-.51s-.46-.5-.72-.73a28,28,0,0,0-5.71-3.71,1,1,0,0,1-.37-.46,1.56,1.56,0,0,0-.42-.56,8.37,8.37,0,0,0,.32-1.43,5.75,5.75,0,0,1,.39-1.61c.47-1,1-2.07,1.54-3.08l.64-1.22c.18.07.36.12.55.18s.47.15.67.24c2.2,1,4.22,1.92,6.17,2.67a2,2,0,0,1,.61.45,2.49,2.49,0,0,0,.83.58,2.75,2.75,0,0,0,1,.12,3.17,3.17,0,0,1,.78.08,3,3,0,0,0,1,.09,3.23,3.23,0,0,1,.78,0,3.77,3.77,0,0,1,.73.36,3.61,3.61,0,0,0,1.07.46l.63.11-.39-.51c-.23-.29-.44-.59-.66-.89a13.22,13.22,0,0,0-1.66-2l-.58-.53a24,24,0,0,0-2.12-1.8,16.85,16.85,0,0,0-4.06-1.94c-.78-.3-1.6-.6-2.34-1a.58.58,0,0,1-.25-.2,1,1,0,0,0-.2-.22c.47-.86.92-1.74,1.36-2.59a48.25,48.25,0,0,1,2.83-5,3.48,3.48,0,0,0,.73.13,1.83,1.83,0,0,1,.71.14c.65.33,1.27.73,1.88,1.12a13.34,13.34,0,0,0,3.15,1.66,9.71,9.71,0,0,0,1.75.36c.38.05.77.11,1.14.19a2.32,2.32,0,0,0,.87,0,2.43,2.43,0,0,1,.64-.05,3.56,3.56,0,0,1,.8.37,3.2,3.2,0,0,0,1.19.49h.53l-.32-.42a3.35,3.35,0,0,0-1.08-.69,3,3,0,0,1-.77-.43,1.54,1.54,0,0,1-.28-.59,1.85,1.85,0,0,0-.44-.8,26.72,26.72,0,0,0-2.21-1.71l-.64-.47a32.63,32.63,0,0,0-4.27-2.79,1.84,1.84,0,0,0-.61-.16l-.13,0,1-1.39c1.19-1.64,2.43-3.33,3.75-4.83a37.25,37.25,0,0,0,4.45,1.19l1.08.24c.41.1.81.23,1.21.36a10.55,10.55,0,0,0,1.84.48,1.56,1.56,0,0,1,.62.36,1.77,1.77,0,0,0,.92.49,1.47,1.47,0,0,0,.88-.28,1.18,1.18,0,0,1,.59-.23l.58,0-.42-.4a1.94,1.94,0,0,1-.34-.52,2,2,0,0,0-.52-.68c-.17-.13-.33-.27-.48-.41s-.51-.44-.79-.63a5.89,5.89,0,0,0-1.69-.73,7.18,7.18,0,0,1-1.3-.51c-1.56-.88-2.84-1.56-3.8-2,1.73-1.74,3.82-3.56,5.68-5.16a12.21,12.21,0,0,0,1.8.78l1,.4a8.44,8.44,0,0,1,1.41.89,6,6,0,0,0,2.23,1.17c.44.09.89.17,1.35.23v-.5c-.41-.06-.83-.13-1.25-.22a5.41,5.41,0,0,1-2-1.09,8.69,8.69,0,0,0-1.5-.93c-.32-.15-.68-.28-1.05-.42a9.34,9.34,0,0,1-1.86-.83l-.15-.1-.15.12c-2,1.71-4.27,3.69-6.1,5.56l-.25.26.33.15c1,.43,2.35,1.14,4.09,2.13a7.59,7.59,0,0,0,1.39.55,5.57,5.57,0,0,1,1.55.66,8.57,8.57,0,0,1,.75.6l.5.42a1.36,1.36,0,0,1,.38.53c.06.1.11.2.18.3a3.58,3.58,0,0,0-.39.21,1.12,1.12,0,0,1-.59.21,1.39,1.39,0,0,1-.65-.38,1.91,1.91,0,0,0-.87-.47,9.59,9.59,0,0,1-1.75-.46c-.4-.13-.82-.26-1.25-.36l-1.08-.25a34.11,34.11,0,0,1-4.55-1.23l-.16-.06-.12.13c-1.37,1.55-2.65,3.3-3.88,5l-1.24,1.68-.18.25.28.13a1.89,1.89,0,0,0,.58.14,1.65,1.65,0,0,1,.45.11,32.09,32.09,0,0,1,4.21,2.76l.64.46a26.61,26.61,0,0,1,2.16,1.68,1.47,1.47,0,0,1,.3.6,2.51,2.51,0,0,0,.26.58h0a3.68,3.68,0,0,0-.58.07,2,2,0,0,1-.68,0c-.39-.08-.78-.14-1.17-.19a11,11,0,0,1-1.67-.34,13.37,13.37,0,0,1-3-1.61,21.65,21.65,0,0,0-1.92-1.15,2.45,2.45,0,0,0-.9-.19,2,2,0,0,1-.74-.16l-.2-.11-.13.19a49.12,49.12,0,0,0-3,5.26c-.47.92-1,1.87-1.47,2.79l-.13.24.25.11a.58.58,0,0,1,.25.2,1,1,0,0,0,.42.35c.77.37,1.59.68,2.39,1a16.42,16.42,0,0,1,3.94,1.88,24.12,24.12,0,0,1,2.07,1.76l.58.53a12.9,12.9,0,0,1,1.6,2l.12.17-.12-.07a4.11,4.11,0,0,0-.85-.4,3.15,3.15,0,0,0-.92-.06,2.48,2.48,0,0,1-.83-.07,3.6,3.6,0,0,0-.92-.1,2.38,2.38,0,0,1-.82-.09,2.13,2.13,0,0,1-.66-.47,2.5,2.5,0,0,0-.77-.56c-1.94-.74-4-1.61-6.14-2.65a4.52,4.52,0,0,0-.73-.26,5.3,5.3,0,0,1-.71-.26l-.22-.11-.11.22c-.24.48-.49,1-.74,1.43-.54,1-1.08,2.06-1.55,3.1a6.64,6.64,0,0,0-.44,1.74,6.46,6.46,0,0,1-.35,1.52L128,127l.21.1a.88.88,0,0,1,.38.46,1.46,1.46,0,0,0,.58.67,27.85,27.85,0,0,1,5.62,3.64c.24.22.45.45.68.7l.48.52a3.46,3.46,0,0,0,.74.53,2.68,2.68,0,0,1,.67.48,2.92,2.92,0,0,1,.37.75,4,4,0,0,0,.39.8,3,3,0,0,0,.36.44l-.21-.09-.28-.12a3.08,3.08,0,0,1-.72-.45,4.32,4.32,0,0,0-.71-.46,2.21,2.21,0,0,0-1-.12,1.84,1.84,0,0,1-.77-.09,3.63,3.63,0,0,0-.79-.25,3.76,3.76,0,0,1-.78-.26,23.13,23.13,0,0,1-2.88-1.8,26.31,26.31,0,0,0-2.58-1.65,4.73,4.73,0,0,0-.66-.25,3.32,3.32,0,0,1-.59-.22l-.26-.14-.1.27c-.32.88-.69,1.77-1,2.64-.6,1.47-1.23,3-1.67,4.47l-.05.19.16.1a8.18,8.18,0,0,0,1.33.58,6.9,6.9,0,0,1,1.49.71,29.61,29.61,0,0,1,4.93,4.46,2,2,0,0,1,.32.72,2.92,2.92,0,0,0,.39.84,5.15,5.15,0,0,0,.53.61,4.12,4.12,0,0,1,.55.65,2.89,2.89,0,0,1,.31.78,5.17,5.17,0,0,0,.31.79,6.6,6.6,0,0,0,.54.79c.09.11.17.23.25.34-.43-.2-.89-.42-1.19-.59s-.3-.38-.42-.65a1.84,1.84,0,0,0-.6-.86,2.9,2.9,0,0,0-.85-.27,2.11,2.11,0,0,1-.72-.24,5.85,5.85,0,0,0-.72-.34,3.82,3.82,0,0,1-.73-.36,26.64,26.64,0,0,1-2.74-2.2c-.69-.6-1.4-1.23-2.15-1.79a2.31,2.31,0,0,0-.72-.29,1.63,1.63,0,0,1-.56-.22l-.3-.23-.1.37c-.06.27-.15.55-.23.84s-.2.69-.28,1c-.53,2.24-1.13,4.79-1.55,7.22l0,.16.12.09.44.3c.37.26.8.55,1.11.81a21.18,21.18,0,0,1,3.72,4.29,1.62,1.62,0,0,0,.8.5,1.36,1.36,0,0,1,.57.33,1.38,1.38,0,0,1,.06.67,1.6,1.6,0,0,0,.09.9,2.4,2.4,0,0,0,.5.64,2,2,0,0,1,.41.55,7.71,7.71,0,0,1,.27,1l-.17-.06a4.58,4.58,0,0,1-.77-.35,1.26,1.26,0,0,1-.35-.56,1.61,1.61,0,0,0-.5-.76,1.54,1.54,0,0,0-.93-.13c-.25,0-.51,0-.63-.07a4.35,4.35,0,0,1-.6-.48c-.16-.13-.31-.27-.47-.39-.78-.57-1.39-1.11-2-1.68-.43-.37-.86-.75-1.35-1.15l-.35-.28-.06.44a33.94,33.94,0,0,1-.69,3.56,27.6,27.6,0,0,0-.8,4.81c0,.73,0,1.69-.06,2.53v1.13l.14.06a16.17,16.17,0,0,0,2.28.82,10.2,10.2,0,0,1,3.21,1.36c.18.14.39.27.59.4a7,7,0,0,1,.66.47c.11.09.11.46.11.73a1.54,1.54,0,0,0,.25,1.09,6.89,6.89,0,0,0,1,.77,6.2,6.2,0,0,1,1,.79l-.33.11a1.17,1.17,0,0,1-.61.11,1.37,1.37,0,0,1-.55-.45,1.29,1.29,0,0,0-1.69-.47,1.33,1.33,0,0,1-.67.1,4.6,4.6,0,0,1-.69-.31,5,5,0,0,0-.66-.31,9.77,9.77,0,0,1-1.7-.88,10.71,10.71,0,0,0-1.45-.8l-.36-.15v.39c0,1.78.17,3.48.31,5.28l.06.77.12.06a22.27,22.27,0,0,1,2.62,1.64l.61.43a10.46,10.46,0,0,1,1.28,1,2.94,2.94,0,0,1,.38.51,4.41,4.41,0,0,0,.36.49,1.58,1.58,0,0,1,.25.46l.09.2-.28.13a.77.77,0,0,1-.45.14,1.27,1.27,0,0,1-.52-.22,1.89,1.89,0,0,0-.65-.28,4.71,4.71,0,0,0-1.24.08,3,3,0,0,1-1.21,0,.6.6,0,0,1-.13-.22.81.81,0,0,0-.44-.49l-.37-.11,0,.38a6.22,6.22,0,0,0,.41,1.45,6.5,6.5,0,0,1,.38,1.26c.1.65.18,1.3.26,1.95.13,1.05.26,2.13.48,3.21a4.51,4.51,0,0,0,.18.67,3.73,3.73,0,0,1,.16.59c0,.2,0,.32-.22.53a1.05,1.05,0,0,0-.31,1,3.13,3.13,0,0,0,.8,1.3,2.9,2.9,0,0,1,.7,1.07c.33,1.24.56,2.51.8,3.85a30.68,30.68,0,0,0,1.88,7l.14.33.26-.25.72-.68c.59-.55,1.19-1.13,1.63-1.61a7.31,7.31,0,0,0,.87-1.24,8,8,0,0,1,.72-1,13,13,0,0,1,1.9-1.72,11.86,11.86,0,0,0,2.11-2,5.06,5.06,0,0,0,.61-1.26,4.5,4.5,0,0,1,.51-1.08l.1-.13-.09-.14a4.22,4.22,0,0,1-.38-1.07,5.1,5.1,0,0,0-.36-1.06,1.13,1.13,0,0,0-.76-.45c-.15,0-.44-.13-.48-.21a1,1,0,0,1,0-.49,1.44,1.44,0,0,0,0-.77,1.32,1.32,0,0,0-.56-.56c-.17-.12-.37-.25-.4-.37s0-.2.09-.36a1.81,1.81,0,0,0,.13-.35,5.79,5.79,0,0,0,.68.13,3.44,3.44,0,0,1,1.25.38,1,1,0,0,1,.29.44,1.55,1.55,0,0,0,.42.61,1.38,1.38,0,0,0,.78.2,1,1,0,0,1,.5.1c.07.06.07.07.07.15a.68.68,0,0,0,.22.48l.21.21.17-.24a5.21,5.21,0,0,1,1.41-1.21,5.35,5.35,0,0,0,1.55-1.37,4.62,4.62,0,0,0,.5-1.16,4.81,4.81,0,0,1,.43-1l.12-.18-.16-.15c-.32-.27-.67-.53-1-.79a12.62,12.62,0,0,1-1.65-1.41,4.77,4.77,0,0,1-.74-1.2,6.18,6.18,0,0,0-.63-1.12,1.88,1.88,0,0,0-.63-.49,1.46,1.46,0,0,1-.5-.38c-.17-.27-.35-.6-.5-.9h.18a4.94,4.94,0,0,1,.84.13,1.85,1.85,0,0,1,.55.36,2.44,2.44,0,0,0,.63.41,7.71,7.71,0,0,0,1.23.33,5,5,0,0,1,1.39.42,7.77,7.77,0,0,1,1.27.84c.24.18.5.38.83.59l.21.15.14-.22c.8-1.29,1.64-2.52,2.45-3.72,1.22-1.78,2.37-3.47,3.4-5.31l.09-.17-.13-.13A28.34,28.34,0,0,1,146.3,171c-.21-.27-.42-.54-.64-.8a19.47,19.47,0,0,1-1.31-1.87c-.15-.23-.3-.46-.46-.69s-.47-.76-.71-1.16l.58.22a4.65,4.65,0,0,1,.76.31,6.7,6.7,0,0,0,1.46.53,5.06,5.06,0,0,1,1.51.59,12.58,12.58,0,0,1,1.5,1.25c.3.28.61.56,1,.85l.23.19.15-.27c1.08-2,2-4,2.94-5.88.53-1.1,1.06-2.21,1.62-3.33l.09-.18-.16-.13c-.34-.26-.67-.49-1-.72a13.47,13.47,0,0,1-2.27-1.88,10.75,10.75,0,0,1-.95-1.29c-.16-.26-.33-.51-.5-.75-.06-.08,0-.36,0-.56a1.29,1.29,0,0,0,0-1,.65.65,0,0,0-.13-.16l.07,0a1.76,1.76,0,0,0,.79,0,1.08,1.08,0,0,1,.55,0,4.64,4.64,0,0,1,1.17.71,6.43,6.43,0,0,0,.94.63,31.49,31.49,0,0,1,3.59,2.19l.23.16.13-.26a46.2,46.2,0,0,0,2.12-5.43,48.66,48.66,0,0,1,1.83-4.81l.09-.19-.18-.12a7,7,0,0,1-.89-.73c-.17-.16-.36-.33-.59-.52a13.32,13.32,0,0,1-1.32-1.29l-.47-.49a8,8,0,0,1-.51-.62l-.3-.38a3,3,0,0,0-.31-.3,1.74,1.74,0,0,0,.47.16Z"/><path class="cls-3" d="M152.15,120.45a2.55,2.55,0,0,1-.26.66,27.33,27.33,0,0,1-1.47,2.36,25.4,25.4,0,0,0-1.72,2.83,51.43,51.43,0,0,0-2.45,6.45c-.54,1.64-1.1,3.33-1.77,4.94s-1.35,3-2,4.5c-1,2.12-2.05,4.32-2.86,6.57-1.06,2.92-2,5.93-2.92,8.84-.27.88-.55,1.76-.82,2.64s-.59,2.08-.83,3.1-.44,1.83-.71,2.73c-.22.75-.32,1.11-.41,1.49s-.19.71-.39,1.41a5.45,5.45,0,0,1-.65,1.3,5.52,5.52,0,0,0-.71,1.44c-.64,2.22-1.16,4.5-1.66,6.71-.37,1.64-.76,3.34-1.19,5a18.54,18.54,0,0,1-.94,2.81,18.42,18.42,0,0,0-1,2.91,26.93,26.93,0,0,0-.52,3.09,25.38,25.38,0,0,1-.47,2.92l.48.14c.56-1.57,1.07-3.2,1.57-4.78s.92-2.94,1.42-4.38,1.12-3.06,1.7-4.54,1.14-3,1.66-4.45,1-2.93,1.4-4.37,1-3.2,1.55-4.77c.51-1.42,1-2.88,1.37-4.29.48-1.61,1-3.27,1.58-4.85a50,50,0,0,1,2.13-4.64c.66-1.32,1.35-2.69,1.91-4.09a5.73,5.73,0,0,0,.33-1.53,5.74,5.74,0,0,1,.31-1.44,11.94,11.94,0,0,0,.52-1.43,13.66,13.66,0,0,1,.5-1.38,14.3,14.3,0,0,1,.69-1.35,12.49,12.49,0,0,0,.68-1.31,5,5,0,0,1,.86-1.19,5.47,5.47,0,0,0,.92-1.28,9.73,9.73,0,0,0,.55-1.4,11.08,11.08,0,0,1,.54-1.38,7.7,7.7,0,0,0,.52-1.44,6.3,6.3,0,0,1,.49-1.38c.11-.23.28-.29.52-.37a1.15,1.15,0,0,0,.83-.63,1.66,1.66,0,0,0,.19-.85,1.17,1.17,0,0,1,.14-.63c.22-.46.48-.91.73-1.34s.48-.84.7-1.27c.51-1,1-2,1.5-3,1.26-2.51,2.56-5.1,4-7.56a14.59,14.59,0,0,1,.85-1.21,13.42,13.42,0,0,0,.87-1.22,1.23,1.23,0,0,0,.11-1,.74.74,0,0,1,.05-.63c.08-.13.38-.21.64-.28a1.88,1.88,0,0,0,.81-.36v-1.06a2.26,2.26,0,0,1-.31.66c-.07.13-.37.21-.63.28a1.44,1.44,0,0,0-.93.5,1.23,1.23,0,0,0-.12,1,.74.74,0,0,1,0,.63,10.74,10.74,0,0,1-.83,1.17,11.52,11.52,0,0,0-.89,1.27c-1.45,2.47-2.76,5.07-4,7.59l-1.49,3c-.22.42-.45.83-.69,1.24s-.52.9-.75,1.36a1.71,1.71,0,0,0-.19.86,1.22,1.22,0,0,1-.14.64c-.11.24-.29.29-.53.37a1.19,1.19,0,0,0-.82.63,6.73,6.73,0,0,0-.53,1.47,6.59,6.59,0,0,1-.48,1.35,12.18,12.18,0,0,0-.56,1.43,10.66,10.66,0,0,1-.53,1.35,5.48,5.48,0,0,1-.84,1.16,5.16,5.16,0,0,0-.95,1.32,12.66,12.66,0,0,1-.65,1.27,11.54,11.54,0,0,0-.72,1.4,15.08,15.08,0,0,0-.52,1.42,10.94,10.94,0,0,1-.5,1.39,5.58,5.58,0,0,0-.34,1.56,6.15,6.15,0,0,1-.3,1.42c-.56,1.37-1.24,2.73-1.9,4.05-.75,1.51-1.53,3.07-2.14,4.68s-1.11,3.27-1.6,4.88c-.42,1.41-.86,2.87-1.36,4.27-.57,1.58-1.07,3.22-1.55,4.8s-.9,2.91-1.4,4.34-1.1,3-1.66,4.44-1.17,3-1.7,4.55-1,2.95-1.43,4.4c-.19.62-.39,1.24-.59,1.87a26.27,26.27,0,0,1,.49-3,17.21,17.21,0,0,1,1-2.84,18.93,18.93,0,0,0,1-2.88c.43-1.66.82-3.37,1.19-5,.5-2.2,1-4.48,1.65-6.68a5.1,5.1,0,0,1,.66-1.32,6.39,6.39,0,0,0,.7-1.41c.21-.71.3-1.08.39-1.44s.19-.73.41-1.46c.27-.92.5-1.85.72-2.76s.49-2.07.81-3.07.56-1.76.83-2.64c.91-2.91,1.85-5.91,2.91-8.82.8-2.23,1.84-4.41,2.84-6.52.7-1.48,1.42-3,2.06-4.53s1.24-3.33,1.79-5a52.84,52.84,0,0,1,2.41-6.38,27,27,0,0,1,1.69-2.77c.52-.77,1-1.57,1.5-2.4a2.82,2.82,0,0,0,.3-.77,3,3,0,0,1,.26-.66.73.73,0,0,0,0-.61c0-.12,0-.16,0-.23a.85.85,0,0,1,.32,0c.27,0,.63,0,.8-.26a3.12,3.12,0,0,0,.44-1.61,2.89,2.89,0,0,1,.39-1.4,3.61,3.61,0,0,1,1.1-1,3.93,3.93,0,0,0,1.23-1.13c.2-.34.3-.5.41-.67l.38-.63a1.78,1.78,0,0,0,.19-.91,1.46,1.46,0,0,1,.12-.67,4.81,4.81,0,0,0,.64-1.46,4,4,0,0,1,.6-1.35,4.78,4.78,0,0,1,1-1.13,5.23,5.23,0,0,0,1-1.18L162,105v-.87c-.29.41-.58.82-.87,1.25a5.07,5.07,0,0,1-1,1.09,5.06,5.06,0,0,0-1.06,1.23,4.54,4.54,0,0,0-.67,1.48,4.08,4.08,0,0,1-.58,1.33,1.82,1.82,0,0,0-.19.92,1.46,1.46,0,0,1-.12.67c-.18.31-.28.47-.38.63l-.41.67a3.45,3.45,0,0,1-1.08,1,4,4,0,0,0-1.26,1.18,3.25,3.25,0,0,0-.45,1.61,2.8,2.8,0,0,1-.37,1.4,1.13,1.13,0,0,1-.32,0c-.27,0-.63-.06-.8.25a.76.76,0,0,0,0,.62c0,.12.05.16,0,.24A3,3,0,0,0,152.15,120.45Z"/></g></g></svg>