<svg xmlns="http://www.w3.org/2000/svg" xmlns:xlink="http://www.w3.org/1999/xlink" viewBox="0 0 269.46 161.01"><defs><style>.cls-1,.cls-5{fill:none;}.cls-2{fill:#fff;}.cls-3{clip-path:url(#clip-path);}.cls-4{opacity:0.1;}.cls-5{stroke:#27242d;stroke-miterlimit:10;stroke-width:0.28px;}</style><clipPath id="clip-path"><rect class="cls-1" width="269.46" height="161.01"/></clipPath></defs><g id="Layer_2" data-name="Layer 2"><g id="Layer_1-2" data-name="Layer 1"><rect class="cls-2" x="0.45" width="269.01" height="161.01"/><g class="cls-3"><g class="cls-4"><path class="cls-5" d="M270.11,170.74c-7.78-8.19,18.7-4.3,10.34-12.63,8.12,2.7,5.29,6.72-2.36,7.95S269.05,168,270.11,170.74Z"/><path class="cls-5" d="M262.79,167.31c-7.78-8.19,18.7-4.3,10.34-12.63,8.12,2.71,5.29,6.72-2.35,7.95S261.73,164.58,262.79,167.31Z"/><path class="cls-5" d="M255.48,163.88c-7.78-8.19,18.69-4.3,10.33-12.63,8.12,2.71,5.3,6.72-2.35,7.95S254.42,161.15,255.48,163.88Z"/><path class="cls-5" d="M265.82,151.25c-7.78-8.19,18.7-4.3,10.34-12.62,8.12,2.7,5.29,6.72-2.35,8S264.76,148.52,265.82,151.25Z"/><path class="cls-5" d="M237.81,173.07c-7.78-8.19,18.7-4.3,10.34-12.62,8.12,2.7,5.29,6.72-2.35,8S236.75,170.34,237.81,173.07Z"/><path class="cls-5" d="M248.16,160.45c-7.78-8.19,18.7-4.3,10.34-12.63,8.12,2.71,5.29,6.72-2.36,8S247.1,157.72,248.16,160.45Z"/><path class="cls-5" d="M258.51,147.82c-7.78-8.19,18.69-4.3,10.33-12.62,8.13,2.7,5.3,6.72-2.35,8S257.45,145.09,258.51,147.82Z"/><path class="cls-5" d="M268.85,135.2c-7.78-8.19,18.7-4.3,10.34-12.63,8.12,2.71,5.29,6.72-2.35,8S267.8,132.47,268.85,135.2Z"/><path class="cls-5" d="M230.5,169.64c-7.78-8.19,18.69-4.3,10.33-12.62,8.13,2.7,5.3,6.72-2.35,7.95S229.44,166.91,230.5,169.64Z"/><path class="cls-5" d="M240.84,157c-7.78-8.19,18.7-4.3,10.34-12.63,8.12,2.71,5.29,6.73-2.35,8S239.78,154.29,240.84,157Z"/><path class="cls-5" d="M251.19,144.39c-7.78-8.19,18.7-4.3,10.34-12.62,8.12,2.7,5.29,6.72-2.36,7.95S250.13,141.66,251.19,144.39Z"/><path class="cls-5" d="M261.54,131.77c-7.78-8.19,18.7-4.3,10.34-12.63,8.12,2.71,5.29,6.73-2.36,8S260.48,129,261.54,131.77Z"/><path class="cls-5" d="M223.18,166.21c-7.78-8.18,18.7-4.29,10.34-12.62,8.12,2.7,5.29,6.72-2.36,7.95S222.12,163.48,223.18,166.21Z"/><path class="cls-5" d="M233.53,153.59c-7.78-8.19,18.69-4.3,10.33-12.63,8.13,2.71,5.3,6.73-2.35,7.95S232.47,150.86,233.53,153.59Z"/><path class="cls-5" d="M243.87,141c-7.78-8.18,18.7-4.29,10.34-12.62,8.12,2.7,5.29,6.72-2.35,7.95S242.82,138.23,243.87,141Z"/><path class="cls-5" d="M254.22,128.34c-7.78-8.19,18.7-4.3,10.34-12.63,8.12,2.71,5.29,6.73-2.36,8S253.16,125.61,254.22,128.34Z"/><path class="cls-5" d="M264.57,115.71c-7.78-8.18,18.7-4.29,10.34-12.62,8.12,2.7,5.29,6.72-2.36,8S263.51,113,264.57,115.71Z"/><path class="cls-5" d="M215.86,162.79c-7.78-8.19,18.7-4.3,10.34-12.63,8.12,2.7,5.29,6.72-2.35,8S214.8,160.06,215.86,162.79Z"/><path class="cls-5" d="M226.21,150.16c-7.78-8.19,18.7-4.3,10.34-12.62,8.12,2.7,5.29,6.72-2.36,8S225.15,147.43,226.21,150.16Z"/><path class="cls-5" d="M236.56,137.54c-7.78-8.19,18.7-4.3,10.34-12.63,8.12,2.7,5.29,6.72-2.36,8S235.5,134.81,236.56,137.54Z"/><path class="cls-5" d="M246.9,124.91c-7.78-8.19,18.7-4.3,10.34-12.62,8.12,2.7,5.3,6.72-2.35,7.95S245.85,122.18,246.9,124.91Z"/><path class="cls-5" d="M257.25,112.29c-7.78-8.19,18.7-4.3,10.34-12.63,8.12,2.7,5.29,6.72-2.35,8S256.19,109.56,257.25,112.29Z"/><path class="cls-5" d="M267.6,99.66c-7.78-8.19,18.7-4.3,10.34-12.62,8.12,2.7,5.29,6.72-2.36,7.95S266.54,96.93,267.6,99.66Z"/><path class="cls-5" d="M198.2,172c-7.78-8.19,18.7-4.3,10.34-12.62,8.12,2.7,5.29,6.72-2.36,7.95S197.14,169.25,198.2,172Z"/><path class="cls-5" d="M208.55,159.36c-7.78-8.19,18.69-4.3,10.33-12.63,8.13,2.7,5.3,6.72-2.35,8S207.49,156.63,208.55,159.36Z"/><path class="cls-5" d="M218.89,146.73c-7.78-8.19,18.7-4.3,10.34-12.62,8.12,2.7,5.3,6.72-2.35,7.95S217.84,144,218.89,146.73Z"/><path class="cls-5" d="M229.24,134.11c-7.78-8.19,18.7-4.3,10.34-12.63,8.12,2.7,5.29,6.72-2.36,8S228.18,131.38,229.24,134.11Z"/><path class="cls-5" d="M239.59,121.48c-7.78-8.19,18.7-4.3,10.34-12.62,8.12,2.7,5.29,6.72-2.36,8S238.53,118.75,239.59,121.48Z"/><path class="cls-5" d="M249.93,108.86c-7.78-8.19,18.7-4.3,10.34-12.63,8.12,2.7,5.3,6.72-2.35,8S248.88,106.13,249.93,108.86Z"/><path class="cls-5" d="M260.28,96.23C252.5,88,279,91.93,270.62,83.61c8.12,2.7,5.29,6.72-2.35,8S259.22,93.5,260.28,96.23Z"/><path class="cls-5" d="M270.63,83.61c-7.78-8.19,18.7-4.3,10.34-12.63,8.12,2.7,5.29,6.72-2.36,8S269.57,80.88,270.63,83.61Z"/><path class="cls-5" d="M190.88,168.55c-7.78-8.19,18.7-4.3,10.34-12.62,8.12,2.7,5.29,6.72-2.35,7.95S189.82,165.82,190.88,168.55Z"/><path class="cls-5" d="M201.23,155.93c-7.78-8.19,18.7-4.3,10.34-12.63,8.12,2.71,5.29,6.72-2.36,7.95S200.17,153.2,201.23,155.93Z"/><path class="cls-5" d="M211.58,143.3c-7.78-8.19,18.7-4.3,10.34-12.62,8.12,2.7,5.29,6.72-2.36,7.95S210.52,140.57,211.58,143.3Z"/><path class="cls-5" d="M221.92,130.68c-7.78-8.19,18.7-4.3,10.34-12.63,8.12,2.71,5.3,6.72-2.35,8S220.87,128,221.92,130.68Z"/><path class="cls-5" d="M232.27,118.05c-7.78-8.19,18.7-4.3,10.34-12.62,8.12,2.7,5.29,6.72-2.35,7.95S231.21,115.32,232.27,118.05Z"/><path class="cls-5" d="M242.62,105.43c-7.78-8.19,18.7-4.3,10.34-12.63,8.12,2.71,5.29,6.72-2.36,8S241.56,102.7,242.62,105.43Z"/><path class="cls-5" d="M253,92.8c-7.78-8.19,18.69-4.3,10.33-12.62,8.13,2.7,5.3,6.72-2.35,7.95S251.91,90.07,253,92.8Z"/><path class="cls-5" d="M263.31,80.18c-7.78-8.19,18.7-4.3,10.34-12.63,8.12,2.71,5.29,6.72-2.35,8S262.25,77.45,263.31,80.18Z"/><path class="cls-5" d="M183.57,165.12c-7.78-8.19,18.69-4.3,10.34-12.62,8.12,2.7,5.29,6.72-2.36,7.95S182.51,162.39,183.57,165.12Z"/><path class="cls-5" d="M193.91,152.5c-7.78-8.19,18.7-4.3,10.34-12.63,8.12,2.71,5.3,6.72-2.35,7.95S192.86,149.77,193.91,152.5Z"/><path class="cls-5" d="M204.26,139.87c-7.78-8.19,18.7-4.3,10.34-12.62,8.12,2.7,5.29,6.72-2.36,7.95S203.2,137.14,204.26,139.87Z"/><path class="cls-5" d="M214.61,127.25c-7.78-8.19,18.7-4.3,10.34-12.63,8.12,2.71,5.29,6.72-2.36,7.95S213.55,124.52,214.61,127.25Z"/><path class="cls-5" d="M225,114.62c-7.77-8.19,18.7-4.3,10.34-12.62,8.12,2.7,5.3,6.72-2.35,8S223.9,111.89,225,114.62Z"/><path class="cls-5" d="M235.3,102c-7.78-8.19,18.7-4.3,10.34-12.63,8.12,2.71,5.29,6.72-2.35,7.95S234.24,99.27,235.3,102Z"/><path class="cls-5" d="M245.65,89.37c-7.78-8.19,18.7-4.3,10.34-12.62,8.12,2.7,5.29,6.72-2.36,8S244.59,86.64,245.65,89.37Z"/><path class="cls-5" d="M256,76.75c-7.78-8.19,18.69-4.3,10.34-12.63,8.12,2.71,5.29,6.72-2.36,7.95S254.94,74,256,76.75Z"/><path class="cls-5" d="M266.34,64.12c-7.78-8.19,18.7-4.3,10.34-12.62,8.12,2.7,5.3,6.72-2.35,8S265.29,61.39,266.34,64.12Z"/><path class="cls-5" d="M176.25,161.69c-7.78-8.19,18.7-4.3,10.34-12.62,8.12,2.7,5.29,6.72-2.36,8S175.19,159,176.25,161.69Z"/><path class="cls-5" d="M186.6,149.07c-7.78-8.19,18.7-4.3,10.34-12.63,8.12,2.71,5.29,6.72-2.36,7.95S185.54,146.34,186.6,149.07Z"/><path class="cls-5" d="M196.94,136.44c-7.78-8.19,18.7-4.3,10.34-12.62,8.12,2.7,5.3,6.72-2.35,8S195.89,133.71,196.94,136.44Z"/><path class="cls-5" d="M207.29,123.82c-7.78-8.19,18.7-4.3,10.34-12.63,8.12,2.71,5.29,6.72-2.35,8S206.23,121.09,207.29,123.82Z"/><path class="cls-5" d="M217.64,111.19c-7.78-8.19,18.7-4.3,10.34-12.62,8.12,2.7,5.29,6.72-2.36,8S216.58,108.46,217.64,111.19Z"/><path class="cls-5" d="M228,98.57c-7.78-8.19,18.69-4.3,10.33-12.63,8.13,2.71,5.3,6.72-2.35,8S226.93,95.84,228,98.57Z"/><path class="cls-5" d="M238.33,85.94c-7.78-8.19,18.7-4.3,10.34-12.62,8.12,2.7,5.29,6.72-2.35,8S237.27,83.21,238.33,85.94Z"/><path class="cls-5" d="M248.68,73.32C240.9,65.13,267.38,69,259,60.69c8.12,2.71,5.29,6.72-2.36,8S247.62,70.59,248.68,73.32Z"/><path class="cls-5" d="M259,60.69c-7.78-8.19,18.7-4.3,10.34-12.62,8.12,2.7,5.29,6.72-2.36,8S258,58,259,60.69Z"/><path class="cls-5" d="M269.37,48.07c-7.78-8.19,18.7-4.3,10.34-12.63,8.12,2.71,5.3,6.72-2.35,8S268.32,45.34,269.37,48.07Z"/><path class="cls-5" d="M158.59,170.89c-7.78-8.19,18.69-4.3,10.34-12.63,8.12,2.71,5.29,6.73-2.36,8S157.53,168.16,158.59,170.89Z"/><path class="cls-5" d="M168.93,158.26c-7.78-8.19,18.7-4.3,10.34-12.62,8.12,2.7,5.3,6.72-2.35,8S167.88,155.53,168.93,158.26Z"/><path class="cls-5" d="M179.28,145.64c-7.78-8.19,18.7-4.3,10.34-12.63,8.12,2.71,5.29,6.73-2.35,8S178.22,142.91,179.28,145.64Z"/><path class="cls-5" d="M189.63,133c-7.78-8.19,18.7-4.3,10.34-12.62,8.12,2.7,5.29,6.72-2.36,8S188.57,130.28,189.63,133Z"/><path class="cls-5" d="M200,120.39c-7.77-8.19,18.7-4.3,10.34-12.63,8.12,2.71,5.3,6.73-2.35,7.95S198.92,117.66,200,120.39Z"/><path class="cls-5" d="M210.32,107.76c-7.78-8.19,18.7-4.3,10.34-12.62,8.12,2.7,5.29,6.72-2.35,8S209.26,105,210.32,107.76Z"/><path class="cls-5" d="M220.67,95.14c-7.78-8.19,18.7-4.3,10.34-12.63,8.12,2.71,5.29,6.73-2.36,7.95S219.61,92.41,220.67,95.14Z"/><path class="cls-5" d="M231,82.51c-7.78-8.19,18.69-4.3,10.34-12.62,8.12,2.7,5.29,6.72-2.36,8S230,79.78,231,82.51Z"/><path class="cls-5" d="M241.36,69.89c-7.78-8.19,18.7-4.3,10.34-12.63,8.12,2.71,5.3,6.73-2.35,7.95S240.31,67.16,241.36,69.89Z"/><path class="cls-5" d="M251.71,57.26c-7.78-8.19,18.7-4.3,10.34-12.62,8.12,2.7,5.29,6.72-2.35,8S250.65,54.53,251.71,57.26Z"/><path class="cls-5" d="M262.06,44.64c-7.78-8.19,18.7-4.3,10.34-12.63,8.12,2.71,5.29,6.73-2.36,8S261,41.91,262.06,44.64Z"/><path class="cls-5" d="M151.27,167.46c-7.78-8.19,18.7-4.3,10.34-12.63,8.12,2.71,5.29,6.73-2.36,7.95S150.21,164.73,151.27,167.46Z"/><path class="cls-5" d="M161.62,154.83c-7.78-8.19,18.7-4.3,10.34-12.62,8.12,2.7,5.29,6.72-2.36,7.95S160.56,152.1,161.62,154.83Z"/><path class="cls-5" d="M172,142.21c-7.78-8.19,18.7-4.3,10.34-12.63,8.12,2.71,5.3,6.73-2.35,7.95S170.91,139.48,172,142.21Z"/><path class="cls-5" d="M182.31,129.58c-7.78-8.19,18.7-4.3,10.34-12.62,8.12,2.7,5.29,6.72-2.35,8S181.25,126.85,182.31,129.58Z"/><path class="cls-5" d="M192.66,117c-7.78-8.19,18.7-4.3,10.34-12.63,8.12,2.71,5.29,6.73-2.36,8S191.6,114.23,192.66,117Z"/><path class="cls-5" d="M203,104.33c-7.78-8.19,18.69-4.3,10.33-12.62,8.13,2.7,5.3,6.72-2.35,8S202,101.6,203,104.33Z"/><path class="cls-5" d="M213.35,91.71c-7.78-8.19,18.7-4.3,10.34-12.63,8.12,2.71,5.29,6.73-2.35,8S212.29,89,213.35,91.71Z"/><path class="cls-5" d="M223.7,79.08c-7.78-8.19,18.7-4.3,10.34-12.62,8.12,2.7,5.29,6.72-2.36,8S222.64,76.35,223.7,79.08Z"/><path class="cls-5" d="M234.05,66.46c-7.78-8.19,18.7-4.3,10.34-12.63,8.12,2.71,5.29,6.73-2.36,8S233,63.73,234.05,66.46Z"/><path class="cls-5" d="M244.39,53.83c-7.78-8.19,18.7-4.3,10.34-12.62,8.12,2.7,5.3,6.72-2.35,7.95S243.34,51.1,244.39,53.83Z"/><path class="cls-5" d="M254.74,41.21c-7.78-8.19,18.7-4.3,10.34-12.63,8.12,2.71,5.29,6.73-2.35,8S253.68,38.48,254.74,41.21Z"/><path class="cls-5" d="M265.09,28.58c-7.78-8.19,18.7-4.3,10.34-12.62,8.12,2.7,5.29,6.72-2.36,8S264,25.85,265.09,28.58Z"/><path class="cls-5" d="M144,164c-7.78-8.19,18.7-4.3,10.34-12.63,8.12,2.71,5.3,6.73-2.35,8S142.9,161.3,144,164Z"/><path class="cls-5" d="M154.3,151.4c-7.78-8.18,18.7-4.29,10.34-12.62,8.12,2.7,5.29,6.72-2.35,7.95S153.24,148.68,154.3,151.4Z"/><path class="cls-5" d="M164.65,138.78c-7.78-8.19,18.7-4.3,10.34-12.63,8.12,2.71,5.29,6.73-2.36,8S163.59,136.05,164.65,138.78Z"/><path class="cls-5" d="M175,126.15c-7.77-8.18,18.7-4.29,10.34-12.62,8.12,2.7,5.3,6.72-2.35,8S173.94,123.43,175,126.15Z"/><path class="cls-5" d="M185.34,113.53c-7.78-8.19,18.7-4.3,10.34-12.63,8.12,2.71,5.29,6.73-2.35,8S184.28,110.8,185.34,113.53Z"/><path class="cls-5" d="M195.69,100.9c-7.78-8.18,18.7-4.29,10.34-12.62,8.12,2.7,5.29,6.72-2.36,8S194.63,98.18,195.69,100.9Z"/><path class="cls-5" d="M206,88.28c-7.78-8.19,18.69-4.3,10.34-12.63,8.12,2.71,5.29,6.73-2.36,8S205,85.55,206,88.28Z"/><path class="cls-5" d="M216.38,75.65c-7.78-8.18,18.7-4.29,10.34-12.62,8.12,2.7,5.3,6.72-2.35,8S215.33,72.93,216.38,75.65Z"/><path class="cls-5" d="M226.73,63c-7.78-8.19,18.7-4.3,10.34-12.63,8.12,2.71,5.29,6.73-2.35,8S225.67,60.3,226.73,63Z"/><path class="cls-5" d="M237.08,50.4c-7.78-8.18,18.7-4.29,10.34-12.62,8.12,2.7,5.29,6.72-2.36,7.95S236,47.68,237.08,50.4Z"/><path class="cls-5" d="M247.42,37.78c-7.77-8.19,18.7-4.3,10.34-12.63,8.12,2.71,5.3,6.73-2.35,8S246.37,35.05,247.42,37.78Z"/><path class="cls-5" d="M257.77,25.15C250,17,276.47,20.86,268.11,12.53c8.12,2.7,5.29,6.72-2.35,8S256.71,22.43,257.77,25.15Z"/><path class="cls-5" d="M268.12,12.53c-7.78-8.19,18.7-4.3,10.34-12.63,8.12,2.71,5.29,6.73-2.36,8S267.06,9.8,268.12,12.53Z"/><path class="cls-5" d="M126.29,173.23c-7.78-8.19,18.7-4.3,10.34-12.63,8.12,2.7,5.29,6.72-2.36,8S125.23,170.5,126.29,173.23Z"/><path class="cls-5" d="M136.64,160.6c-7.78-8.19,18.7-4.3,10.34-12.62,8.12,2.7,5.29,6.72-2.36,8S135.58,157.87,136.64,160.6Z"/><path class="cls-5" d="M147,148c-7.78-8.19,18.7-4.3,10.34-12.63,8.12,2.7,5.3,6.72-2.35,8S145.93,145.25,147,148Z"/><path class="cls-5" d="M157.33,135.35c-7.78-8.19,18.7-4.3,10.34-12.62,8.12,2.7,5.29,6.72-2.35,8S156.27,132.62,157.33,135.35Z"/><path class="cls-5" d="M167.68,122.73c-7.78-8.19,18.7-4.3,10.34-12.63,8.12,2.7,5.29,6.72-2.36,8S166.62,120,167.68,122.73Z"/><path class="cls-5" d="M178,110.1c-7.78-8.19,18.69-4.3,10.33-12.62,8.13,2.7,5.3,6.72-2.35,8S177,107.37,178,110.1Z"/><path class="cls-5" d="M188.37,97.48c-7.78-8.19,18.7-4.3,10.34-12.63,8.12,2.7,5.29,6.72-2.35,8S187.32,94.75,188.37,97.48Z"/><path class="cls-5" d="M198.72,84.85c-7.78-8.19,18.7-4.3,10.34-12.62,8.12,2.7,5.29,6.72-2.36,8S197.66,82.12,198.72,84.85Z"/><path class="cls-5" d="M209.07,72.23c-7.78-8.19,18.7-4.3,10.34-12.63,8.12,2.7,5.29,6.72-2.36,7.95S208,69.5,209.07,72.23Z"/><path class="cls-5" d="M219.41,59.6c-7.78-8.19,18.7-4.3,10.34-12.62,8.12,2.7,5.3,6.72-2.35,8S218.36,56.87,219.41,59.6Z"/><path class="cls-5" d="M229.76,47c-7.78-8.19,18.7-4.3,10.34-12.63,8.12,2.7,5.29,6.72-2.35,7.95S228.7,44.25,229.76,47Z"/><path class="cls-5" d="M240.11,34.35c-7.78-8.19,18.7-4.3,10.34-12.62,8.12,2.7,5.29,6.72-2.36,8S239.05,31.62,240.11,34.35Z"/><path class="cls-5" d="M250.46,21.73c-7.78-8.19,18.69-4.3,10.33-12.63,8.13,2.7,5.3,6.72-2.35,8S249.4,19,250.46,21.73Z"/><path class="cls-5" d="M260.8,9.1C253,.91,279.5,4.8,271.14-3.52c8.12,2.7,5.29,6.72-2.35,8S259.75,6.37,260.8,9.1Z"/><path class="cls-5" d="M119,169.8c-7.78-8.19,18.7-4.3,10.34-12.63,8.12,2.71,5.3,6.72-2.35,8S117.92,167.07,119,169.8Z"/><path class="cls-5" d="M129.32,157.17c-7.78-8.19,18.7-4.3,10.34-12.62,8.12,2.7,5.29,6.72-2.35,7.95S128.26,154.44,129.32,157.17Z"/><path class="cls-5" d="M139.67,144.55c-7.78-8.19,18.7-4.3,10.34-12.63,8.12,2.71,5.29,6.72-2.36,8S138.61,141.82,139.67,144.55Z"/><path class="cls-5" d="M150,131.92c-7.78-8.19,18.69-4.3,10.33-12.62,8.12,2.7,5.3,6.72-2.35,8S149,129.19,150,131.92Z"/><path class="cls-5" d="M160.36,119.3c-7.78-8.19,18.7-4.3,10.34-12.63,8.12,2.71,5.29,6.72-2.35,8S159.3,116.57,160.36,119.3Z"/><path class="cls-5" d="M170.71,106.67c-7.78-8.19,18.7-4.3,10.34-12.62,8.12,2.7,5.29,6.72-2.36,8S169.65,103.94,170.71,106.67Z"/><path class="cls-5" d="M181.06,94.05c-7.78-8.19,18.7-4.3,10.34-12.63,8.12,2.71,5.29,6.72-2.36,8S180,91.32,181.06,94.05Z"/><path class="cls-5" d="M191.4,81.42c-7.78-8.19,18.7-4.3,10.34-12.62,8.12,2.7,5.3,6.72-2.35,8S190.35,78.69,191.4,81.42Z"/><path class="cls-5" d="M201.75,68.8c-7.78-8.19,18.7-4.3,10.34-12.63,8.12,2.71,5.29,6.72-2.35,8S200.69,66.07,201.75,68.8Z"/><path class="cls-5" d="M212.1,56.17c-7.78-8.19,18.7-4.3,10.34-12.62,8.12,2.7,5.29,6.72-2.36,8S211,53.44,212.1,56.17Z"/><path class="cls-5" d="M222.45,43.55c-7.78-8.19,18.69-4.3,10.33-12.63,8.12,2.71,5.3,6.72-2.35,7.95S221.39,40.82,222.45,43.55Z"/><path class="cls-5" d="M232.79,30.92c-7.78-8.19,18.7-4.3,10.34-12.62,8.12,2.7,5.29,6.72-2.35,8S231.73,28.19,232.79,30.92Z"/><path class="cls-5" d="M243.14,18.3c-7.78-8.19,18.7-4.3,10.34-12.63,8.12,2.71,5.29,6.72-2.36,8S242.08,15.57,243.14,18.3Z"/><path class="cls-5" d="M253.49,5.67c-7.78-8.19,18.7-4.3,10.34-12.62,8.12,2.7,5.29,6.72-2.36,8S252.43,2.94,253.49,5.67Z"/><path class="cls-5" d="M111.66,166.37c-7.78-8.19,18.7-4.3,10.34-12.63,8.12,2.71,5.29,6.72-2.36,7.95S110.6,163.64,111.66,166.37Z"/><path class="cls-5" d="M122,153.74c-7.78-8.19,18.7-4.3,10.34-12.62,8.12,2.7,5.3,6.72-2.35,7.95S121,151,122,153.74Z"/><path class="cls-5" d="M132.35,141.12c-7.78-8.19,18.7-4.3,10.34-12.63,8.12,2.71,5.29,6.72-2.35,7.95S131.29,138.39,132.35,141.12Z"/><path class="cls-5" d="M142.7,128.49c-7.78-8.19,18.7-4.3,10.34-12.62,8.12,2.7,5.29,6.72-2.36,7.95S141.64,125.76,142.7,128.49Z"/><path class="cls-5" d="M153.05,115.87c-7.78-8.19,18.69-4.3,10.33-12.63,8.13,2.71,5.3,6.72-2.35,8S152,113.14,153.05,115.87Z"/><path class="cls-5" d="M163.39,103.24c-7.78-8.19,18.7-4.3,10.34-12.62,8.12,2.7,5.29,6.72-2.35,7.95S162.34,100.51,163.39,103.24Z"/><path class="cls-5" d="M173.74,90.62c-7.78-8.19,18.7-4.3,10.34-12.63,8.12,2.71,5.29,6.72-2.36,8S172.68,87.89,173.74,90.62Z"/><path class="cls-5" d="M184.09,78c-7.78-8.19,18.7-4.3,10.34-12.62,8.12,2.7,5.29,6.72-2.36,7.95S183,75.26,184.09,78Z"/><path class="cls-5" d="M194.43,65.37c-7.78-8.19,18.7-4.3,10.34-12.63,8.12,2.71,5.3,6.72-2.35,7.95S193.38,62.64,194.43,65.37Z"/><path class="cls-5" d="M204.78,52.74c-7.78-8.19,18.7-4.3,10.34-12.62,8.12,2.7,5.29,6.72-2.35,8S203.72,50,204.78,52.74Z"/><path class="cls-5" d="M215.13,40.12c-7.78-8.19,18.7-4.3,10.34-12.63,8.12,2.71,5.29,6.72-2.36,8S214.07,37.39,215.13,40.12Z"/><path class="cls-5" d="M225.48,27.49c-7.78-8.19,18.69-4.3,10.33-12.62,8.13,2.7,5.3,6.72-2.35,8S224.42,24.76,225.48,27.49Z"/><path class="cls-5" d="M235.82,14.87c-7.78-8.19,18.7-4.3,10.34-12.63,8.12,2.71,5.29,6.72-2.35,8S234.77,12.14,235.82,14.87Z"/><path class="cls-5" d="M246.17,2.24c-7.78-8.19,18.7-4.3,10.34-12.62,8.12,2.7,5.29,6.72-2.36,8S245.11-.49,246.17,2.24Z"/><path class="cls-5" d="M104.34,162.94c-7.78-8.19,18.7-4.3,10.34-12.63,8.12,2.71,5.29,6.72-2.35,7.95S103.28,160.21,104.34,162.94Z"/><path class="cls-5" d="M114.69,150.31c-7.78-8.19,18.7-4.3,10.34-12.62,8.12,2.7,5.29,6.72-2.36,7.95S113.63,147.58,114.69,150.31Z"/><path class="cls-5" d="M125,137.69c-7.78-8.19,18.69-4.3,10.33-12.63,8.12,2.71,5.3,6.72-2.35,7.95S124,135,125,137.69Z"/><path class="cls-5" d="M135.38,125.06c-7.78-8.19,18.7-4.3,10.34-12.62,8.12,2.7,5.29,6.72-2.35,8S134.32,122.33,135.38,125.06Z"/><path class="cls-5" d="M145.73,112.44c-7.78-8.19,18.7-4.3,10.34-12.63,8.12,2.71,5.29,6.72-2.36,8S144.67,109.71,145.73,112.44Z"/><path class="cls-5" d="M156.08,99.81c-7.78-8.19,18.7-4.3,10.34-12.62,8.12,2.7,5.29,6.72-2.36,8S155,97.08,156.08,99.81Z"/><path class="cls-5" d="M166.42,87.19c-7.78-8.19,18.7-4.3,10.34-12.63,8.12,2.71,5.3,6.72-2.35,8S165.37,84.46,166.42,87.19Z"/><path class="cls-5" d="M176.77,74.56c-7.78-8.19,18.7-4.3,10.34-12.62,8.12,2.7,5.29,6.72-2.35,8S175.71,71.83,176.77,74.56Z"/><path class="cls-5" d="M187.12,61.94c-7.78-8.19,18.7-4.3,10.34-12.63,8.12,2.71,5.29,6.72-2.36,7.95S186.06,59.21,187.12,61.94Z"/><path class="cls-5" d="M197.47,49.31c-7.78-8.19,18.69-4.3,10.33-12.62,8.12,2.7,5.3,6.72-2.35,8S196.41,46.58,197.47,49.31Z"/><path class="cls-5" d="M207.81,36.69c-7.78-8.19,18.7-4.3,10.34-12.63,8.12,2.71,5.29,6.72-2.35,8S206.75,34,207.81,36.69Z"/><path class="cls-5" d="M218.16,24.06c-7.78-8.19,18.7-4.3,10.34-12.62,8.12,2.7,5.29,6.72-2.36,8S217.1,21.33,218.16,24.06Z"/><path class="cls-5" d="M228.51,11.44c-7.78-8.19,18.7-4.3,10.34-12.63,8.12,2.71,5.29,6.72-2.36,8S227.45,8.71,228.51,11.44Z"/><path class="cls-5" d="M86.68,172.13c-7.78-8.19,18.7-4.3,10.34-12.62,8.12,2.7,5.29,6.72-2.36,8S85.62,169.4,86.68,172.13Z"/><path class="cls-5" d="M97,159.51c-7.78-8.19,18.7-4.3,10.34-12.63,8.12,2.71,5.3,6.73-2.35,8S96,156.78,97,159.51Z"/><path class="cls-5" d="M107.37,146.88c-7.78-8.19,18.7-4.3,10.34-12.62,8.12,2.7,5.29,6.72-2.35,8S106.31,144.15,107.37,146.88Z"/><path class="cls-5" d="M117.72,134.26c-7.78-8.19,18.7-4.3,10.34-12.63,8.12,2.71,5.29,6.73-2.36,8S116.66,131.53,117.72,134.26Z"/><path class="cls-5" d="M128.07,121.63c-7.78-8.19,18.69-4.3,10.33-12.62,8.13,2.7,5.3,6.72-2.35,7.95S127,118.9,128.07,121.63Z"/><path class="cls-5" d="M138.41,109c-7.78-8.19,18.7-4.3,10.34-12.63,8.12,2.71,5.29,6.73-2.35,8S137.36,106.28,138.41,109Z"/><path class="cls-5" d="M148.76,96.38c-7.78-8.19,18.7-4.3,10.34-12.62,8.12,2.7,5.29,6.72-2.36,7.95S147.7,93.65,148.76,96.38Z"/><path class="cls-5" d="M159.11,83.76c-7.78-8.19,18.7-4.3,10.34-12.63,8.12,2.71,5.29,6.73-2.36,8S158.05,81,159.11,83.76Z"/><path class="cls-5" d="M169.45,71.13c-7.78-8.19,18.7-4.3,10.34-12.62,8.12,2.7,5.3,6.72-2.35,7.95S168.4,68.4,169.45,71.13Z"/><path class="cls-5" d="M179.8,58.51c-7.78-8.19,18.7-4.3,10.34-12.63,8.12,2.71,5.29,6.73-2.35,7.95S178.74,55.78,179.8,58.51Z"/><path class="cls-5" d="M190.15,45.88c-7.78-8.19,18.7-4.3,10.34-12.62,8.12,2.7,5.29,6.72-2.36,8S189.09,43.15,190.15,45.88Z"/><path class="cls-5" d="M200.5,33.26c-7.78-8.19,18.69-4.3,10.33-12.63,8.13,2.71,5.3,6.73-2.35,8S199.44,30.53,200.5,33.26Z"/><path class="cls-5" d="M210.84,20.63c-7.78-8.19,18.7-4.3,10.34-12.62,8.12,2.7,5.29,6.72-2.35,8S209.79,17.9,210.84,20.63Z"/><path class="cls-5" d="M221.19,8c-7.78-8.19,18.7-4.3,10.34-12.63,8.12,2.71,5.29,6.73-2.36,8S220.13,5.28,221.19,8Z"/><path class="cls-5" d="M79.36,168.7c-7.78-8.19,18.7-4.3,10.34-12.62,8.12,2.7,5.29,6.72-2.35,7.95S78.3,166,79.36,168.7Z"/><path class="cls-5" d="M89.71,156.08c-7.78-8.19,18.7-4.3,10.34-12.63,8.12,2.71,5.29,6.73-2.36,8S88.65,153.35,89.71,156.08Z"/><path class="cls-5" d="M100.06,143.45c-7.78-8.19,18.69-4.3,10.33-12.62,8.12,2.7,5.3,6.72-2.35,7.95S99,140.72,100.06,143.45Z"/><path class="cls-5" d="M110.4,130.83c-7.78-8.19,18.7-4.3,10.34-12.63,8.12,2.71,5.29,6.73-2.35,8S109.34,128.1,110.4,130.83Z"/><path class="cls-5" d="M120.75,118.2c-7.78-8.19,18.7-4.3,10.34-12.62,8.12,2.7,5.29,6.72-2.36,8S119.69,115.47,120.75,118.2Z"/><path class="cls-5" d="M131.1,105.58c-7.78-8.19,18.7-4.3,10.34-12.63,8.12,2.71,5.29,6.73-2.36,8S130,102.85,131.1,105.58Z"/><path class="cls-5" d="M141.44,93c-7.78-8.19,18.7-4.3,10.34-12.62,8.12,2.7,5.3,6.72-2.35,8S140.39,90.22,141.44,93Z"/><path class="cls-5" d="M151.79,80.33C144,72.14,170.49,76,162.13,67.7c8.12,2.71,5.29,6.73-2.35,8S150.73,77.6,151.79,80.33Z"/><path class="cls-5" d="M162.14,67.7c-7.78-8.19,18.7-4.3,10.34-12.62,8.12,2.7,5.29,6.72-2.36,8S161.08,65,162.14,67.7Z"/><path class="cls-5" d="M172.49,55.08c-7.78-8.19,18.69-4.3,10.33-12.63,8.12,2.71,5.3,6.73-2.35,7.95S171.43,52.35,172.49,55.08Z"/><path class="cls-5" d="M182.83,42.45c-7.78-8.19,18.7-4.3,10.34-12.62,8.12,2.7,5.29,6.72-2.35,8S181.77,39.72,182.83,42.45Z"/><path class="cls-5" d="M193.18,29.83c-7.78-8.19,18.7-4.3,10.34-12.63,8.12,2.71,5.29,6.73-2.36,8S192.12,27.1,193.18,29.83Z"/><path class="cls-5" d="M203.53,17.2c-7.78-8.19,18.7-4.3,10.34-12.62,8.12,2.7,5.29,6.72-2.36,8S202.47,14.47,203.53,17.2Z"/><path class="cls-5" d="M213.87,4.58C206.09-3.61,232.57.28,224.21-8c8.12,2.71,5.3,6.73-2.35,8S212.82,1.85,213.87,4.58Z"/><path class="cls-5" d="M72,165.27c-7.78-8.18,18.7-4.29,10.34-12.62,8.12,2.7,5.3,6.72-2.35,7.95S71,162.54,72,165.27Z"/><path class="cls-5" d="M82.39,152.65c-7.78-8.19,18.7-4.3,10.34-12.63,8.12,2.71,5.29,6.73-2.35,7.95S81.33,149.92,82.39,152.65Z"/><path class="cls-5" d="M92.74,140c-7.78-8.18,18.7-4.29,10.34-12.62,8.12,2.7,5.29,6.72-2.36,7.95S91.68,137.29,92.74,140Z"/><path class="cls-5" d="M103.09,127.4c-7.78-8.19,18.69-4.3,10.33-12.63,8.13,2.71,5.3,6.73-2.35,8S102,124.67,103.09,127.4Z"/><path class="cls-5" d="M113.43,114.77c-7.78-8.18,18.7-4.29,10.34-12.62,8.12,2.7,5.29,6.72-2.35,7.95S112.38,112,113.43,114.77Z"/><path class="cls-5" d="M123.78,102.15c-7.78-8.19,18.7-4.3,10.34-12.63,8.12,2.71,5.29,6.73-2.36,8S122.72,99.42,123.78,102.15Z"/><path class="cls-5" d="M134.13,89.52c-7.78-8.18,18.7-4.29,10.34-12.62,8.12,2.7,5.29,6.72-2.36,7.95S133.07,86.79,134.13,89.52Z"/><path class="cls-5" d="M144.47,76.9c-7.78-8.19,18.7-4.3,10.34-12.63,8.12,2.71,5.3,6.73-2.35,8S143.42,74.17,144.47,76.9Z"/><path class="cls-5" d="M154.82,64.27C147,56.09,173.52,60,165.16,51.65c8.12,2.7,5.29,6.72-2.35,8S153.76,61.54,154.82,64.27Z"/><path class="cls-5" d="M165.17,51.65c-7.78-8.19,18.7-4.3,10.34-12.63,8.12,2.71,5.29,6.73-2.36,7.95S164.11,48.92,165.17,51.65Z"/><path class="cls-5" d="M175.52,39c-7.78-8.18,18.69-4.29,10.33-12.62,8.13,2.7,5.3,6.72-2.35,8S174.46,36.29,175.52,39Z"/><path class="cls-5" d="M185.86,26.4c-7.78-8.19,18.7-4.3,10.34-12.63,8.12,2.71,5.29,6.73-2.35,8S184.81,23.67,185.86,26.4Z"/><path class="cls-5" d="M196.21,13.77c-7.78-8.18,18.7-4.29,10.34-12.62,8.12,2.7,5.29,6.72-2.36,8S195.15,11,196.21,13.77Z"/><path class="cls-5" d="M206.56,1.15c-7.78-8.19,18.7-4.3,10.34-12.63,8.12,2.71,5.29,6.73-2.36,8S205.5-1.58,206.56,1.15Z"/><path class="cls-5" d="M64.73,161.85c-7.78-8.19,18.7-4.3,10.34-12.63,8.12,2.7,5.29,6.72-2.36,7.95S63.67,159.12,64.73,161.85Z"/><path class="cls-5" d="M75.08,149.22c-7.78-8.19,18.69-4.3,10.33-12.62,8.13,2.7,5.3,6.72-2.35,8S74,146.49,75.08,149.22Z"/><path class="cls-5" d="M85.42,136.6c-7.78-8.19,18.7-4.3,10.34-12.63,8.12,2.7,5.29,6.72-2.35,7.95S84.36,133.87,85.42,136.6Z"/><path class="cls-5" d="M95.77,124c-7.78-8.19,18.7-4.3,10.34-12.62,8.12,2.7,5.29,6.72-2.36,8S94.71,121.24,95.77,124Z"/><path class="cls-5" d="M106.12,111.35c-7.78-8.19,18.7-4.3,10.34-12.63,8.12,2.7,5.29,6.72-2.36,8S105.06,108.62,106.12,111.35Z"/><path class="cls-5" d="M116.46,98.72c-7.78-8.19,18.7-4.3,10.34-12.62,8.12,2.7,5.3,6.72-2.35,8S115.41,96,116.46,98.72Z"/><path class="cls-5" d="M126.81,86.1c-7.78-8.19,18.7-4.3,10.34-12.63,8.12,2.7,5.29,6.72-2.35,8S125.75,83.37,126.81,86.1Z"/><path class="cls-5" d="M137.16,73.47c-7.78-8.19,18.7-4.3,10.34-12.62,8.12,2.7,5.29,6.72-2.36,7.95S136.1,70.74,137.16,73.47Z"/><path class="cls-5" d="M147.51,60.85c-7.78-8.19,18.69-4.3,10.33-12.63,8.13,2.7,5.3,6.72-2.35,8S146.45,58.12,147.51,60.85Z"/><path class="cls-5" d="M157.85,48.22c-7.78-8.19,18.7-4.3,10.34-12.62,8.12,2.7,5.29,6.72-2.35,7.95S156.79,45.49,157.85,48.22Z"/><path class="cls-5" d="M168.2,35.6c-7.78-8.19,18.7-4.3,10.34-12.63,8.12,2.7,5.29,6.72-2.36,8S167.14,32.87,168.2,35.6Z"/><path class="cls-5" d="M178.55,23c-7.78-8.19,18.7-4.3,10.34-12.62,8.12,2.7,5.29,6.72-2.36,8S177.49,20.24,178.55,23Z"/><path class="cls-5" d="M188.89,10.35c-7.78-8.19,18.7-4.3,10.34-12.63,8.12,2.7,5.3,6.72-2.35,8S187.84,7.62,188.89,10.35Z"/><path class="cls-5" d="M47.06,171c-7.78-8.19,18.7-4.3,10.34-12.62,8.12,2.7,5.3,6.72-2.35,8S46,168.31,47.06,171Z"/><path class="cls-5" d="M57.41,158.42c-7.78-8.19,18.7-4.3,10.34-12.63,8.12,2.7,5.29,6.72-2.35,8S56.35,155.69,57.41,158.42Z"/><path class="cls-5" d="M67.76,145.79c-7.78-8.19,18.7-4.3,10.34-12.62,8.12,2.7,5.29,6.72-2.36,8S66.7,143.06,67.76,145.79Z"/><path class="cls-5" d="M78.11,133.17c-7.78-8.19,18.69-4.3,10.33-12.63,8.13,2.7,5.3,6.72-2.35,8S77.05,130.44,78.11,133.17Z"/><path class="cls-5" d="M88.45,120.54c-7.78-8.19,18.7-4.3,10.34-12.62,8.12,2.7,5.29,6.72-2.35,8S87.4,117.81,88.45,120.54Z"/><path class="cls-5" d="M98.8,107.92c-7.78-8.19,18.7-4.3,10.34-12.63,8.12,2.7,5.29,6.72-2.36,7.95S97.74,105.19,98.8,107.92Z"/><path class="cls-5" d="M109.15,95.29c-7.78-8.19,18.7-4.3,10.34-12.62,8.12,2.7,5.29,6.72-2.36,8S108.09,92.56,109.15,95.29Z"/><path class="cls-5" d="M119.49,82.67c-7.78-8.19,18.7-4.3,10.34-12.63,8.12,2.7,5.3,6.72-2.35,7.95S118.44,79.94,119.49,82.67Z"/><path class="cls-5" d="M129.84,70c-7.78-8.19,18.7-4.3,10.34-12.62,8.12,2.7,5.29,6.72-2.35,8S128.78,67.31,129.84,70Z"/><path class="cls-5" d="M140.19,57.42c-7.78-8.19,18.7-4.3,10.34-12.63,8.12,2.7,5.29,6.72-2.36,8S139.13,54.69,140.19,57.42Z"/><path class="cls-5" d="M150.54,44.79c-7.78-8.19,18.69-4.3,10.33-12.62,8.13,2.7,5.3,6.72-2.35,7.95S149.48,42.06,150.54,44.79Z"/><path class="cls-5" d="M160.88,32.17c-7.78-8.19,18.7-4.3,10.34-12.63,8.12,2.7,5.29,6.72-2.35,8S159.83,29.44,160.88,32.17Z"/><path class="cls-5" d="M171.23,19.54c-7.78-8.19,18.7-4.3,10.34-12.62,8.12,2.7,5.29,6.72-2.36,8S170.17,16.81,171.23,19.54Z"/><path class="cls-5" d="M181.58,6.92c-7.78-8.19,18.7-4.3,10.34-12.63,8.12,2.7,5.29,6.72-2.36,8S180.52,4.19,181.58,6.92Z"/><path class="cls-5" d="M39.75,167.61c-7.78-8.19,18.7-4.3,10.34-12.62,8.12,2.7,5.29,6.72-2.36,7.95S38.69,164.88,39.75,167.61Z"/><path class="cls-5" d="M50.1,155c-7.78-8.19,18.69-4.3,10.33-12.63,8.13,2.71,5.3,6.72-2.35,7.95S49,152.26,50.1,155Z"/><path class="cls-5" d="M60.44,142.36c-7.78-8.19,18.7-4.3,10.34-12.62,8.12,2.7,5.29,6.72-2.35,7.95S59.38,139.63,60.44,142.36Z"/><path class="cls-5" d="M70.79,129.74c-7.78-8.19,18.7-4.3,10.34-12.63,8.12,2.71,5.29,6.72-2.36,8S69.73,127,70.79,129.74Z"/><path class="cls-5" d="M81.14,117.11c-7.78-8.19,18.7-4.3,10.34-12.62,8.12,2.7,5.29,6.72-2.36,8S80.08,114.38,81.14,117.11Z"/><path class="cls-5" d="M91.48,104.49c-7.78-8.19,18.7-4.3,10.34-12.63,8.12,2.71,5.3,6.72-2.35,8S90.43,101.76,91.48,104.49Z"/><path class="cls-5" d="M101.83,91.86c-7.78-8.19,18.7-4.3,10.34-12.62,8.12,2.7,5.29,6.72-2.35,8S100.77,89.13,101.83,91.86Z"/><path class="cls-5" d="M112.18,79.24c-7.78-8.19,18.7-4.3,10.34-12.63,8.12,2.71,5.29,6.72-2.36,8S111.12,76.51,112.18,79.24Z"/><path class="cls-5" d="M122.53,66.61c-7.78-8.19,18.69-4.3,10.33-12.62,8.13,2.7,5.3,6.72-2.35,7.95S121.47,63.88,122.53,66.61Z"/><path class="cls-5" d="M132.87,54c-7.78-8.19,18.7-4.3,10.34-12.63,8.12,2.71,5.29,6.72-2.35,8S131.81,51.26,132.87,54Z"/><path class="cls-5" d="M143.22,41.36c-7.78-8.19,18.7-4.3,10.34-12.62,8.12,2.7,5.29,6.72-2.36,8S142.16,38.63,143.22,41.36Z"/><path class="cls-5" d="M153.57,28.74c-7.78-8.19,18.7-4.3,10.34-12.63,8.12,2.71,5.29,6.72-2.36,8S152.51,26,153.57,28.74Z"/><path class="cls-5" d="M163.91,16.11c-7.78-8.19,18.7-4.3,10.34-12.62,8.12,2.7,5.3,6.72-2.35,8S162.86,13.38,163.91,16.11Z"/><path class="cls-5" d="M174.26,3.49C166.48-4.7,193-.81,184.6-9.14c8.12,2.71,5.29,6.72-2.35,8S173.2.76,174.26,3.49Z"/><path class="cls-5" d="M32.43,164.18c-7.78-8.19,18.7-4.3,10.34-12.62,8.12,2.7,5.29,6.72-2.35,7.95S31.37,161.45,32.43,164.18Z"/><path class="cls-5" d="M42.78,151.56c-7.78-8.19,18.7-4.3,10.34-12.63,8.12,2.71,5.29,6.72-2.36,7.95S41.72,148.83,42.78,151.56Z"/><path class="cls-5" d="M53.13,138.93c-7.78-8.19,18.69-4.3,10.33-12.62,8.13,2.7,5.3,6.72-2.35,7.95S52.07,136.2,53.13,138.93Z"/><path class="cls-5" d="M63.47,126.31c-7.78-8.19,18.7-4.3,10.34-12.63,8.12,2.71,5.3,6.72-2.35,7.95S62.42,123.58,63.47,126.31Z"/><path class="cls-5" d="M73.82,113.68c-7.78-8.19,18.7-4.3,10.34-12.62,8.12,2.7,5.29,6.72-2.36,8S72.76,111,73.82,113.68Z"/><path class="cls-5" d="M84.17,101.06c-7.78-8.19,18.7-4.3,10.34-12.63,8.12,2.71,5.29,6.72-2.36,7.95S83.11,98.33,84.17,101.06Z"/><path class="cls-5" d="M94.51,88.43c-7.78-8.19,18.7-4.3,10.34-12.62,8.12,2.7,5.3,6.72-2.35,8S93.46,85.7,94.51,88.43Z"/><path class="cls-5" d="M104.86,75.81c-7.78-8.19,18.7-4.3,10.34-12.63,8.12,2.71,5.29,6.72-2.35,7.95S103.8,73.08,104.86,75.81Z"/><path class="cls-5" d="M115.21,63.18c-7.78-8.19,18.7-4.3,10.34-12.62,8.12,2.7,5.29,6.72-2.36,7.95S114.15,60.45,115.21,63.18Z"/><path class="cls-5" d="M125.56,50.56c-7.78-8.19,18.69-4.3,10.33-12.63,8.13,2.71,5.3,6.72-2.35,8S124.5,47.83,125.56,50.56Z"/><path class="cls-5" d="M135.9,37.93c-7.78-8.19,18.7-4.3,10.34-12.62,8.12,2.7,5.3,6.72-2.35,8S134.85,35.2,135.9,37.93Z"/><path class="cls-5" d="M146.25,25.31c-7.78-8.19,18.7-4.3,10.34-12.63,8.12,2.71,5.29,6.72-2.36,8S145.19,22.58,146.25,25.31Z"/><path class="cls-5" d="M156.6,12.68c-7.78-8.19,18.7-4.3,10.34-12.62,8.12,2.7,5.29,6.72-2.36,8S155.54,10,156.6,12.68Z"/><path class="cls-5" d="M166.94.06c-7.78-8.19,18.7-4.3,10.34-12.63,8.12,2.71,5.3,6.72-2.35,8S165.89-2.67,166.94.06Z"/><path class="cls-5" d="M14.77,173.38c-7.78-8.19,18.7-4.3,10.34-12.63,8.12,2.71,5.29,6.72-2.36,7.95S13.71,170.65,14.77,173.38Z"/><path class="cls-5" d="M25.12,160.75c-7.78-8.19,18.69-4.3,10.33-12.62,8.13,2.7,5.3,6.72-2.35,8S24.06,158,25.12,160.75Z"/><path class="cls-5" d="M35.46,148.13c-7.78-8.19,18.7-4.3,10.34-12.63,8.12,2.71,5.29,6.72-2.35,7.95S34.4,145.4,35.46,148.13Z"/><path class="cls-5" d="M45.81,135.5c-7.78-8.19,18.7-4.3,10.34-12.62,8.12,2.7,5.29,6.72-2.36,8S44.75,132.77,45.81,135.5Z"/><path class="cls-5" d="M56.16,122.88c-7.78-8.19,18.7-4.3,10.34-12.63,8.12,2.71,5.29,6.72-2.36,8S55.1,120.15,56.16,122.88Z"/><path class="cls-5" d="M66.5,110.25c-7.78-8.19,18.7-4.3,10.34-12.62,8.12,2.7,5.3,6.72-2.35,8S65.45,107.52,66.5,110.25Z"/><path class="cls-5" d="M76.85,97.63c-7.78-8.19,18.7-4.3,10.34-12.63,8.12,2.71,5.29,6.72-2.35,8S75.79,94.9,76.85,97.63Z"/><path class="cls-5" d="M87.2,85c-7.78-8.19,18.7-4.3,10.34-12.62,8.12,2.7,5.29,6.72-2.36,8S86.14,82.27,87.2,85Z"/><path class="cls-5" d="M97.55,72.38c-7.78-8.19,18.69-4.3,10.33-12.63,8.13,2.71,5.3,6.72-2.35,8S96.49,69.65,97.55,72.38Z"/><path class="cls-5" d="M107.89,59.75c-7.78-8.19,18.7-4.3,10.34-12.62,8.12,2.7,5.29,6.72-2.35,7.95S106.83,57,107.89,59.75Z"/><path class="cls-5" d="M118.24,47.13c-7.78-8.19,18.7-4.3,10.34-12.63,8.12,2.71,5.29,6.72-2.36,8S117.18,44.4,118.24,47.13Z"/><path class="cls-5" d="M128.59,34.5c-7.78-8.19,18.7-4.3,10.34-12.62,8.12,2.7,5.29,6.72-2.36,8S127.53,31.77,128.59,34.5Z"/><path class="cls-5" d="M138.93,21.88c-7.78-8.19,18.7-4.3,10.34-12.63,8.12,2.71,5.3,6.72-2.35,8S137.88,19.15,138.93,21.88Z"/><path class="cls-5" d="M149.28,9.25C141.5,1.06,168,5,159.62-3.37c8.12,2.7,5.29,6.72-2.35,8S148.22,6.52,149.28,9.25Z"/><path class="cls-5" d="M7.45,170c-7.78-8.19,18.7-4.3,10.34-12.63,8.12,2.71,5.29,6.73-2.35,8S6.39,167.22,7.45,170Z"/><path class="cls-5" d="M17.8,157.32C10,149.13,36.5,153,28.14,144.7c8.12,2.7,5.29,6.72-2.36,8S16.74,154.59,17.8,157.32Z"/><path class="cls-5" d="M28.15,144.7c-7.78-8.19,18.69-4.3,10.34-12.63,8.12,2.71,5.29,6.73-2.36,8S27.09,142,28.15,144.7Z"/><path class="cls-5" d="M38.49,132.07c-7.78-8.19,18.7-4.3,10.34-12.62,8.12,2.7,5.3,6.72-2.35,8S37.44,129.34,38.49,132.07Z"/><path class="cls-5" d="M48.84,119.45c-7.78-8.19,18.7-4.3,10.34-12.63,8.12,2.71,5.29,6.73-2.36,8S47.78,116.72,48.84,119.45Z"/><path class="cls-5" d="M59.19,106.82c-7.78-8.19,18.7-4.3,10.34-12.62,8.12,2.7,5.29,6.72-2.36,8S58.13,104.09,59.19,106.82Z"/><path class="cls-5" d="M69.53,94.2C61.75,86,88.23,89.9,79.87,81.57c8.12,2.71,5.3,6.73-2.35,8S68.48,91.47,69.53,94.2Z"/><path class="cls-5" d="M79.88,81.57C72.1,73.38,98.58,77.27,90.22,69c8.12,2.7,5.29,6.72-2.35,8S78.82,78.84,79.88,81.57Z"/><path class="cls-5" d="M90.23,69c-7.78-8.19,18.7-4.3,10.34-12.63,8.12,2.71,5.29,6.73-2.36,7.95S89.17,66.22,90.23,69Z"/><path class="cls-5" d="M100.58,56.32C92.8,48.13,119.27,52,110.92,43.7c8.12,2.7,5.29,6.72-2.36,7.95S99.52,53.59,100.58,56.32Z"/><path class="cls-5" d="M110.92,43.7c-7.78-8.19,18.7-4.3,10.34-12.63,8.12,2.71,5.3,6.73-2.35,8S109.87,41,110.92,43.7Z"/><path class="cls-5" d="M121.27,31.07c-7.78-8.19,18.7-4.3,10.34-12.62,8.12,2.7,5.29,6.72-2.36,8S120.21,28.34,121.27,31.07Z"/><path class="cls-5" d="M131.62,18.45c-7.78-8.19,18.7-4.3,10.34-12.63,8.12,2.71,5.29,6.73-2.36,8S130.56,15.72,131.62,18.45Z"/><path class="cls-5" d="M142,5.82c-7.78-8.19,18.7-4.3,10.34-12.62,8.12,2.7,5.3,6.72-2.35,8S140.91,3.09,142,5.82Z"/><path class="cls-5" d="M.14,166.52c-7.78-8.19,18.69-4.3,10.33-12.63,8.13,2.71,5.3,6.73-2.35,8S-.92,163.79.14,166.52Z"/><path class="cls-5" d="M10.48,153.89c-7.78-8.18,18.7-4.29,10.34-12.62,8.12,2.7,5.29,6.72-2.35,7.95S9.42,151.16,10.48,153.89Z"/><path class="cls-5" d="M20.83,141.27c-7.78-8.19,18.7-4.3,10.34-12.63,8.12,2.71,5.29,6.73-2.36,8S19.77,138.54,20.83,141.27Z"/><path class="cls-5" d="M31.18,128.64c-7.78-8.18,18.7-4.29,10.34-12.62,8.12,2.7,5.29,6.72-2.36,8S30.12,125.91,31.18,128.64Z"/><path class="cls-5" d="M41.52,116c-7.78-8.19,18.7-4.3,10.34-12.63,8.12,2.71,5.3,6.73-2.35,8S40.47,113.29,41.52,116Z"/><path class="cls-5" d="M51.87,103.39c-7.78-8.18,18.7-4.29,10.34-12.62,8.12,2.7,5.29,6.72-2.35,8S50.81,100.66,51.87,103.39Z"/><path class="cls-5" d="M62.22,90.77c-7.78-8.19,18.7-4.3,10.34-12.63,8.12,2.71,5.29,6.73-2.36,8S61.16,88,62.22,90.77Z"/><path class="cls-5" d="M72.57,78.14C64.79,70,91.26,73.85,82.9,65.52c8.13,2.7,5.3,6.72-2.35,8S71.51,75.41,72.57,78.14Z"/><path class="cls-5" d="M82.91,65.52c-7.78-8.19,18.7-4.3,10.34-12.63,8.12,2.71,5.29,6.73-2.35,8S81.85,62.79,82.91,65.52Z"/><path class="cls-5" d="M93.26,52.89C85.48,44.71,112,48.6,103.6,40.27c8.12,2.7,5.29,6.72-2.36,7.95S92.2,50.16,93.26,52.89Z"/><path class="cls-5" d="M103.61,40.27C95.83,32.08,122.31,36,114,27.64c8.12,2.71,5.29,6.73-2.36,8S102.55,37.54,103.61,40.27Z"/><path class="cls-5" d="M114,27.64c-7.78-8.18,18.7-4.29,10.34-12.62,8.12,2.7,5.3,6.72-2.35,8S112.9,24.91,114,27.64Z"/><path class="cls-5" d="M124.3,15c-7.78-8.19,18.7-4.3,10.34-12.63,8.12,2.71,5.29,6.73-2.35,8S123.24,12.29,124.3,15Z"/><path class="cls-5" d="M134.65,2.39C126.87-5.79,153.35-1.9,145-10.23c8.12,2.7,5.29,6.72-2.36,8S133.59-.34,134.65,2.39Z"/><path class="cls-5" d="M-7.18,163.09c-7.78-8.19,18.7-4.3,10.34-12.62,8.12,2.7,5.29,6.72-2.36,7.95S-8.24,160.36-7.18,163.09Z"/><path class="cls-5" d="M3.17,150.47c-7.78-8.19,18.69-4.3,10.34-12.63,8.12,2.7,5.29,6.72-2.36,7.95S2.11,147.74,3.17,150.47Z"/><path class="cls-5" d="M13.51,137.84c-7.78-8.19,18.7-4.3,10.34-12.62,8.12,2.7,5.3,6.72-2.35,7.95S12.46,135.11,13.51,137.84Z"/><path class="cls-5" d="M23.86,125.22c-7.78-8.19,18.7-4.3,10.34-12.63,8.12,2.7,5.29,6.72-2.36,8S22.8,122.49,23.86,125.22Z"/><path class="cls-5" d="M34.21,112.59c-7.78-8.19,18.7-4.3,10.34-12.62,8.12,2.7,5.29,6.72-2.36,8S33.15,109.86,34.21,112.59Z"/><path class="cls-5" d="M44.55,100c-7.77-8.19,18.7-4.3,10.34-12.63,8.12,2.7,5.3,6.72-2.35,8S43.5,97.24,44.55,100Z"/><path class="cls-5" d="M54.9,87.34C47.12,79.15,73.6,83,65.24,74.72c8.12,2.7,5.29,6.72-2.35,8S53.84,84.61,54.9,87.34Z"/><path class="cls-5" d="M65.25,74.72c-7.78-8.19,18.7-4.3,10.34-12.63,8.12,2.7,5.29,6.72-2.36,8S64.19,72,65.25,74.72Z"/><path class="cls-5" d="M75.6,62.09c-7.78-8.19,18.69-4.3,10.34-12.62,8.12,2.7,5.29,6.72-2.36,8S74.54,59.36,75.6,62.09Z"/><path class="cls-5" d="M85.94,49.47c-7.78-8.19,18.7-4.3,10.34-12.63,8.12,2.7,5.3,6.72-2.35,7.95S84.89,46.74,85.94,49.47Z"/><path class="cls-5" d="M96.29,36.84c-7.78-8.19,18.7-4.3,10.34-12.62,8.12,2.7,5.29,6.72-2.36,8S95.23,34.11,96.29,36.84Z"/><path class="cls-5" d="M106.64,24.22C98.86,16,125.34,19.92,117,11.59c8.12,2.7,5.29,6.72-2.36,8S105.58,21.49,106.64,24.22Z"/><path class="cls-5" d="M117,11.59C109.21,3.4,135.68,7.29,127.32-1c8.12,2.7,5.3,6.72-2.35,8S115.93,8.86,117,11.59Z"/><path class="cls-5" d="M-14.5,159.66c-7.78-8.19,18.7-4.3,10.34-12.62,8.12,2.7,5.29,6.72-2.35,8S-15.56,156.93-14.5,159.66Z"/><path class="cls-5" d="M-4.15,147c-7.78-8.19,18.7-4.3,10.34-12.63,8.12,2.7,5.29,6.72-2.36,8S-5.21,144.31-4.15,147Z"/><path class="cls-5" d="M6.2,134.41c-7.78-8.19,18.7-4.3,10.34-12.62,8.12,2.7,5.29,6.72-2.36,8S5.14,131.68,6.2,134.41Z"/><path class="cls-5" d="M16.54,121.79c-7.78-8.19,18.7-4.3,10.34-12.63,8.12,2.7,5.3,6.72-2.35,8S15.49,119.06,16.54,121.79Z"/><path class="cls-5" d="M26.89,109.16c-7.78-8.19,18.7-4.3,10.34-12.62,8.12,2.7,5.29,6.72-2.35,7.95S25.83,106.43,26.89,109.16Z"/><path class="cls-5" d="M37.24,96.54c-7.78-8.19,18.7-4.3,10.34-12.63,8.12,2.7,5.29,6.72-2.36,8S36.18,93.81,37.24,96.54Z"/><path class="cls-5" d="M47.59,83.91c-7.78-8.19,18.69-4.3,10.33-12.62,8.13,2.7,5.3,6.72-2.35,7.95S46.53,81.18,47.59,83.91Z"/><path class="cls-5" d="M57.93,71.29C50.15,63.1,76.63,67,68.27,58.66c8.12,2.7,5.29,6.72-2.35,8S56.87,68.56,57.93,71.29Z"/><path class="cls-5" d="M68.28,58.66C60.5,50.47,87,54.36,78.62,46c8.12,2.7,5.29,6.72-2.36,8S67.22,55.93,68.28,58.66Z"/><path class="cls-5" d="M78.63,46c-7.78-8.19,18.7-4.3,10.34-12.63,8.12,2.7,5.29,6.72-2.36,8S77.57,43.31,78.63,46Z"/><path class="cls-5" d="M89,33.41c-7.78-8.19,18.7-4.3,10.34-12.62,8.12,2.7,5.3,6.72-2.35,8S87.92,30.68,89,33.41Z"/><path class="cls-5" d="M99.32,20.79c-7.78-8.19,18.7-4.3,10.34-12.63,8.12,2.7,5.29,6.72-2.35,8S98.26,18.06,99.32,20.79Z"/><path class="cls-5" d="M109.67,8.16C101.89,0,128.37,3.86,120-4.46c8.12,2.7,5.29,6.72-2.36,8S108.61,5.43,109.67,8.16Z"/><path class="cls-5" d="M-11.47,143.61c-7.78-8.19,18.7-4.3,10.34-12.63,8.12,2.71,5.3,6.72-2.35,8S-12.52,140.88-11.47,143.61Z"/><path class="cls-5" d="M-1.12,131c-7.78-8.19,18.7-4.3,10.34-12.62,8.12,2.7,5.29,6.72-2.35,8S-2.18,128.25-1.12,131Z"/><path class="cls-5" d="M9.23,118.36c-7.78-8.19,18.7-4.3,10.34-12.63,8.12,2.71,5.29,6.72-2.36,8S8.17,115.63,9.23,118.36Z"/><path class="cls-5" d="M19.57,105.73c-7.77-8.19,18.7-4.3,10.34-12.62,8.12,2.7,5.3,6.72-2.35,8S18.52,103,19.57,105.73Z"/><path class="cls-5" d="M29.92,93.11c-7.78-8.19,18.7-4.3,10.34-12.63,8.12,2.71,5.29,6.72-2.35,8S28.86,90.38,29.92,93.11Z"/><path class="cls-5" d="M40.27,80.48c-7.78-8.19,18.7-4.3,10.34-12.62,8.12,2.7,5.29,6.72-2.36,8S39.21,77.75,40.27,80.48Z"/><path class="cls-5" d="M50.62,67.86C42.84,59.67,69.31,63.56,61,55.23c8.12,2.71,5.29,6.72-2.36,8S49.56,65.13,50.62,67.86Z"/><path class="cls-5" d="M61,55.23C53.18,47,79.66,50.93,71.3,42.61c8.12,2.7,5.3,6.72-2.35,8S59.91,52.5,61,55.23Z"/><path class="cls-5" d="M71.31,42.61C63.53,34.42,90,38.31,81.65,30c8.12,2.71,5.29,6.72-2.35,8S70.25,39.88,71.31,42.61Z"/><path class="cls-5" d="M81.66,30c-7.78-8.19,18.7-4.3,10.34-12.62,8.12,2.7,5.29,6.72-2.36,8S80.6,27.25,81.66,30Z"/><path class="cls-5" d="M92,17.36c-7.77-8.19,18.7-4.3,10.34-12.63,8.12,2.71,5.3,6.72-2.35,8S91,14.63,92,17.36Z"/><path class="cls-5" d="M102.35,4.73c-7.78-8.19,18.7-4.3,10.34-12.62,8.12,2.7,5.29,6.72-2.35,8S101.29,2,102.35,4.73Z"/><path class="cls-5" d="M-8.44,127.55c-7.78-8.19,18.7-4.3,10.34-12.62,8.12,2.7,5.3,6.72-2.35,7.95S-9.49,124.82-8.44,127.55Z"/><path class="cls-5" d="M1.91,114.93c-7.78-8.19,18.7-4.3,10.34-12.63,8.12,2.71,5.29,6.72-2.35,8S.85,112.2,1.91,114.93Z"/><path class="cls-5" d="M12.26,102.3C4.48,94.11,31,98,22.6,89.68c8.12,2.7,5.29,6.72-2.36,7.95S11.2,99.57,12.26,102.3Z"/><path class="cls-5" d="M22.61,89.68c-7.78-8.19,18.69-4.3,10.33-12.63,8.13,2.71,5.3,6.72-2.35,8S21.55,87,22.61,89.68Z"/><path class="cls-5" d="M33,77.05c-7.78-8.19,18.7-4.3,10.34-12.62,8.12,2.7,5.29,6.72-2.35,7.95S31.9,74.32,33,77.05Z"/><path class="cls-5" d="M43.3,64.43C35.52,56.24,62,60.13,53.64,51.8c8.12,2.71,5.29,6.72-2.36,8S42.24,61.7,43.3,64.43Z"/><path class="cls-5" d="M53.65,51.8C45.87,43.61,72.35,47.5,64,39.18c8.12,2.7,5.29,6.72-2.36,8S52.59,49.07,53.65,51.8Z"/><path class="cls-5" d="M64,39.18c-7.78-8.19,18.7-4.3,10.34-12.63,8.12,2.71,5.3,6.72-2.35,8S62.94,36.45,64,39.18Z"/><path class="cls-5" d="M74.34,26.55c-7.78-8.19,18.7-4.3,10.34-12.62,8.12,2.7,5.29,6.72-2.35,8S73.28,23.82,74.34,26.55Z"/><path class="cls-5" d="M84.69,13.93C76.91,5.74,103.39,9.63,95,1.3c8.12,2.71,5.29,6.72-2.36,8S83.63,11.2,84.69,13.93Z"/><path class="cls-5" d="M95,1.3C87.26-6.89,113.73-3,105.37-11.32c8.13,2.7,5.3,6.72-2.35,8S94-1.43,95,1.3Z"/><path class="cls-5" d="M-5.41,111.5c-7.77-8.19,18.7-4.3,10.34-12.63,8.12,2.71,5.3,6.72-2.35,7.95S-6.46,108.77-5.41,111.5Z"/><path class="cls-5" d="M4.94,98.87c-7.78-8.19,18.7-4.3,10.34-12.62,8.12,2.7,5.29,6.72-2.35,8S3.88,96.14,4.94,98.87Z"/><path class="cls-5" d="M15.29,86.25C7.51,78.06,34,82,25.63,73.62c8.12,2.71,5.29,6.72-2.36,7.95S14.23,83.52,15.29,86.25Z"/><path class="cls-5" d="M25.64,73.62C17.86,65.43,44.34,69.32,36,61c8.12,2.7,5.29,6.72-2.36,8S24.58,70.89,25.64,73.62Z"/><path class="cls-5" d="M36,61c-7.78-8.19,18.7-4.3,10.34-12.63,8.12,2.71,5.3,6.72-2.35,8S34.93,58.27,36,61Z"/><path class="cls-5" d="M46.33,48.37c-7.78-8.19,18.7-4.3,10.34-12.62,8.12,2.7,5.29,6.72-2.35,8S45.27,45.64,46.33,48.37Z"/><path class="cls-5" d="M56.68,35.75C48.9,27.56,75.38,31.45,67,23.12c8.12,2.71,5.29,6.72-2.36,8S55.62,33,56.68,35.75Z"/><path class="cls-5" d="M67,23.12c-7.77-8.19,18.7-4.3,10.34-12.62,8.12,2.7,5.3,6.72-2.35,8S66,20.39,67,23.12Z"/><path class="cls-5" d="M77.37,10.5C69.59,2.31,96.07,6.2,87.71-2.13c8.12,2.71,5.29,6.72-2.35,8S76.31,7.77,77.37,10.5Z"/><path class="cls-5" d="M-12.72,108.07C-20.5,99.88,6,103.77-2.38,95.44c8.12,2.71,5.29,6.73-2.36,8S-13.78,105.34-12.72,108.07Z"/><path class="cls-5" d="M-2.37,95.44C-10.15,87.25,16.32,91.14,8,82.82c8.13,2.7,5.3,6.72-2.35,8S-3.43,92.71-2.37,95.44Z"/><path class="cls-5" d="M8,82.82c-7.78-8.19,18.7-4.3,10.34-12.63,8.12,2.71,5.29,6.73-2.35,8S6.92,80.09,8,82.82Z"/><path class="cls-5" d="M18.32,70.19C10.54,62,37,65.89,28.66,57.57c8.12,2.7,5.29,6.72-2.36,7.95S17.26,67.46,18.32,70.19Z"/><path class="cls-5" d="M28.67,57.57c-7.78-8.19,18.7-4.3,10.34-12.63,8.12,2.71,5.29,6.73-2.36,8S27.61,54.84,28.67,57.57Z"/><path class="cls-5" d="M39,44.94c-7.78-8.19,18.7-4.3,10.34-12.62,8.12,2.7,5.3,6.72-2.35,8S38,42.21,39,44.94Z"/><path class="cls-5" d="M49.36,32.32C41.58,24.13,68.06,28,59.7,19.69c8.12,2.71,5.29,6.73-2.35,8S48.3,29.59,49.36,32.32Z"/><path class="cls-5" d="M59.71,19.69c-7.78-8.19,18.7-4.3,10.34-12.62,8.12,2.7,5.29,6.72-2.36,8S58.65,17,59.71,19.69Z"/><path class="cls-5" d="M70.06,7.07C62.28-1.12,88.75,2.77,80.39-5.56c8.13,2.71,5.3,6.73-2.35,8S69,4.34,70.06,7.07Z"/><path class="cls-5" d="M-9.69,92C-17.47,83.82,9,87.71.65,79.39c8.12,2.7,5.29,6.72-2.36,8S-10.75,89.28-9.69,92Z"/><path class="cls-5" d="M.66,79.39C-7.12,71.2,19.36,75.09,11,66.76c8.12,2.71,5.29,6.73-2.36,7.95S-.4,76.66.66,79.39Z"/><path class="cls-5" d="M11,66.76c-7.78-8.19,18.7-4.3,10.34-12.62,8.12,2.7,5.3,6.72-2.35,8S10,64,11,66.76Z"/><path class="cls-5" d="M21.35,54.14c-7.78-8.19,18.7-4.3,10.34-12.63,8.12,2.71,5.29,6.73-2.35,8S20.29,51.41,21.35,54.14Z"/><path class="cls-5" d="M31.7,41.51C23.92,33.32,50.4,37.21,42,28.89c8.12,2.7,5.29,6.72-2.36,8S30.64,38.78,31.7,41.51Z"/><path class="cls-5" d="M42.05,28.89c-7.78-8.19,18.69-4.3,10.33-12.63C60.5,19,57.68,23,50,24.21S41,26.16,42.05,28.89Z"/><path class="cls-5" d="M52.39,16.26C44.61,8.07,71.09,12,62.73,3.64c8.12,2.7,5.29,6.72-2.35,8S51.33,13.53,52.39,16.26Z"/><path class="cls-5" d="M62.74,3.64C55-4.55,81.44-.66,73.08-9c8.12,2.71,5.29,6.73-2.36,8S61.68.91,62.74,3.64Z"/><path class="cls-5" d="M-6.66,76c-7.78-8.19,18.7-4.3,10.34-12.63C11.8,66,9,70.06,1.32,71.29S-7.72,73.23-6.66,76Z"/><path class="cls-5" d="M3.69,63.33C-4.09,55.15,22.39,59,14,50.71c8.12,2.7,5.29,6.72-2.36,7.95S2.63,60.61,3.69,63.33Z"/><path class="cls-5" d="M14,50.71c-7.78-8.19,18.7-4.3,10.34-12.63,8.12,2.71,5.3,6.73-2.35,8S13,48,14,50.71Z"/><path class="cls-5" d="M24.38,38.08c-7.78-8.18,18.7-4.29,10.34-12.62,8.12,2.7,5.29,6.72-2.35,7.95S23.32,35.36,24.38,38.08Z"/><path class="cls-5" d="M34.73,25.46c-7.78-8.19,18.7-4.3,10.34-12.63,8.12,2.71,5.29,6.73-2.36,8S33.67,22.73,34.73,25.46Z"/><path class="cls-5" d="M45.08,12.83C37.3,4.65,63.77,8.54,55.41.21c8.13,2.7,5.3,6.72-2.35,8S44,10.11,45.08,12.83Z"/><path class="cls-5" d="M55.42.21C47.64-8,74.12-4.09,65.76-12.42c8.12,2.71,5.29,6.73-2.35,8S54.37-2.52,55.42.21Z"/><path class="cls-5" d="M-14,72.53c-7.78-8.19,18.7-4.3,10.34-12.62,8.12,2.7,5.3,6.72-2.35,8S-15,69.8-14,72.53Z"/><path class="cls-5" d="M-3.63,59.91c-7.78-8.19,18.7-4.3,10.34-12.63C14.83,50,12,54,4.36,55.23S-4.69,57.18-3.63,59.91Z"/><path class="cls-5" d="M6.72,47.28c-7.78-8.19,18.7-4.3,10.34-12.62,8.12,2.7,5.29,6.72-2.36,8S5.66,44.55,6.72,47.28Z"/><path class="cls-5" d="M17.07,34.66C9.29,26.47,35.76,30.36,27.4,22c8.12,2.7,5.3,6.72-2.35,8S16,31.93,17.07,34.66Z"/><path class="cls-5" d="M27.41,22c-7.78-8.19,18.7-4.3,10.34-12.62,8.12,2.7,5.29,6.72-2.35,8S26.35,19.3,27.41,22Z"/><path class="cls-5" d="M37.76,9.41C30,1.22,56.46,5.11,48.1-3.22c8.12,2.7,5.29,6.72-2.36,8S36.7,6.68,37.76,9.41Z"/><path class="cls-5" d="M-10.95,56.48c-7.78-8.19,18.7-4.3,10.34-12.63C7.51,46.56,4.69,50.57-3,51.8S-12,53.75-10.95,56.48Z"/><path class="cls-5" d="M-.6,43.85c-7.78-8.19,18.7-4.3,10.34-12.62,8.12,2.7,5.29,6.72-2.35,8S-1.66,41.12-.6,43.85Z"/><path class="cls-5" d="M9.75,31.23C2,23,28.45,26.93,20.09,18.6c8.12,2.71,5.29,6.72-2.36,8S8.69,28.5,9.75,31.23Z"/><path class="cls-5" d="M20.1,18.6C12.32,10.41,38.79,14.3,30.43,6c8.13,2.7,5.3,6.72-2.35,8S19,15.87,20.1,18.6Z"/><path class="cls-5" d="M30.44,6c-7.78-8.19,18.7-4.3,10.34-12.63,8.12,2.71,5.29,6.72-2.35,8S29.39,3.25,30.44,6Z"/><path class="cls-5" d="M-7.91,40.42c-7.78-8.19,18.69-4.3,10.33-12.62,8.12,2.7,5.3,6.72-2.35,8S-9,37.69-7.91,40.42Z"/><path class="cls-5" d="M2.43,27.8c-7.78-8.19,18.7-4.3,10.34-12.63,8.12,2.71,5.29,6.72-2.35,8S1.37,25.07,2.43,27.8Z"/><path class="cls-5" d="M12.78,15.17C5,7,31.48,10.87,23.12,2.55c8.12,2.7,5.29,6.72-2.36,8S11.72,12.44,12.78,15.17Z"/><path class="cls-5" d="M23.13,2.55c-7.78-8.19,18.7-4.3,10.34-12.63,8.12,2.71,5.29,6.72-2.36,8S22.07-.18,23.13,2.55Z"/><path class="cls-5" d="M-15.23,37C-23,28.8,3.47,32.69-4.89,24.37c8.12,2.7,5.29,6.72-2.36,8S-16.29,34.26-15.23,37Z"/><path class="cls-5" d="M-4.88,24.37c-7.78-8.19,18.69-4.3,10.33-12.63,8.13,2.71,5.3,6.72-2.35,8S-5.94,21.64-4.88,24.37Z"/><path class="cls-5" d="M5.46,11.74C-2.32,3.55,24.16,7.44,15.8-.88c8.12,2.7,5.29,6.72-2.35,8S4.41,9,5.46,11.74Z"/><path class="cls-5" d="M-12.2,20.94C-20,12.75,6.5,16.64-1.86,8.31,6.26,11,3.43,15-4.22,16.26S-13.26,18.21-12.2,20.94Z"/><path class="cls-5" d="M-1.85,8.31C-9.63.12,16.85,4,8.49-4.31c8.12,2.7,5.29,6.72-2.36,8S-2.91,5.58-1.85,8.31Z"/><path class="cls-5" d="M-9.17,4.88C-16.95-3.31,9.53.58,1.17-7.74,9.29-5,6.46-1-1.19.21S-10.23,2.15-9.17,4.88Z"/></g></g></g></g></svg>
