<svg xmlns="http://www.w3.org/2000/svg" viewBox="0 0 270 162"><defs><style>.cls-1{fill:#fff;}.cls-2{fill:#2a3c90;}</style></defs><g id="Layer_2" data-name="Layer 2"><g id="Front"><rect class="cls-1" width="270" height="162"/><polygon class="cls-2" points="50.41 39.95 50.41 36.15 37.13 48.79 41.12 48.79 50.41 39.95"/><polygon class="cls-2" points="41.12 16.57 37.13 16.57 16.57 36.15 16.57 39.95 41.12 16.57"/><polygon class="cls-2" points="25.86 48.79 29.84 48.79 50.41 29.21 50.41 25.41 25.86 48.79"/><polygon class="cls-2" points="16.57 25.41 16.57 29.21 29.84 16.57 25.86 16.57 16.57 25.41"/><polygon class="cls-2" points="50.41 18.47 50.41 16.57 48.41 16.57 16.57 46.89 16.57 48.79 18.57 48.79 50.41 18.47"/><polygon class="cls-2" points="84.24 72.16 84.24 68.36 70.97 81 74.96 81 84.24 72.16"/><polygon class="cls-2" points="74.96 48.79 70.97 48.79 50.41 68.36 50.41 72.16 74.96 48.79"/><polygon class="cls-2" points="59.69 81 63.68 81 84.24 61.42 84.24 57.63 59.69 81"/><polygon class="cls-2" points="50.41 57.63 50.41 61.42 63.68 48.79 59.69 48.79 50.41 57.63"/><polygon class="cls-2" points="84.24 50.68 84.24 48.79 82.25 48.79 50.41 79.1 50.41 81 52.4 81 84.24 50.68"/><polygon class="cls-2" points="50.41 104.37 50.41 100.58 37.13 113.21 41.12 113.21 50.41 104.37"/><polygon class="cls-2" points="41.12 81 37.13 81 16.57 100.58 16.57 104.37 41.12 81"/><polygon class="cls-2" points="25.86 113.21 29.84 113.21 50.41 93.64 50.41 89.84 25.86 113.21"/><polygon class="cls-2" points="16.57 89.84 16.57 93.64 29.84 81 25.86 81 16.57 89.84"/><polygon class="cls-2" points="50.41 82.9 50.41 81 48.41 81 16.57 111.32 16.57 113.21 18.57 113.21 50.41 82.9"/><polygon class="cls-2" points="118.08 136.59 118.08 132.79 104.81 145.43 108.8 145.43 118.08 136.59"/><polygon class="cls-2" points="108.8 113.21 104.81 113.21 84.25 132.79 84.25 136.59 108.8 113.21"/><polygon class="cls-2" points="93.53 145.43 97.52 145.43 118.08 125.85 118.08 122.05 93.53 145.43"/><polygon class="cls-2" points="84.25 122.05 84.25 125.85 97.52 113.21 93.53 113.21 84.25 122.05"/><polygon class="cls-2" points="118.08 115.11 118.08 113.21 116.09 113.21 84.25 143.53 84.25 145.43 86.24 145.43 118.08 115.11"/><polygon class="cls-2" points="84.25 104.37 84.25 100.58 97.52 113.21 93.53 113.21 84.25 104.37"/><polygon class="cls-2" points="93.53 81 97.52 81 118.08 100.58 118.08 104.37 93.53 81"/><polygon class="cls-2" points="108.8 113.21 104.81 113.21 84.25 93.64 84.25 89.84 108.8 113.21"/><polygon class="cls-2" points="118.08 89.84 118.08 93.64 104.81 81 108.8 81 118.08 89.84"/><polygon class="cls-2" points="84.25 82.9 84.25 81 86.24 81 118.08 111.32 118.08 113.21 116.09 113.21 84.25 82.9"/><polygon class="cls-2" points="16.57 136.59 16.57 132.79 29.84 145.43 25.86 145.43 16.57 136.59"/><polygon class="cls-2" points="25.86 113.21 29.84 113.21 50.41 132.79 50.41 136.59 25.86 113.21"/><polygon class="cls-2" points="41.12 145.43 37.13 145.43 16.57 125.85 16.57 122.05 41.12 145.43"/><polygon class="cls-2" points="50.41 122.05 50.41 125.85 37.13 113.21 41.12 113.21 50.41 122.05"/><polygon class="cls-2" points="16.57 115.11 16.57 113.21 18.57 113.21 50.41 143.53 50.41 145.43 48.41 145.43 16.57 115.11"/><polygon class="cls-2" points="151.92 104.37 151.92 100.58 138.65 113.21 142.63 113.21 151.92 104.37"/><polygon class="cls-2" points="142.63 81 138.65 81 118.08 100.58 118.08 104.37 142.63 81"/><polygon class="cls-2" points="127.37 113.21 131.36 113.21 151.92 93.64 151.92 89.84 127.37 113.21"/><polygon class="cls-2" points="118.08 89.84 118.08 93.64 131.36 81 127.37 81 118.08 89.84"/><polygon class="cls-2" points="151.92 82.9 151.92 81 149.93 81 118.08 111.32 118.08 113.21 120.08 113.21 151.92 82.9"/><polygon class="cls-2" points="50.41 39.95 50.41 36.15 63.68 48.79 59.69 48.79 50.41 39.95"/><polygon class="cls-2" points="59.69 16.57 63.68 16.57 84.24 36.15 84.24 39.95 59.69 16.57"/><polygon class="cls-2" points="74.96 48.79 70.97 48.79 50.41 29.21 50.41 25.41 74.96 48.79"/><polygon class="cls-2" points="84.24 25.41 84.24 29.21 70.97 16.57 74.96 16.57 84.24 25.41"/><polygon class="cls-2" points="50.41 18.47 50.41 16.57 52.4 16.57 84.24 46.89 84.24 48.79 82.25 48.79 50.41 18.47"/><polygon class="cls-2" points="185.76 39.95 185.76 36.15 172.49 48.79 176.47 48.79 185.76 39.95"/><polygon class="cls-2" points="176.47 16.57 172.49 16.57 151.93 36.15 151.93 39.95 176.47 16.57"/><polygon class="cls-2" points="161.21 48.79 165.2 48.79 185.76 29.21 185.76 25.41 161.21 48.79"/><polygon class="cls-2" points="151.93 25.41 151.93 29.21 165.2 16.57 161.21 16.57 151.93 25.41"/><polygon class="cls-2" points="185.76 18.47 185.76 16.57 183.76 16.57 151.93 46.89 151.93 48.79 153.93 48.79 185.76 18.47"/><polygon class="cls-2" points="185.76 57.63 185.76 61.42 172.49 48.79 176.47 48.79 185.76 57.63"/><polygon class="cls-2" points="176.47 81 172.49 81 151.93 61.42 151.93 57.63 176.47 81"/><polygon class="cls-2" points="161.21 48.79 165.2 48.79 185.76 68.36 185.76 72.16 161.21 48.79"/><polygon class="cls-2" points="151.93 72.16 151.93 68.36 165.2 81 161.21 81 151.93 72.16"/><polygon class="cls-2" points="185.76 79.1 185.76 81 183.76 81 151.93 50.68 151.93 48.79 153.93 48.79 185.76 79.1"/><polygon class="cls-2" points="118.1 57.63 118.1 61.42 131.36 48.79 127.38 48.79 118.1 57.63"/><polygon class="cls-2" points="127.38 81 131.36 81 151.92 61.42 151.92 57.63 127.38 81"/><polygon class="cls-2" points="142.64 48.79 138.65 48.79 118.1 68.36 118.1 72.16 142.64 48.79"/><polygon class="cls-2" points="151.92 72.16 151.92 68.36 138.65 81 142.64 81 151.92 72.16"/><polygon class="cls-2" points="118.1 79.1 118.1 81 120.09 81 151.92 50.68 151.92 48.79 149.93 48.79 118.1 79.1"/><polygon class="cls-2" points="195.04 145.43 199.03 145.43 185.76 132.79 185.76 136.59 195.04 145.43"/><polygon class="cls-2" points="219.59 136.59 219.59 132.79 199.03 113.21 195.04 113.21 219.59 136.59"/><polygon class="cls-2" points="185.76 122.05 185.76 125.85 206.32 145.43 210.31 145.43 185.76 122.05"/><polygon class="cls-2" points="210.31 113.21 206.32 113.21 219.59 125.85 219.59 122.05 210.31 113.21"/><polygon class="cls-2" points="217.6 145.43 219.59 145.43 219.59 143.53 187.75 113.21 185.76 113.21 185.76 115.11 217.6 145.43"/><polygon class="cls-2" points="219.59 104.37 219.59 100.58 206.32 113.21 210.31 113.21 219.59 104.37"/><polygon class="cls-2" points="210.31 81 206.32 81 185.77 100.58 185.77 104.37 210.31 81"/><polygon class="cls-2" points="195.05 113.21 199.04 113.21 219.59 93.64 219.59 89.84 195.05 113.21"/><polygon class="cls-2" points="185.77 89.84 185.77 93.64 199.04 81 195.05 81 185.77 89.84"/><polygon class="cls-2" points="219.59 82.9 219.59 81 217.6 81 185.77 111.32 185.77 113.21 187.76 113.21 219.59 82.9"/><path class="cls-2" d="M115.34,48.79h2.74V81h-2.74ZM107.56,81h2.75V48.79h-2.75Zm-7.77,0h2.75V48.79H99.79ZM92,81h2.75V48.79H92Zm-7.77,0H87V48.79H84.25Z"/><path class="cls-2" d="M50.41,115.83v-2.62H84.24v2.62Zm33.83,7.4v-2.62H50.41v2.62Zm0,7.4V128H50.41v2.62Zm0,7.4v-2.62H50.41V138Zm0,7.4v-2.62H50.41v2.62Z"/><path class="cls-2" d="M84.25,19.19V16.57h33.83v2.62Zm33.83,7.4V24H84.25v2.62Zm0,7.4V31.37H84.25V34Zm0,7.4V38.77H84.25v2.62Zm0,7.4V46.17H84.25v2.62Z"/><path class="cls-2" d="M53.16,113.21H50.41V81h2.75ZM60.93,81H58.18v32.21h2.75Zm7.77,0H66v32.21H68.7Zm7.77,0H73.72v32.21h2.75Zm7.77,0H81.5v32.21h2.74Z"/><rect class="cls-2" x="118.08" y="16.57" width="33.84" height="2.62"/><rect class="cls-2" x="118.08" y="23.97" width="33.84" height="2.62"/><rect class="cls-2" x="118.08" y="31.37" width="33.84" height="2.62"/><rect class="cls-2" x="118.08" y="38.77" width="33.84" height="2.62"/><rect class="cls-2" x="118.08" y="46.17" width="33.84" height="2.62"/><path class="cls-2" d="M16.57,51.4V48.79H50.41V51.4Zm33.84,7.4V56.19H16.57V58.8Zm0,7.4V63.58H16.57V66.2Zm0,7.4V71H16.57V73.6Zm0,7.4V78.38H16.57V81Z"/><path class="cls-2" d="M154.67,113.21h-2.75V81h2.75ZM162.44,81h-2.75v32.21h2.75Zm7.77,0h-2.75v32.21h2.75ZM178,81h-2.74v32.21H178Zm7.78,0H183v32.21h2.75Z"/><path class="cls-2" d="M219.59,46.17v2.62H185.74V46.17Zm-33.85-7.4v2.62h33.85V38.77Zm0-7.4V34h33.85V31.37Zm0-7.4v2.62h33.85V24Zm0-7.4v2.62h33.85V16.57Z"/><path class="cls-2" d="M185.76,142.81v2.62H151.92v-2.62Zm-33.84-7.4V138h33.84v-2.62Zm0-7.4v2.62h33.84V128Zm0-7.4v2.62h33.84v-2.62Zm0-7.4v2.62h33.84v-2.62Z"/><path class="cls-2" d="M151.92,142.81v2.62H118.08v-2.62Zm-33.84-7.4V138h33.84v-2.62Zm0-7.4v2.62h33.84V128Zm0-7.4v2.62h33.84v-2.62Zm0-7.4v2.62h33.84v-2.62Z"/><rect class="cls-2" x="216.84" y="48.79" width="2.75" height="32.21"/><rect class="cls-2" x="209.07" y="48.79" width="2.75" height="32.21"/><rect class="cls-2" x="201.3" y="48.79" width="2.75" height="32.21"/><rect class="cls-2" x="193.53" y="48.79" width="2.75" height="32.21"/><rect class="cls-2" x="185.76" y="48.79" width="2.75" height="32.21"/><polygon class="cls-2" points="228.88 48.77 232.87 48.77 219.59 36.14 219.59 39.94 228.88 48.77"/><polygon class="cls-2" points="253.43 39.94 253.43 36.14 232.87 16.57 228.88 16.57 253.43 39.94"/><polygon class="cls-2" points="219.59 25.41 219.59 29.2 240.16 48.77 244.14 48.77 219.59 25.41"/><polygon class="cls-2" points="244.14 16.57 240.16 16.57 253.43 29.2 253.43 25.41 244.14 16.57"/><polygon class="cls-2" points="251.44 48.77 253.43 48.77 253.43 46.88 221.59 16.57 219.59 16.57 219.59 18.47 251.44 48.77"/><polygon class="cls-2" points="253.42 72.16 253.42 68.36 240.15 81 244.13 81 253.42 72.16"/><polygon class="cls-2" points="244.13 48.79 240.15 48.79 219.59 68.36 219.59 72.16 244.13 48.79"/><polygon class="cls-2" points="228.87 81 232.86 81 253.42 61.42 253.42 57.63 228.87 81"/><polygon class="cls-2" points="219.59 57.63 219.59 61.42 232.86 48.79 228.87 48.79 219.59 57.63"/><polygon class="cls-2" points="253.42 50.68 253.42 48.79 251.42 48.79 219.59 79.1 219.59 81 221.59 81 253.42 50.68"/><polygon class="cls-2" points="253.43 136.59 253.43 132.79 240.16 145.43 244.14 145.43 253.43 136.59"/><polygon class="cls-2" points="244.14 113.21 240.16 113.21 219.59 132.79 219.59 136.59 244.14 113.21"/><polygon class="cls-2" points="228.88 145.43 232.87 145.43 253.43 125.85 253.43 122.05 228.88 145.43"/><polygon class="cls-2" points="219.59 122.05 219.59 125.85 232.87 113.21 228.88 113.21 219.59 122.05"/><polygon class="cls-2" points="253.43 115.11 253.43 113.21 251.44 113.21 219.59 143.53 219.59 145.43 221.59 145.43 253.43 115.11"/><path class="cls-2" d="M253.43,110.6v2.61H219.59V110.6Zm-33.84-7.4v2.61h33.84V103.2Zm0-7.4v2.62h33.84V95.8Zm0-7.4V91h33.84V88.4Zm0-7.4v2.62h33.84V81Z"/><rect class="cls-2" x="16.57" y="81" width="236.86" height="64.43"/></g></g></svg>