<svg xmlns="http://www.w3.org/2000/svg" viewBox="0 0 270 163.44"><defs><style>.cls-1{fill:#fff;}.cls-2{fill:#262626;}.cls-3{fill:#eaeaea;}</style></defs><g id="Layer_2" data-name="Layer 2"><g id="_2" data-name="2"><g id="background"><rect class="cls-1" width="270" height="163.44"/><polygon class="cls-2" points="19.6 20.2 46.27 20.2 46.27 16.92 16.33 16.92 16.33 46.86 19.6 46.86 19.6 20.2"/><polygon class="cls-2" points="250.51 20.2 223.85 20.2 223.85 16.92 253.79 16.92 253.79 46.86 250.51 46.86 250.51 20.2"/><polygon class="cls-2" points="19.49 143.24 46.15 143.24 46.15 146.52 16.21 146.52 16.21 116.58 19.49 116.58 19.49 143.24"/><polygon class="cls-2" points="250.4 143.24 223.73 143.24 223.73 146.52 253.67 146.52 253.67 116.58 250.4 116.58 250.4 143.24"/><rect class="cls-3" x="52.13" y="144.44" width="165.6" height="1.01"/><rect class="cls-3" x="52.2" y="18.14" width="165.6" height="1.01"/><rect class="cls-2" x="27.78" y="81.22" width="18.49" height="1.01"/><rect class="cls-2" x="223.85" y="81.22" width="18.49" height="1.01"/><rect class="cls-3" x="-11.17" y="81.22" width="58.32" height="1.01" transform="translate(-63.73 99.71) rotate(-90)"/><rect class="cls-3" x="222.77" y="81.22" width="58.32" height="1.01" transform="translate(170.21 333.65) rotate(-90)"/></g></g></g></svg>
