<svg xmlns="http://www.w3.org/2000/svg" xmlns:xlink="http://www.w3.org/1999/xlink" viewBox="0 0 276.89 169.03"><defs><style>.cls-1,.cls-2,.cls-4,.cls-5{fill:#232421;}.cls-2{filter:url(#filter);}.cls-3{fill:#2c2e2f;}.cls-4{filter:url(#filter-2);}.cls-5{filter:url(#filter-3);}.cls-6{opacity:0.5;}.cls-7{fill:#fff;}</style><filter id="filter" x="220.01" y="88.8" width="56.88" height="79.92" filterUnits="userSpaceOnUse"><feOffset input="SourceAlpha"/><feGaussianBlur stdDeviation="1.08" result="blur"/><feFlood flood-color="#1d1d1b"/><feComposite operator="in" in2="blur"/><feComposite in="SourceGraphic"/></filter><filter id="filter-2" x="0.17" y="0" width="117.12" height="70.32" filterUnits="userSpaceOnUse"><feOffset input="SourceAlpha"/><feGaussianBlur stdDeviation="1.08" result="blur-2"/><feFlood flood-color="#1d1d1b"/><feComposite operator="in" in2="blur-2"/><feComposite in="SourceGraphic"/></filter><filter id="filter-3" x="0" y="101.83" width="59.76" height="67.2" filterUnits="userSpaceOnUse"><feOffset input="SourceAlpha"/><feGaussianBlur stdDeviation="1.13" result="blur-3"/><feFlood flood-color="#1d1d1b"/><feComposite operator="in" in2="blur-3"/><feComposite in="SourceGraphic"/></filter></defs><g id="Layer_2" data-name="Layer 2"><g id="BG"><rect class="cls-1" x="3.46" y="3.3" width="270" height="162"/></g><g id="Element"><path class="cls-2" d="M238.93,165.3s-28.48-14.42-8.27-31.55,0-44.26,16-41.37a66.48,66.48,0,0,1,26.83,11.43v61.48Z"/><circle class="cls-3" cx="254.25" cy="23.42" r="19.21"/><rect class="cls-3" x="69.7" y="140.42" width="4.73" height="4.73"/><rect class="cls-3" x="80.85" y="140.42" width="4.73" height="4.73"/><rect class="cls-3" x="92.01" y="140.42" width="4.73" height="4.73"/><path class="cls-4" d="M112.82,3.3s9.06,20.51-25.4,18-25,21.18-32.63,28.3S9.64,30.55,3.48,66.94l0-63.64Z"/><path class="cls-5" d="M3.46,109.46S66.05,83,54.71,165.3H3.46Z"/><g class="cls-6"><circle class="cls-7" cx="7.96" cy="8.12" r="0.68"/><circle class="cls-7" cx="7.96" cy="17.12" r="0.68"/><circle class="cls-7" cx="7.96" cy="26.12" r="0.68"/><circle class="cls-7" cx="7.96" cy="35.12" r="0.68"/><circle class="cls-7" cx="7.96" cy="44.12" r="0.68"/><circle class="cls-7" cx="7.96" cy="53.12" r="0.68"/><circle class="cls-7" cx="7.96" cy="62.12" r="0.68"/><circle class="cls-7" cx="16.96" cy="8.12" r="0.68"/><circle class="cls-7" cx="16.96" cy="17.12" r="0.68"/><circle class="cls-7" cx="16.96" cy="26.12" r="0.68"/><circle class="cls-7" cx="16.96" cy="35.12" r="0.68"/><circle class="cls-7" cx="16.96" cy="44.12" r="0.68"/><circle class="cls-7" cx="16.96" cy="53.12" r="0.68"/><circle class="cls-7" cx="16.96" cy="62.12" r="0.68"/><circle class="cls-7" cx="25.96" cy="8.12" r="0.68"/><circle class="cls-7" cx="25.96" cy="17.12" r="0.68"/><circle class="cls-7" cx="25.96" cy="26.12" r="0.68"/><circle class="cls-7" cx="25.96" cy="35.12" r="0.68"/><circle class="cls-7" cx="25.96" cy="44.12" r="0.68"/><circle class="cls-7" cx="25.96" cy="53.12" r="0.68"/><circle class="cls-7" cx="25.96" cy="62.12" r="0.68"/><circle class="cls-7" cx="34.96" cy="8.12" r="0.68"/><circle class="cls-7" cx="34.96" cy="17.12" r="0.68"/><circle class="cls-7" cx="34.96" cy="26.12" r="0.68"/><circle class="cls-7" cx="34.96" cy="35.12" r="0.68"/><circle class="cls-7" cx="34.96" cy="44.12" r="0.68"/><circle class="cls-7" cx="34.96" cy="53.12" r="0.68"/><circle class="cls-7" cx="34.96" cy="62.12" r="0.68"/></g></g></g></svg>
