<svg xmlns="http://www.w3.org/2000/svg" xmlns:xlink="http://www.w3.org/1999/xlink" viewBox="0 0 270 163.44"><defs><style>.cls-1{fill:none;}.cls-2{fill:url(#linear-gradient);}.cls-3{fill:#fff;}.cls-4{clip-path:url(#clip-path);}.cls-5{filter:url(#filter);}.cls-6,.cls-7{stroke:#fff;stroke-miterlimit:10;}.cls-6{fill:url(#linear-gradient-2);}.cls-7{fill:url(#linear-gradient-3);}</style><linearGradient id="linear-gradient" y1="81.72" x2="270" y2="81.72" gradientTransform="translate(216.72 -53.28) rotate(90)" gradientUnits="userSpaceOnUse"><stop offset="0.78" stop-color="#7768af"/><stop offset="1" stop-color="#594da0"/></linearGradient><clipPath id="clip-path"><rect class="cls-1" x="53.28" y="-53.28" width="163.44" height="270" transform="translate(53.28 216.72) rotate(-90)"/></clipPath><filter id="filter"><feOffset input="SourceAlpha"/><feGaussianBlur stdDeviation="5" result="blur"/><feFlood flood-color="#231f20"/><feComposite operator="in" in2="blur"/><feComposite in="SourceGraphic"/></filter><linearGradient id="linear-gradient-2" x1="135" y1="-184.69" x2="135" y2="-19.95" gradientTransform="translate(53.28 216.72) rotate(-90)" xlink:href="#linear-gradient"/><linearGradient id="linear-gradient-3" x1="135" y1="183.39" x2="135" y2="348.13" gradientTransform="matrix(0, -1, -1, 0, 584.81, 216.72)" xlink:href="#linear-gradient"/></defs><g id="Layer_2" data-name="Layer 2"><g id="_2" data-name="2"><g id="background"><rect class="cls-2" x="53.28" y="-53.28" width="163.44" height="270" transform="translate(53.28 216.72) rotate(-90)"/><rect class="cls-3" x="70.2" y="-37.08" width="129.6" height="237.6" transform="translate(53.28 216.72) rotate(-90)"/><g class="cls-4"><g class="cls-5"><path class="cls-6" d="M-131.41,46.35v70.73a21.11,21.11,0,0,0,10.55,18.29l61.26,35.37a21.13,21.13,0,0,0,21.12,0l61.25-35.37a21.12,21.12,0,0,0,10.56-18.29V46.35A21.12,21.12,0,0,0,22.77,28.07L-38.48-7.3a21.13,21.13,0,0,0-21.12,0l-61.26,35.37A21.11,21.11,0,0,0-131.41,46.35Z"/><path class="cls-7" d="M401.41,46.35v70.73a21.11,21.11,0,0,1-10.55,18.29L329.6,170.74a21.13,21.13,0,0,1-21.12,0l-61.25-35.37a21.12,21.12,0,0,1-10.56-18.29V46.35a21.12,21.12,0,0,1,10.56-18.28L308.48-7.3a21.13,21.13,0,0,1,21.12,0l61.26,35.37A21.11,21.11,0,0,1,401.41,46.35Z"/></g></g></g></g></g></svg>