<svg xmlns="http://www.w3.org/2000/svg" xmlns:xlink="http://www.w3.org/1999/xlink" viewBox="0 0 162 270"><defs><style>.cls-1{fill:#003e4f;}.cls-2{fill:url(#linear-gradient);}.cls-3{fill:url(#linear-gradient-2);}.cls-4{fill:url(#linear-gradient-3);}.cls-5{fill:url(#linear-gradient-4);}.cls-6{fill:#fff;}</style><linearGradient id="linear-gradient" x1="152.55" y1="2.82" x2="44.75" y2="119.67" gradientUnits="userSpaceOnUse"><stop offset="0" stop-color="#00475a"/><stop offset="1" stop-color="#00475a"/></linearGradient><linearGradient id="linear-gradient-2" x1="119.75" y1="196.14" x2="156.06" y2="221.04" xlink:href="#linear-gradient"/><linearGradient id="linear-gradient-3" x1="61.43" y1="47.85" x2="-32.08" y2="124.91" xlink:href="#linear-gradient"/><linearGradient id="linear-gradient-4" x1="20.44" y1="203.34" x2="84.7" y2="295.33" xlink:href="#linear-gradient"/></defs><g id="Layer_2" data-name="Layer 2"><g id="BG"><rect class="cls-1" width="162" height="270"/></g><g id="Element"><path class="cls-2" d="M162,0V87.85A57.9,57.9,0,0,1,146.79,85c-46.7-15.12-63.11,22.77-95.42,20-7.92-.69-16.8-3.81-27.32-10.77C6.46,82.54,11.66,64.26,26.55,45,38.34,29.67,56.24,13.74,73.68,0Z"/><path class="cls-3" d="M162,185.74V244.5a32.65,32.65,0,1,1,0-58.76Z"/><path class="cls-4" d="M56.17,85.35a42.11,42.11,0,0,1-4.8,19.6A42.4,42.4,0,0,1,0,125.38v-80a42.33,42.33,0,0,1,56.17,40Z"/><path class="cls-5" d="M132.64,270H0V201.28c17.24-7.58,45.76-14.16,60.73,15.16C81.24,256.61,118.62,235,132.64,270Z"/><circle class="cls-6" cx="133.65" cy="220.41" r="1.36"/><circle class="cls-6" cx="133.65" cy="230.94" r="1.36"/><circle class="cls-6" cx="133.65" cy="241.47" r="1.36"/><circle class="cls-6" cx="123.12" cy="220.41" r="1.36"/><circle class="cls-6" cx="123.12" cy="230.94" r="1.36"/><circle class="cls-6" cx="123.12" cy="241.47" r="1.36"/><circle class="cls-6" cx="112.59" cy="220.41" r="1.36"/><circle class="cls-6" cx="112.59" cy="230.94" r="1.36"/><circle class="cls-6" cx="112.59" cy="241.47" r="1.36"/><circle class="cls-6" cx="102.06" cy="220.41" r="1.36"/><circle class="cls-6" cx="102.06" cy="230.94" r="1.36"/><circle class="cls-6" cx="102.06" cy="241.47" r="1.36"/><circle class="cls-6" cx="91.53" cy="220.41" r="1.36"/><circle class="cls-6" cx="91.53" cy="230.94" r="1.36"/><circle class="cls-6" cx="91.53" cy="241.47" r="1.36"/><circle class="cls-6" cx="81" cy="220.41" r="1.36"/><circle class="cls-6" cx="81" cy="230.94" r="1.36"/><circle class="cls-6" cx="81" cy="241.47" r="1.36"/><circle class="cls-6" cx="70.47" cy="220.41" r="1.36"/><circle class="cls-6" cx="70.47" cy="230.94" r="1.36"/><circle class="cls-6" cx="70.47" cy="241.47" r="1.36"/><circle class="cls-6" cx="59.94" cy="220.41" r="1.36"/><circle class="cls-6" cx="59.94" cy="230.94" r="1.36"/><circle class="cls-6" cx="59.94" cy="241.47" r="1.36"/><circle class="cls-6" cx="49.42" cy="220.41" r="1.36"/><circle class="cls-6" cx="49.42" cy="230.94" r="1.36"/><circle class="cls-6" cx="49.42" cy="241.47" r="1.36"/><circle class="cls-6" cx="38.89" cy="220.41" r="1.36"/><circle class="cls-6" cx="38.89" cy="230.94" r="1.36"/><circle class="cls-6" cx="38.89" cy="241.47" r="1.36"/><circle class="cls-6" cx="28.36" cy="220.41" r="1.36"/><circle class="cls-6" cx="28.36" cy="230.94" r="1.36"/><circle class="cls-6" cx="28.36" cy="241.47" r="1.36"/></g></g></svg>
