<svg id="visual" viewBox="0 0 900 600" width="900" height="600" xmlns="http://www.w3.org/2000/svg" xmlns:xlink="http://www.w3.org/1999/xlink" version="1.1"><path d="M0 169L82 91L164 157L245 169L327 199L409 115L491 187L573 85L655 91L736 127L818 109L900 175L900 0L818 0L736 0L655 0L573 0L491 0L409 0L327 0L245 0L164 0L82 0L0 0Z" fill="#00cc8e"></path><path d="M0 277L82 139L164 259L245 223L327 241L409 199L491 235L573 133L655 151L736 169L818 199L900 271L900 173L818 107L736 125L655 89L573 83L491 185L409 113L327 197L245 167L164 155L82 89L0 167Z" fill="#00b98a"></path><path d="M0 403L82 361L164 433L245 451L327 379L409 409L491 421L573 379L655 403L736 439L818 379L900 409L900 269L818 197L736 167L655 149L573 131L491 233L409 197L327 239L245 221L164 257L82 137L0 275Z" fill="#00a784"></path><path d="M0 541L82 511L164 523L245 523L327 535L409 517L491 535L573 517L655 559L736 565L818 505L900 535L900 407L818 377L736 437L655 401L573 377L491 419L409 407L327 377L245 449L164 431L82 359L0 401Z" fill="#00957c"></path><path d="M0 601L82 601L164 601L245 601L327 601L409 601L491 601L573 601L655 601L736 601L818 601L900 601L900 533L818 503L736 563L655 557L573 515L491 533L409 515L327 533L245 521L164 521L82 509L0 539Z" fill="#038373"></path></svg>